<svg width="300" height="200" viewBox="0 0 300 200" fill="none" xmlns="http://www.w3.org/2000/svg">
<rect width="300" height="200" rx="12" fill="#F6F8FA"/>
<rect x="0.5" y="0.5" width="299" height="199" rx="11.5" stroke="#D1D9E0" stroke-opacity="0.701961"/>
<rect x="16" y="16" width="40" height="40" rx="8" fill="#818B98" fill-opacity="0.121569"/>
<path d="M38.23 36.004C38.23 36.5968 37.9946 37.1654 37.5754 37.5847C37.1563 38.004 36.5879 38.2397 35.995 38.24C35.402 38.24 34.8332 38.0044 34.4139 37.5851C33.9946 37.1658 33.759 36.597 33.759 36.004C33.759 35.4111 33.9944 34.8426 34.4136 34.4233C34.8327 34.004 35.4011 33.7683 35.994 33.768C36.587 33.768 37.1558 34.0036 37.5751 34.4229C37.9944 34.8422 38.23 35.411 38.23 36.004ZM40.878 25.314C39.532 25.314 37.771 26.274 35.99 27.936C34.21 26.283 32.448 25.334 31.103 25.334C30.693 25.334 30.32 25.427 29.997 25.612C28.622 26.405 28.314 28.876 29.024 31.977C25.98 32.917 24 34.42 24 36.004C24 37.594 25.99 39.101 29.043 40.034C28.339 43.147 28.653 45.622 30.031 46.414C30.351 46.601 30.721 46.689 31.133 46.689C32.478 46.689 34.24 45.729 36.021 44.065C37.801 45.719 39.563 46.668 40.908 46.668C41.318 46.668 41.691 46.578 42.014 46.393C43.388 45.601 43.697 43.13 42.987 40.028C46.02 39.096 48 37.59 48 36.004C48 34.414 46.01 32.907 42.957 31.972C43.661 28.862 43.347 26.385 41.969 25.592C41.651 25.408 41.282 25.315 40.878 25.314ZM40.873 26.404V26.41C41.098 26.41 41.279 26.454 41.431 26.537C42.097 26.919 42.386 28.372 42.161 30.241C42.107 30.701 42.019 31.186 41.911 31.681C40.951 31.445 39.905 31.264 38.804 31.147C38.144 30.242 37.459 29.42 36.769 28.7C38.361 27.22 39.856 26.408 40.874 26.405L40.873 26.404ZM31.103 26.424C32.115 26.424 33.617 27.232 35.213 28.704C34.527 29.424 33.843 30.241 33.193 31.146C32.086 31.263 31.039 31.444 30.08 31.684C29.968 31.194 29.885 30.72 29.826 30.264C29.596 28.396 29.88 26.944 30.54 26.557C30.73 26.467 30.94 26.429 31.103 26.424ZM35.985 29.474C36.44 29.942 36.895 30.466 37.345 31.038C36.905 31.018 36.455 31.004 36 31.004C35.54 31.004 35.085 31.014 34.64 31.038C35.08 30.466 35.535 29.943 35.985 29.474ZM36 32.1C36.74 32.1 37.477 32.134 38.202 32.193C38.608 32.775 39.004 33.396 39.385 34.053C39.757 34.693 40.095 35.343 40.403 35.999C40.095 36.654 39.757 37.309 39.39 37.949C39.01 38.609 38.617 39.237 38.21 39.819C37.482 39.882 36.744 39.917 36 39.917C35.26 39.917 34.523 39.882 33.798 39.824C33.392 39.242 32.996 38.62 32.615 37.964C32.243 37.324 31.905 36.674 31.597 36.018C31.9 35.361 32.243 34.705 32.61 34.064C32.99 33.404 33.383 32.778 33.79 32.196C34.518 32.132 35.256 32.098 36 32.098V32.1ZM32.365 32.354C32.125 32.731 31.885 33.117 31.661 33.514C31.436 33.904 31.226 34.296 31.026 34.688C30.761 34.032 30.536 33.378 30.35 32.741C30.99 32.591 31.665 32.457 32.365 32.354ZM39.625 32.354C40.32 32.457 40.99 32.584 41.631 32.741C41.451 33.373 41.226 34.023 40.971 34.674C40.771 34.284 40.561 33.891 40.331 33.5C40.106 33.108 39.866 32.726 39.626 32.354H39.625ZM42.688 33.029C43.172 33.179 43.632 33.346 44.063 33.527C45.795 34.267 46.915 35.235 46.915 36.003C46.91 36.771 45.79 37.743 44.058 38.478C43.638 38.658 43.178 38.82 42.703 38.971C42.423 38.013 42.057 37.015 41.603 35.991C42.053 34.974 42.413 33.981 42.688 33.027V33.029ZM29.293 33.033C29.571 33.993 29.938 34.99 30.393 36.013C29.943 37.03 29.581 38.023 29.307 38.977C28.823 38.827 28.363 38.659 27.937 38.477C26.205 37.74 25.085 36.771 25.085 36.003C25.085 35.235 26.205 34.261 27.937 33.527C28.357 33.347 28.817 33.185 29.293 33.033ZM40.971 37.313C41.236 37.97 41.461 38.625 41.647 39.261C41.007 39.418 40.331 39.551 39.631 39.651C39.871 39.276 40.111 38.889 40.336 38.493C40.561 38.103 40.77 37.705 40.971 37.313ZM31.026 37.333C31.226 37.725 31.436 38.116 31.666 38.508C31.896 38.898 32.131 39.28 32.371 39.651C31.676 39.549 31.006 39.421 30.365 39.265C30.545 38.635 30.771 37.983 31.025 37.332L31.026 37.333ZM41.92 40.32C42.032 40.813 42.12 41.288 42.174 41.743C42.404 43.611 42.12 45.063 41.46 45.451C41.313 45.541 41.122 45.579 40.897 45.579C39.885 45.579 38.383 44.772 36.787 43.299C37.473 42.579 38.157 41.763 38.807 40.859C39.914 40.741 40.961 40.56 41.92 40.32ZM30.09 40.33C31.05 40.564 32.096 40.745 33.197 40.862C33.857 41.767 34.542 42.589 35.232 43.308C33.637 44.791 32.14 45.603 31.122 45.603C30.902 45.598 30.716 45.553 30.569 45.471C29.903 45.091 29.614 43.637 29.839 41.768C29.893 41.308 29.982 40.824 30.09 40.33ZM34.65 40.97C35.09 40.99 35.54 41.004 35.995 41.004C36.455 41.004 36.91 40.994 37.355 40.97C36.915 41.542 36.46 42.065 36.01 42.535C35.555 42.065 35.1 41.542 34.65 40.97Z" fill="#61DAFB"/>
<path d="M73.4091 41.5V29.8636H77.3409C78.25 29.8636 78.9962 30.0189 79.5795 30.3295C80.1629 30.6364 80.5947 31.0587 80.875 31.5966C81.1553 32.1345 81.2955 32.7462 81.2955 33.4318C81.2955 34.1174 81.1553 34.7254 80.875 35.2557C80.5947 35.786 80.1648 36.2027 79.5852 36.5057C79.0057 36.8049 78.2652 36.9545 77.3636 36.9545H74.1818V35.6818H77.3182C77.9394 35.6818 78.4394 35.5909 78.8182 35.4091C79.2008 35.2273 79.4773 34.9697 79.6477 34.6364C79.822 34.2992 79.9091 33.8977 79.9091 33.4318C79.9091 32.9659 79.822 32.5587 79.6477 32.2102C79.4735 31.8617 79.1951 31.5928 78.8125 31.4034C78.4299 31.2102 77.9242 31.1136 77.2955 31.1136H74.8182V41.5H73.4091ZM78.8864 36.2727L81.75 41.5H80.1136L77.2955 36.2727H78.8864ZM87.027 41.6818C86.1861 41.6818 85.4607 41.4962 84.8509 41.125C84.2448 40.75 83.777 40.2273 83.4474 39.5568C83.1217 38.8826 82.9588 38.0985 82.9588 37.2045C82.9588 36.3106 83.1217 35.5227 83.4474 34.8409C83.777 34.1553 84.2353 33.6212 84.8224 33.2386C85.4134 32.8523 86.1027 32.6591 86.8906 32.6591C87.3452 32.6591 87.794 32.7348 88.2372 32.8864C88.6804 33.0379 89.0838 33.2841 89.4474 33.625C89.8111 33.9621 90.1009 34.4091 90.3168 34.9659C90.5327 35.5227 90.6406 36.2083 90.6406 37.0227V37.5909H83.9134V36.4318H89.277C89.277 35.9394 89.1785 35.5 88.9815 35.1136C88.7884 34.7273 88.5118 34.4223 88.152 34.1989C87.7959 33.9754 87.3755 33.8636 86.8906 33.8636C86.3565 33.8636 85.8944 33.9962 85.5043 34.2614C85.1179 34.5227 84.8205 34.8636 84.6122 35.2841C84.4039 35.7045 84.2997 36.1553 84.2997 36.6364V37.4091C84.2997 38.0682 84.4134 38.6269 84.6406 39.0852C84.8717 39.5398 85.1918 39.8864 85.6009 40.125C86.0099 40.3598 86.4853 40.4773 87.027 40.4773C87.3793 40.4773 87.6974 40.428 87.9815 40.3295C88.2694 40.2273 88.5175 40.0758 88.7259 39.875C88.9342 39.6705 89.0952 39.4167 89.2088 39.1136L90.5043 39.4773C90.3679 39.9167 90.1387 40.303 89.8168 40.6364C89.4948 40.9659 89.0971 41.2235 88.6236 41.4091C88.1501 41.5909 87.6179 41.6818 87.027 41.6818ZM95.2486 41.7045C94.6955 41.7045 94.1937 41.6004 93.7429 41.392C93.2921 41.1799 92.9342 40.875 92.669 40.4773C92.4039 40.0758 92.2713 39.5909 92.2713 39.0227C92.2713 38.5227 92.3698 38.1174 92.5668 37.8068C92.7637 37.4924 93.027 37.2462 93.3565 37.0682C93.6861 36.8902 94.0497 36.7576 94.4474 36.6705C94.849 36.5795 95.2524 36.5076 95.6577 36.4545C96.188 36.3864 96.6179 36.3352 96.9474 36.3011C97.2808 36.2633 97.5232 36.2008 97.6747 36.1136C97.83 36.0265 97.9077 35.875 97.9077 35.6591V35.6136C97.9077 35.053 97.7543 34.6174 97.4474 34.3068C97.1444 33.9962 96.6842 33.8409 96.0668 33.8409C95.4266 33.8409 94.9247 33.9811 94.5611 34.2614C94.1974 34.5417 93.9418 34.8409 93.794 35.1591L92.5213 34.7045C92.7486 34.1742 93.0516 33.7614 93.4304 33.4659C93.813 33.1667 94.2296 32.9583 94.6804 32.8409C95.1349 32.7197 95.5819 32.6591 96.0213 32.6591C96.3016 32.6591 96.6236 32.6932 96.9872 32.7614C97.3546 32.8258 97.7088 32.9602 98.0497 33.1648C98.3944 33.3693 98.6804 33.678 98.9077 34.0909C99.1349 34.5038 99.2486 35.0568 99.2486 35.75V41.5H97.9077V40.3182H97.8395C97.7486 40.5076 97.5971 40.7102 97.3849 40.9261C97.1728 41.142 96.8906 41.3258 96.5384 41.4773C96.1861 41.6288 95.7562 41.7045 95.2486 41.7045ZM95.4531 40.5C95.9834 40.5 96.4304 40.3958 96.794 40.1875C97.1615 39.9792 97.438 39.7102 97.6236 39.3807C97.813 39.0511 97.9077 38.7045 97.9077 38.3409V37.1136C97.8509 37.1818 97.7259 37.2443 97.5327 37.3011C97.3433 37.3542 97.1236 37.4015 96.8736 37.4432C96.6274 37.4811 96.3868 37.5152 96.152 37.5455C95.9209 37.572 95.7334 37.5947 95.5895 37.6136C95.241 37.6591 94.9152 37.733 94.6122 37.8352C94.313 37.9337 94.0705 38.0833 93.8849 38.2841C93.7031 38.4811 93.6122 38.75 93.6122 39.0909C93.6122 39.5568 93.7846 39.9091 94.1293 40.1477C94.4777 40.3826 94.919 40.5 95.4531 40.5ZM105.241 41.6818C104.423 41.6818 103.719 41.4886 103.128 41.1023C102.537 40.7159 102.082 40.1837 101.764 39.5057C101.446 38.8277 101.287 38.053 101.287 37.1818C101.287 36.2955 101.45 35.5133 101.776 34.8352C102.105 34.1534 102.563 33.6212 103.151 33.2386C103.741 32.8523 104.431 32.6591 105.219 32.6591C105.832 32.6591 106.385 32.7727 106.878 33C107.37 33.2273 107.774 33.5455 108.088 33.9545C108.402 34.3636 108.598 34.8409 108.673 35.3864H107.332C107.23 34.9886 107.003 34.6364 106.651 34.3295C106.302 34.0189 105.832 33.8636 105.241 33.8636C104.719 33.8636 104.26 34 103.866 34.2727C103.476 34.5417 103.171 34.9223 102.952 35.4148C102.736 35.9034 102.628 36.4773 102.628 37.1364C102.628 37.8106 102.734 38.3977 102.946 38.8977C103.162 39.3977 103.465 39.786 103.855 40.0625C104.249 40.339 104.711 40.4773 105.241 40.4773C105.59 40.4773 105.906 40.4167 106.19 40.2955C106.474 40.1742 106.715 40 106.912 39.7727C107.109 39.5455 107.249 39.2727 107.332 38.9545H108.673C108.598 39.4697 108.41 39.9337 108.111 40.3466C107.815 40.7557 107.423 41.0814 106.935 41.3239C106.45 41.5625 105.885 41.6818 105.241 41.6818ZM114.429 32.7727V33.9091H109.906V32.7727H114.429ZM111.224 30.6818H112.565V39C112.565 39.3788 112.62 39.6629 112.73 39.8523C112.844 40.0379 112.988 40.1629 113.162 40.2273C113.34 40.2879 113.527 40.3182 113.724 40.3182C113.872 40.3182 113.993 40.3106 114.088 40.2955C114.183 40.2765 114.259 40.2614 114.315 40.25L114.588 41.4545C114.497 41.4886 114.37 41.5227 114.207 41.5568C114.045 41.5947 113.838 41.6136 113.588 41.6136C113.209 41.6136 112.838 41.5322 112.474 41.3693C112.115 41.2064 111.815 40.9583 111.577 40.625C111.342 40.2917 111.224 39.8712 111.224 39.3636V30.6818Z" fill="#333333"/>
<g clip-path="url(#clip0_8_3)">
<path d="M17.233 84V73.8182H20.6733C21.4688 73.8182 22.1217 73.9541 22.6321 74.2259C23.1425 74.4943 23.5204 74.8639 23.7656 75.3345C24.0109 75.8052 24.1335 76.3404 24.1335 76.9403C24.1335 77.5402 24.0109 78.0722 23.7656 78.5362C23.5204 79.0002 23.1442 79.3648 22.6371 79.63C22.13 79.8918 21.482 80.0227 20.6932 80.0227H17.9091V78.9091H20.6534C21.197 78.9091 21.6345 78.8295 21.9659 78.6705C22.3007 78.5114 22.5426 78.286 22.6918 77.9943C22.8442 77.6993 22.9205 77.348 22.9205 76.9403C22.9205 76.5327 22.8442 76.1764 22.6918 75.8714C22.5393 75.5665 22.2957 75.3312 21.9609 75.1655C21.6262 74.9964 21.1837 74.9119 20.6335 74.9119H18.4659V84H17.233ZM22.0256 79.4261L24.5312 84H23.0994L20.6335 79.4261H22.0256ZM29.1486 84.1591C28.4128 84.1591 27.7781 83.9967 27.2445 83.6719C26.7142 83.3438 26.3049 82.8864 26.0165 82.2997C25.7315 81.7098 25.589 81.0237 25.589 80.2415C25.589 79.4593 25.7315 78.7699 26.0165 78.1733C26.3049 77.5734 26.7059 77.1061 27.2196 76.7713C27.7367 76.4332 28.3399 76.2642 29.0293 76.2642C29.427 76.2642 29.8198 76.3305 30.2076 76.4631C30.5953 76.5956 30.9483 76.8111 31.2665 77.1094C31.5847 77.4044 31.8382 77.7955 32.0272 78.2827C32.2161 78.7699 32.3105 79.3698 32.3105 80.0824V80.5795H26.4242V79.5653H31.1174C31.1174 79.1345 31.0312 78.75 30.8588 78.4119C30.6898 78.0739 30.4479 77.8071 30.133 77.6115C29.8214 77.416 29.4535 77.3182 29.0293 77.3182C28.562 77.3182 28.1576 77.4342 27.8162 77.6662C27.4782 77.8949 27.218 78.1932 27.0357 78.5611C26.8534 78.929 26.7623 79.3234 26.7623 79.7443V80.4205C26.7623 80.9972 26.8617 81.486 27.0605 81.8871C27.2627 82.2848 27.5428 82.5881 27.9007 82.7969C28.2587 83.0024 28.6747 83.1051 29.1486 83.1051C29.4569 83.1051 29.7353 83.062 29.9838 82.9759C30.2357 82.8864 30.4528 82.7538 30.6351 82.5781C30.8174 82.3991 30.9583 82.1771 31.0577 81.9119L32.1912 82.2301C32.0719 82.6146 31.8714 82.9527 31.5897 83.2443C31.3079 83.5327 30.9599 83.758 30.5456 83.9205C30.1313 84.0795 29.6657 84.1591 29.1486 84.1591ZM36.3425 84.179C35.8586 84.179 35.4194 84.0878 35.025 83.9055C34.6306 83.7199 34.3174 83.4531 34.0854 83.1051C33.8534 82.7538 33.7374 82.3295 33.7374 81.8324C33.7374 81.3949 33.8236 81.0402 33.9959 80.7685C34.1683 80.4934 34.3986 80.2779 34.687 80.1222C34.9753 79.9664 35.2935 79.8504 35.6415 79.7741C35.9928 79.6946 36.3458 79.6316 36.7005 79.5852C37.1645 79.5256 37.5407 79.4808 37.829 79.451C38.1207 79.4179 38.3328 79.3632 38.4654 79.2869C38.6013 79.2107 38.6692 79.0781 38.6692 78.8892V78.8494C38.6692 78.3589 38.535 77.9777 38.2665 77.706C38.0014 77.4342 37.5987 77.2983 37.0584 77.2983C36.4983 77.2983 36.0591 77.4209 35.7409 77.6662C35.4228 77.9115 35.199 78.1733 35.0698 78.4517L33.9561 78.054C34.155 77.59 34.4202 77.2287 34.7516 76.9702C35.0864 76.7083 35.4509 76.526 35.8453 76.4233C36.2431 76.3172 36.6342 76.2642 37.0186 76.2642C37.2639 76.2642 37.5456 76.294 37.8638 76.3537C38.1853 76.41 38.4952 76.5277 38.7935 76.7067C39.0951 76.8857 39.3453 77.1558 39.5442 77.517C39.7431 77.8783 39.8425 78.3622 39.8425 78.9688V84H38.6692V82.9659H38.6096C38.53 83.1316 38.3974 83.3089 38.2118 83.4979C38.0262 83.6868 37.7793 83.8475 37.4711 83.9801C37.1628 84.1127 36.7866 84.179 36.3425 84.179ZM36.5215 83.125C36.9855 83.125 37.3766 83.0339 37.6948 82.8516C38.0163 82.6693 38.2582 82.4339 38.4206 82.1456C38.5864 81.8572 38.6692 81.554 38.6692 81.2358V80.1619C38.6195 80.2216 38.5101 80.2763 38.3411 80.326C38.1754 80.3724 37.9831 80.4138 37.7644 80.4503C37.5489 80.4834 37.3385 80.5133 37.133 80.5398C36.9308 80.563 36.7667 80.5829 36.6408 80.5994C36.3359 80.6392 36.0508 80.7038 35.7857 80.7933C35.5239 80.8795 35.3117 81.0104 35.1493 81.1861C34.9902 81.3584 34.9107 81.5937 34.9107 81.892C34.9107 82.2997 35.0615 82.608 35.3631 82.8168C35.668 83.0223 36.0542 83.125 36.5215 83.125ZM45.0863 84.1591C44.3704 84.1591 43.7539 83.9901 43.2369 83.652C42.7198 83.3139 42.3221 82.8482 42.0437 82.255C41.7653 81.6617 41.6261 80.9839 41.6261 80.2216C41.6261 79.446 41.7686 78.7616 42.0536 78.1683C42.342 77.5717 42.743 77.1061 43.2567 76.7713C43.7738 76.4332 44.377 76.2642 45.0664 76.2642C45.6033 76.2642 46.0872 76.3636 46.5181 76.5625C46.949 76.7614 47.302 77.0398 47.5771 77.3977C47.8522 77.7557 48.0228 78.1733 48.0891 78.6506H46.9158C46.8263 78.3026 46.6275 77.9943 46.3192 77.7259C46.0143 77.4541 45.6033 77.3182 45.0863 77.3182C44.6289 77.3182 44.2279 77.4375 43.8832 77.6761C43.5418 77.9115 43.275 78.2446 43.0827 78.6754C42.8938 79.103 42.7994 79.6051 42.7994 80.1818C42.7994 80.7718 42.8922 81.2855 43.0778 81.723C43.2667 82.1605 43.5318 82.5002 43.8732 82.7422C44.2179 82.9841 44.6223 83.1051 45.0863 83.1051C45.3912 83.1051 45.668 83.0521 45.9165 82.946C46.1651 82.84 46.3756 82.6875 46.5479 82.4886C46.7203 82.2898 46.8429 82.0511 46.9158 81.7727H48.0891C48.0228 82.2235 47.8588 82.6295 47.5969 82.9908C47.3384 83.3487 46.9954 83.6338 46.5678 83.8459C46.1436 84.0547 45.6497 84.1591 45.0863 84.1591ZM53.1254 76.3636V77.358H49.168V76.3636H53.1254ZM50.3214 74.5341H51.4947V81.8125C51.4947 82.1439 51.5427 82.3925 51.6388 82.5582C51.7383 82.7206 51.8642 82.83 52.0167 82.8864C52.1725 82.9394 52.3365 82.9659 52.5089 82.9659C52.6381 82.9659 52.7442 82.9593 52.8271 82.946C52.9099 82.9295 52.9762 82.9162 53.0259 82.9062L53.2646 83.9602C53.185 83.9901 53.074 84.0199 52.9315 84.0497C52.7889 84.0829 52.6083 84.0994 52.3896 84.0994C52.0581 84.0994 51.7333 84.0282 51.4151 83.8857C51.1003 83.7431 50.8384 83.526 50.6296 83.2344C50.4241 82.9427 50.3214 82.5748 50.3214 82.1307V74.5341ZM56.6403 82.608L56.5607 83.1449C56.5044 83.5227 56.4182 83.9271 56.3022 84.358C56.1895 84.7888 56.0719 85.1948 55.9492 85.576C55.8266 85.9571 55.7255 86.2604 55.646 86.4858H54.7511C54.7942 86.2737 54.8505 85.9936 54.9201 85.6456C54.9897 85.2976 55.0593 84.9081 55.1289 84.4773C55.2018 84.0497 55.2615 83.6122 55.3079 83.1648L55.3675 82.608H56.6403ZM66.0726 76.3636V77.358H62.1152V76.3636H66.0726ZM63.2686 74.5341H64.4419V81.8125C64.4419 82.1439 64.49 82.3925 64.5861 82.5582C64.6855 82.7206 64.8115 82.83 64.964 82.8864C65.1197 82.9394 65.2838 82.9659 65.4561 82.9659C65.5854 82.9659 65.6915 82.9593 65.7743 82.946C65.8572 82.9295 65.9235 82.9162 65.9732 82.9062L66.2118 83.9602C66.1323 83.9901 66.0212 84.0199 65.8787 84.0497C65.7362 84.0829 65.5556 84.0994 65.3368 84.0994C65.0054 84.0994 64.6806 84.0282 64.3624 83.8857C64.0475 83.7431 63.7857 83.526 63.5769 83.2344C63.3714 82.9427 63.2686 82.5748 63.2686 82.1307V74.5341ZM73.1099 78.0739L72.0559 78.3722C71.9896 78.1965 71.8919 78.0258 71.7626 77.8601C71.6367 77.6911 71.4643 77.5518 71.2456 77.4425C71.0268 77.3331 70.7467 77.2784 70.4054 77.2784C69.938 77.2784 69.5486 77.3861 69.237 77.6016C68.9288 77.8137 68.7747 78.0838 68.7747 78.4119C68.7747 78.7036 68.8807 78.9339 69.0929 79.103C69.305 79.272 69.6364 79.4129 70.0872 79.5256L71.2207 79.804C71.9035 79.9697 72.4122 80.2232 72.747 80.5646C73.0817 80.9027 73.2491 81.3385 73.2491 81.8722C73.2491 82.3097 73.1232 82.7008 72.8713 83.0455C72.6227 83.3902 72.2747 83.6619 71.8272 83.8608C71.3798 84.0597 70.8594 84.1591 70.2662 84.1591C69.4873 84.1591 68.8426 83.9901 68.3322 83.652C67.8218 83.3139 67.4986 82.8201 67.3627 82.1705L68.4764 81.892C68.5824 82.303 68.783 82.6113 69.0779 82.8168C69.3762 83.0223 69.7657 83.125 70.2463 83.125C70.7931 83.125 71.2273 83.009 71.5488 82.777C71.8736 82.5417 72.036 82.2599 72.036 81.9318C72.036 81.6667 71.9432 81.4446 71.7576 81.2656C71.572 81.0833 71.287 80.9474 70.9025 80.858L69.6298 80.5597C68.9305 80.3939 68.4167 80.1371 68.0886 79.7891C67.7638 79.4377 67.6014 78.9986 67.6014 78.4716C67.6014 78.0407 67.7224 77.6596 67.9643 77.3281C68.2096 76.9967 68.5427 76.7365 68.9636 76.5476C69.3878 76.3587 69.8684 76.2642 70.4054 76.2642C71.161 76.2642 71.7543 76.4299 72.1852 76.7614C72.6194 77.0928 72.9276 77.5303 73.1099 78.0739ZM75.8903 76.3636L77.7198 79.4858L79.5494 76.3636H80.9016L78.4357 80.1818L80.9016 84H79.5494L77.7198 81.0369L75.8903 84H74.538L76.9641 80.1818L74.538 76.3636H75.8903ZM84.3258 82.608L84.2463 83.1449C84.1899 83.5227 84.1038 83.9271 83.9877 84.358C83.8751 84.7888 83.7574 85.1948 83.6348 85.576C83.5121 85.9571 83.411 86.2604 83.3315 86.4858H82.4366C82.4797 86.2737 82.536 85.9936 82.6056 85.6456C82.6752 85.2976 82.7449 84.9081 82.8145 84.4773C82.8874 84.0497 82.947 83.6122 82.9934 83.1648L83.0531 82.608H84.3258ZM90.5962 84V73.8182H94.0366C94.832 73.8182 95.485 73.9541 95.9954 74.2259C96.5058 74.4943 96.8836 74.8639 97.1289 75.3345C97.3742 75.8052 97.4968 76.3404 97.4968 76.9403C97.4968 77.5402 97.3742 78.0722 97.1289 78.5362C96.8836 79.0002 96.5075 79.3648 96.0004 79.63C95.4933 79.8918 94.8453 80.0227 94.0565 80.0227H91.2724V78.9091H94.0167C94.5603 78.9091 94.9978 78.8295 95.3292 78.6705C95.6639 78.5114 95.9059 78.286 96.055 77.9943C96.2075 77.6993 96.2837 77.348 96.2837 76.9403C96.2837 76.5327 96.2075 76.1764 96.055 75.8714C95.9026 75.5665 95.659 75.3312 95.3242 75.1655C94.9895 74.9964 94.547 74.9119 93.9968 74.9119H91.8292V84H90.5962ZM95.3888 79.4261L97.8945 84H96.4627L93.9968 79.4261H95.3888ZM102.512 84.1591C101.776 84.1591 101.141 83.9967 100.608 83.6719C100.077 83.3438 99.6681 82.8864 99.3798 82.2997C99.0948 81.7098 98.9522 81.0237 98.9522 80.2415C98.9522 79.4593 99.0948 78.7699 99.3798 78.1733C99.6681 77.5734 100.069 77.1061 100.583 76.7713C101.1 76.4332 101.703 76.2642 102.393 76.2642C102.79 76.2642 103.183 76.3305 103.571 76.4631C103.959 76.5956 104.312 76.8111 104.63 77.1094C104.948 77.4044 105.202 77.7955 105.39 78.2827C105.579 78.7699 105.674 79.3698 105.674 80.0824V80.5795H99.7875V79.5653H104.481C104.481 79.1345 104.394 78.75 104.222 78.4119C104.053 78.0739 103.811 77.8071 103.496 77.6115C103.185 77.416 102.817 77.3182 102.393 77.3182C101.925 77.3182 101.521 77.4342 101.18 77.6662C100.841 77.8949 100.581 78.1932 100.399 78.5611C100.217 78.929 100.126 79.3234 100.126 79.7443V80.4205C100.126 80.9972 100.225 81.486 100.424 81.8871C100.626 82.2848 100.906 82.5881 101.264 82.7969C101.622 83.0024 102.038 83.1051 102.512 83.1051C102.82 83.1051 103.099 83.062 103.347 82.9759C103.599 82.8864 103.816 82.7538 103.998 82.5781C104.181 82.3991 104.322 82.1771 104.421 81.9119L105.555 82.2301C105.435 82.6146 105.235 82.9527 104.953 83.2443C104.671 83.5327 104.323 83.758 103.909 83.9205C103.495 84.0795 103.029 84.1591 102.512 84.1591ZM109.706 84.179C109.222 84.179 108.783 84.0878 108.388 83.9055C107.994 83.7199 107.681 83.4531 107.449 83.1051C107.217 82.7538 107.101 82.3295 107.101 81.8324C107.101 81.3949 107.187 81.0402 107.359 80.7685C107.532 80.4934 107.762 80.2779 108.05 80.1222C108.339 79.9664 108.657 79.8504 109.005 79.7741C109.356 79.6946 109.709 79.6316 110.064 79.5852C110.528 79.5256 110.904 79.4808 111.192 79.451C111.484 79.4179 111.696 79.3632 111.829 79.2869C111.965 79.2107 112.032 79.0781 112.032 78.8892V78.8494C112.032 78.3589 111.898 77.9777 111.63 77.706C111.365 77.4342 110.962 77.2983 110.422 77.2983C109.862 77.2983 109.422 77.4209 109.104 77.6662C108.786 77.9115 108.562 78.1733 108.433 78.4517L107.319 78.054C107.518 77.59 107.783 77.2287 108.115 76.9702C108.45 76.7083 108.814 76.526 109.209 76.4233C109.606 76.3172 109.997 76.2642 110.382 76.2642C110.627 76.2642 110.909 76.294 111.227 76.3537C111.549 76.41 111.858 76.5277 112.157 76.7067C112.458 76.8857 112.709 77.1558 112.907 77.517C113.106 77.8783 113.206 78.3622 113.206 78.9688V84H112.032V82.9659H111.973C111.893 83.1316 111.761 83.3089 111.575 83.4979C111.39 83.6868 111.143 83.8475 110.834 83.9801C110.526 84.1127 110.15 84.179 109.706 84.179ZM109.885 83.125C110.349 83.125 110.74 83.0339 111.058 82.8516C111.38 82.6693 111.622 82.4339 111.784 82.1456C111.95 81.8572 112.032 81.554 112.032 81.2358V80.1619C111.983 80.2216 111.873 80.2763 111.704 80.326C111.539 80.3724 111.346 80.4138 111.128 80.4503C110.912 80.4834 110.702 80.5133 110.496 80.5398C110.294 80.563 110.13 80.5829 110.004 80.5994C109.699 80.6392 109.414 80.7038 109.149 80.7933C108.887 80.8795 108.675 81.0104 108.513 81.1861C108.354 81.3584 108.274 81.5937 108.274 81.892C108.274 82.2997 108.425 82.608 108.726 82.8168C109.031 83.0223 109.417 83.125 109.885 83.125ZM118.45 84.1591C117.734 84.1591 117.117 83.9901 116.6 83.652C116.083 83.3139 115.685 82.8482 115.407 82.255C115.129 81.6617 114.989 80.9839 114.989 80.2216C114.989 79.446 115.132 78.7616 115.417 78.1683C115.705 77.5717 116.106 77.1061 116.62 76.7713C117.137 76.4332 117.74 76.2642 118.43 76.2642C118.967 76.2642 119.451 76.3636 119.881 76.5625C120.312 76.7614 120.665 77.0398 120.94 77.3977C121.215 77.7557 121.386 78.1733 121.452 78.6506H120.279C120.19 78.3026 119.991 77.9943 119.683 77.7259C119.378 77.4541 118.967 77.3182 118.45 77.3182C117.992 77.3182 117.591 77.4375 117.246 77.6761C116.905 77.9115 116.638 78.2446 116.446 78.6754C116.257 79.103 116.163 79.6051 116.163 80.1818C116.163 80.7718 116.255 81.2855 116.441 81.723C116.63 82.1605 116.895 82.5002 117.237 82.7422C117.581 82.9841 117.986 83.1051 118.45 83.1051C118.754 83.1051 119.031 83.0521 119.28 82.946C119.528 82.84 119.739 82.6875 119.911 82.4886C120.084 82.2898 120.206 82.0511 120.279 81.7727H121.452C121.386 82.2235 121.222 82.6295 120.96 82.9908C120.702 83.3487 120.359 83.6338 119.931 83.8459C119.507 84.0547 119.013 84.1591 118.45 84.1591ZM126.489 76.3636V77.358H122.531V76.3636H126.489ZM123.685 74.5341H124.858V81.8125C124.858 82.1439 124.906 82.3925 125.002 82.5582C125.102 82.7206 125.228 82.83 125.38 82.8864C125.536 82.9394 125.7 82.9659 125.872 82.9659C126.001 82.9659 126.107 82.9593 126.19 82.946C126.273 82.9295 126.339 82.9162 126.389 82.9062L126.628 83.9602C126.548 83.9901 126.437 84.0199 126.295 84.0497C126.152 84.0829 125.972 84.0994 125.753 84.0994C125.421 84.0994 125.097 84.0282 124.778 83.8857C124.464 83.7431 124.202 83.526 123.993 83.2344C123.787 82.9427 123.685 82.5748 123.685 82.1307V74.5341ZM132.35 84V73.8182H135.79C136.586 73.8182 137.239 73.9541 137.749 74.2259C138.26 74.4943 138.638 74.8639 138.883 75.3345C139.128 75.8052 139.251 76.3404 139.251 76.9403C139.251 77.5402 139.128 78.0722 138.883 78.5362C138.638 79.0002 138.261 79.3648 137.754 79.63C137.247 79.8918 136.599 80.0227 135.81 80.0227H133.026V78.9091H135.771C136.314 78.9091 136.752 78.8295 137.083 78.6705C137.418 78.5114 137.66 78.286 137.809 77.9943C137.961 77.6993 138.038 77.348 138.038 76.9403C138.038 76.5327 137.961 76.1764 137.809 75.8714C137.656 75.5665 137.413 75.3312 137.078 75.1655C136.743 74.9964 136.301 74.9119 135.751 74.9119H133.583V84H132.35ZM137.143 79.4261L139.648 84H138.217L135.751 79.4261H137.143ZM144.166 84.1591C143.477 84.1591 142.872 83.995 142.352 83.6669C141.835 83.3388 141.43 82.8797 141.139 82.2898C140.85 81.6998 140.706 81.0104 140.706 80.2216C140.706 79.4261 140.85 78.7318 141.139 78.1385C141.43 77.5452 141.835 77.0845 142.352 76.7564C142.872 76.4283 143.477 76.2642 144.166 76.2642C144.856 76.2642 145.459 76.4283 145.976 76.7564C146.496 77.0845 146.901 77.5452 147.189 78.1385C147.481 78.7318 147.627 79.4261 147.627 80.2216C147.627 81.0104 147.481 81.6998 147.189 82.2898C146.901 82.8797 146.496 83.3388 145.976 83.6669C145.459 83.995 144.856 84.1591 144.166 84.1591ZM144.166 83.1051C144.69 83.1051 145.121 82.9709 145.459 82.7024C145.797 82.4339 146.047 82.081 146.21 81.6435C146.372 81.206 146.453 80.732 146.453 80.2216C146.453 79.7112 146.372 79.2356 146.21 78.7947C146.047 78.3539 145.797 77.9976 145.459 77.7259C145.121 77.4541 144.69 77.3182 144.166 77.3182C143.643 77.3182 143.212 77.4541 142.874 77.7259C142.536 77.9976 142.285 78.3539 142.123 78.7947C141.961 79.2356 141.879 79.7112 141.879 80.2216C141.879 80.732 141.961 81.206 142.123 81.6435C142.285 82.081 142.536 82.4339 142.874 82.7024C143.212 82.9709 143.643 83.1051 144.166 83.1051ZM154.23 80.8778V76.3636H155.403V84H154.23V82.7074H154.151C153.972 83.0952 153.693 83.425 153.315 83.6967C152.938 83.9652 152.46 84.0994 151.884 84.0994C151.406 84.0994 150.982 83.995 150.611 83.7862C150.24 83.5741 149.948 83.2559 149.736 82.8317C149.524 82.4041 149.418 81.8655 149.418 81.2159V76.3636H150.591V81.1364C150.591 81.6932 150.747 82.1373 151.058 82.4688C151.373 82.8002 151.774 82.9659 152.261 82.9659C152.553 82.9659 152.85 82.8913 153.151 82.7422C153.456 82.593 153.711 82.3643 153.917 82.0561C154.126 81.7479 154.23 81.3551 154.23 80.8778ZM160.873 76.3636V77.358H156.916V76.3636H160.873ZM158.069 74.5341H159.243V81.8125C159.243 82.1439 159.291 82.3925 159.387 82.5582C159.486 82.7206 159.612 82.83 159.765 82.8864C159.921 82.9394 160.085 82.9659 160.257 82.9659C160.386 82.9659 160.492 82.9593 160.575 82.946C160.658 82.9295 160.724 82.9162 160.774 82.9062L161.013 83.9602C160.933 83.9901 160.822 84.0199 160.68 84.0497C160.537 84.0829 160.356 84.0994 160.138 84.0994C159.806 84.0994 159.481 84.0282 159.163 83.8857C158.848 83.7431 158.586 83.526 158.378 83.2344C158.172 82.9427 158.069 82.5748 158.069 82.1307V74.5341ZM165.758 84.1591C165.022 84.1591 164.387 83.9967 163.854 83.6719C163.324 83.3438 162.914 82.8864 162.626 82.2997C162.341 81.7098 162.198 81.0237 162.198 80.2415C162.198 79.4593 162.341 78.7699 162.626 78.1733C162.914 77.5734 163.315 77.1061 163.829 76.7713C164.346 76.4332 164.949 76.2642 165.639 76.2642C166.036 76.2642 166.429 76.3305 166.817 76.4631C167.205 76.5956 167.558 76.8111 167.876 77.1094C168.194 77.4044 168.448 77.7955 168.637 78.2827C168.825 78.7699 168.92 79.3698 168.92 80.0824V80.5795H163.034V79.5653H167.727C167.727 79.1345 167.641 78.75 167.468 78.4119C167.299 78.0739 167.057 77.8071 166.742 77.6115C166.431 77.416 166.063 77.3182 165.639 77.3182C165.171 77.3182 164.767 77.4342 164.426 77.6662C164.088 77.8949 163.827 78.1932 163.645 78.5611C163.463 78.929 163.372 79.3234 163.372 79.7443V80.4205C163.372 80.9972 163.471 81.486 163.67 81.8871C163.872 82.2848 164.152 82.5881 164.51 82.7969C164.868 83.0024 165.284 83.1051 165.758 83.1051C166.066 83.1051 166.345 83.062 166.593 82.9759C166.845 82.8864 167.062 82.7538 167.244 82.5781C167.427 82.3991 167.568 82.1771 167.667 81.9119L168.801 82.2301C168.681 82.6146 168.481 82.9527 168.199 83.2443C167.917 83.5327 167.569 83.758 167.155 83.9205C166.741 84.0795 166.275 84.1591 165.758 84.1591ZM170.705 84V76.3636H171.838V77.517H171.918C172.057 77.1392 172.309 76.8326 172.673 76.5973C173.038 76.362 173.449 76.2443 173.906 76.2443C173.993 76.2443 174.1 76.246 174.23 76.2493C174.359 76.2526 174.457 76.2576 174.523 76.2642V77.4574C174.483 77.4474 174.392 77.4325 174.249 77.4126C174.11 77.3894 173.963 77.3778 173.807 77.3778C173.436 77.3778 173.104 77.4557 172.813 77.6115C172.524 77.764 172.296 77.9761 172.127 78.2479C171.961 78.5163 171.878 78.8229 171.878 79.1676V84H170.705ZM176.789 82.608L176.709 83.1449C176.653 83.5227 176.567 83.9271 176.451 84.358C176.338 84.7888 176.22 85.1948 176.098 85.576C175.975 85.9571 175.874 86.2604 175.794 86.4858H174.9C174.943 86.2737 174.999 85.9936 175.069 85.6456C175.138 85.2976 175.208 84.9081 175.277 84.4773C175.35 84.0497 175.41 83.6122 175.456 83.1648L175.516 82.608H176.789ZM17.233 105V94.8182H20.6733C21.4721 94.8182 22.125 94.9624 22.6321 95.2507C23.1425 95.5357 23.5204 95.9219 23.7656 96.4091C24.0109 96.8963 24.1335 97.4399 24.1335 98.0398C24.1335 98.6397 24.0109 99.1849 23.7656 99.6754C23.5237 100.166 23.1491 100.557 22.642 100.849C22.1349 101.137 21.4853 101.281 20.6932 101.281H18.2273V100.188H20.6534C21.2003 100.188 21.6394 100.093 21.9709 99.9041C22.3023 99.7152 22.5426 99.46 22.6918 99.1385C22.8442 98.8137 22.9205 98.4474 22.9205 98.0398C22.9205 97.6321 22.8442 97.2675 22.6918 96.946C22.5426 96.6245 22.3007 96.3726 21.9659 96.1903C21.6312 96.0047 21.187 95.9119 20.6335 95.9119H18.4659V105H17.233ZM25.9606 105V97.3636H27.1339V105H25.9606ZM26.5572 96.0909C26.3285 96.0909 26.1313 96.013 25.9656 95.8572C25.8031 95.7015 25.7219 95.5142 25.7219 95.2955C25.7219 95.0767 25.8031 94.8894 25.9656 94.7337C26.1313 94.5779 26.3285 94.5 26.5572 94.5C26.7859 94.5 26.9814 94.5779 27.1438 94.7337C27.3095 94.8894 27.3924 95.0767 27.3924 95.2955C27.3924 95.5142 27.3095 95.7015 27.1438 95.8572C26.9814 96.013 26.7859 96.0909 26.5572 96.0909ZM30.1578 97.3636L31.9874 100.486L33.8169 97.3636H35.1692L32.7033 101.182L35.1692 105H33.8169L31.9874 102.037L30.1578 105H28.8056L31.2317 101.182L28.8056 97.3636H30.1578ZM36.8434 105V97.3636H38.0167V105H36.8434ZM37.44 96.0909C37.2113 96.0909 37.0141 96.013 36.8484 95.8572C36.686 95.7015 36.6048 95.5142 36.6048 95.2955C36.6048 95.0767 36.686 94.8894 36.8484 94.7337C37.0141 94.5779 37.2113 94.5 37.44 94.5C37.6687 94.5 37.8642 94.5779 38.0266 94.7337C38.1924 94.8894 38.2752 95.0767 38.2752 95.2955C38.2752 95.5142 38.1924 95.7015 38.0266 95.8572C37.8642 96.013 37.6687 96.0909 37.44 96.0909ZM44.2225 94.8182H45.4554V102.097C45.4554 102.746 45.3361 103.298 45.0975 103.752C44.8588 104.206 44.5224 104.551 44.0882 104.786C43.6541 105.022 43.142 105.139 42.552 105.139C41.9952 105.139 41.4997 105.038 41.0655 104.836C40.6313 104.63 40.29 104.339 40.0414 103.961C39.7928 103.583 39.6685 103.134 39.6685 102.614H40.8816C40.8816 102.902 40.9528 103.154 41.0953 103.369C41.2412 103.581 41.44 103.747 41.6919 103.866C41.9438 103.986 42.2305 104.045 42.552 104.045C42.9067 104.045 43.2083 103.971 43.4569 103.822C43.7054 103.673 43.8944 103.454 44.0236 103.165C44.1562 102.874 44.2225 102.518 44.2225 102.097V94.8182ZM53.4945 97.3636C53.4348 96.8598 53.1929 96.4688 52.7686 96.1903C52.3444 95.9119 51.824 95.7727 51.2076 95.7727C50.7568 95.7727 50.3624 95.8456 50.0243 95.9915C49.6896 96.1373 49.4277 96.3378 49.2388 96.593C49.0532 96.8482 48.9604 97.1383 48.9604 97.4631C48.9604 97.7348 49.025 97.9685 49.1543 98.1641C49.2869 98.3563 49.4559 98.517 49.6614 98.6463C49.8669 98.7723 50.0823 98.8767 50.3077 98.9595C50.5331 99.0391 50.7402 99.1037 50.9292 99.1534L51.9632 99.4318C52.2284 99.5014 52.5234 99.5975 52.8482 99.7202C53.1763 99.8428 53.4895 100.01 53.7878 100.222C54.0894 100.431 54.338 100.7 54.5336 101.028C54.7291 101.356 54.8269 101.759 54.8269 102.236C54.8269 102.786 54.6827 103.283 54.3944 103.727C54.1093 104.171 53.6917 104.524 53.1415 104.786C52.5946 105.048 51.9301 105.179 51.1479 105.179C50.4187 105.179 49.7873 105.061 49.2537 104.826C48.7234 104.591 48.3058 104.263 48.0009 103.842C47.6993 103.421 47.5286 102.932 47.4888 102.375H48.7615C48.7947 102.759 48.9239 103.078 49.1493 103.33C49.378 103.578 49.6664 103.764 50.0144 103.886C50.3657 104.006 50.7435 104.065 51.1479 104.065C51.6185 104.065 52.0411 103.989 52.4157 103.837C52.7902 103.681 53.0868 103.465 53.3056 103.19C53.5243 102.912 53.6337 102.587 53.6337 102.216C53.6337 101.878 53.5392 101.603 53.3503 101.391C53.1614 101.179 52.9128 101.006 52.6046 100.874C52.2963 100.741 51.9632 100.625 51.6053 100.526L50.3525 100.168C49.557 99.9389 48.9273 99.6125 48.4632 99.1882C47.9992 98.764 47.7672 98.2088 47.7672 97.5227C47.7672 96.9527 47.9213 96.4555 48.2296 96.0312C48.5411 95.6037 48.9587 95.2723 49.4824 95.0369C50.0094 94.7983 50.5977 94.679 51.2473 94.679C51.9036 94.679 52.4869 94.7966 52.9973 95.032C53.5078 95.264 53.9121 95.5821 54.2104 95.9865C54.512 96.3909 54.6711 96.8499 54.6877 97.3636H53.4945ZM60.7915 105V94.8182H64.2319C65.0273 94.8182 65.6803 94.9541 66.1907 95.2259C66.7011 95.4943 67.079 95.8639 67.3242 96.3345C67.5695 96.8052 67.6921 97.3404 67.6921 97.9403C67.6921 98.5402 67.5695 99.0722 67.3242 99.5362C67.079 100 66.7028 100.365 66.1957 100.63C65.6886 100.892 65.0406 101.023 64.2518 101.023H61.4677V99.9091H64.212C64.7556 99.9091 65.1931 99.8295 65.5245 99.6705C65.8593 99.5114 66.1012 99.286 66.2504 98.9943C66.4028 98.6993 66.479 98.348 66.479 97.9403C66.479 97.5327 66.4028 97.1764 66.2504 96.8714C66.0979 96.5665 65.8543 96.3312 65.5195 96.1655C65.1848 95.9964 64.7423 95.9119 64.1921 95.9119H62.0245V105H60.7915ZM65.5842 100.426L68.0898 105H66.658L64.1921 100.426H65.5842ZM72.7072 105.159C71.9714 105.159 71.3367 104.997 70.8031 104.672C70.2728 104.344 69.8635 103.886 69.5751 103.3C69.2901 102.71 69.1475 102.024 69.1475 101.241C69.1475 100.459 69.2901 99.7699 69.5751 99.1733C69.8635 98.5734 70.2645 98.1061 70.7782 97.7713C71.2953 97.4332 71.8985 97.2642 72.5879 97.2642C72.9856 97.2642 73.3784 97.3305 73.7662 97.4631C74.1539 97.5956 74.5069 97.8111 74.8251 98.1094C75.1433 98.4044 75.3968 98.7955 75.5858 99.2827C75.7747 99.7699 75.8691 100.37 75.8691 101.082V101.58H69.9828V100.565H74.676C74.676 100.134 74.5898 99.75 74.4174 99.4119C74.2484 99.0739 74.0065 98.8071 73.6916 98.6115C73.38 98.416 73.0121 98.3182 72.5879 98.3182C72.1206 98.3182 71.7162 98.4342 71.3748 98.6662C71.0368 98.8949 70.7766 99.1932 70.5943 99.5611C70.412 99.929 70.3208 100.323 70.3208 100.744V101.42C70.3208 101.997 70.4203 102.486 70.6191 102.887C70.8213 103.285 71.1014 103.588 71.4593 103.797C71.8173 104.002 72.2333 104.105 72.7072 104.105C73.0154 104.105 73.2939 104.062 73.5424 103.976C73.7943 103.886 74.0114 103.754 74.1937 103.578C74.376 103.399 74.5169 103.177 74.6163 102.912L75.7498 103.23C75.6305 103.615 75.43 103.953 75.1483 104.244C74.8665 104.533 74.5185 104.758 74.1042 104.92C73.6899 105.08 73.2243 105.159 72.7072 105.159ZM79.9011 105.179C79.4172 105.179 78.978 105.088 78.5836 104.906C78.1892 104.72 77.876 104.453 77.644 104.105C77.412 103.754 77.296 103.33 77.296 102.832C77.296 102.395 77.3822 102.04 77.5545 101.768C77.7269 101.493 77.9572 101.278 78.2456 101.122C78.5339 100.966 78.8521 100.85 79.2001 100.774C79.5514 100.695 79.9044 100.632 80.2591 100.585C80.7231 100.526 81.0993 100.481 81.3876 100.451C81.6793 100.418 81.8914 100.363 82.024 100.287C82.1599 100.211 82.2278 100.078 82.2278 99.8892V99.8494C82.2278 99.3589 82.0936 98.9777 81.8251 98.706C81.56 98.4342 81.1573 98.2983 80.617 98.2983C80.0569 98.2983 79.6177 98.4209 79.2995 98.6662C78.9814 98.9115 78.7576 99.1733 78.6284 99.4517L77.5147 99.054C77.7136 98.59 77.9788 98.2287 78.3102 97.9702C78.6449 97.7083 79.0095 97.526 79.4039 97.4233C79.8017 97.3172 80.1928 97.2642 80.5772 97.2642C80.8225 97.2642 81.1042 97.294 81.4224 97.3537C81.7439 97.41 82.0538 97.5277 82.3521 97.7067C82.6537 97.8857 82.9039 98.1558 83.1028 98.517C83.3017 98.8783 83.4011 99.3622 83.4011 99.9688V105H82.2278V103.966H82.1681C82.0886 104.132 81.956 104.309 81.7704 104.498C81.5848 104.687 81.3379 104.848 81.0297 104.98C80.7214 105.113 80.3452 105.179 79.9011 105.179ZM80.0801 104.125C80.5441 104.125 80.9352 104.034 81.2534 103.852C81.5749 103.669 81.8168 103.434 81.9792 103.146C82.1449 102.857 82.2278 102.554 82.2278 102.236V101.162C82.1781 101.222 82.0687 101.276 81.8997 101.326C81.734 101.372 81.5417 101.414 81.323 101.45C81.1075 101.483 80.8971 101.513 80.6916 101.54C80.4894 101.563 80.3253 101.583 80.1994 101.599C79.8945 101.639 79.6094 101.704 79.3443 101.793C79.0824 101.879 78.8703 102.01 78.7079 102.186C78.5488 102.358 78.4693 102.594 78.4693 102.892C78.4693 103.3 78.6201 103.608 78.9217 103.817C79.2266 104.022 79.6127 104.125 80.0801 104.125ZM88.6449 105.159C87.929 105.159 87.3125 104.99 86.7955 104.652C86.2784 104.314 85.8807 103.848 85.6023 103.255C85.3239 102.662 85.1847 101.984 85.1847 101.222C85.1847 100.446 85.3272 99.7616 85.6122 99.1683C85.9006 98.5717 86.3016 98.1061 86.8153 97.7713C87.3324 97.4332 87.9356 97.2642 88.625 97.2642C89.1619 97.2642 89.6458 97.3636 90.0767 97.5625C90.5076 97.7614 90.8606 98.0398 91.1357 98.3977C91.4107 98.7557 91.5814 99.1733 91.6477 99.6506H90.4744C90.3849 99.3026 90.1861 98.9943 89.8778 98.7259C89.5729 98.4541 89.1619 98.3182 88.6449 98.3182C88.1875 98.3182 87.7865 98.4375 87.4418 98.6761C87.1004 98.9115 86.8336 99.2446 86.6413 99.6754C86.4524 100.103 86.358 100.605 86.358 101.182C86.358 101.772 86.4508 102.286 86.6364 102.723C86.8253 103.161 87.0904 103.5 87.4318 103.742C87.7765 103.984 88.1809 104.105 88.6449 104.105C88.9498 104.105 89.2266 104.052 89.4751 103.946C89.7237 103.84 89.9342 103.688 90.1065 103.489C90.2789 103.29 90.4015 103.051 90.4744 102.773H91.6477C91.5814 103.223 91.4174 103.629 91.1555 103.991C90.897 104.349 90.554 104.634 90.1264 104.846C89.7022 105.055 89.2083 105.159 88.6449 105.159ZM96.6839 97.3636V98.358H92.7266V97.3636H96.6839ZM93.88 95.5341H95.0533V102.812C95.0533 103.144 95.1013 103.393 95.1974 103.558C95.2969 103.721 95.4228 103.83 95.5753 103.886C95.7311 103.939 95.8951 103.966 96.0675 103.966C96.1967 103.966 96.3028 103.959 96.3857 103.946C96.4685 103.929 96.5348 103.916 96.5845 103.906L96.8232 104.96C96.7436 104.99 96.6326 105.02 96.4901 105.05C96.3475 105.083 96.1669 105.099 95.9482 105.099C95.6167 105.099 95.2919 105.028 94.9737 104.886C94.6589 104.743 94.397 104.526 94.1882 104.234C93.9827 103.943 93.88 103.575 93.88 103.131V95.5341ZM100.199 103.608L100.119 104.145C100.063 104.523 99.9768 104.927 99.8608 105.358C99.7481 105.789 99.6304 106.195 99.5078 106.576C99.3852 106.957 99.2841 107.26 99.2045 107.486H98.3097C98.3527 107.274 98.4091 106.994 98.4787 106.646C98.5483 106.298 98.6179 105.908 98.6875 105.477C98.7604 105.05 98.8201 104.612 98.8665 104.165L98.9261 103.608H100.199ZM108.557 105.179C108.073 105.179 107.634 105.088 107.24 104.906C106.845 104.72 106.532 104.453 106.3 104.105C106.068 103.754 105.952 103.33 105.952 102.832C105.952 102.395 106.038 102.04 106.211 101.768C106.383 101.493 106.613 101.278 106.902 101.122C107.19 100.966 107.508 100.85 107.856 100.774C108.208 100.695 108.561 100.632 108.915 100.585C109.379 100.526 109.756 100.481 110.044 100.451C110.336 100.418 110.548 100.363 110.68 100.287C110.816 100.211 110.884 100.078 110.884 99.8892V99.8494C110.884 99.3589 110.75 98.9777 110.481 98.706C110.216 98.4342 109.814 98.2983 109.273 98.2983C108.713 98.2983 108.274 98.4209 107.956 98.6662C107.638 98.9115 107.414 99.1733 107.285 99.4517L106.171 99.054C106.37 98.59 106.635 98.2287 106.966 97.9702C107.301 97.7083 107.666 97.526 108.06 97.4233C108.458 97.3172 108.849 97.2642 109.233 97.2642C109.479 97.2642 109.76 97.294 110.079 97.3537C110.4 97.41 110.71 97.5277 111.008 97.7067C111.31 97.8857 111.56 98.1558 111.759 98.517C111.958 98.8783 112.057 99.3622 112.057 99.9688V105H110.884V103.966H110.824C110.745 104.132 110.612 104.309 110.427 104.498C110.241 104.687 109.994 104.848 109.686 104.98C109.378 105.113 109.001 105.179 108.557 105.179ZM108.736 104.125C109.2 104.125 109.591 104.034 109.91 103.852C110.231 103.669 110.473 103.434 110.635 103.146C110.801 102.857 110.884 102.554 110.884 102.236V101.162C110.834 101.222 110.725 101.276 110.556 101.326C110.39 101.372 110.198 101.414 109.979 101.45C109.764 101.483 109.553 101.513 109.348 101.54C109.146 101.563 108.982 101.583 108.856 101.599C108.551 101.639 108.266 101.704 108.001 101.793C107.739 101.879 107.527 102.01 107.364 102.186C107.205 102.358 107.126 102.594 107.126 102.892C107.126 103.3 107.276 103.608 107.578 103.817C107.883 104.022 108.269 104.125 108.736 104.125ZM115.372 100.406V105H114.199V97.3636H115.332V98.5568H115.432C115.611 98.169 115.883 97.8575 116.247 97.6222C116.612 97.3835 117.082 97.2642 117.659 97.2642C118.176 97.2642 118.629 97.3703 119.016 97.5824C119.404 97.7912 119.706 98.1094 119.921 98.5369C120.137 98.9612 120.244 99.4981 120.244 100.148V105H119.071V100.227C119.071 99.6274 118.915 99.16 118.604 98.8253C118.292 98.4872 117.865 98.3182 117.321 98.3182C116.946 98.3182 116.612 98.3994 116.317 98.5618C116.025 98.7242 115.795 98.9612 115.626 99.2727C115.457 99.5843 115.372 99.9621 115.372 100.406ZM125.272 105.159C124.635 105.159 124.074 104.998 123.586 104.677C123.099 104.352 122.718 103.895 122.443 103.305C122.168 102.711 122.03 102.01 122.03 101.202C122.03 100.4 122.168 99.7036 122.443 99.1136C122.718 98.5237 123.101 98.0679 123.591 97.7464C124.082 97.425 124.649 97.2642 125.292 97.2642C125.789 97.2642 126.182 97.3471 126.47 97.5128C126.762 97.6752 126.984 97.8608 127.136 98.0696C127.292 98.2751 127.413 98.4441 127.499 98.5767H127.599V94.8182H128.772V105H127.638V103.827H127.499C127.413 103.966 127.29 104.142 127.131 104.354C126.972 104.562 126.745 104.75 126.45 104.915C126.155 105.078 125.762 105.159 125.272 105.159ZM125.431 104.105C125.902 104.105 126.299 103.982 126.624 103.737C126.949 103.489 127.196 103.146 127.365 102.708C127.534 102.267 127.618 101.759 127.618 101.182C127.618 100.612 127.536 100.113 127.37 99.6854C127.204 99.2545 126.959 98.9197 126.634 98.6811C126.309 98.4392 125.908 98.3182 125.431 98.3182C124.934 98.3182 124.519 98.4458 124.188 98.701C123.86 98.9529 123.613 99.2959 123.447 99.7301C123.285 100.161 123.204 100.645 123.204 101.182C123.204 101.725 123.287 102.219 123.452 102.663C123.621 103.104 123.87 103.455 124.198 103.717C124.529 103.976 124.94 104.105 125.431 104.105ZM140.43 99.0739L139.376 99.3722C139.31 99.1965 139.212 99.0258 139.083 98.8601C138.957 98.6911 138.785 98.5518 138.566 98.4425C138.347 98.3331 138.067 98.2784 137.726 98.2784C137.258 98.2784 136.869 98.3861 136.557 98.6016C136.249 98.8137 136.095 99.0838 136.095 99.4119C136.095 99.7036 136.201 99.9339 136.413 100.103C136.625 100.272 136.957 100.413 137.407 100.526L138.541 100.804C139.224 100.97 139.733 101.223 140.067 101.565C140.402 101.903 140.569 102.339 140.569 102.872C140.569 103.31 140.443 103.701 140.192 104.045C139.943 104.39 139.595 104.662 139.148 104.861C138.7 105.06 138.18 105.159 137.586 105.159C136.808 105.159 136.163 104.99 135.653 104.652C135.142 104.314 134.819 103.82 134.683 103.17L135.797 102.892C135.903 103.303 136.103 103.611 136.398 103.817C136.697 104.022 137.086 104.125 137.567 104.125C138.113 104.125 138.548 104.009 138.869 103.777C139.194 103.542 139.356 103.26 139.356 102.932C139.356 102.667 139.264 102.445 139.078 102.266C138.892 102.083 138.607 101.947 138.223 101.858L136.95 101.56C136.251 101.394 135.737 101.137 135.409 100.789C135.084 100.438 134.922 99.9986 134.922 99.4716C134.922 99.0407 135.043 98.6596 135.285 98.3281C135.53 97.9967 135.863 97.7365 136.284 97.5476C136.708 97.3587 137.189 97.2642 137.726 97.2642C138.481 97.2642 139.075 97.4299 139.506 97.7614C139.94 98.0928 140.248 98.5303 140.43 99.0739ZM145.438 105.159C144.748 105.159 144.144 104.995 143.623 104.667C143.106 104.339 142.702 103.88 142.41 103.29C142.122 102.7 141.978 102.01 141.978 101.222C141.978 100.426 142.122 99.7318 142.41 99.1385C142.702 98.5452 143.106 98.0845 143.623 97.7564C144.144 97.4283 144.748 97.2642 145.438 97.2642C146.127 97.2642 146.73 97.4283 147.248 97.7564C147.768 98.0845 148.172 98.5452 148.461 99.1385C148.752 99.7318 148.898 100.426 148.898 101.222C148.898 102.01 148.752 102.7 148.461 103.29C148.172 103.88 147.768 104.339 147.248 104.667C146.73 104.995 146.127 105.159 145.438 105.159ZM145.438 104.105C145.962 104.105 146.392 103.971 146.73 103.702C147.069 103.434 147.319 103.081 147.481 102.643C147.644 102.206 147.725 101.732 147.725 101.222C147.725 100.711 147.644 100.236 147.481 99.7947C147.319 99.3539 147.069 98.9976 146.73 98.7259C146.392 98.4541 145.962 98.3182 145.438 98.3182C144.914 98.3182 144.483 98.4541 144.145 98.7259C143.807 98.9976 143.557 99.3539 143.395 99.7947C143.232 100.236 143.151 100.711 143.151 101.222C143.151 101.732 143.232 102.206 143.395 102.643C143.557 103.081 143.807 103.434 144.145 103.702C144.483 103.971 144.914 104.105 145.438 104.105ZM157.729 105.159C157.039 105.159 156.435 104.995 155.914 104.667C155.397 104.339 154.993 103.88 154.701 103.29C154.413 102.7 154.269 102.01 154.269 101.222C154.269 100.426 154.413 99.7318 154.701 99.1385C154.993 98.5452 155.397 98.0845 155.914 97.7564C156.435 97.4283 157.039 97.2642 157.729 97.2642C158.418 97.2642 159.021 97.4283 159.539 97.7564C160.059 98.0845 160.463 98.5452 160.752 99.1385C161.043 99.7318 161.189 100.426 161.189 101.222C161.189 102.01 161.043 102.7 160.752 103.29C160.463 103.88 160.059 104.339 159.539 104.667C159.021 104.995 158.418 105.159 157.729 105.159ZM157.729 104.105C158.253 104.105 158.683 103.971 159.021 103.702C159.36 103.434 159.61 103.081 159.772 102.643C159.935 102.206 160.016 101.732 160.016 101.222C160.016 100.711 159.935 100.236 159.772 99.7947C159.61 99.3539 159.36 98.9976 159.021 98.7259C158.683 98.4541 158.253 98.3182 157.729 98.3182C157.205 98.3182 156.774 98.4541 156.436 98.7259C156.098 98.9976 155.848 99.3539 155.686 99.7947C155.523 100.236 155.442 100.711 155.442 101.222C155.442 101.732 155.523 102.206 155.686 102.643C155.848 103.081 156.098 103.434 156.436 103.702C156.774 103.971 157.205 104.105 157.729 104.105ZM164.153 100.406V105H162.98V97.3636H164.114V98.5568H164.213C164.392 98.169 164.664 97.8575 165.028 97.6222C165.393 97.3835 165.864 97.2642 166.44 97.2642C166.957 97.2642 167.41 97.3703 167.798 97.5824C168.185 97.7912 168.487 98.1094 168.702 98.5369C168.918 98.9612 169.026 99.4981 169.026 100.148V105H167.852V100.227C167.852 99.6274 167.696 99.16 167.385 98.8253C167.073 98.4872 166.646 98.3182 166.102 98.3182C165.728 98.3182 165.393 98.3994 165.098 98.5618C164.806 98.7242 164.576 98.9612 164.407 99.2727C164.238 99.5843 164.153 99.9621 164.153 100.406ZM172.025 105.08C171.779 105.08 171.569 104.992 171.393 104.816C171.218 104.64 171.13 104.43 171.13 104.185C171.13 103.939 171.218 103.729 171.393 103.553C171.569 103.378 171.779 103.29 172.025 103.29C172.27 103.29 172.48 103.378 172.656 103.553C172.832 103.729 172.92 103.939 172.92 104.185C172.92 104.347 172.878 104.496 172.795 104.632C172.716 104.768 172.608 104.877 172.472 104.96C172.34 105.04 172.19 105.08 172.025 105.08ZM175.88 105.08C175.635 105.08 175.424 104.992 175.249 104.816C175.073 104.64 174.985 104.43 174.985 104.185C174.985 103.939 175.073 103.729 175.249 103.553C175.424 103.378 175.635 103.29 175.88 103.29C176.125 103.29 176.336 103.378 176.512 103.553C176.687 103.729 176.775 103.939 176.775 104.185C176.775 104.347 176.734 104.496 176.651 104.632C176.571 104.768 176.463 104.877 176.328 104.96C176.195 105.04 176.046 105.08 175.88 105.08ZM179.736 105.08C179.49 105.08 179.28 104.992 179.104 104.816C178.929 104.64 178.841 104.43 178.841 104.185C178.841 103.939 178.929 103.729 179.104 103.553C179.28 103.378 179.49 103.29 179.736 103.29C179.981 103.29 180.191 103.378 180.367 103.553C180.543 103.729 180.631 103.939 180.631 104.185C180.631 104.347 180.589 104.496 180.506 104.632C180.427 104.768 180.319 104.877 180.183 104.96C180.05 105.04 179.901 105.08 179.736 105.08ZM18.4659 115.818V126H17.233V115.818H18.4659ZM25.8897 115.818V126H24.7164V115.818H25.8897ZM31.141 126.159C30.4516 126.159 29.8467 125.995 29.3263 125.667C28.8093 125.339 28.4049 124.88 28.1133 124.29C27.8249 123.7 27.6808 123.01 27.6808 122.222C27.6808 121.426 27.8249 120.732 28.1133 120.138C28.4049 119.545 28.8093 119.085 29.3263 118.756C29.8467 118.428 30.4516 118.264 31.141 118.264C31.8304 118.264 32.4336 118.428 32.9506 118.756C33.471 119.085 33.8754 119.545 34.1637 120.138C34.4554 120.732 34.6012 121.426 34.6012 122.222C34.6012 123.01 34.4554 123.7 34.1637 124.29C33.8754 124.88 33.471 125.339 32.9506 125.667C32.4336 125.995 31.8304 126.159 31.141 126.159ZM31.141 125.105C31.6647 125.105 32.0955 124.971 32.4336 124.702C32.7717 124.434 33.0219 124.081 33.1843 123.643C33.3467 123.206 33.4279 122.732 33.4279 122.222C33.4279 121.711 33.3467 121.236 33.1843 120.795C33.0219 120.354 32.7717 119.998 32.4336 119.726C32.0955 119.454 31.6647 119.318 31.141 119.318C30.6173 119.318 30.1864 119.454 29.8484 119.726C29.5103 119.998 29.2601 120.354 29.0977 120.795C28.9353 121.236 28.854 121.711 28.854 122.222C28.854 122.732 28.9353 123.206 29.0977 123.643C29.2601 124.081 29.5103 124.434 29.8484 124.702C30.1864 124.971 30.6173 125.105 31.141 125.105ZM42.3631 118.364L39.5392 126H38.3461L35.5222 118.364H36.7949L38.9029 124.449H38.9824L41.0904 118.364H42.3631ZM46.84 126.159C46.1042 126.159 45.4695 125.997 44.9359 125.672C44.4056 125.344 43.9963 124.886 43.7079 124.3C43.4229 123.71 43.2804 123.024 43.2804 122.241C43.2804 121.459 43.4229 120.77 43.7079 120.173C43.9963 119.573 44.3973 119.106 44.911 118.771C45.4281 118.433 46.0313 118.264 46.7207 118.264C47.1184 118.264 47.5112 118.33 47.899 118.463C48.2868 118.596 48.6397 118.811 48.9579 119.109C49.2761 119.404 49.5297 119.795 49.7186 120.283C49.9075 120.77 50.002 121.37 50.002 122.082V122.58H44.1156V121.565H48.8088C48.8088 121.134 48.7226 120.75 48.5502 120.412C48.3812 120.074 48.1393 119.807 47.8244 119.612C47.5128 119.416 47.1449 119.318 46.7207 119.318C46.2534 119.318 45.849 119.434 45.5076 119.666C45.1696 119.895 44.9094 120.193 44.7271 120.561C44.5448 120.929 44.4537 121.323 44.4537 121.744V122.42C44.4537 122.997 44.5531 123.486 44.752 123.887C44.9541 124.285 45.2342 124.588 45.5922 124.797C45.9501 125.002 46.3661 125.105 46.84 125.105C47.1483 125.105 47.4267 125.062 47.6752 124.976C47.9271 124.886 48.1442 124.754 48.3265 124.578C48.5088 124.399 48.6497 124.177 48.7491 123.912L49.8826 124.23C49.7633 124.615 49.5628 124.953 49.2811 125.244C48.9993 125.533 48.6513 125.758 48.237 125.92C47.8227 126.08 47.3571 126.159 46.84 126.159ZM59.1248 118.364V119.358H55.0083V118.364H59.1248ZM56.2413 126V117.31C56.2413 116.872 56.344 116.508 56.5495 116.216C56.755 115.924 57.0218 115.705 57.35 115.56C57.6781 115.414 58.0244 115.341 58.389 115.341C58.6774 115.341 58.9127 115.364 59.095 115.411C59.2773 115.457 59.4132 115.5 59.5027 115.54L59.1646 116.554C59.1049 116.534 59.0221 116.509 58.916 116.479C58.8133 116.45 58.6774 116.435 58.5083 116.435C58.1206 116.435 57.8405 116.532 57.6681 116.728C57.4991 116.924 57.4146 117.21 57.4146 117.588V126H56.2413ZM65.5817 122.878V118.364H66.755V126H65.5817V124.707H65.5021C65.3232 125.095 65.0447 125.425 64.6669 125.697C64.2891 125.965 63.8118 126.099 63.2351 126.099C62.7578 126.099 62.3336 125.995 61.9624 125.786C61.5911 125.574 61.2995 125.256 61.0874 124.832C60.8752 124.404 60.7692 123.866 60.7692 123.216V118.364H61.9425V123.136C61.9425 123.693 62.0982 124.137 62.4098 124.469C62.7247 124.8 63.1257 124.966 63.6129 124.966C63.9046 124.966 64.2012 124.891 64.5028 124.742C64.8078 124.593 65.063 124.364 65.2685 124.056C65.4773 123.748 65.5817 123.355 65.5817 122.878ZM70.0772 121.406V126H68.9039V118.364H70.0375V119.557H70.1369C70.3159 119.169 70.5877 118.857 70.9522 118.622C71.3168 118.384 71.7875 118.264 72.3642 118.264C72.8812 118.264 73.3336 118.37 73.7214 118.582C74.1092 118.791 74.4108 119.109 74.6262 119.537C74.8417 119.961 74.9494 120.498 74.9494 121.148V126H73.7761V121.227C73.7761 120.627 73.6203 120.16 73.3088 119.825C72.9972 119.487 72.5697 119.318 72.0261 119.318C71.6516 119.318 71.3168 119.399 71.0218 119.562C70.7302 119.724 70.4998 119.961 70.3308 120.273C70.1618 120.584 70.0772 120.962 70.0772 121.406ZM80.1957 126.159C79.4798 126.159 78.8633 125.99 78.3462 125.652C77.8292 125.314 77.4315 124.848 77.1531 124.255C76.8746 123.662 76.7354 122.984 76.7354 122.222C76.7354 121.446 76.878 120.762 77.163 120.168C77.4513 119.572 77.8524 119.106 78.3661 118.771C78.8832 118.433 79.4864 118.264 80.1758 118.264C80.7127 118.264 81.1966 118.364 81.6275 118.562C82.0584 118.761 82.4113 119.04 82.6864 119.398C82.9615 119.756 83.1322 120.173 83.1985 120.651H82.0252C81.9357 120.303 81.7369 119.994 81.4286 119.726C81.1237 119.454 80.7127 119.318 80.1957 119.318C79.7383 119.318 79.3372 119.437 78.9925 119.676C78.6512 119.911 78.3844 120.245 78.1921 120.675C78.0032 121.103 77.9087 121.605 77.9087 122.182C77.9087 122.772 78.0015 123.286 78.1871 123.723C78.3761 124.161 78.6412 124.5 78.9826 124.742C79.3273 124.984 79.7317 125.105 80.1957 125.105C80.5006 125.105 80.7773 125.052 81.0259 124.946C81.2745 124.84 81.485 124.688 81.6573 124.489C81.8297 124.29 81.9523 124.051 82.0252 123.773H83.1985C83.1322 124.223 82.9682 124.629 82.7063 124.991C82.4478 125.349 82.1048 125.634 81.6772 125.846C81.253 126.055 80.7591 126.159 80.1957 126.159ZM88.2347 118.364V119.358H84.2773V118.364H88.2347ZM85.4308 116.534H86.604V123.812C86.604 124.144 86.6521 124.393 86.7482 124.558C86.8477 124.721 86.9736 124.83 87.1261 124.886C87.2818 124.939 87.4459 124.966 87.6183 124.966C87.7475 124.966 87.8536 124.959 87.9364 124.946C88.0193 124.929 88.0856 124.916 88.1353 124.906L88.3739 125.96C88.2944 125.99 88.1834 126.02 88.0408 126.05C87.8983 126.083 87.7177 126.099 87.4989 126.099C87.1675 126.099 86.8427 126.028 86.5245 125.886C86.2096 125.743 85.9478 125.526 85.739 125.234C85.5335 124.943 85.4308 124.575 85.4308 124.131V116.534ZM89.9996 126V118.364H91.1729V126H89.9996ZM90.5962 117.091C90.3675 117.091 90.1703 117.013 90.0046 116.857C89.8422 116.701 89.761 116.514 89.761 116.295C89.761 116.077 89.8422 115.889 90.0046 115.734C90.1703 115.578 90.3675 115.5 90.5962 115.5C90.8249 115.5 91.0205 115.578 91.1829 115.734C91.3486 115.889 91.4315 116.077 91.4315 116.295C91.4315 116.514 91.3486 116.701 91.1829 116.857C91.0205 117.013 90.8249 117.091 90.5962 117.091ZM96.4242 126.159C95.7348 126.159 95.1299 125.995 94.6096 125.667C94.0925 125.339 93.6882 124.88 93.3965 124.29C93.1081 123.7 92.964 123.01 92.964 122.222C92.964 121.426 93.1081 120.732 93.3965 120.138C93.6882 119.545 94.0925 119.085 94.6096 118.756C95.1299 118.428 95.7348 118.264 96.4242 118.264C97.1136 118.264 97.7168 118.428 98.2338 118.756C98.7542 119.085 99.1586 119.545 99.4469 120.138C99.7386 120.732 99.8844 121.426 99.8844 122.222C99.8844 123.01 99.7386 123.7 99.4469 124.29C99.1586 124.88 98.7542 125.339 98.2338 125.667C97.7168 125.995 97.1136 126.159 96.4242 126.159ZM96.4242 125.105C96.9479 125.105 97.3787 124.971 97.7168 124.702C98.0549 124.434 98.3051 124.081 98.4675 123.643C98.6299 123.206 98.7111 122.732 98.7111 122.222C98.7111 121.711 98.6299 121.236 98.4675 120.795C98.3051 120.354 98.0549 119.998 97.7168 119.726C97.3787 119.454 96.9479 119.318 96.4242 119.318C95.9005 119.318 95.4696 119.454 95.1316 119.726C94.7935 119.998 94.5433 120.354 94.3809 120.795C94.2185 121.236 94.1373 121.711 94.1373 122.222C94.1373 122.732 94.2185 123.206 94.3809 123.643C94.5433 124.081 94.7935 124.434 95.1316 124.702C95.4696 124.971 95.9005 125.105 96.4242 125.105ZM102.849 121.406V126H101.675V118.364H102.809V119.557H102.908C103.087 119.169 103.359 118.857 103.724 118.622C104.088 118.384 104.559 118.264 105.136 118.264C105.653 118.264 106.105 118.37 106.493 118.582C106.881 118.791 107.182 119.109 107.398 119.537C107.613 119.961 107.721 120.498 107.721 121.148V126H106.548V121.227C106.548 120.627 106.392 120.16 106.08 119.825C105.769 119.487 105.341 119.318 104.798 119.318C104.423 119.318 104.088 119.399 103.793 119.562C103.502 119.724 103.271 119.961 103.102 120.273C102.933 120.584 102.849 120.962 102.849 121.406ZM112.112 126.179C111.628 126.179 111.189 126.088 110.795 125.906C110.4 125.72 110.087 125.453 109.855 125.105C109.623 124.754 109.507 124.33 109.507 123.832C109.507 123.395 109.593 123.04 109.765 122.768C109.938 122.493 110.168 122.278 110.456 122.122C110.745 121.966 111.063 121.85 111.411 121.774C111.762 121.695 112.115 121.632 112.47 121.585C112.934 121.526 113.31 121.481 113.599 121.451C113.89 121.418 114.102 121.363 114.235 121.287C114.371 121.211 114.439 121.078 114.439 120.889V120.849C114.439 120.359 114.305 119.978 114.036 119.706C113.771 119.434 113.368 119.298 112.828 119.298C112.268 119.298 111.829 119.421 111.51 119.666C111.192 119.911 110.969 120.173 110.839 120.452L109.726 120.054C109.925 119.59 110.19 119.229 110.521 118.97C110.856 118.708 111.22 118.526 111.615 118.423C112.013 118.317 112.404 118.264 112.788 118.264C113.033 118.264 113.315 118.294 113.633 118.354C113.955 118.41 114.265 118.528 114.563 118.707C114.865 118.886 115.115 119.156 115.314 119.517C115.513 119.878 115.612 120.362 115.612 120.969V126H114.439V124.966H114.379C114.3 125.132 114.167 125.309 113.981 125.498C113.796 125.687 113.549 125.848 113.241 125.98C112.932 126.113 112.556 126.179 112.112 126.179ZM112.291 125.125C112.755 125.125 113.146 125.034 113.464 124.852C113.786 124.669 114.028 124.434 114.19 124.146C114.356 123.857 114.439 123.554 114.439 123.236V122.162C114.389 122.222 114.28 122.276 114.111 122.326C113.945 122.372 113.753 122.414 113.534 122.45C113.318 122.483 113.108 122.513 112.903 122.54C112.7 122.563 112.536 122.583 112.41 122.599C112.105 122.639 111.82 122.704 111.555 122.793C111.293 122.879 111.081 123.01 110.919 123.186C110.76 123.358 110.68 123.594 110.68 123.892C110.68 124.3 110.831 124.608 111.133 124.817C111.438 125.022 111.824 125.125 112.291 125.125ZM118.927 115.818V126H117.754V115.818H118.927ZM128.116 126.159C127.4 126.159 126.783 125.99 126.266 125.652C125.749 125.314 125.351 124.848 125.073 124.255C124.795 123.662 124.655 122.984 124.655 122.222C124.655 121.446 124.798 120.762 125.083 120.168C125.371 119.572 125.772 119.106 126.286 118.771C126.803 118.433 127.406 118.264 128.096 118.264C128.633 118.264 129.117 118.364 129.547 118.562C129.978 118.761 130.331 119.04 130.606 119.398C130.881 119.756 131.052 120.173 131.118 120.651H129.945C129.856 120.303 129.657 119.994 129.349 119.726C129.044 119.454 128.633 119.318 128.116 119.318C127.658 119.318 127.257 119.437 126.912 119.676C126.571 119.911 126.304 120.245 126.112 120.675C125.923 121.103 125.829 121.605 125.829 122.182C125.829 122.772 125.921 123.286 126.107 123.723C126.296 124.161 126.561 124.5 126.903 124.742C127.247 124.984 127.652 125.105 128.116 125.105C128.421 125.105 128.697 125.052 128.946 124.946C129.194 124.84 129.405 124.688 129.577 124.489C129.75 124.29 129.872 124.051 129.945 123.773H131.118C131.052 124.223 130.888 124.629 130.626 124.991C130.368 125.349 130.025 125.634 129.597 125.846C129.173 126.055 128.679 126.159 128.116 126.159ZM135.936 126.159C135.247 126.159 134.642 125.995 134.121 125.667C133.604 125.339 133.2 124.88 132.908 124.29C132.62 123.7 132.476 123.01 132.476 122.222C132.476 121.426 132.62 120.732 132.908 120.138C133.2 119.545 133.604 119.085 134.121 118.756C134.642 118.428 135.247 118.264 135.936 118.264C136.625 118.264 137.229 118.428 137.746 118.756C138.266 119.085 138.67 119.545 138.959 120.138C139.25 120.732 139.396 121.426 139.396 122.222C139.396 123.01 139.25 123.7 138.959 124.29C138.67 124.88 138.266 125.339 137.746 125.667C137.229 125.995 136.625 126.159 135.936 126.159ZM135.936 125.105C136.46 125.105 136.89 124.971 137.229 124.702C137.567 124.434 137.817 124.081 137.979 123.643C138.142 123.206 138.223 122.732 138.223 122.222C138.223 121.711 138.142 121.236 137.979 120.795C137.817 120.354 137.567 119.998 137.229 119.726C136.89 119.454 136.46 119.318 135.936 119.318C135.412 119.318 134.981 119.454 134.643 119.726C134.305 119.998 134.055 120.354 133.893 120.795C133.73 121.236 133.649 121.711 133.649 122.222C133.649 122.732 133.73 123.206 133.893 123.643C134.055 124.081 134.305 124.434 134.643 124.702C134.981 124.971 135.412 125.105 135.936 125.105ZM141.187 126V118.364H142.321V119.557H142.42C142.579 119.149 142.836 118.833 143.191 118.607C143.545 118.379 143.971 118.264 144.468 118.264C144.972 118.264 145.391 118.379 145.726 118.607C146.064 118.833 146.328 119.149 146.517 119.557H146.596C146.792 119.162 147.085 118.849 147.476 118.617C147.867 118.382 148.336 118.264 148.883 118.264C149.566 118.264 150.124 118.478 150.559 118.906C150.993 119.33 151.21 119.991 151.21 120.889V126H150.037V120.889C150.037 120.326 149.882 119.923 149.574 119.681C149.266 119.439 148.903 119.318 148.485 119.318C147.949 119.318 147.533 119.481 147.238 119.805C146.943 120.127 146.795 120.535 146.795 121.028V126H145.602V120.77C145.602 120.336 145.461 119.986 145.179 119.721C144.898 119.452 144.535 119.318 144.091 119.318C143.786 119.318 143.501 119.399 143.235 119.562C142.974 119.724 142.761 119.95 142.599 120.238C142.44 120.523 142.36 120.853 142.36 121.227V126H141.187ZM153.355 128.864V118.364H154.489V119.577H154.628C154.714 119.444 154.833 119.275 154.986 119.07C155.142 118.861 155.364 118.675 155.652 118.513C155.944 118.347 156.338 118.264 156.835 118.264C157.478 118.264 158.045 118.425 158.536 118.746C159.026 119.068 159.409 119.524 159.684 120.114C159.959 120.704 160.097 121.4 160.097 122.202C160.097 123.01 159.959 123.711 159.684 124.305C159.409 124.895 159.028 125.352 158.54 125.677C158.053 125.998 157.491 126.159 156.855 126.159C156.365 126.159 155.972 126.078 155.677 125.915C155.382 125.75 155.155 125.562 154.996 125.354C154.837 125.142 154.714 124.966 154.628 124.827H154.528V128.864H153.355ZM154.509 122.182C154.509 122.759 154.593 123.267 154.762 123.708C154.931 124.146 155.178 124.489 155.503 124.737C155.828 124.982 156.225 125.105 156.696 125.105C157.187 125.105 157.596 124.976 157.924 124.717C158.255 124.455 158.504 124.104 158.67 123.663C158.839 123.219 158.923 122.725 158.923 122.182C158.923 121.645 158.84 121.161 158.675 120.73C158.512 120.296 158.265 119.953 157.934 119.701C157.606 119.446 157.193 119.318 156.696 119.318C156.219 119.318 155.818 119.439 155.493 119.681C155.168 119.92 154.923 120.254 154.757 120.685C154.591 121.113 154.509 121.612 154.509 122.182ZM164.989 126.159C164.299 126.159 163.694 125.995 163.174 125.667C162.657 125.339 162.253 124.88 161.961 124.29C161.673 123.7 161.528 123.01 161.528 122.222C161.528 121.426 161.673 120.732 161.961 120.138C162.253 119.545 162.657 119.085 163.174 118.756C163.694 118.428 164.299 118.264 164.989 118.264C165.678 118.264 166.281 118.428 166.798 118.756C167.319 119.085 167.723 119.545 168.011 120.138C168.303 120.732 168.449 121.426 168.449 122.222C168.449 123.01 168.303 123.7 168.011 124.29C167.723 124.88 167.319 125.339 166.798 125.667C166.281 125.995 165.678 126.159 164.989 126.159ZM164.989 125.105C165.512 125.105 165.943 124.971 166.281 124.702C166.619 124.434 166.87 124.081 167.032 123.643C167.194 123.206 167.276 122.732 167.276 122.222C167.276 121.711 167.194 121.236 167.032 120.795C166.87 120.354 166.619 119.998 166.281 119.726C165.943 119.454 165.512 119.318 164.989 119.318C164.465 119.318 164.034 119.454 163.696 119.726C163.358 119.998 163.108 120.354 162.945 120.795C162.783 121.236 162.702 121.711 162.702 122.222C162.702 122.732 162.783 123.206 162.945 123.643C163.108 124.081 163.358 124.434 163.696 124.702C164.034 124.971 164.465 125.105 164.989 125.105ZM171.413 121.406V126H170.24V118.364H171.373V119.557H171.473C171.652 119.169 171.924 118.857 172.288 118.622C172.653 118.384 173.123 118.264 173.7 118.264C174.217 118.264 174.67 118.37 175.057 118.582C175.445 118.791 175.747 119.109 175.962 119.537C176.178 119.961 176.285 120.498 176.285 121.148V126H175.112V121.227C175.112 120.627 174.956 120.16 174.645 119.825C174.333 119.487 173.906 119.318 173.362 119.318C172.988 119.318 172.653 119.399 172.358 119.562C172.066 119.724 171.836 119.961 171.667 120.273C171.498 120.584 171.413 120.962 171.413 121.406ZM181.631 126.159C180.895 126.159 180.261 125.997 179.727 125.672C179.197 125.344 178.787 124.886 178.499 124.3C178.214 123.71 178.071 123.024 178.071 122.241C178.071 121.459 178.214 120.77 178.499 120.173C178.787 119.573 179.188 119.106 179.702 118.771C180.219 118.433 180.822 118.264 181.512 118.264C181.909 118.264 182.302 118.33 182.69 118.463C183.078 118.596 183.431 118.811 183.749 119.109C184.067 119.404 184.321 119.795 184.51 120.283C184.699 120.77 184.793 121.37 184.793 122.082V122.58H178.907V121.565H183.6C183.6 121.134 183.514 120.75 183.341 120.412C183.172 120.074 182.93 119.807 182.615 119.612C182.304 119.416 181.936 119.318 181.512 119.318C181.044 119.318 180.64 119.434 180.299 119.666C179.961 119.895 179.7 120.193 179.518 120.561C179.336 120.929 179.245 121.323 179.245 121.744V122.42C179.245 122.997 179.344 123.486 179.543 123.887C179.745 124.285 180.025 124.588 180.383 124.797C180.741 125.002 181.157 125.105 181.631 125.105C181.939 125.105 182.218 125.062 182.466 124.976C182.718 124.886 182.935 124.754 183.118 124.578C183.3 124.399 183.441 124.177 183.54 123.912L184.674 124.23C184.554 124.615 184.354 124.953 184.072 125.244C183.79 125.533 183.442 125.758 183.028 125.92C182.614 126.08 182.148 126.159 181.631 126.159ZM187.751 121.406V126H186.578V118.364H187.711V119.557H187.811C187.99 119.169 188.261 118.857 188.626 118.622C188.991 118.384 189.461 118.264 190.038 118.264C190.555 118.264 191.007 118.37 191.395 118.582C191.783 118.791 192.085 119.109 192.3 119.537C192.516 119.961 192.623 120.498 192.623 121.148V126H191.45V121.227C191.45 120.627 191.294 120.16 190.983 119.825C190.671 119.487 190.243 119.318 189.7 119.318C189.325 119.318 188.991 119.399 188.696 119.562C188.404 119.724 188.174 119.961 188.005 120.273C187.836 120.584 187.751 120.962 187.751 121.406ZM198.088 118.364V119.358H194.131V118.364H198.088ZM195.284 116.534H196.458V123.812C196.458 124.144 196.506 124.393 196.602 124.558C196.701 124.721 196.827 124.83 196.98 124.886C197.135 124.939 197.299 124.966 197.472 124.966C197.601 124.966 197.707 124.959 197.79 124.946C197.873 124.929 197.939 124.916 197.989 124.906L198.227 125.96C198.148 125.99 198.037 126.02 197.894 126.05C197.752 126.083 197.571 126.099 197.352 126.099C197.021 126.099 196.696 126.028 196.378 125.886C196.063 125.743 195.801 125.526 195.593 125.234C195.387 124.943 195.284 124.575 195.284 124.131V116.534ZM205.126 120.074L204.072 120.372C204.005 120.196 203.907 120.026 203.778 119.86C203.652 119.691 203.48 119.552 203.261 119.442C203.042 119.333 202.762 119.278 202.421 119.278C201.954 119.278 201.564 119.386 201.253 119.602C200.944 119.814 200.79 120.084 200.79 120.412C200.79 120.704 200.896 120.934 201.108 121.103C201.321 121.272 201.652 121.413 202.103 121.526L203.236 121.804C203.919 121.97 204.428 122.223 204.763 122.565C205.097 122.903 205.265 123.339 205.265 123.872C205.265 124.31 205.139 124.701 204.887 125.045C204.638 125.39 204.29 125.662 203.843 125.861C203.395 126.06 202.875 126.159 202.282 126.159C201.503 126.159 200.858 125.99 200.348 125.652C199.837 125.314 199.514 124.82 199.378 124.17L200.492 123.892C200.598 124.303 200.799 124.611 201.094 124.817C201.392 125.022 201.781 125.125 202.262 125.125C202.809 125.125 203.243 125.009 203.564 124.777C203.889 124.542 204.052 124.26 204.052 123.932C204.052 123.667 203.959 123.445 203.773 123.266C203.588 123.083 203.303 122.947 202.918 122.858L201.645 122.56C200.946 122.394 200.432 122.137 200.104 121.789C199.779 121.438 199.617 120.999 199.617 120.472C199.617 120.041 199.738 119.66 199.98 119.328C200.225 118.997 200.558 118.737 200.979 118.548C201.403 118.359 201.884 118.264 202.421 118.264C203.177 118.264 203.77 118.43 204.201 118.761C204.635 119.093 204.943 119.53 205.126 120.074ZM208.781 124.608L208.701 125.145C208.645 125.523 208.559 125.927 208.443 126.358C208.33 126.789 208.212 127.195 208.09 127.576C207.967 127.957 207.866 128.26 207.787 128.486H206.892C206.935 128.274 206.991 127.994 207.061 127.646C207.13 127.298 207.2 126.908 207.27 126.477C207.342 126.05 207.402 125.612 207.449 125.165L207.508 124.608H208.781ZM19.9574 147.159C19.321 147.159 18.7592 146.998 18.272 146.677C17.7848 146.352 17.4036 145.895 17.1286 145.305C16.8535 144.711 16.7159 144.01 16.7159 143.202C16.7159 142.4 16.8535 141.704 17.1286 141.114C17.4036 140.524 17.7865 140.068 18.277 139.746C18.7675 139.425 19.3343 139.264 19.9773 139.264C20.4744 139.264 20.8672 139.347 21.1555 139.513C21.4472 139.675 21.6693 139.861 21.8217 140.07C21.9775 140.275 22.0985 140.444 22.1847 140.577H22.2841V136.818H23.4574V147H22.3239V145.827H22.1847C22.0985 145.966 21.9759 146.142 21.8168 146.354C21.6577 146.562 21.4306 146.75 21.1357 146.915C20.8407 147.078 20.4479 147.159 19.9574 147.159ZM20.1165 146.105C20.5871 146.105 20.9848 145.982 21.3097 145.737C21.6345 145.489 21.8814 145.146 22.0504 144.708C22.2195 144.267 22.304 143.759 22.304 143.182C22.304 142.612 22.2211 142.113 22.0554 141.685C21.8897 141.254 21.6444 140.92 21.3196 140.681C20.9948 140.439 20.5938 140.318 20.1165 140.318C19.6193 140.318 19.205 140.446 18.8736 140.701C18.5455 140.953 18.2985 141.296 18.1328 141.73C17.9704 142.161 17.8892 142.645 17.8892 143.182C17.8892 143.725 17.9721 144.219 18.1378 144.663C18.3068 145.104 18.5554 145.455 18.8835 145.717C19.215 145.976 19.6259 146.105 20.1165 146.105ZM28.9709 147.159C28.2351 147.159 27.6004 146.997 27.0668 146.672C26.5365 146.344 26.1271 145.886 25.8388 145.3C25.5537 144.71 25.4112 144.024 25.4112 143.241C25.4112 142.459 25.5537 141.77 25.8388 141.173C26.1271 140.573 26.5282 140.106 27.0419 139.771C27.5589 139.433 28.1622 139.264 28.8516 139.264C29.2493 139.264 29.642 139.33 30.0298 139.463C30.4176 139.596 30.7706 139.811 31.0888 140.109C31.407 140.404 31.6605 140.795 31.8494 141.283C32.0384 141.77 32.1328 142.37 32.1328 143.082V143.58H26.2464V142.565H30.9396C30.9396 142.134 30.8535 141.75 30.6811 141.412C30.5121 141.074 30.2701 140.807 29.9553 140.612C29.6437 140.416 29.2758 140.318 28.8516 140.318C28.3842 140.318 27.9799 140.434 27.6385 140.666C27.3004 140.895 27.0402 141.193 26.858 141.561C26.6757 141.929 26.5845 142.323 26.5845 142.744V143.42C26.5845 143.997 26.6839 144.486 26.8828 144.887C27.085 145.285 27.3651 145.588 27.723 145.797C28.081 146.002 28.4969 146.105 28.9709 146.105C29.2791 146.105 29.5575 146.062 29.8061 145.976C30.058 145.886 30.2751 145.754 30.4574 145.578C30.6397 145.399 30.7805 145.177 30.88 144.912L32.0135 145.23C31.8942 145.615 31.6937 145.953 31.4119 146.244C31.1302 146.533 30.7822 146.758 30.3679 146.92C29.9536 147.08 29.4879 147.159 28.9709 147.159ZM37.0199 147.159C36.304 147.159 35.6875 146.99 35.1705 146.652C34.6534 146.314 34.2557 145.848 33.9773 145.255C33.6989 144.662 33.5597 143.984 33.5597 143.222C33.5597 142.446 33.7022 141.762 33.9872 141.168C34.2756 140.572 34.6766 140.106 35.1903 139.771C35.7074 139.433 36.3106 139.264 37 139.264C37.5369 139.264 38.0208 139.364 38.4517 139.562C38.8826 139.761 39.2356 140.04 39.5107 140.398C39.7857 140.756 39.9564 141.173 40.0227 141.651H38.8494C38.7599 141.303 38.5611 140.994 38.2528 140.726C37.9479 140.454 37.5369 140.318 37.0199 140.318C36.5625 140.318 36.1615 140.437 35.8168 140.676C35.4754 140.911 35.2086 141.245 35.0163 141.675C34.8274 142.103 34.733 142.605 34.733 143.182C34.733 143.772 34.8258 144.286 35.0114 144.723C35.2003 145.161 35.4654 145.5 35.8068 145.742C36.1515 145.984 36.5559 146.105 37.0199 146.105C37.3248 146.105 37.6016 146.052 37.8501 145.946C38.0987 145.84 38.3092 145.688 38.4815 145.489C38.6539 145.29 38.7765 145.051 38.8494 144.773H40.0227C39.9564 145.223 39.7924 145.629 39.5305 145.991C39.272 146.349 38.929 146.634 38.5014 146.846C38.0772 147.055 37.5833 147.159 37.0199 147.159ZM42.9112 136.818V147H41.7379V136.818H42.9112ZM47.3074 147.179C46.8234 147.179 46.3843 147.088 45.9899 146.906C45.5955 146.72 45.2823 146.453 45.0502 146.105C44.8182 145.754 44.7022 145.33 44.7022 144.832C44.7022 144.395 44.7884 144.04 44.9608 143.768C45.1331 143.493 45.3635 143.278 45.6518 143.122C45.9402 142.966 46.2583 142.85 46.6064 142.774C46.9577 142.695 47.3107 142.632 47.6653 142.585C48.1293 142.526 48.5055 142.481 48.7939 142.451C49.0855 142.418 49.2976 142.363 49.4302 142.287C49.5661 142.211 49.6341 142.078 49.6341 141.889V141.849C49.6341 141.359 49.4998 140.978 49.2314 140.706C48.9662 140.434 48.5635 140.298 48.0233 140.298C47.4631 140.298 47.024 140.421 46.7058 140.666C46.3876 140.911 46.1639 141.173 46.0346 141.452L44.921 141.054C45.1199 140.59 45.385 140.229 45.7164 139.97C46.0512 139.708 46.4158 139.526 46.8102 139.423C47.2079 139.317 47.599 139.264 47.9835 139.264C48.2288 139.264 48.5105 139.294 48.8287 139.354C49.1502 139.41 49.46 139.528 49.7583 139.707C50.06 139.886 50.3102 140.156 50.5091 140.517C50.7079 140.878 50.8074 141.362 50.8074 141.969V147H49.6341V145.966H49.5744C49.4949 146.132 49.3623 146.309 49.1767 146.498C48.9911 146.687 48.7441 146.848 48.4359 146.98C48.1277 147.113 47.7515 147.179 47.3074 147.179ZM47.4863 146.125C47.9503 146.125 48.3414 146.034 48.6596 145.852C48.9811 145.669 49.2231 145.434 49.3855 145.146C49.5512 144.857 49.6341 144.554 49.6341 144.236V143.162C49.5843 143.222 49.475 143.276 49.3059 143.326C49.1402 143.372 48.948 143.414 48.7292 143.45C48.5138 143.483 48.3033 143.513 48.0978 143.54C47.8957 143.563 47.7316 143.583 47.6056 143.599C47.3007 143.639 47.0157 143.704 46.7505 143.793C46.4887 143.879 46.2766 144.01 46.1142 144.186C45.9551 144.358 45.8755 144.594 45.8755 144.892C45.8755 145.3 46.0263 145.608 46.3279 145.817C46.6329 146.022 47.019 146.125 47.4863 146.125ZM52.9489 147V139.364H54.0824V140.517H54.1619C54.3011 140.139 54.553 139.833 54.9176 139.597C55.2822 139.362 55.6932 139.244 56.1506 139.244C56.2367 139.244 56.3445 139.246 56.4737 139.249C56.603 139.253 56.7008 139.258 56.767 139.264V140.457C56.7273 140.447 56.6361 140.433 56.4936 140.413C56.3544 140.389 56.2069 140.378 56.0511 140.378C55.6799 140.378 55.3485 140.456 55.0568 140.612C54.7685 140.764 54.5398 140.976 54.3707 141.248C54.205 141.516 54.1222 141.823 54.1222 142.168V147H52.9489ZM60.405 147.179C59.9211 147.179 59.4819 147.088 59.0875 146.906C58.6931 146.72 58.3799 146.453 58.1479 146.105C57.9159 145.754 57.7999 145.33 57.7999 144.832C57.7999 144.395 57.8861 144.04 58.0584 143.768C58.2308 143.493 58.4611 143.278 58.7495 143.122C59.0378 142.966 59.356 142.85 59.704 142.774C60.0553 142.695 60.4083 142.632 60.763 142.585C61.227 142.526 61.6032 142.481 61.8915 142.451C62.1832 142.418 62.3953 142.363 62.5279 142.287C62.6638 142.211 62.7317 142.078 62.7317 141.889V141.849C62.7317 141.359 62.5975 140.978 62.329 140.706C62.0639 140.434 61.6612 140.298 61.1209 140.298C60.5608 140.298 60.1216 140.421 59.8034 140.666C59.4853 140.911 59.2615 141.173 59.1323 141.452L58.0186 141.054C58.2175 140.59 58.4827 140.229 58.8141 139.97C59.1489 139.708 59.5134 139.526 59.9078 139.423C60.3056 139.317 60.6967 139.264 61.0811 139.264C61.3264 139.264 61.6081 139.294 61.9263 139.354C62.2478 139.41 62.5577 139.528 62.856 139.707C63.1576 139.886 63.4078 140.156 63.6067 140.517C63.8056 140.878 63.905 141.362 63.905 141.969V147H62.7317V145.966H62.6721C62.5925 146.132 62.4599 146.309 62.2743 146.498C62.0887 146.687 61.8418 146.848 61.5336 146.98C61.2253 147.113 60.8491 147.179 60.405 147.179ZM60.584 146.125C61.048 146.125 61.4391 146.034 61.7573 145.852C62.0788 145.669 62.3207 145.434 62.4831 145.146C62.6489 144.857 62.7317 144.554 62.7317 144.236V143.162C62.682 143.222 62.5726 143.276 62.4036 143.326C62.2379 143.372 62.0456 143.414 61.8269 143.45C61.6114 143.483 61.401 143.513 61.1955 143.54C60.9933 143.563 60.8292 143.583 60.7033 143.599C60.3984 143.639 60.1133 143.704 59.8482 143.793C59.5864 143.879 59.3742 144.01 59.2118 144.186C59.0527 144.358 58.9732 144.594 58.9732 144.892C58.9732 145.3 59.124 145.608 59.4256 145.817C59.7305 146.022 60.1167 146.125 60.584 146.125ZM69.3675 139.364V140.358H65.4102V139.364H69.3675ZM66.5636 137.534H67.7369V144.812C67.7369 145.144 67.7849 145.393 67.881 145.558C67.9805 145.721 68.1064 145.83 68.2589 145.886C68.4147 145.939 68.5787 145.966 68.7511 145.966C68.8803 145.966 68.9864 145.959 69.0692 145.946C69.1521 145.929 69.2184 145.916 69.2681 145.906L69.5067 146.96C69.4272 146.99 69.3162 147.02 69.1737 147.05C69.0311 147.083 68.8505 147.099 68.6317 147.099C68.3003 147.099 67.9755 147.028 67.6573 146.886C67.3424 146.743 67.0806 146.526 66.8718 146.234C66.6663 145.943 66.5636 145.575 66.5636 145.131V137.534ZM71.1325 147V139.364H72.3058V147H71.1325ZM71.729 138.091C71.5004 138.091 71.3031 138.013 71.1374 137.857C70.975 137.701 70.8938 137.514 70.8938 137.295C70.8938 137.077 70.975 136.889 71.1374 136.734C71.3031 136.578 71.5004 136.5 71.729 136.5C71.9577 136.5 72.1533 136.578 72.3157 136.734C72.4814 136.889 72.5643 137.077 72.5643 137.295C72.5643 137.514 72.4814 137.701 72.3157 137.857C72.1533 138.013 71.9577 138.091 71.729 138.091ZM80.699 139.364L77.8752 147H76.682L73.8581 139.364H75.1309L77.2388 145.449H77.3184L79.4263 139.364H80.699ZM85.176 147.159C84.4402 147.159 83.8055 146.997 83.2718 146.672C82.7415 146.344 82.3322 145.886 82.0439 145.3C81.7588 144.71 81.6163 144.024 81.6163 143.241C81.6163 142.459 81.7588 141.77 82.0439 141.173C82.3322 140.573 82.7333 140.106 83.247 139.771C83.764 139.433 84.3672 139.264 85.0566 139.264C85.4544 139.264 85.8471 139.33 86.2349 139.463C86.6227 139.596 86.9757 139.811 87.2939 140.109C87.612 140.404 87.8656 140.795 88.0545 141.283C88.2434 141.77 88.3379 142.37 88.3379 143.082V143.58H82.4515V142.565H87.1447C87.1447 142.134 87.0585 141.75 86.8862 141.412C86.7172 141.074 86.4752 140.807 86.1603 140.612C85.8488 140.416 85.4809 140.318 85.0566 140.318C84.5893 140.318 84.185 140.434 83.8436 140.666C83.5055 140.895 83.2453 141.193 83.063 141.561C82.8807 141.929 82.7896 142.323 82.7896 142.744V143.42C82.7896 143.997 82.889 144.486 83.0879 144.887C83.2901 145.285 83.5701 145.588 83.9281 145.797C84.286 146.002 84.702 146.105 85.176 146.105C85.4842 146.105 85.7626 146.062 86.0112 145.976C86.2631 145.886 86.4802 145.754 86.6625 145.578C86.8448 145.399 86.9856 145.177 87.085 144.912L88.2186 145.23C88.0993 145.615 87.8987 145.953 87.617 146.244C87.3353 146.533 86.9873 146.758 86.573 146.92C86.1587 147.08 85.693 147.159 85.176 147.159ZM100.901 136.818H102.134V143.56C102.134 144.256 101.97 144.877 101.642 145.424C101.317 145.968 100.858 146.397 100.265 146.712C99.6715 147.023 98.9754 147.179 98.1767 147.179C97.3779 147.179 96.6819 147.023 96.0886 146.712C95.4953 146.397 95.0346 145.968 94.7065 145.424C94.3817 144.877 94.2193 144.256 94.2193 143.56V136.818H95.4522V143.46C95.4522 143.957 95.5616 144.4 95.7804 144.788C95.9991 145.172 96.3107 145.475 96.715 145.697C97.1227 145.916 97.6099 146.026 98.1767 146.026C98.7434 146.026 99.2306 145.916 99.6383 145.697C100.046 145.475 100.358 145.172 100.573 144.788C100.792 144.4 100.901 143.957 100.901 143.46V136.818ZM105.829 136.818V147H104.596V136.818H105.829ZM113.551 141.074L112.497 141.372C112.431 141.196 112.333 141.026 112.204 140.86C112.078 140.691 111.906 140.552 111.687 140.442C111.468 140.333 111.188 140.278 110.847 140.278C110.379 140.278 109.99 140.386 109.678 140.602C109.37 140.814 109.216 141.084 109.216 141.412C109.216 141.704 109.322 141.934 109.534 142.103C109.746 142.272 110.078 142.413 110.529 142.526L111.662 142.804C112.345 142.97 112.854 143.223 113.188 143.565C113.523 143.903 113.691 144.339 113.691 144.872C113.691 145.31 113.565 145.701 113.313 146.045C113.064 146.39 112.716 146.662 112.269 146.861C111.821 147.06 111.301 147.159 110.708 147.159C109.929 147.159 109.284 146.99 108.774 146.652C108.263 146.314 107.94 145.82 107.804 145.17L108.918 144.892C109.024 145.303 109.224 145.611 109.519 145.817C109.818 146.022 110.207 146.125 110.688 146.125C111.235 146.125 111.669 146.009 111.99 145.777C112.315 145.542 112.477 145.26 112.477 144.932C112.477 144.667 112.385 144.445 112.199 144.266C112.013 144.083 111.728 143.947 111.344 143.858L110.071 143.56C109.372 143.394 108.858 143.137 108.53 142.789C108.205 142.438 108.043 141.999 108.043 141.472C108.043 141.041 108.164 140.66 108.406 140.328C108.651 139.997 108.984 139.737 109.405 139.548C109.829 139.359 110.31 139.264 110.847 139.264C111.602 139.264 112.196 139.43 112.627 139.761C113.061 140.093 113.369 140.53 113.551 141.074ZM117.207 145.608L117.127 146.145C117.071 146.523 116.985 146.927 116.869 147.358C116.756 147.789 116.638 148.195 116.516 148.576C116.393 148.957 116.292 149.26 116.212 149.486H115.317C115.361 149.274 115.417 148.994 115.487 148.646C115.556 148.298 115.626 147.908 115.695 147.477C115.768 147.05 115.828 146.612 115.874 146.165L115.934 145.608H117.207ZM125.565 147.179C125.081 147.179 124.642 147.088 124.248 146.906C123.853 146.72 123.54 146.453 123.308 146.105C123.076 145.754 122.96 145.33 122.96 144.832C122.96 144.395 123.046 144.04 123.219 143.768C123.391 143.493 123.621 143.278 123.91 143.122C124.198 142.966 124.516 142.85 124.864 142.774C125.215 142.695 125.568 142.632 125.923 142.585C126.387 142.526 126.763 142.481 127.052 142.451C127.343 142.418 127.555 142.363 127.688 142.287C127.824 142.211 127.892 142.078 127.892 141.889V141.849C127.892 141.359 127.758 140.978 127.489 140.706C127.224 140.434 126.821 140.298 126.281 140.298C125.721 140.298 125.282 140.421 124.964 140.666C124.645 140.911 124.422 141.173 124.292 141.452L123.179 141.054C123.378 140.59 123.643 140.229 123.974 139.97C124.309 139.708 124.674 139.526 125.068 139.423C125.466 139.317 125.857 139.264 126.241 139.264C126.487 139.264 126.768 139.294 127.086 139.354C127.408 139.41 127.718 139.528 128.016 139.707C128.318 139.886 128.568 140.156 128.767 140.517C128.966 140.878 129.065 141.362 129.065 141.969V147H127.892V145.966H127.832C127.753 146.132 127.62 146.309 127.434 146.498C127.249 146.687 127.002 146.848 126.694 146.98C126.385 147.113 126.009 147.179 125.565 147.179ZM125.744 146.125C126.208 146.125 126.599 146.034 126.917 145.852C127.239 145.669 127.481 145.434 127.643 145.146C127.809 144.857 127.892 144.554 127.892 144.236V143.162C127.842 143.222 127.733 143.276 127.564 143.326C127.398 143.372 127.206 143.414 126.987 143.45C126.772 143.483 126.561 143.513 126.356 143.54C126.153 143.563 125.989 143.583 125.863 143.599C125.559 143.639 125.273 143.704 125.008 143.793C124.747 143.879 124.534 144.01 124.372 144.186C124.213 144.358 124.133 144.594 124.133 144.892C124.133 145.3 124.284 145.608 124.586 145.817C124.891 146.022 125.277 146.125 125.744 146.125ZM132.38 142.406V147H131.207V139.364H132.34V140.557H132.44C132.619 140.169 132.89 139.857 133.255 139.622C133.62 139.384 134.09 139.264 134.667 139.264C135.184 139.264 135.636 139.37 136.024 139.582C136.412 139.791 136.714 140.109 136.929 140.537C137.144 140.961 137.252 141.498 137.252 142.148V147H136.079V142.227C136.079 141.627 135.923 141.16 135.612 140.825C135.3 140.487 134.872 140.318 134.329 140.318C133.954 140.318 133.62 140.399 133.325 140.562C133.033 140.724 132.803 140.961 132.634 141.273C132.464 141.584 132.38 141.962 132.38 142.406ZM142.28 147.159C141.643 147.159 141.081 146.998 140.594 146.677C140.107 146.352 139.726 145.895 139.451 145.305C139.176 144.711 139.038 144.01 139.038 143.202C139.038 142.4 139.176 141.704 139.451 141.114C139.726 140.524 140.109 140.068 140.599 139.746C141.09 139.425 141.657 139.264 142.3 139.264C142.797 139.264 143.189 139.347 143.478 139.513C143.769 139.675 143.992 139.861 144.144 140.07C144.3 140.275 144.421 140.444 144.507 140.577H144.606V136.818H145.78V147H144.646V145.827H144.507C144.421 145.966 144.298 146.142 144.139 146.354C143.98 146.562 143.753 146.75 143.458 146.915C143.163 147.078 142.77 147.159 142.28 147.159ZM142.439 146.105C142.909 146.105 143.307 145.982 143.632 145.737C143.957 145.489 144.204 145.146 144.373 144.708C144.542 144.267 144.626 143.759 144.626 143.182C144.626 142.612 144.543 142.113 144.378 141.685C144.212 141.254 143.967 140.92 143.642 140.681C143.317 140.439 142.916 140.318 142.439 140.318C141.942 140.318 141.527 140.446 141.196 140.701C140.868 140.953 140.621 141.296 140.455 141.73C140.293 142.161 140.211 142.645 140.211 143.182C140.211 143.725 140.294 144.219 140.46 144.663C140.629 145.104 140.878 145.455 141.206 145.717C141.537 145.976 141.948 146.105 142.439 146.105ZM151.631 137.912V136.818H159.268V137.912H156.066V147H154.833V137.912H151.631ZM160.892 149.864C160.693 149.864 160.516 149.847 160.36 149.814C160.204 149.784 160.097 149.754 160.037 149.724L160.335 148.69C160.62 148.763 160.872 148.79 161.091 148.77C161.31 148.75 161.504 148.652 161.673 148.477C161.845 148.304 162.002 148.024 162.145 147.636L162.364 147.04L159.54 139.364H160.812L162.92 145.449H163L165.108 139.364H166.381L163.139 148.114C162.993 148.508 162.813 148.835 162.597 149.093C162.382 149.355 162.132 149.549 161.847 149.675C161.565 149.801 161.247 149.864 160.892 149.864ZM167.929 149.864V139.364H169.063V140.577H169.202C169.288 140.444 169.408 140.275 169.56 140.07C169.716 139.861 169.938 139.675 170.226 139.513C170.518 139.347 170.912 139.264 171.409 139.264C172.052 139.264 172.619 139.425 173.11 139.746C173.6 140.068 173.983 140.524 174.258 141.114C174.533 141.704 174.671 142.4 174.671 143.202C174.671 144.01 174.533 144.711 174.258 145.305C173.983 145.895 173.602 146.352 173.115 146.677C172.627 146.998 172.066 147.159 171.429 147.159C170.939 147.159 170.546 147.078 170.251 146.915C169.956 146.75 169.729 146.562 169.57 146.354C169.411 146.142 169.288 145.966 169.202 145.827H169.103V149.864H167.929ZM169.083 143.182C169.083 143.759 169.167 144.267 169.336 144.708C169.505 145.146 169.752 145.489 170.077 145.737C170.402 145.982 170.8 146.105 171.27 146.105C171.761 146.105 172.17 145.976 172.498 145.717C172.83 145.455 173.078 145.104 173.244 144.663C173.413 144.219 173.498 143.725 173.498 143.182C173.498 142.645 173.415 142.161 173.249 141.73C173.087 141.296 172.84 140.953 172.508 140.701C172.18 140.446 171.767 140.318 171.27 140.318C170.793 140.318 170.392 140.439 170.067 140.681C169.742 140.92 169.497 141.254 169.331 141.685C169.166 142.113 169.083 142.612 169.083 143.182ZM179.662 147.159C178.926 147.159 178.292 146.997 177.758 146.672C177.228 146.344 176.819 145.886 176.53 145.3C176.245 144.71 176.103 144.024 176.103 143.241C176.103 142.459 176.245 141.77 176.53 141.173C176.819 140.573 177.22 140.106 177.733 139.771C178.25 139.433 178.854 139.264 179.543 139.264C179.941 139.264 180.333 139.33 180.721 139.463C181.109 139.596 181.462 139.811 181.78 140.109C182.098 140.404 182.352 140.795 182.541 141.283C182.73 141.77 182.824 142.37 182.824 143.082V143.58H176.938V142.565H181.631C181.631 142.134 181.545 141.75 181.373 141.412C181.203 141.074 180.962 140.807 180.647 140.612C180.335 140.416 179.967 140.318 179.543 140.318C179.076 140.318 178.671 140.434 178.33 140.666C177.992 140.895 177.732 141.193 177.549 141.561C177.367 141.929 177.276 142.323 177.276 142.744V143.42C177.276 143.997 177.375 144.486 177.574 144.887C177.776 145.285 178.056 145.588 178.414 145.797C178.772 146.002 179.188 146.105 179.662 146.105C179.971 146.105 180.249 146.062 180.498 145.976C180.749 145.886 180.967 145.754 181.149 145.578C181.331 145.399 181.472 145.177 181.571 144.912L182.705 145.23C182.586 145.615 182.385 145.953 182.103 146.244C181.822 146.533 181.474 146.758 181.059 146.92C180.645 147.08 180.179 147.159 179.662 147.159ZM190.336 139.364C190.277 138.86 190.035 138.469 189.61 138.19C189.186 137.912 188.666 137.773 188.049 137.773C187.599 137.773 187.204 137.846 186.866 137.991C186.531 138.137 186.27 138.338 186.081 138.593C185.895 138.848 185.802 139.138 185.802 139.463C185.802 139.735 185.867 139.969 185.996 140.164C186.129 140.356 186.298 140.517 186.503 140.646C186.709 140.772 186.924 140.877 187.15 140.96C187.375 141.039 187.582 141.104 187.771 141.153L188.805 141.432C189.07 141.501 189.365 141.598 189.69 141.72C190.018 141.843 190.331 142.01 190.63 142.222C190.931 142.431 191.18 142.7 191.375 143.028C191.571 143.356 191.669 143.759 191.669 144.236C191.669 144.786 191.525 145.283 191.236 145.727C190.951 146.171 190.533 146.524 189.983 146.786C189.436 147.048 188.772 147.179 187.99 147.179C187.261 147.179 186.629 147.061 186.096 146.826C185.565 146.591 185.148 146.263 184.843 145.842C184.541 145.421 184.37 144.932 184.331 144.375H185.603C185.636 144.759 185.766 145.078 185.991 145.33C186.22 145.578 186.508 145.764 186.856 145.886C187.208 146.006 187.585 146.065 187.99 146.065C188.46 146.065 188.883 145.989 189.257 145.837C189.632 145.681 189.929 145.465 190.147 145.19C190.366 144.912 190.475 144.587 190.475 144.216C190.475 143.878 190.381 143.603 190.192 143.391C190.003 143.179 189.755 143.006 189.446 142.874C189.138 142.741 188.805 142.625 188.447 142.526L187.194 142.168C186.399 141.939 185.769 141.612 185.305 141.188C184.841 140.764 184.609 140.209 184.609 139.523C184.609 138.953 184.763 138.455 185.071 138.031C185.383 137.604 185.801 137.272 186.324 137.037C186.851 136.798 187.44 136.679 188.089 136.679C188.745 136.679 189.329 136.797 189.839 137.032C190.35 137.264 190.754 137.582 191.052 137.987C191.354 138.391 191.513 138.85 191.529 139.364H190.336ZM196.639 147.159C195.923 147.159 195.307 146.99 194.79 146.652C194.273 146.314 193.875 145.848 193.596 145.255C193.318 144.662 193.179 143.984 193.179 143.222C193.179 142.446 193.321 141.762 193.606 141.168C193.895 140.572 194.296 140.106 194.809 139.771C195.327 139.433 195.93 139.264 196.619 139.264C197.156 139.264 197.64 139.364 198.071 139.562C198.502 139.761 198.855 140.04 199.13 140.398C199.405 140.756 199.576 141.173 199.642 141.651H198.469C198.379 141.303 198.18 140.994 197.872 140.726C197.567 140.454 197.156 140.318 196.639 140.318C196.182 140.318 195.781 140.437 195.436 140.676C195.095 140.911 194.828 141.245 194.635 141.675C194.447 142.103 194.352 142.605 194.352 143.182C194.352 143.772 194.445 144.286 194.631 144.723C194.819 145.161 195.085 145.5 195.426 145.742C195.771 145.984 196.175 146.105 196.639 146.105C196.944 146.105 197.221 146.052 197.469 145.946C197.718 145.84 197.928 145.688 198.101 145.489C198.273 145.29 198.396 145.051 198.469 144.773H199.642C199.576 145.223 199.412 145.629 199.15 145.991C198.891 146.349 198.548 146.634 198.121 146.846C197.696 147.055 197.202 147.159 196.639 147.159ZM201.357 147V139.364H202.491V140.517H202.57C202.709 140.139 202.961 139.833 203.326 139.597C203.69 139.362 204.101 139.244 204.559 139.244C204.645 139.244 204.753 139.246 204.882 139.249C205.011 139.253 205.109 139.258 205.175 139.264V140.457C205.135 140.447 205.044 140.433 204.902 140.413C204.763 140.389 204.615 140.378 204.459 140.378C204.088 140.378 203.757 140.456 203.465 140.612C203.177 140.764 202.948 140.976 202.779 141.248C202.613 141.516 202.53 141.823 202.53 142.168V147H201.357ZM206.566 147V139.364H207.739V147H206.566ZM207.163 138.091C206.934 138.091 206.737 138.013 206.571 137.857C206.409 137.701 206.327 137.514 206.327 137.295C206.327 137.077 206.409 136.889 206.571 136.734C206.737 136.578 206.934 136.5 207.163 136.5C207.391 136.5 207.587 136.578 207.749 136.734C207.915 136.889 207.998 137.077 207.998 137.295C207.998 137.514 207.915 137.701 207.749 137.857C207.587 138.013 207.391 138.091 207.163 138.091ZM209.888 149.864V139.364H211.022V140.577H211.161C211.247 140.444 211.367 140.275 211.519 140.07C211.675 139.861 211.897 139.675 212.185 139.513C212.477 139.347 212.871 139.264 213.368 139.264C214.011 139.264 214.578 139.425 215.069 139.746C215.559 140.068 215.942 140.524 216.217 141.114C216.492 141.704 216.63 142.4 216.63 143.202C216.63 144.01 216.492 144.711 216.217 145.305C215.942 145.895 215.561 146.352 215.074 146.677C214.586 146.998 214.025 147.159 213.388 147.159C212.898 147.159 212.505 147.078 212.21 146.915C211.915 146.75 211.688 146.562 211.529 146.354C211.37 146.142 211.247 145.966 211.161 145.827H211.062V149.864H209.888ZM211.042 143.182C211.042 143.759 211.126 144.267 211.295 144.708C211.464 145.146 211.711 145.489 212.036 145.737C212.361 145.982 212.759 146.105 213.229 146.105C213.72 146.105 214.129 145.976 214.457 145.717C214.789 145.455 215.037 145.104 215.203 144.663C215.372 144.219 215.456 143.725 215.456 143.182C215.456 142.645 215.374 142.161 215.208 141.73C215.046 141.296 214.799 140.953 214.467 140.701C214.139 140.446 213.726 140.318 213.229 140.318C212.752 140.318 212.351 140.439 212.026 140.681C211.701 140.92 211.456 141.254 211.29 141.685C211.125 142.113 211.042 142.612 211.042 143.182ZM221.741 139.364V140.358H217.783V139.364H221.741ZM218.937 137.534H220.11V144.812C220.11 145.144 220.158 145.393 220.254 145.558C220.354 145.721 220.479 145.83 220.632 145.886C220.788 145.939 220.952 145.966 221.124 145.966C221.253 145.966 221.359 145.959 221.442 145.946C221.525 145.929 221.591 145.916 221.641 145.906L221.88 146.96C221.8 146.99 221.689 147.02 221.547 147.05C221.404 147.083 221.224 147.099 221.005 147.099C220.673 147.099 220.349 147.028 220.03 146.886C219.715 146.743 219.454 146.526 219.245 146.234C219.039 145.943 218.937 145.575 218.937 145.131V137.534ZM224.361 147.08C224.115 147.08 223.905 146.992 223.729 146.816C223.554 146.64 223.466 146.43 223.466 146.185C223.466 145.939 223.554 145.729 223.729 145.553C223.905 145.378 224.115 145.29 224.361 145.29C224.606 145.29 224.816 145.378 224.992 145.553C225.168 145.729 225.256 145.939 225.256 146.185C225.256 146.347 225.214 146.496 225.131 146.632C225.052 146.768 224.944 146.877 224.808 146.96C224.675 147.04 224.526 147.08 224.361 147.08Z" fill="#333333"/>
</g>
<defs>
<clipPath id="clip0_8_3">
<rect width="268" height="84" fill="white" transform="translate(16 68)"/>
</clipPath>
</defs>
</svg>
