<svg width="300" height="200" viewBox="0 0 300 200" fill="none" xmlns="http://www.w3.org/2000/svg">
<rect width="300" height="200" rx="16" fill="#FAFAFA"/>
<rect x="24" y="24" width="40" height="40" rx="4" fill="#F5F5F5"/>
<path d="M46.23 44.004C46.23 44.5968 45.9946 45.1654 45.5754 45.5847C45.1563 46.004 44.5879 46.2397 43.995 46.24C43.402 46.24 42.8332 46.0044 42.4139 45.5851C41.9946 45.1658 41.759 44.597 41.759 44.004C41.759 43.4111 41.9944 42.8426 42.4136 42.4233C42.8327 42.004 43.4011 41.7683 43.994 41.768C44.587 41.768 45.1558 42.0036 45.5751 42.4229C45.9944 42.8422 46.23 43.411 46.23 44.004ZM48.878 33.314C47.532 33.314 45.771 34.274 43.99 35.936C42.21 34.283 40.448 33.334 39.103 33.334C38.693 33.334 38.32 33.427 37.997 33.612C36.622 34.405 36.314 36.876 37.024 39.977C33.98 40.917 32 42.42 32 44.004C32 45.594 33.99 47.101 37.043 48.034C36.339 51.147 36.653 53.622 38.031 54.414C38.351 54.601 38.721 54.689 39.133 54.689C40.478 54.689 42.24 53.729 44.021 52.065C45.801 53.719 47.563 54.668 48.908 54.668C49.318 54.668 49.691 54.578 50.014 54.393C51.388 53.601 51.697 51.13 50.987 48.028C54.02 47.096 56 45.59 56 44.004C56 42.414 54.01 40.907 50.957 39.972C51.661 36.862 51.347 34.385 49.969 33.592C49.651 33.408 49.282 33.315 48.878 33.314ZM48.873 34.404V34.41C49.098 34.41 49.279 34.454 49.431 34.537C50.097 34.919 50.386 36.372 50.161 38.241C50.107 38.701 50.019 39.186 49.911 39.681C48.951 39.445 47.905 39.264 46.804 39.147C46.144 38.242 45.459 37.42 44.769 36.7C46.361 35.22 47.856 34.408 48.874 34.405L48.873 34.404ZM39.103 34.424C40.115 34.424 41.617 35.232 43.213 36.704C42.527 37.424 41.843 38.241 41.193 39.146C40.086 39.263 39.039 39.444 38.08 39.684C37.968 39.194 37.885 38.72 37.826 38.264C37.596 36.396 37.88 34.944 38.54 34.557C38.73 34.467 38.94 34.429 39.103 34.424ZM43.985 37.474C44.44 37.942 44.895 38.466 45.345 39.038C44.905 39.018 44.455 39.004 44 39.004C43.54 39.004 43.085 39.014 42.64 39.038C43.08 38.466 43.535 37.943 43.985 37.474ZM44 40.1C44.74 40.1 45.477 40.134 46.202 40.193C46.608 40.775 47.004 41.396 47.385 42.053C47.757 42.693 48.095 43.343 48.403 43.999C48.095 44.654 47.757 45.309 47.39 45.949C47.01 46.609 46.617 47.237 46.21 47.819C45.482 47.882 44.744 47.917 44 47.917C43.26 47.917 42.523 47.882 41.798 47.824C41.392 47.242 40.996 46.62 40.615 45.964C40.243 45.324 39.905 44.674 39.597 44.018C39.9 43.361 40.243 42.705 40.61 42.064C40.99 41.404 41.383 40.778 41.79 40.196C42.518 40.132 43.256 40.098 44 40.098V40.1ZM40.365 40.354C40.125 40.731 39.885 41.117 39.661 41.514C39.436 41.904 39.226 42.296 39.026 42.688C38.761 42.032 38.536 41.378 38.35 40.741C38.99 40.591 39.665 40.457 40.365 40.354ZM47.625 40.354C48.32 40.457 48.99 40.584 49.631 40.741C49.451 41.373 49.226 42.023 48.971 42.674C48.771 42.284 48.561 41.891 48.331 41.5C48.106 41.108 47.866 40.726 47.626 40.354H47.625ZM50.688 41.029C51.172 41.179 51.632 41.346 52.063 41.527C53.795 42.267 54.915 43.235 54.915 44.003C54.91 44.771 53.79 45.743 52.058 46.478C51.638 46.658 51.178 46.82 50.703 46.971C50.423 46.013 50.057 45.015 49.603 43.991C50.053 42.974 50.413 41.981 50.688 41.027V41.029ZM37.293 41.033C37.571 41.993 37.938 42.99 38.393 44.013C37.943 45.03 37.581 46.023 37.307 46.977C36.823 46.827 36.363 46.659 35.937 46.477C34.205 45.74 33.085 44.771 33.085 44.003C33.085 43.235 34.205 42.261 35.937 41.527C36.357 41.347 36.817 41.185 37.293 41.033ZM48.971 45.313C49.236 45.97 49.461 46.625 49.647 47.261C49.007 47.418 48.331 47.551 47.631 47.651C47.871 47.276 48.111 46.889 48.336 46.493C48.561 46.103 48.77 45.705 48.971 45.313ZM39.026 45.333C39.226 45.725 39.436 46.116 39.666 46.508C39.896 46.898 40.131 47.28 40.371 47.651C39.676 47.549 39.006 47.421 38.365 47.265C38.545 46.635 38.771 45.983 39.025 45.332L39.026 45.333ZM49.92 48.32C50.032 48.813 50.12 49.288 50.174 49.743C50.404 51.611 50.12 53.063 49.46 53.451C49.313 53.541 49.122 53.579 48.897 53.579C47.885 53.579 46.383 52.772 44.787 51.299C45.473 50.579 46.157 49.763 46.807 48.859C47.914 48.741 48.961 48.56 49.92 48.32ZM38.09 48.33C39.05 48.564 40.096 48.745 41.197 48.862C41.857 49.767 42.542 50.589 43.232 51.308C41.637 52.791 40.14 53.603 39.122 53.603C38.902 53.598 38.716 53.553 38.569 53.471C37.903 53.091 37.614 51.637 37.839 49.768C37.893 49.308 37.982 48.824 38.09 48.33ZM42.65 48.97C43.09 48.99 43.54 49.004 43.995 49.004C44.455 49.004 44.91 48.994 45.355 48.97C44.915 49.542 44.46 50.065 44.01 50.535C43.555 50.065 43.1 49.542 42.65 48.97Z" fill="#61DAFB"/>
<path d="M81.4091 49.5V37.8636H85.3409C86.25 37.8636 86.9962 38.0189 87.5795 38.3295C88.1629 38.6364 88.5947 39.0587 88.875 39.5966C89.1553 40.1345 89.2955 40.7462 89.2955 41.4318C89.2955 42.1174 89.1553 42.7254 88.875 43.2557C88.5947 43.786 88.1648 44.2027 87.5852 44.5057C87.0057 44.8049 86.2652 44.9545 85.3636 44.9545H82.1818V43.6818H85.3182C85.9394 43.6818 86.4394 43.5909 86.8182 43.4091C87.2008 43.2273 87.4773 42.9697 87.6477 42.6364C87.822 42.2992 87.9091 41.8977 87.9091 41.4318C87.9091 40.9659 87.822 40.5587 87.6477 40.2102C87.4735 39.8617 87.1951 39.5928 86.8125 39.4034C86.4299 39.2102 85.9242 39.1136 85.2955 39.1136H82.8182V49.5H81.4091ZM86.8864 44.2727L89.75 49.5H88.1136L85.2955 44.2727H86.8864ZM95.027 49.6818C94.1861 49.6818 93.4607 49.4962 92.8509 49.125C92.2448 48.75 91.777 48.2273 91.4474 47.5568C91.1217 46.8826 90.9588 46.0985 90.9588 45.2045C90.9588 44.3106 91.1217 43.5227 91.4474 42.8409C91.777 42.1553 92.2353 41.6212 92.8224 41.2386C93.4134 40.8523 94.1027 40.6591 94.8906 40.6591C95.3452 40.6591 95.794 40.7348 96.2372 40.8864C96.6804 41.0379 97.0838 41.2841 97.4474 41.625C97.8111 41.9621 98.1009 42.4091 98.3168 42.9659C98.5327 43.5227 98.6406 44.2083 98.6406 45.0227V45.5909H91.9134V44.4318H97.277C97.277 43.9394 97.1785 43.5 96.9815 43.1136C96.7884 42.7273 96.5118 42.4223 96.152 42.1989C95.7959 41.9754 95.3755 41.8636 94.8906 41.8636C94.3565 41.8636 93.8944 41.9962 93.5043 42.2614C93.1179 42.5227 92.8205 42.8636 92.6122 43.2841C92.4039 43.7045 92.2997 44.1553 92.2997 44.6364V45.4091C92.2997 46.0682 92.4134 46.6269 92.6406 47.0852C92.8717 47.5398 93.1918 47.8864 93.6009 48.125C94.0099 48.3598 94.4853 48.4773 95.027 48.4773C95.3793 48.4773 95.6974 48.428 95.9815 48.3295C96.2694 48.2273 96.5175 48.0758 96.7259 47.875C96.9342 47.6705 97.0952 47.4167 97.2088 47.1136L98.5043 47.4773C98.3679 47.9167 98.1387 48.303 97.8168 48.6364C97.4948 48.9659 97.0971 49.2235 96.6236 49.4091C96.1501 49.5909 95.6179 49.6818 95.027 49.6818ZM103.249 49.7045C102.696 49.7045 102.194 49.6004 101.743 49.392C101.292 49.1799 100.934 48.875 100.669 48.4773C100.404 48.0758 100.271 47.5909 100.271 47.0227C100.271 46.5227 100.37 46.1174 100.567 45.8068C100.764 45.4924 101.027 45.2462 101.357 45.0682C101.686 44.8902 102.05 44.7576 102.447 44.6705C102.849 44.5795 103.252 44.5076 103.658 44.4545C104.188 44.3864 104.618 44.3352 104.947 44.3011C105.281 44.2633 105.523 44.2008 105.675 44.1136C105.83 44.0265 105.908 43.875 105.908 43.6591V43.6136C105.908 43.053 105.754 42.6174 105.447 42.3068C105.144 41.9962 104.684 41.8409 104.067 41.8409C103.427 41.8409 102.925 41.9811 102.561 42.2614C102.197 42.5417 101.942 42.8409 101.794 43.1591L100.521 42.7045C100.749 42.1742 101.052 41.7614 101.43 41.4659C101.813 41.1667 102.23 40.9583 102.68 40.8409C103.135 40.7197 103.582 40.6591 104.021 40.6591C104.302 40.6591 104.624 40.6932 104.987 40.7614C105.355 40.8258 105.709 40.9602 106.05 41.1648C106.394 41.3693 106.68 41.678 106.908 42.0909C107.135 42.5038 107.249 43.0568 107.249 43.75V49.5H105.908V48.3182H105.839C105.749 48.5076 105.597 48.7102 105.385 48.9261C105.173 49.142 104.891 49.3258 104.538 49.4773C104.186 49.6288 103.756 49.7045 103.249 49.7045ZM103.453 48.5C103.983 48.5 104.43 48.3958 104.794 48.1875C105.161 47.9792 105.438 47.7102 105.624 47.3807C105.813 47.0511 105.908 46.7045 105.908 46.3409V45.1136C105.851 45.1818 105.726 45.2443 105.533 45.3011C105.343 45.3542 105.124 45.4015 104.874 45.4432C104.627 45.4811 104.387 45.5152 104.152 45.5455C103.921 45.572 103.733 45.5947 103.589 45.6136C103.241 45.6591 102.915 45.733 102.612 45.8352C102.313 45.9337 102.071 46.0833 101.885 46.2841C101.703 46.4811 101.612 46.75 101.612 47.0909C101.612 47.5568 101.785 47.9091 102.129 48.1477C102.478 48.3826 102.919 48.5 103.453 48.5ZM113.241 49.6818C112.423 49.6818 111.719 49.4886 111.128 49.1023C110.537 48.7159 110.082 48.1837 109.764 47.5057C109.446 46.8277 109.287 46.053 109.287 45.1818C109.287 44.2955 109.45 43.5133 109.776 42.8352C110.105 42.1534 110.563 41.6212 111.151 41.2386C111.741 40.8523 112.431 40.6591 113.219 40.6591C113.832 40.6591 114.385 40.7727 114.878 41C115.37 41.2273 115.774 41.5455 116.088 41.9545C116.402 42.3636 116.598 42.8409 116.673 43.3864H115.332C115.23 42.9886 115.003 42.6364 114.651 42.3295C114.302 42.0189 113.832 41.8636 113.241 41.8636C112.719 41.8636 112.26 42 111.866 42.2727C111.476 42.5417 111.171 42.9223 110.952 43.4148C110.736 43.9034 110.628 44.4773 110.628 45.1364C110.628 45.8106 110.734 46.3977 110.946 46.8977C111.162 47.3977 111.465 47.786 111.855 48.0625C112.249 48.339 112.711 48.4773 113.241 48.4773C113.59 48.4773 113.906 48.4167 114.19 48.2955C114.474 48.1742 114.715 48 114.912 47.7727C115.109 47.5455 115.249 47.2727 115.332 46.9545H116.673C116.598 47.4697 116.41 47.9337 116.111 48.3466C115.815 48.7557 115.423 49.0814 114.935 49.3239C114.45 49.5625 113.885 49.6818 113.241 49.6818ZM122.429 40.7727V41.9091H117.906V40.7727H122.429ZM119.224 38.6818H120.565V47C120.565 47.3788 120.62 47.6629 120.73 47.8523C120.844 48.0379 120.988 48.1629 121.162 48.2273C121.34 48.2879 121.527 48.3182 121.724 48.3182C121.872 48.3182 121.993 48.3106 122.088 48.2955C122.183 48.2765 122.259 48.2614 122.315 48.25L122.588 49.4545C122.497 49.4886 122.37 49.5227 122.207 49.5568C122.045 49.5947 121.838 49.6136 121.588 49.6136C121.209 49.6136 120.838 49.5322 120.474 49.3693C120.115 49.2064 119.815 48.9583 119.577 48.625C119.342 48.2917 119.224 47.8712 119.224 47.3636V38.6818Z" fill="#333333"/>
<g clip-path="url(#clip0_8_3)">
<path d="M25.233 96V85.8182H28.6733C29.4688 85.8182 30.1217 85.9541 30.6321 86.2259C31.1425 86.4943 31.5204 86.8639 31.7656 87.3345C32.0109 87.8052 32.1335 88.3404 32.1335 88.9403C32.1335 89.5402 32.0109 90.0722 31.7656 90.5362C31.5204 91.0002 31.1442 91.3648 30.6371 91.63C30.13 91.8918 29.482 92.0227 28.6932 92.0227H25.9091V90.9091H28.6534C29.197 90.9091 29.6345 90.8295 29.9659 90.6705C30.3007 90.5114 30.5426 90.286 30.6918 89.9943C30.8442 89.6993 30.9205 89.348 30.9205 88.9403C30.9205 88.5327 30.8442 88.1764 30.6918 87.8714C30.5393 87.5665 30.2957 87.3312 29.9609 87.1655C29.6262 86.9964 29.1837 86.9119 28.6335 86.9119H26.4659V96H25.233ZM30.0256 91.4261L32.5312 96H31.0994L28.6335 91.4261H30.0256ZM37.1486 96.1591C36.4128 96.1591 35.7781 95.9967 35.2445 95.6719C34.7142 95.3438 34.3049 94.8864 34.0165 94.2997C33.7315 93.7098 33.589 93.0237 33.589 92.2415C33.589 91.4593 33.7315 90.7699 34.0165 90.1733C34.3049 89.5734 34.7059 89.1061 35.2196 88.7713C35.7367 88.4332 36.3399 88.2642 37.0293 88.2642C37.427 88.2642 37.8198 88.3305 38.2076 88.4631C38.5953 88.5956 38.9483 88.8111 39.2665 89.1094C39.5847 89.4044 39.8382 89.7955 40.0272 90.2827C40.2161 90.7699 40.3105 91.3698 40.3105 92.0824V92.5795H34.4242V91.5653H39.1174C39.1174 91.1345 39.0312 90.75 38.8588 90.4119C38.6898 90.0739 38.4479 89.8071 38.133 89.6115C37.8214 89.416 37.4535 89.3182 37.0293 89.3182C36.562 89.3182 36.1576 89.4342 35.8162 89.6662C35.4782 89.8949 35.218 90.1932 35.0357 90.5611C34.8534 90.929 34.7623 91.3234 34.7623 91.7443V92.4205C34.7623 92.9972 34.8617 93.486 35.0605 93.8871C35.2627 94.2848 35.5428 94.5881 35.9007 94.7969C36.2587 95.0024 36.6747 95.1051 37.1486 95.1051C37.4569 95.1051 37.7353 95.062 37.9838 94.9759C38.2357 94.8864 38.4528 94.7538 38.6351 94.5781C38.8174 94.3991 38.9583 94.1771 39.0577 93.9119L40.1912 94.2301C40.0719 94.6146 39.8714 94.9527 39.5897 95.2443C39.3079 95.5327 38.9599 95.758 38.5456 95.9205C38.1313 96.0795 37.6657 96.1591 37.1486 96.1591ZM44.3425 96.179C43.8586 96.179 43.4194 96.0878 43.025 95.9055C42.6306 95.7199 42.3174 95.4531 42.0854 95.1051C41.8534 94.7538 41.7374 94.3295 41.7374 93.8324C41.7374 93.3949 41.8236 93.0402 41.9959 92.7685C42.1683 92.4934 42.3986 92.2779 42.687 92.1222C42.9753 91.9664 43.2935 91.8504 43.6415 91.7741C43.9928 91.6946 44.3458 91.6316 44.7005 91.5852C45.1645 91.5256 45.5407 91.4808 45.829 91.451C46.1207 91.4179 46.3328 91.3632 46.4654 91.2869C46.6013 91.2107 46.6692 91.0781 46.6692 90.8892V90.8494C46.6692 90.3589 46.535 89.9777 46.2665 89.706C46.0014 89.4342 45.5987 89.2983 45.0584 89.2983C44.4983 89.2983 44.0591 89.4209 43.7409 89.6662C43.4228 89.9115 43.199 90.1733 43.0698 90.4517L41.9561 90.054C42.155 89.59 42.4202 89.2287 42.7516 88.9702C43.0864 88.7083 43.4509 88.526 43.8453 88.4233C44.2431 88.3172 44.6342 88.2642 45.0186 88.2642C45.2639 88.2642 45.5456 88.294 45.8638 88.3537C46.1853 88.41 46.4952 88.5277 46.7935 88.7067C47.0951 88.8857 47.3453 89.1558 47.5442 89.517C47.7431 89.8783 47.8425 90.3622 47.8425 90.9688V96H46.6692V94.9659H46.6096C46.53 95.1316 46.3974 95.3089 46.2118 95.4979C46.0262 95.6868 45.7793 95.8475 45.4711 95.9801C45.1628 96.1127 44.7866 96.179 44.3425 96.179ZM44.5215 95.125C44.9855 95.125 45.3766 95.0339 45.6948 94.8516C46.0163 94.6693 46.2582 94.4339 46.4206 94.1456C46.5864 93.8572 46.6692 93.554 46.6692 93.2358V92.1619C46.6195 92.2216 46.5101 92.2763 46.3411 92.326C46.1754 92.3724 45.9831 92.4138 45.7644 92.4503C45.5489 92.4834 45.3385 92.5133 45.133 92.5398C44.9308 92.563 44.7667 92.5829 44.6408 92.5994C44.3359 92.6392 44.0508 92.7038 43.7857 92.7933C43.5239 92.8795 43.3117 93.0104 43.1493 93.1861C42.9902 93.3584 42.9107 93.5937 42.9107 93.892C42.9107 94.2997 43.0615 94.608 43.3631 94.8168C43.668 95.0223 44.0542 95.125 44.5215 95.125ZM53.0863 96.1591C52.3704 96.1591 51.7539 95.9901 51.2369 95.652C50.7198 95.3139 50.3221 94.8482 50.0437 94.255C49.7653 93.6617 49.6261 92.9839 49.6261 92.2216C49.6261 91.446 49.7686 90.7616 50.0536 90.1683C50.342 89.5717 50.743 89.1061 51.2567 88.7713C51.7738 88.4332 52.377 88.2642 53.0664 88.2642C53.6033 88.2642 54.0872 88.3636 54.5181 88.5625C54.949 88.7614 55.302 89.0398 55.5771 89.3977C55.8522 89.7557 56.0228 90.1733 56.0891 90.6506H54.9158C54.8263 90.3026 54.6275 89.9943 54.3192 89.7259C54.0143 89.4541 53.6033 89.3182 53.0863 89.3182C52.6289 89.3182 52.2279 89.4375 51.8832 89.6761C51.5418 89.9115 51.275 90.2446 51.0827 90.6754C50.8938 91.103 50.7994 91.6051 50.7994 92.1818C50.7994 92.7718 50.8922 93.2855 51.0778 93.723C51.2667 94.1605 51.5318 94.5002 51.8732 94.7422C52.2179 94.9841 52.6223 95.1051 53.0863 95.1051C53.3912 95.1051 53.668 95.0521 53.9165 94.946C54.1651 94.84 54.3756 94.6875 54.5479 94.4886C54.7203 94.2898 54.8429 94.0511 54.9158 93.7727H56.0891C56.0228 94.2235 55.8588 94.6295 55.5969 94.9908C55.3384 95.3487 54.9954 95.6338 54.5678 95.8459C54.1436 96.0547 53.6497 96.1591 53.0863 96.1591ZM61.1254 88.3636V89.358H57.168V88.3636H61.1254ZM58.3214 86.5341H59.4947V93.8125C59.4947 94.1439 59.5427 94.3925 59.6388 94.5582C59.7383 94.7206 59.8642 94.83 60.0167 94.8864C60.1725 94.9394 60.3365 94.9659 60.5089 94.9659C60.6381 94.9659 60.7442 94.9593 60.8271 94.946C60.9099 94.9295 60.9762 94.9162 61.0259 94.9062L61.2646 95.9602C61.185 95.9901 61.074 96.0199 60.9315 96.0497C60.7889 96.0829 60.6083 96.0994 60.3896 96.0994C60.0581 96.0994 59.7333 96.0282 59.4151 95.8857C59.1003 95.7431 58.8384 95.526 58.6296 95.2344C58.4241 94.9427 58.3214 94.5748 58.3214 94.1307V86.5341ZM64.6403 94.608L64.5607 95.1449C64.5044 95.5227 64.4182 95.9271 64.3022 96.358C64.1895 96.7888 64.0719 97.1948 63.9492 97.576C63.8266 97.9571 63.7255 98.2604 63.646 98.4858H62.7511C62.7942 98.2737 62.8505 97.9936 62.9201 97.6456C62.9897 97.2976 63.0593 96.9081 63.1289 96.4773C63.2018 96.0497 63.2615 95.6122 63.3079 95.1648L63.3675 94.608H64.6403ZM74.0726 88.3636V89.358H70.1152V88.3636H74.0726ZM71.2686 86.5341H72.4419V93.8125C72.4419 94.1439 72.49 94.3925 72.5861 94.5582C72.6855 94.7206 72.8115 94.83 72.964 94.8864C73.1197 94.9394 73.2838 94.9659 73.4561 94.9659C73.5854 94.9659 73.6915 94.9593 73.7743 94.946C73.8572 94.9295 73.9235 94.9162 73.9732 94.9062L74.2118 95.9602C74.1323 95.9901 74.0212 96.0199 73.8787 96.0497C73.7362 96.0829 73.5556 96.0994 73.3368 96.0994C73.0054 96.0994 72.6806 96.0282 72.3624 95.8857C72.0475 95.7431 71.7857 95.526 71.5769 95.2344C71.3714 94.9427 71.2686 94.5748 71.2686 94.1307V86.5341ZM81.1099 90.0739L80.0559 90.3722C79.9896 90.1965 79.8919 90.0258 79.7626 89.8601C79.6367 89.6911 79.4643 89.5518 79.2456 89.4425C79.0268 89.3331 78.7467 89.2784 78.4054 89.2784C77.938 89.2784 77.5486 89.3861 77.237 89.6016C76.9288 89.8137 76.7747 90.0838 76.7747 90.4119C76.7747 90.7036 76.8807 90.9339 77.0929 91.103C77.305 91.272 77.6364 91.4129 78.0872 91.5256L79.2207 91.804C79.9035 91.9697 80.4122 92.2232 80.747 92.5646C81.0817 92.9027 81.2491 93.3385 81.2491 93.8722C81.2491 94.3097 81.1232 94.7008 80.8713 95.0455C80.6227 95.3902 80.2747 95.6619 79.8272 95.8608C79.3798 96.0597 78.8594 96.1591 78.2662 96.1591C77.4873 96.1591 76.8426 95.9901 76.3322 95.652C75.8218 95.3139 75.4986 94.8201 75.3627 94.1705L76.4764 93.892C76.5824 94.303 76.783 94.6113 77.0779 94.8168C77.3762 95.0223 77.7657 95.125 78.2463 95.125C78.7931 95.125 79.2273 95.009 79.5488 94.777C79.8736 94.5417 80.036 94.2599 80.036 93.9318C80.036 93.6667 79.9432 93.4446 79.7576 93.2656C79.572 93.0833 79.287 92.9474 78.9025 92.858L77.6298 92.5597C76.9305 92.3939 76.4167 92.1371 76.0886 91.7891C75.7638 91.4377 75.6014 90.9986 75.6014 90.4716C75.6014 90.0407 75.7224 89.6596 75.9643 89.3281C76.2096 88.9967 76.5427 88.7365 76.9636 88.5476C77.3878 88.3587 77.8684 88.2642 78.4054 88.2642C79.161 88.2642 79.7543 88.4299 80.1852 88.7614C80.6194 89.0928 80.9276 89.5303 81.1099 90.0739ZM83.8903 88.3636L85.7198 91.4858L87.5494 88.3636H88.9016L86.4357 92.1818L88.9016 96H87.5494L85.7198 93.0369L83.8903 96H82.538L84.9641 92.1818L82.538 88.3636H83.8903ZM92.3258 94.608L92.2463 95.1449C92.1899 95.5227 92.1038 95.9271 91.9877 96.358C91.8751 96.7888 91.7574 97.1948 91.6348 97.576C91.5121 97.9571 91.411 98.2604 91.3315 98.4858H90.4366C90.4797 98.2737 90.536 97.9936 90.6056 97.6456C90.6752 97.2976 90.7449 96.9081 90.8145 96.4773C90.8874 96.0497 90.947 95.6122 90.9934 95.1648L91.0531 94.608H92.3258ZM98.5962 96V85.8182H102.037C102.832 85.8182 103.485 85.9541 103.995 86.2259C104.506 86.4943 104.884 86.8639 105.129 87.3345C105.374 87.8052 105.497 88.3404 105.497 88.9403C105.497 89.5402 105.374 90.0722 105.129 90.5362C104.884 91.0002 104.507 91.3648 104 91.63C103.493 91.8918 102.845 92.0227 102.056 92.0227H99.2724V90.9091H102.017C102.56 90.9091 102.998 90.8295 103.329 90.6705C103.664 90.5114 103.906 90.286 104.055 89.9943C104.208 89.6993 104.284 89.348 104.284 88.9403C104.284 88.5327 104.208 88.1764 104.055 87.8714C103.903 87.5665 103.659 87.3312 103.324 87.1655C102.989 86.9964 102.547 86.9119 101.997 86.9119H99.8292V96H98.5962ZM103.389 91.4261L105.895 96H104.463L101.997 91.4261H103.389ZM110.512 96.1591C109.776 96.1591 109.141 95.9967 108.608 95.6719C108.077 95.3438 107.668 94.8864 107.38 94.2997C107.095 93.7098 106.952 93.0237 106.952 92.2415C106.952 91.4593 107.095 90.7699 107.38 90.1733C107.668 89.5734 108.069 89.1061 108.583 88.7713C109.1 88.4332 109.703 88.2642 110.393 88.2642C110.79 88.2642 111.183 88.3305 111.571 88.4631C111.959 88.5956 112.312 88.8111 112.63 89.1094C112.948 89.4044 113.202 89.7955 113.39 90.2827C113.579 90.7699 113.674 91.3698 113.674 92.0824V92.5795H107.787V91.5653H112.481C112.481 91.1345 112.394 90.75 112.222 90.4119C112.053 90.0739 111.811 89.8071 111.496 89.6115C111.185 89.416 110.817 89.3182 110.393 89.3182C109.925 89.3182 109.521 89.4342 109.18 89.6662C108.841 89.8949 108.581 90.1932 108.399 90.5611C108.217 90.929 108.126 91.3234 108.126 91.7443V92.4205C108.126 92.9972 108.225 93.486 108.424 93.8871C108.626 94.2848 108.906 94.5881 109.264 94.7969C109.622 95.0024 110.038 95.1051 110.512 95.1051C110.82 95.1051 111.099 95.062 111.347 94.9759C111.599 94.8864 111.816 94.7538 111.998 94.5781C112.181 94.3991 112.322 94.1771 112.421 93.9119L113.555 94.2301C113.435 94.6146 113.235 94.9527 112.953 95.2443C112.671 95.5327 112.323 95.758 111.909 95.9205C111.495 96.0795 111.029 96.1591 110.512 96.1591ZM117.706 96.179C117.222 96.179 116.783 96.0878 116.388 95.9055C115.994 95.7199 115.681 95.4531 115.449 95.1051C115.217 94.7538 115.101 94.3295 115.101 93.8324C115.101 93.3949 115.187 93.0402 115.359 92.7685C115.532 92.4934 115.762 92.2779 116.05 92.1222C116.339 91.9664 116.657 91.8504 117.005 91.7741C117.356 91.6946 117.709 91.6316 118.064 91.5852C118.528 91.5256 118.904 91.4808 119.192 91.451C119.484 91.4179 119.696 91.3632 119.829 91.2869C119.965 91.2107 120.032 91.0781 120.032 90.8892V90.8494C120.032 90.3589 119.898 89.9777 119.63 89.706C119.365 89.4342 118.962 89.2983 118.422 89.2983C117.862 89.2983 117.422 89.4209 117.104 89.6662C116.786 89.9115 116.562 90.1733 116.433 90.4517L115.319 90.054C115.518 89.59 115.783 89.2287 116.115 88.9702C116.45 88.7083 116.814 88.526 117.209 88.4233C117.606 88.3172 117.997 88.2642 118.382 88.2642C118.627 88.2642 118.909 88.294 119.227 88.3537C119.549 88.41 119.858 88.5277 120.157 88.7067C120.458 88.8857 120.709 89.1558 120.907 89.517C121.106 89.8783 121.206 90.3622 121.206 90.9688V96H120.032V94.9659H119.973C119.893 95.1316 119.761 95.3089 119.575 95.4979C119.39 95.6868 119.143 95.8475 118.834 95.9801C118.526 96.1127 118.15 96.179 117.706 96.179ZM117.885 95.125C118.349 95.125 118.74 95.0339 119.058 94.8516C119.38 94.6693 119.622 94.4339 119.784 94.1456C119.95 93.8572 120.032 93.554 120.032 93.2358V92.1619C119.983 92.2216 119.873 92.2763 119.704 92.326C119.539 92.3724 119.346 92.4138 119.128 92.4503C118.912 92.4834 118.702 92.5133 118.496 92.5398C118.294 92.563 118.13 92.5829 118.004 92.5994C117.699 92.6392 117.414 92.7038 117.149 92.7933C116.887 92.8795 116.675 93.0104 116.513 93.1861C116.354 93.3584 116.274 93.5937 116.274 93.892C116.274 94.2997 116.425 94.608 116.726 94.8168C117.031 95.0223 117.417 95.125 117.885 95.125ZM126.45 96.1591C125.734 96.1591 125.117 95.9901 124.6 95.652C124.083 95.3139 123.685 94.8482 123.407 94.255C123.129 93.6617 122.989 92.9839 122.989 92.2216C122.989 91.446 123.132 90.7616 123.417 90.1683C123.705 89.5717 124.106 89.1061 124.62 88.7713C125.137 88.4332 125.74 88.2642 126.43 88.2642C126.967 88.2642 127.451 88.3636 127.881 88.5625C128.312 88.7614 128.665 89.0398 128.94 89.3977C129.215 89.7557 129.386 90.1733 129.452 90.6506H128.279C128.19 90.3026 127.991 89.9943 127.683 89.7259C127.378 89.4541 126.967 89.3182 126.45 89.3182C125.992 89.3182 125.591 89.4375 125.246 89.6761C124.905 89.9115 124.638 90.2446 124.446 90.6754C124.257 91.103 124.163 91.6051 124.163 92.1818C124.163 92.7718 124.255 93.2855 124.441 93.723C124.63 94.1605 124.895 94.5002 125.237 94.7422C125.581 94.9841 125.986 95.1051 126.45 95.1051C126.754 95.1051 127.031 95.0521 127.28 94.946C127.528 94.84 127.739 94.6875 127.911 94.4886C128.084 94.2898 128.206 94.0511 128.279 93.7727H129.452C129.386 94.2235 129.222 94.6295 128.96 94.9908C128.702 95.3487 128.359 95.6338 127.931 95.8459C127.507 96.0547 127.013 96.1591 126.45 96.1591ZM134.489 88.3636V89.358H130.531V88.3636H134.489ZM131.685 86.5341H132.858V93.8125C132.858 94.1439 132.906 94.3925 133.002 94.5582C133.102 94.7206 133.228 94.83 133.38 94.8864C133.536 94.9394 133.7 94.9659 133.872 94.9659C134.001 94.9659 134.107 94.9593 134.19 94.946C134.273 94.9295 134.339 94.9162 134.389 94.9062L134.628 95.9602C134.548 95.9901 134.437 96.0199 134.295 96.0497C134.152 96.0829 133.972 96.0994 133.753 96.0994C133.421 96.0994 133.097 96.0282 132.778 95.8857C132.464 95.7431 132.202 95.526 131.993 95.2344C131.787 94.9427 131.685 94.5748 131.685 94.1307V86.5341ZM140.35 96V85.8182H143.79C144.586 85.8182 145.239 85.9541 145.749 86.2259C146.26 86.4943 146.638 86.8639 146.883 87.3345C147.128 87.8052 147.251 88.3404 147.251 88.9403C147.251 89.5402 147.128 90.0722 146.883 90.5362C146.638 91.0002 146.261 91.3648 145.754 91.63C145.247 91.8918 144.599 92.0227 143.81 92.0227H141.026V90.9091H143.771C144.314 90.9091 144.752 90.8295 145.083 90.6705C145.418 90.5114 145.66 90.286 145.809 89.9943C145.961 89.6993 146.038 89.348 146.038 88.9403C146.038 88.5327 145.961 88.1764 145.809 87.8714C145.656 87.5665 145.413 87.3312 145.078 87.1655C144.743 86.9964 144.301 86.9119 143.751 86.9119H141.583V96H140.35ZM145.143 91.4261L147.648 96H146.217L143.751 91.4261H145.143ZM152.166 96.1591C151.477 96.1591 150.872 95.995 150.352 95.6669C149.835 95.3388 149.43 94.8797 149.139 94.2898C148.85 93.6998 148.706 93.0104 148.706 92.2216C148.706 91.4261 148.85 90.7318 149.139 90.1385C149.43 89.5452 149.835 89.0845 150.352 88.7564C150.872 88.4283 151.477 88.2642 152.166 88.2642C152.856 88.2642 153.459 88.4283 153.976 88.7564C154.496 89.0845 154.901 89.5452 155.189 90.1385C155.481 90.7318 155.627 91.4261 155.627 92.2216C155.627 93.0104 155.481 93.6998 155.189 94.2898C154.901 94.8797 154.496 95.3388 153.976 95.6669C153.459 95.995 152.856 96.1591 152.166 96.1591ZM152.166 95.1051C152.69 95.1051 153.121 94.9709 153.459 94.7024C153.797 94.4339 154.047 94.081 154.21 93.6435C154.372 93.206 154.453 92.732 154.453 92.2216C154.453 91.7112 154.372 91.2356 154.21 90.7947C154.047 90.3539 153.797 89.9976 153.459 89.7259C153.121 89.4541 152.69 89.3182 152.166 89.3182C151.643 89.3182 151.212 89.4541 150.874 89.7259C150.536 89.9976 150.285 90.3539 150.123 90.7947C149.961 91.2356 149.879 91.7112 149.879 92.2216C149.879 92.732 149.961 93.206 150.123 93.6435C150.285 94.081 150.536 94.4339 150.874 94.7024C151.212 94.9709 151.643 95.1051 152.166 95.1051ZM162.23 92.8778V88.3636H163.403V96H162.23V94.7074H162.151C161.972 95.0952 161.693 95.425 161.315 95.6967C160.938 95.9652 160.46 96.0994 159.884 96.0994C159.406 96.0994 158.982 95.995 158.611 95.7862C158.24 95.5741 157.948 95.2559 157.736 94.8317C157.524 94.4041 157.418 93.8655 157.418 93.2159V88.3636H158.591V93.1364C158.591 93.6932 158.747 94.1373 159.058 94.4688C159.373 94.8002 159.774 94.9659 160.261 94.9659C160.553 94.9659 160.85 94.8913 161.151 94.7422C161.456 94.593 161.711 94.3643 161.917 94.0561C162.126 93.7479 162.23 93.3551 162.23 92.8778ZM168.873 88.3636V89.358H164.916V88.3636H168.873ZM166.069 86.5341H167.243V93.8125C167.243 94.1439 167.291 94.3925 167.387 94.5582C167.486 94.7206 167.612 94.83 167.765 94.8864C167.921 94.9394 168.085 94.9659 168.257 94.9659C168.386 94.9659 168.492 94.9593 168.575 94.946C168.658 94.9295 168.724 94.9162 168.774 94.9062L169.013 95.9602C168.933 95.9901 168.822 96.0199 168.68 96.0497C168.537 96.0829 168.356 96.0994 168.138 96.0994C167.806 96.0994 167.481 96.0282 167.163 95.8857C166.848 95.7431 166.586 95.526 166.378 95.2344C166.172 94.9427 166.069 94.5748 166.069 94.1307V86.5341ZM173.758 96.1591C173.022 96.1591 172.387 95.9967 171.854 95.6719C171.324 95.3438 170.914 94.8864 170.626 94.2997C170.341 93.7098 170.198 93.0237 170.198 92.2415C170.198 91.4593 170.341 90.7699 170.626 90.1733C170.914 89.5734 171.315 89.1061 171.829 88.7713C172.346 88.4332 172.949 88.2642 173.639 88.2642C174.036 88.2642 174.429 88.3305 174.817 88.4631C175.205 88.5956 175.558 88.8111 175.876 89.1094C176.194 89.4044 176.448 89.7955 176.637 90.2827C176.825 90.7699 176.92 91.3698 176.92 92.0824V92.5795H171.034V91.5653H175.727C175.727 91.1345 175.641 90.75 175.468 90.4119C175.299 90.0739 175.057 89.8071 174.742 89.6115C174.431 89.416 174.063 89.3182 173.639 89.3182C173.171 89.3182 172.767 89.4342 172.426 89.6662C172.088 89.8949 171.827 90.1932 171.645 90.5611C171.463 90.929 171.372 91.3234 171.372 91.7443V92.4205C171.372 92.9972 171.471 93.486 171.67 93.8871C171.872 94.2848 172.152 94.5881 172.51 94.7969C172.868 95.0024 173.284 95.1051 173.758 95.1051C174.066 95.1051 174.345 95.062 174.593 94.9759C174.845 94.8864 175.062 94.7538 175.244 94.5781C175.427 94.3991 175.568 94.1771 175.667 93.9119L176.801 94.2301C176.681 94.6146 176.481 94.9527 176.199 95.2443C175.917 95.5327 175.569 95.758 175.155 95.9205C174.741 96.0795 174.275 96.1591 173.758 96.1591ZM178.705 96V88.3636H179.838V89.517H179.918C180.057 89.1392 180.309 88.8326 180.673 88.5973C181.038 88.362 181.449 88.2443 181.906 88.2443C181.993 88.2443 182.1 88.246 182.23 88.2493C182.359 88.2526 182.457 88.2576 182.523 88.2642V89.4574C182.483 89.4474 182.392 89.4325 182.249 89.4126C182.11 89.3894 181.963 89.3778 181.807 89.3778C181.436 89.3778 181.104 89.4557 180.813 89.6115C180.524 89.764 180.296 89.9761 180.127 90.2479C179.961 90.5163 179.878 90.8229 179.878 91.1676V96H178.705ZM184.789 94.608L184.709 95.1449C184.653 95.5227 184.567 95.9271 184.451 96.358C184.338 96.7888 184.22 97.1948 184.098 97.576C183.975 97.9571 183.874 98.2604 183.794 98.4858H182.9C182.943 98.2737 182.999 97.9936 183.069 97.6456C183.138 97.2976 183.208 96.9081 183.277 96.4773C183.35 96.0497 183.41 95.6122 183.456 95.1648L183.516 94.608H184.789ZM25.233 117V106.818H28.6733C29.4721 106.818 30.125 106.962 30.6321 107.251C31.1425 107.536 31.5204 107.922 31.7656 108.409C32.0109 108.896 32.1335 109.44 32.1335 110.04C32.1335 110.64 32.0109 111.185 31.7656 111.675C31.5237 112.166 31.1491 112.557 30.642 112.849C30.1349 113.137 29.4853 113.281 28.6932 113.281H26.2273V112.188H28.6534C29.2003 112.188 29.6394 112.093 29.9709 111.904C30.3023 111.715 30.5426 111.46 30.6918 111.138C30.8442 110.814 30.9205 110.447 30.9205 110.04C30.9205 109.632 30.8442 109.268 30.6918 108.946C30.5426 108.625 30.3007 108.373 29.9659 108.19C29.6312 108.005 29.187 107.912 28.6335 107.912H26.4659V117H25.233ZM33.9606 117V109.364H35.1339V117H33.9606ZM34.5572 108.091C34.3285 108.091 34.1313 108.013 33.9656 107.857C33.8031 107.701 33.7219 107.514 33.7219 107.295C33.7219 107.077 33.8031 106.889 33.9656 106.734C34.1313 106.578 34.3285 106.5 34.5572 106.5C34.7859 106.5 34.9814 106.578 35.1438 106.734C35.3095 106.889 35.3924 107.077 35.3924 107.295C35.3924 107.514 35.3095 107.701 35.1438 107.857C34.9814 108.013 34.7859 108.091 34.5572 108.091ZM38.1578 109.364L39.9874 112.486L41.8169 109.364H43.1692L40.7033 113.182L43.1692 117H41.8169L39.9874 114.037L38.1578 117H36.8056L39.2317 113.182L36.8056 109.364H38.1578ZM44.8434 117V109.364H46.0167V117H44.8434ZM45.44 108.091C45.2113 108.091 45.0141 108.013 44.8484 107.857C44.686 107.701 44.6048 107.514 44.6048 107.295C44.6048 107.077 44.686 106.889 44.8484 106.734C45.0141 106.578 45.2113 106.5 45.44 106.5C45.6687 106.5 45.8642 106.578 46.0266 106.734C46.1924 106.889 46.2752 107.077 46.2752 107.295C46.2752 107.514 46.1924 107.701 46.0266 107.857C45.8642 108.013 45.6687 108.091 45.44 108.091ZM52.2225 106.818H53.4554V114.097C53.4554 114.746 53.3361 115.298 53.0975 115.752C52.8588 116.206 52.5224 116.551 52.0882 116.786C51.6541 117.022 51.142 117.139 50.552 117.139C49.9952 117.139 49.4997 117.038 49.0655 116.836C48.6313 116.63 48.29 116.339 48.0414 115.961C47.7928 115.583 47.6685 115.134 47.6685 114.614H48.8816C48.8816 114.902 48.9528 115.154 49.0953 115.369C49.2412 115.581 49.44 115.747 49.6919 115.866C49.9438 115.986 50.2305 116.045 50.552 116.045C50.9067 116.045 51.2083 115.971 51.4569 115.822C51.7054 115.673 51.8944 115.454 52.0236 115.165C52.1562 114.874 52.2225 114.518 52.2225 114.097V106.818ZM61.4945 109.364C61.4348 108.86 61.1929 108.469 60.7686 108.19C60.3444 107.912 59.824 107.773 59.2076 107.773C58.7568 107.773 58.3624 107.846 58.0243 107.991C57.6896 108.137 57.4277 108.338 57.2388 108.593C57.0532 108.848 56.9604 109.138 56.9604 109.463C56.9604 109.735 57.025 109.969 57.1543 110.164C57.2869 110.356 57.4559 110.517 57.6614 110.646C57.8669 110.772 58.0823 110.877 58.3077 110.96C58.5331 111.039 58.7402 111.104 58.9292 111.153L59.9632 111.432C60.2284 111.501 60.5234 111.598 60.8482 111.72C61.1763 111.843 61.4895 112.01 61.7878 112.222C62.0894 112.431 62.338 112.7 62.5336 113.028C62.7291 113.356 62.8269 113.759 62.8269 114.236C62.8269 114.786 62.6827 115.283 62.3944 115.727C62.1093 116.171 61.6917 116.524 61.1415 116.786C60.5946 117.048 59.9301 117.179 59.1479 117.179C58.4187 117.179 57.7873 117.061 57.2537 116.826C56.7234 116.591 56.3058 116.263 56.0009 115.842C55.6993 115.421 55.5286 114.932 55.4888 114.375H56.7615C56.7947 114.759 56.9239 115.078 57.1493 115.33C57.378 115.578 57.6664 115.764 58.0144 115.886C58.3657 116.006 58.7435 116.065 59.1479 116.065C59.6185 116.065 60.0411 115.989 60.4157 115.837C60.7902 115.681 61.0868 115.465 61.3056 115.19C61.5243 114.912 61.6337 114.587 61.6337 114.216C61.6337 113.878 61.5392 113.603 61.3503 113.391C61.1614 113.179 60.9128 113.006 60.6046 112.874C60.2963 112.741 59.9632 112.625 59.6053 112.526L58.3525 112.168C57.557 111.939 56.9273 111.612 56.4632 111.188C55.9992 110.764 55.7672 110.209 55.7672 109.523C55.7672 108.953 55.9213 108.455 56.2296 108.031C56.5411 107.604 56.9587 107.272 57.4824 107.037C58.0094 106.798 58.5977 106.679 59.2473 106.679C59.9036 106.679 60.4869 106.797 60.9973 107.032C61.5078 107.264 61.9121 107.582 62.2104 107.987C62.512 108.391 62.6711 108.85 62.6877 109.364H61.4945ZM68.7915 117V106.818H72.2319C73.0273 106.818 73.6803 106.954 74.1907 107.226C74.7011 107.494 75.079 107.864 75.3242 108.335C75.5695 108.805 75.6921 109.34 75.6921 109.94C75.6921 110.54 75.5695 111.072 75.3242 111.536C75.079 112 74.7028 112.365 74.1957 112.63C73.6886 112.892 73.0406 113.023 72.2518 113.023H69.4677V111.909H72.212C72.7556 111.909 73.1931 111.83 73.5245 111.67C73.8593 111.511 74.1012 111.286 74.2504 110.994C74.4028 110.699 74.479 110.348 74.479 109.94C74.479 109.533 74.4028 109.176 74.2504 108.871C74.0979 108.567 73.8543 108.331 73.5195 108.165C73.1848 107.996 72.7423 107.912 72.1921 107.912H70.0245V117H68.7915ZM73.5842 112.426L76.0898 117H74.658L72.1921 112.426H73.5842ZM80.7072 117.159C79.9714 117.159 79.3367 116.997 78.8031 116.672C78.2728 116.344 77.8635 115.886 77.5751 115.3C77.2901 114.71 77.1475 114.024 77.1475 113.241C77.1475 112.459 77.2901 111.77 77.5751 111.173C77.8635 110.573 78.2645 110.106 78.7782 109.771C79.2953 109.433 79.8985 109.264 80.5879 109.264C80.9856 109.264 81.3784 109.33 81.7662 109.463C82.1539 109.596 82.5069 109.811 82.8251 110.109C83.1433 110.404 83.3968 110.795 83.5858 111.283C83.7747 111.77 83.8691 112.37 83.8691 113.082V113.58H77.9828V112.565H82.676C82.676 112.134 82.5898 111.75 82.4174 111.412C82.2484 111.074 82.0065 110.807 81.6916 110.612C81.38 110.416 81.0121 110.318 80.5879 110.318C80.1206 110.318 79.7162 110.434 79.3748 110.666C79.0368 110.895 78.7766 111.193 78.5943 111.561C78.412 111.929 78.3208 112.323 78.3208 112.744V113.42C78.3208 113.997 78.4203 114.486 78.6191 114.887C78.8213 115.285 79.1014 115.588 79.4593 115.797C79.8173 116.002 80.2333 116.105 80.7072 116.105C81.0154 116.105 81.2939 116.062 81.5424 115.976C81.7943 115.886 82.0114 115.754 82.1937 115.578C82.376 115.399 82.5169 115.177 82.6163 114.912L83.7498 115.23C83.6305 115.615 83.43 115.953 83.1483 116.244C82.8665 116.533 82.5185 116.758 82.1042 116.92C81.6899 117.08 81.2243 117.159 80.7072 117.159ZM87.9011 117.179C87.4172 117.179 86.978 117.088 86.5836 116.906C86.1892 116.72 85.876 116.453 85.644 116.105C85.412 115.754 85.296 115.33 85.296 114.832C85.296 114.395 85.3822 114.04 85.5545 113.768C85.7269 113.493 85.9572 113.278 86.2456 113.122C86.5339 112.966 86.8521 112.85 87.2001 112.774C87.5514 112.695 87.9044 112.632 88.2591 112.585C88.7231 112.526 89.0993 112.481 89.3876 112.451C89.6793 112.418 89.8914 112.363 90.024 112.287C90.1599 112.211 90.2278 112.078 90.2278 111.889V111.849C90.2278 111.359 90.0936 110.978 89.8251 110.706C89.56 110.434 89.1573 110.298 88.617 110.298C88.0569 110.298 87.6177 110.421 87.2995 110.666C86.9814 110.911 86.7576 111.173 86.6284 111.452L85.5147 111.054C85.7136 110.59 85.9788 110.229 86.3102 109.97C86.6449 109.708 87.0095 109.526 87.4039 109.423C87.8017 109.317 88.1928 109.264 88.5772 109.264C88.8225 109.264 89.1042 109.294 89.4224 109.354C89.7439 109.41 90.0538 109.528 90.3521 109.707C90.6537 109.886 90.9039 110.156 91.1028 110.517C91.3017 110.878 91.4011 111.362 91.4011 111.969V117H90.2278V115.966H90.1681C90.0886 116.132 89.956 116.309 89.7704 116.498C89.5848 116.687 89.3379 116.848 89.0297 116.98C88.7214 117.113 88.3452 117.179 87.9011 117.179ZM88.0801 116.125C88.5441 116.125 88.9352 116.034 89.2534 115.852C89.5749 115.669 89.8168 115.434 89.9792 115.146C90.1449 114.857 90.2278 114.554 90.2278 114.236V113.162C90.1781 113.222 90.0687 113.276 89.8997 113.326C89.734 113.372 89.5417 113.414 89.323 113.45C89.1075 113.483 88.8971 113.513 88.6916 113.54C88.4894 113.563 88.3253 113.583 88.1994 113.599C87.8945 113.639 87.6094 113.704 87.3443 113.793C87.0824 113.879 86.8703 114.01 86.7079 114.186C86.5488 114.358 86.4693 114.594 86.4693 114.892C86.4693 115.3 86.6201 115.608 86.9217 115.817C87.2266 116.022 87.6127 116.125 88.0801 116.125ZM96.6449 117.159C95.929 117.159 95.3125 116.99 94.7955 116.652C94.2784 116.314 93.8807 115.848 93.6023 115.255C93.3239 114.662 93.1847 113.984 93.1847 113.222C93.1847 112.446 93.3272 111.762 93.6122 111.168C93.9006 110.572 94.3016 110.106 94.8153 109.771C95.3324 109.433 95.9356 109.264 96.625 109.264C97.1619 109.264 97.6458 109.364 98.0767 109.562C98.5076 109.761 98.8606 110.04 99.1357 110.398C99.4107 110.756 99.5814 111.173 99.6477 111.651H98.4744C98.3849 111.303 98.1861 110.994 97.8778 110.726C97.5729 110.454 97.1619 110.318 96.6449 110.318C96.1875 110.318 95.7865 110.437 95.4418 110.676C95.1004 110.911 94.8336 111.245 94.6413 111.675C94.4524 112.103 94.358 112.605 94.358 113.182C94.358 113.772 94.4508 114.286 94.6364 114.723C94.8253 115.161 95.0904 115.5 95.4318 115.742C95.7765 115.984 96.1809 116.105 96.6449 116.105C96.9498 116.105 97.2266 116.052 97.4751 115.946C97.7237 115.84 97.9342 115.688 98.1065 115.489C98.2789 115.29 98.4015 115.051 98.4744 114.773H99.6477C99.5814 115.223 99.4174 115.629 99.1555 115.991C98.897 116.349 98.554 116.634 98.1264 116.846C97.7022 117.055 97.2083 117.159 96.6449 117.159ZM104.684 109.364V110.358H100.727V109.364H104.684ZM101.88 107.534H103.053V114.812C103.053 115.144 103.101 115.393 103.197 115.558C103.297 115.721 103.423 115.83 103.575 115.886C103.731 115.939 103.895 115.966 104.067 115.966C104.197 115.966 104.303 115.959 104.386 115.946C104.469 115.929 104.535 115.916 104.585 115.906L104.823 116.96C104.744 116.99 104.633 117.02 104.49 117.05C104.348 117.083 104.167 117.099 103.948 117.099C103.617 117.099 103.292 117.028 102.974 116.886C102.659 116.743 102.397 116.526 102.188 116.234C101.983 115.943 101.88 115.575 101.88 115.131V107.534ZM108.199 115.608L108.119 116.145C108.063 116.523 107.977 116.927 107.861 117.358C107.748 117.789 107.63 118.195 107.508 118.576C107.385 118.957 107.284 119.26 107.205 119.486H106.31C106.353 119.274 106.409 118.994 106.479 118.646C106.548 118.298 106.618 117.908 106.688 117.477C106.76 117.05 106.82 116.612 106.866 116.165L106.926 115.608H108.199ZM116.557 117.179C116.073 117.179 115.634 117.088 115.24 116.906C114.845 116.72 114.532 116.453 114.3 116.105C114.068 115.754 113.952 115.33 113.952 114.832C113.952 114.395 114.038 114.04 114.211 113.768C114.383 113.493 114.613 113.278 114.902 113.122C115.19 112.966 115.508 112.85 115.856 112.774C116.208 112.695 116.561 112.632 116.915 112.585C117.379 112.526 117.756 112.481 118.044 112.451C118.336 112.418 118.548 112.363 118.68 112.287C118.816 112.211 118.884 112.078 118.884 111.889V111.849C118.884 111.359 118.75 110.978 118.481 110.706C118.216 110.434 117.814 110.298 117.273 110.298C116.713 110.298 116.274 110.421 115.956 110.666C115.638 110.911 115.414 111.173 115.285 111.452L114.171 111.054C114.37 110.59 114.635 110.229 114.966 109.97C115.301 109.708 115.666 109.526 116.06 109.423C116.458 109.317 116.849 109.264 117.233 109.264C117.479 109.264 117.76 109.294 118.079 109.354C118.4 109.41 118.71 109.528 119.008 109.707C119.31 109.886 119.56 110.156 119.759 110.517C119.958 110.878 120.057 111.362 120.057 111.969V117H118.884V115.966H118.824C118.745 116.132 118.612 116.309 118.427 116.498C118.241 116.687 117.994 116.848 117.686 116.98C117.378 117.113 117.001 117.179 116.557 117.179ZM116.736 116.125C117.2 116.125 117.591 116.034 117.91 115.852C118.231 115.669 118.473 115.434 118.635 115.146C118.801 114.857 118.884 114.554 118.884 114.236V113.162C118.834 113.222 118.725 113.276 118.556 113.326C118.39 113.372 118.198 113.414 117.979 113.45C117.764 113.483 117.553 113.513 117.348 113.54C117.146 113.563 116.982 113.583 116.856 113.599C116.551 113.639 116.266 113.704 116.001 113.793C115.739 113.879 115.527 114.01 115.364 114.186C115.205 114.358 115.126 114.594 115.126 114.892C115.126 115.3 115.276 115.608 115.578 115.817C115.883 116.022 116.269 116.125 116.736 116.125ZM123.372 112.406V117H122.199V109.364H123.332V110.557H123.432C123.611 110.169 123.883 109.857 124.247 109.622C124.612 109.384 125.082 109.264 125.659 109.264C126.176 109.264 126.629 109.37 127.016 109.582C127.404 109.791 127.706 110.109 127.921 110.537C128.137 110.961 128.244 111.498 128.244 112.148V117H127.071V112.227C127.071 111.627 126.915 111.16 126.604 110.825C126.292 110.487 125.865 110.318 125.321 110.318C124.946 110.318 124.612 110.399 124.317 110.562C124.025 110.724 123.795 110.961 123.626 111.273C123.457 111.584 123.372 111.962 123.372 112.406ZM133.272 117.159C132.635 117.159 132.074 116.998 131.586 116.677C131.099 116.352 130.718 115.895 130.443 115.305C130.168 114.711 130.03 114.01 130.03 113.202C130.03 112.4 130.168 111.704 130.443 111.114C130.718 110.524 131.101 110.068 131.591 109.746C132.082 109.425 132.649 109.264 133.292 109.264C133.789 109.264 134.182 109.347 134.47 109.513C134.762 109.675 134.984 109.861 135.136 110.07C135.292 110.275 135.413 110.444 135.499 110.577H135.599V106.818H136.772V117H135.638V115.827H135.499C135.413 115.966 135.29 116.142 135.131 116.354C134.972 116.562 134.745 116.75 134.45 116.915C134.155 117.078 133.762 117.159 133.272 117.159ZM133.431 116.105C133.902 116.105 134.299 115.982 134.624 115.737C134.949 115.489 135.196 115.146 135.365 114.708C135.534 114.267 135.618 113.759 135.618 113.182C135.618 112.612 135.536 112.113 135.37 111.685C135.204 111.254 134.959 110.92 134.634 110.681C134.309 110.439 133.908 110.318 133.431 110.318C132.934 110.318 132.519 110.446 132.188 110.701C131.86 110.953 131.613 111.296 131.447 111.73C131.285 112.161 131.204 112.645 131.204 113.182C131.204 113.725 131.287 114.219 131.452 114.663C131.621 115.104 131.87 115.455 132.198 115.717C132.529 115.976 132.94 116.105 133.431 116.105ZM148.43 111.074L147.376 111.372C147.31 111.196 147.212 111.026 147.083 110.86C146.957 110.691 146.785 110.552 146.566 110.442C146.347 110.333 146.067 110.278 145.726 110.278C145.258 110.278 144.869 110.386 144.557 110.602C144.249 110.814 144.095 111.084 144.095 111.412C144.095 111.704 144.201 111.934 144.413 112.103C144.625 112.272 144.957 112.413 145.407 112.526L146.541 112.804C147.224 112.97 147.733 113.223 148.067 113.565C148.402 113.903 148.569 114.339 148.569 114.872C148.569 115.31 148.443 115.701 148.192 116.045C147.943 116.39 147.595 116.662 147.148 116.861C146.7 117.06 146.18 117.159 145.586 117.159C144.808 117.159 144.163 116.99 143.653 116.652C143.142 116.314 142.819 115.82 142.683 115.17L143.797 114.892C143.903 115.303 144.103 115.611 144.398 115.817C144.697 116.022 145.086 116.125 145.567 116.125C146.113 116.125 146.548 116.009 146.869 115.777C147.194 115.542 147.356 115.26 147.356 114.932C147.356 114.667 147.264 114.445 147.078 114.266C146.892 114.083 146.607 113.947 146.223 113.858L144.95 113.56C144.251 113.394 143.737 113.137 143.409 112.789C143.084 112.438 142.922 111.999 142.922 111.472C142.922 111.041 143.043 110.66 143.285 110.328C143.53 109.997 143.863 109.737 144.284 109.548C144.708 109.359 145.189 109.264 145.726 109.264C146.481 109.264 147.075 109.43 147.506 109.761C147.94 110.093 148.248 110.53 148.43 111.074ZM153.438 117.159C152.748 117.159 152.144 116.995 151.623 116.667C151.106 116.339 150.702 115.88 150.41 115.29C150.122 114.7 149.978 114.01 149.978 113.222C149.978 112.426 150.122 111.732 150.41 111.138C150.702 110.545 151.106 110.085 151.623 109.756C152.144 109.428 152.748 109.264 153.438 109.264C154.127 109.264 154.73 109.428 155.248 109.756C155.768 110.085 156.172 110.545 156.461 111.138C156.752 111.732 156.898 112.426 156.898 113.222C156.898 114.01 156.752 114.7 156.461 115.29C156.172 115.88 155.768 116.339 155.248 116.667C154.73 116.995 154.127 117.159 153.438 117.159ZM153.438 116.105C153.962 116.105 154.392 115.971 154.73 115.702C155.069 115.434 155.319 115.081 155.481 114.643C155.644 114.206 155.725 113.732 155.725 113.222C155.725 112.711 155.644 112.236 155.481 111.795C155.319 111.354 155.069 110.998 154.73 110.726C154.392 110.454 153.962 110.318 153.438 110.318C152.914 110.318 152.483 110.454 152.145 110.726C151.807 110.998 151.557 111.354 151.395 111.795C151.232 112.236 151.151 112.711 151.151 113.222C151.151 113.732 151.232 114.206 151.395 114.643C151.557 115.081 151.807 115.434 152.145 115.702C152.483 115.971 152.914 116.105 153.438 116.105ZM165.729 117.159C165.039 117.159 164.435 116.995 163.914 116.667C163.397 116.339 162.993 115.88 162.701 115.29C162.413 114.7 162.269 114.01 162.269 113.222C162.269 112.426 162.413 111.732 162.701 111.138C162.993 110.545 163.397 110.085 163.914 109.756C164.435 109.428 165.039 109.264 165.729 109.264C166.418 109.264 167.021 109.428 167.539 109.756C168.059 110.085 168.463 110.545 168.752 111.138C169.043 111.732 169.189 112.426 169.189 113.222C169.189 114.01 169.043 114.7 168.752 115.29C168.463 115.88 168.059 116.339 167.539 116.667C167.021 116.995 166.418 117.159 165.729 117.159ZM165.729 116.105C166.253 116.105 166.683 115.971 167.021 115.702C167.36 115.434 167.61 115.081 167.772 114.643C167.935 114.206 168.016 113.732 168.016 113.222C168.016 112.711 167.935 112.236 167.772 111.795C167.61 111.354 167.36 110.998 167.021 110.726C166.683 110.454 166.253 110.318 165.729 110.318C165.205 110.318 164.774 110.454 164.436 110.726C164.098 110.998 163.848 111.354 163.686 111.795C163.523 112.236 163.442 112.711 163.442 113.222C163.442 113.732 163.523 114.206 163.686 114.643C163.848 115.081 164.098 115.434 164.436 115.702C164.774 115.971 165.205 116.105 165.729 116.105ZM172.153 112.406V117H170.98V109.364H172.114V110.557H172.213C172.392 110.169 172.664 109.857 173.028 109.622C173.393 109.384 173.864 109.264 174.44 109.264C174.957 109.264 175.41 109.37 175.798 109.582C176.185 109.791 176.487 110.109 176.702 110.537C176.918 110.961 177.026 111.498 177.026 112.148V117H175.852V112.227C175.852 111.627 175.696 111.16 175.385 110.825C175.073 110.487 174.646 110.318 174.102 110.318C173.728 110.318 173.393 110.399 173.098 110.562C172.806 110.724 172.576 110.961 172.407 111.273C172.238 111.584 172.153 111.962 172.153 112.406ZM180.025 117.08C179.779 117.08 179.569 116.992 179.393 116.816C179.218 116.64 179.13 116.43 179.13 116.185C179.13 115.939 179.218 115.729 179.393 115.553C179.569 115.378 179.779 115.29 180.025 115.29C180.27 115.29 180.48 115.378 180.656 115.553C180.832 115.729 180.92 115.939 180.92 116.185C180.92 116.347 180.878 116.496 180.795 116.632C180.716 116.768 180.608 116.877 180.472 116.96C180.34 117.04 180.19 117.08 180.025 117.08ZM183.88 117.08C183.635 117.08 183.424 116.992 183.249 116.816C183.073 116.64 182.985 116.43 182.985 116.185C182.985 115.939 183.073 115.729 183.249 115.553C183.424 115.378 183.635 115.29 183.88 115.29C184.125 115.29 184.336 115.378 184.512 115.553C184.687 115.729 184.775 115.939 184.775 116.185C184.775 116.347 184.734 116.496 184.651 116.632C184.571 116.768 184.463 116.877 184.328 116.96C184.195 117.04 184.046 117.08 183.88 117.08ZM187.736 117.08C187.49 117.08 187.28 116.992 187.104 116.816C186.929 116.64 186.841 116.43 186.841 116.185C186.841 115.939 186.929 115.729 187.104 115.553C187.28 115.378 187.49 115.29 187.736 115.29C187.981 115.29 188.191 115.378 188.367 115.553C188.543 115.729 188.631 115.939 188.631 116.185C188.631 116.347 188.589 116.496 188.506 116.632C188.427 116.768 188.319 116.877 188.183 116.96C188.05 117.04 187.901 117.08 187.736 117.08ZM26.4659 127.818V138H25.233V127.818H26.4659ZM33.8897 127.818V138H32.7164V127.818H33.8897ZM39.141 138.159C38.4516 138.159 37.8467 137.995 37.3263 137.667C36.8093 137.339 36.4049 136.88 36.1133 136.29C35.8249 135.7 35.6808 135.01 35.6808 134.222C35.6808 133.426 35.8249 132.732 36.1133 132.138C36.4049 131.545 36.8093 131.085 37.3263 130.756C37.8467 130.428 38.4516 130.264 39.141 130.264C39.8304 130.264 40.4336 130.428 40.9506 130.756C41.471 131.085 41.8754 131.545 42.1637 132.138C42.4554 132.732 42.6012 133.426 42.6012 134.222C42.6012 135.01 42.4554 135.7 42.1637 136.29C41.8754 136.88 41.471 137.339 40.9506 137.667C40.4336 137.995 39.8304 138.159 39.141 138.159ZM39.141 137.105C39.6647 137.105 40.0955 136.971 40.4336 136.702C40.7717 136.434 41.0219 136.081 41.1843 135.643C41.3467 135.206 41.4279 134.732 41.4279 134.222C41.4279 133.711 41.3467 133.236 41.1843 132.795C41.0219 132.354 40.7717 131.998 40.4336 131.726C40.0955 131.454 39.6647 131.318 39.141 131.318C38.6173 131.318 38.1864 131.454 37.8484 131.726C37.5103 131.998 37.2601 132.354 37.0977 132.795C36.9353 133.236 36.854 133.711 36.854 134.222C36.854 134.732 36.9353 135.206 37.0977 135.643C37.2601 136.081 37.5103 136.434 37.8484 136.702C38.1864 136.971 38.6173 137.105 39.141 137.105ZM50.3631 130.364L47.5392 138H46.3461L43.5222 130.364H44.7949L46.9029 136.449H46.9824L49.0904 130.364H50.3631ZM54.84 138.159C54.1042 138.159 53.4695 137.997 52.9359 137.672C52.4056 137.344 51.9963 136.886 51.7079 136.3C51.4229 135.71 51.2804 135.024 51.2804 134.241C51.2804 133.459 51.4229 132.77 51.7079 132.173C51.9963 131.573 52.3973 131.106 52.911 130.771C53.4281 130.433 54.0313 130.264 54.7207 130.264C55.1184 130.264 55.5112 130.33 55.899 130.463C56.2868 130.596 56.6397 130.811 56.9579 131.109C57.2761 131.404 57.5297 131.795 57.7186 132.283C57.9075 132.77 58.002 133.37 58.002 134.082V134.58H52.1156V133.565H56.8088C56.8088 133.134 56.7226 132.75 56.5502 132.412C56.3812 132.074 56.1393 131.807 55.8244 131.612C55.5128 131.416 55.1449 131.318 54.7207 131.318C54.2534 131.318 53.849 131.434 53.5076 131.666C53.1696 131.895 52.9094 132.193 52.7271 132.561C52.5448 132.929 52.4537 133.323 52.4537 133.744V134.42C52.4537 134.997 52.5531 135.486 52.752 135.887C52.9541 136.285 53.2342 136.588 53.5922 136.797C53.9501 137.002 54.3661 137.105 54.84 137.105C55.1483 137.105 55.4267 137.062 55.6752 136.976C55.9271 136.886 56.1442 136.754 56.3265 136.578C56.5088 136.399 56.6497 136.177 56.7491 135.912L57.8826 136.23C57.7633 136.615 57.5628 136.953 57.2811 137.244C56.9993 137.533 56.6513 137.758 56.237 137.92C55.8227 138.08 55.3571 138.159 54.84 138.159ZM67.1248 130.364V131.358H63.0083V130.364H67.1248ZM64.2413 138V129.31C64.2413 128.872 64.344 128.508 64.5495 128.216C64.755 127.924 65.0218 127.705 65.35 127.56C65.6781 127.414 66.0244 127.341 66.389 127.341C66.6774 127.341 66.9127 127.364 67.095 127.411C67.2773 127.457 67.4132 127.5 67.5027 127.54L67.1646 128.554C67.1049 128.534 67.0221 128.509 66.916 128.479C66.8133 128.45 66.6774 128.435 66.5083 128.435C66.1206 128.435 65.8405 128.532 65.6681 128.728C65.4991 128.924 65.4146 129.21 65.4146 129.588V138H64.2413ZM73.5817 134.878V130.364H74.755V138H73.5817V136.707H73.5021C73.3232 137.095 73.0447 137.425 72.6669 137.697C72.2891 137.965 71.8118 138.099 71.2351 138.099C70.7578 138.099 70.3336 137.995 69.9624 137.786C69.5911 137.574 69.2995 137.256 69.0874 136.832C68.8752 136.404 68.7692 135.866 68.7692 135.216V130.364H69.9425V135.136C69.9425 135.693 70.0982 136.137 70.4098 136.469C70.7247 136.8 71.1257 136.966 71.6129 136.966C71.9046 136.966 72.2012 136.891 72.5028 136.742C72.8078 136.593 73.063 136.364 73.2685 136.056C73.4773 135.748 73.5817 135.355 73.5817 134.878ZM78.0772 133.406V138H76.9039V130.364H78.0375V131.557H78.1369C78.3159 131.169 78.5877 130.857 78.9522 130.622C79.3168 130.384 79.7875 130.264 80.3642 130.264C80.8812 130.264 81.3336 130.37 81.7214 130.582C82.1092 130.791 82.4108 131.109 82.6262 131.537C82.8417 131.961 82.9494 132.498 82.9494 133.148V138H81.7761V133.227C81.7761 132.627 81.6203 132.16 81.3088 131.825C80.9972 131.487 80.5697 131.318 80.0261 131.318C79.6516 131.318 79.3168 131.399 79.0218 131.562C78.7302 131.724 78.4998 131.961 78.3308 132.273C78.1618 132.584 78.0772 132.962 78.0772 133.406ZM88.1957 138.159C87.4798 138.159 86.8633 137.99 86.3462 137.652C85.8292 137.314 85.4315 136.848 85.1531 136.255C84.8746 135.662 84.7354 134.984 84.7354 134.222C84.7354 133.446 84.878 132.762 85.163 132.168C85.4513 131.572 85.8524 131.106 86.3661 130.771C86.8832 130.433 87.4864 130.264 88.1758 130.264C88.7127 130.264 89.1966 130.364 89.6275 130.562C90.0584 130.761 90.4113 131.04 90.6864 131.398C90.9615 131.756 91.1322 132.173 91.1985 132.651H90.0252C89.9357 132.303 89.7369 131.994 89.4286 131.726C89.1237 131.454 88.7127 131.318 88.1957 131.318C87.7383 131.318 87.3372 131.437 86.9925 131.676C86.6512 131.911 86.3844 132.245 86.1921 132.675C86.0032 133.103 85.9087 133.605 85.9087 134.182C85.9087 134.772 86.0015 135.286 86.1871 135.723C86.3761 136.161 86.6412 136.5 86.9826 136.742C87.3273 136.984 87.7317 137.105 88.1957 137.105C88.5006 137.105 88.7773 137.052 89.0259 136.946C89.2745 136.84 89.485 136.688 89.6573 136.489C89.8297 136.29 89.9523 136.051 90.0252 135.773H91.1985C91.1322 136.223 90.9682 136.629 90.7063 136.991C90.4478 137.349 90.1048 137.634 89.6772 137.846C89.253 138.055 88.7591 138.159 88.1957 138.159ZM96.2347 130.364V131.358H92.2773V130.364H96.2347ZM93.4308 128.534H94.604V135.812C94.604 136.144 94.6521 136.393 94.7482 136.558C94.8477 136.721 94.9736 136.83 95.1261 136.886C95.2818 136.939 95.4459 136.966 95.6183 136.966C95.7475 136.966 95.8536 136.959 95.9364 136.946C96.0193 136.929 96.0856 136.916 96.1353 136.906L96.3739 137.96C96.2944 137.99 96.1834 138.02 96.0408 138.05C95.8983 138.083 95.7177 138.099 95.4989 138.099C95.1675 138.099 94.8427 138.028 94.5245 137.886C94.2096 137.743 93.9478 137.526 93.739 137.234C93.5335 136.943 93.4308 136.575 93.4308 136.131V128.534ZM97.9996 138V130.364H99.1729V138H97.9996ZM98.5962 129.091C98.3675 129.091 98.1703 129.013 98.0046 128.857C97.8422 128.701 97.761 128.514 97.761 128.295C97.761 128.077 97.8422 127.889 98.0046 127.734C98.1703 127.578 98.3675 127.5 98.5962 127.5C98.8249 127.5 99.0205 127.578 99.1829 127.734C99.3486 127.889 99.4315 128.077 99.4315 128.295C99.4315 128.514 99.3486 128.701 99.1829 128.857C99.0205 129.013 98.8249 129.091 98.5962 129.091ZM104.424 138.159C103.735 138.159 103.13 137.995 102.61 137.667C102.093 137.339 101.688 136.88 101.396 136.29C101.108 135.7 100.964 135.01 100.964 134.222C100.964 133.426 101.108 132.732 101.396 132.138C101.688 131.545 102.093 131.085 102.61 130.756C103.13 130.428 103.735 130.264 104.424 130.264C105.114 130.264 105.717 130.428 106.234 130.756C106.754 131.085 107.159 131.545 107.447 132.138C107.739 132.732 107.884 133.426 107.884 134.222C107.884 135.01 107.739 135.7 107.447 136.29C107.159 136.88 106.754 137.339 106.234 137.667C105.717 137.995 105.114 138.159 104.424 138.159ZM104.424 137.105C104.948 137.105 105.379 136.971 105.717 136.702C106.055 136.434 106.305 136.081 106.468 135.643C106.63 135.206 106.711 134.732 106.711 134.222C106.711 133.711 106.63 133.236 106.468 132.795C106.305 132.354 106.055 131.998 105.717 131.726C105.379 131.454 104.948 131.318 104.424 131.318C103.901 131.318 103.47 131.454 103.132 131.726C102.794 131.998 102.543 132.354 102.381 132.795C102.218 133.236 102.137 133.711 102.137 134.222C102.137 134.732 102.218 135.206 102.381 135.643C102.543 136.081 102.794 136.434 103.132 136.702C103.47 136.971 103.901 137.105 104.424 137.105ZM110.849 133.406V138H109.675V130.364H110.809V131.557H110.908C111.087 131.169 111.359 130.857 111.724 130.622C112.088 130.384 112.559 130.264 113.136 130.264C113.653 130.264 114.105 130.37 114.493 130.582C114.881 130.791 115.182 131.109 115.398 131.537C115.613 131.961 115.721 132.498 115.721 133.148V138H114.548V133.227C114.548 132.627 114.392 132.16 114.08 131.825C113.769 131.487 113.341 131.318 112.798 131.318C112.423 131.318 112.088 131.399 111.793 131.562C111.502 131.724 111.271 131.961 111.102 132.273C110.933 132.584 110.849 132.962 110.849 133.406ZM120.112 138.179C119.628 138.179 119.189 138.088 118.795 137.906C118.4 137.72 118.087 137.453 117.855 137.105C117.623 136.754 117.507 136.33 117.507 135.832C117.507 135.395 117.593 135.04 117.765 134.768C117.938 134.493 118.168 134.278 118.456 134.122C118.745 133.966 119.063 133.85 119.411 133.774C119.762 133.695 120.115 133.632 120.47 133.585C120.934 133.526 121.31 133.481 121.599 133.451C121.89 133.418 122.102 133.363 122.235 133.287C122.371 133.211 122.439 133.078 122.439 132.889V132.849C122.439 132.359 122.305 131.978 122.036 131.706C121.771 131.434 121.368 131.298 120.828 131.298C120.268 131.298 119.829 131.421 119.51 131.666C119.192 131.911 118.969 132.173 118.839 132.452L117.726 132.054C117.925 131.59 118.19 131.229 118.521 130.97C118.856 130.708 119.22 130.526 119.615 130.423C120.013 130.317 120.404 130.264 120.788 130.264C121.033 130.264 121.315 130.294 121.633 130.354C121.955 130.41 122.265 130.528 122.563 130.707C122.865 130.886 123.115 131.156 123.314 131.517C123.513 131.878 123.612 132.362 123.612 132.969V138H122.439V136.966H122.379C122.3 137.132 122.167 137.309 121.981 137.498C121.796 137.687 121.549 137.848 121.241 137.98C120.932 138.113 120.556 138.179 120.112 138.179ZM120.291 137.125C120.755 137.125 121.146 137.034 121.464 136.852C121.786 136.669 122.028 136.434 122.19 136.146C122.356 135.857 122.439 135.554 122.439 135.236V134.162C122.389 134.222 122.28 134.276 122.111 134.326C121.945 134.372 121.753 134.414 121.534 134.45C121.318 134.483 121.108 134.513 120.903 134.54C120.7 134.563 120.536 134.583 120.41 134.599C120.105 134.639 119.82 134.704 119.555 134.793C119.293 134.879 119.081 135.01 118.919 135.186C118.76 135.358 118.68 135.594 118.68 135.892C118.68 136.3 118.831 136.608 119.133 136.817C119.438 137.022 119.824 137.125 120.291 137.125ZM126.927 127.818V138H125.754V127.818H126.927ZM136.116 138.159C135.4 138.159 134.783 137.99 134.266 137.652C133.749 137.314 133.351 136.848 133.073 136.255C132.795 135.662 132.655 134.984 132.655 134.222C132.655 133.446 132.798 132.762 133.083 132.168C133.371 131.572 133.772 131.106 134.286 130.771C134.803 130.433 135.406 130.264 136.096 130.264C136.633 130.264 137.117 130.364 137.547 130.562C137.978 130.761 138.331 131.04 138.606 131.398C138.881 131.756 139.052 132.173 139.118 132.651H137.945C137.856 132.303 137.657 131.994 137.349 131.726C137.044 131.454 136.633 131.318 136.116 131.318C135.658 131.318 135.257 131.437 134.912 131.676C134.571 131.911 134.304 132.245 134.112 132.675C133.923 133.103 133.829 133.605 133.829 134.182C133.829 134.772 133.921 135.286 134.107 135.723C134.296 136.161 134.561 136.5 134.903 136.742C135.247 136.984 135.652 137.105 136.116 137.105C136.421 137.105 136.697 137.052 136.946 136.946C137.194 136.84 137.405 136.688 137.577 136.489C137.75 136.29 137.872 136.051 137.945 135.773H139.118C139.052 136.223 138.888 136.629 138.626 136.991C138.368 137.349 138.025 137.634 137.597 137.846C137.173 138.055 136.679 138.159 136.116 138.159ZM143.936 138.159C143.247 138.159 142.642 137.995 142.121 137.667C141.604 137.339 141.2 136.88 140.908 136.29C140.62 135.7 140.476 135.01 140.476 134.222C140.476 133.426 140.62 132.732 140.908 132.138C141.2 131.545 141.604 131.085 142.121 130.756C142.642 130.428 143.247 130.264 143.936 130.264C144.625 130.264 145.229 130.428 145.746 130.756C146.266 131.085 146.67 131.545 146.959 132.138C147.25 132.732 147.396 133.426 147.396 134.222C147.396 135.01 147.25 135.7 146.959 136.29C146.67 136.88 146.266 137.339 145.746 137.667C145.229 137.995 144.625 138.159 143.936 138.159ZM143.936 137.105C144.46 137.105 144.89 136.971 145.229 136.702C145.567 136.434 145.817 136.081 145.979 135.643C146.142 135.206 146.223 134.732 146.223 134.222C146.223 133.711 146.142 133.236 145.979 132.795C145.817 132.354 145.567 131.998 145.229 131.726C144.89 131.454 144.46 131.318 143.936 131.318C143.412 131.318 142.981 131.454 142.643 131.726C142.305 131.998 142.055 132.354 141.893 132.795C141.73 133.236 141.649 133.711 141.649 134.222C141.649 134.732 141.73 135.206 141.893 135.643C142.055 136.081 142.305 136.434 142.643 136.702C142.981 136.971 143.412 137.105 143.936 137.105ZM149.187 138V130.364H150.321V131.557H150.42C150.579 131.149 150.836 130.833 151.191 130.607C151.545 130.379 151.971 130.264 152.468 130.264C152.972 130.264 153.391 130.379 153.726 130.607C154.064 130.833 154.328 131.149 154.517 131.557H154.596C154.792 131.162 155.085 130.849 155.476 130.617C155.867 130.382 156.336 130.264 156.883 130.264C157.566 130.264 158.124 130.478 158.559 130.906C158.993 131.33 159.21 131.991 159.21 132.889V138H158.037V132.889C158.037 132.326 157.882 131.923 157.574 131.681C157.266 131.439 156.903 131.318 156.485 131.318C155.949 131.318 155.533 131.481 155.238 131.805C154.943 132.127 154.795 132.535 154.795 133.028V138H153.602V132.77C153.602 132.336 153.461 131.986 153.179 131.721C152.898 131.452 152.535 131.318 152.091 131.318C151.786 131.318 151.501 131.399 151.235 131.562C150.974 131.724 150.761 131.95 150.599 132.238C150.44 132.523 150.36 132.853 150.36 133.227V138H149.187ZM161.355 140.864V130.364H162.489V131.577H162.628C162.714 131.444 162.833 131.275 162.986 131.07C163.142 130.861 163.364 130.675 163.652 130.513C163.944 130.347 164.338 130.264 164.835 130.264C165.478 130.264 166.045 130.425 166.536 130.746C167.026 131.068 167.409 131.524 167.684 132.114C167.959 132.704 168.097 133.4 168.097 134.202C168.097 135.01 167.959 135.711 167.684 136.305C167.409 136.895 167.028 137.352 166.54 137.677C166.053 137.998 165.491 138.159 164.855 138.159C164.365 138.159 163.972 138.078 163.677 137.915C163.382 137.75 163.155 137.562 162.996 137.354C162.837 137.142 162.714 136.966 162.628 136.827H162.528V140.864H161.355ZM162.509 134.182C162.509 134.759 162.593 135.267 162.762 135.708C162.931 136.146 163.178 136.489 163.503 136.737C163.828 136.982 164.225 137.105 164.696 137.105C165.187 137.105 165.596 136.976 165.924 136.717C166.255 136.455 166.504 136.104 166.67 135.663C166.839 135.219 166.923 134.725 166.923 134.182C166.923 133.645 166.84 133.161 166.675 132.73C166.512 132.296 166.265 131.953 165.934 131.701C165.606 131.446 165.193 131.318 164.696 131.318C164.219 131.318 163.818 131.439 163.493 131.681C163.168 131.92 162.923 132.254 162.757 132.685C162.591 133.113 162.509 133.612 162.509 134.182ZM172.989 138.159C172.299 138.159 171.694 137.995 171.174 137.667C170.657 137.339 170.253 136.88 169.961 136.29C169.673 135.7 169.528 135.01 169.528 134.222C169.528 133.426 169.673 132.732 169.961 132.138C170.253 131.545 170.657 131.085 171.174 130.756C171.694 130.428 172.299 130.264 172.989 130.264C173.678 130.264 174.281 130.428 174.798 130.756C175.319 131.085 175.723 131.545 176.011 132.138C176.303 132.732 176.449 133.426 176.449 134.222C176.449 135.01 176.303 135.7 176.011 136.29C175.723 136.88 175.319 137.339 174.798 137.667C174.281 137.995 173.678 138.159 172.989 138.159ZM172.989 137.105C173.512 137.105 173.943 136.971 174.281 136.702C174.619 136.434 174.87 136.081 175.032 135.643C175.194 135.206 175.276 134.732 175.276 134.222C175.276 133.711 175.194 133.236 175.032 132.795C174.87 132.354 174.619 131.998 174.281 131.726C173.943 131.454 173.512 131.318 172.989 131.318C172.465 131.318 172.034 131.454 171.696 131.726C171.358 131.998 171.108 132.354 170.945 132.795C170.783 133.236 170.702 133.711 170.702 134.222C170.702 134.732 170.783 135.206 170.945 135.643C171.108 136.081 171.358 136.434 171.696 136.702C172.034 136.971 172.465 137.105 172.989 137.105ZM179.413 133.406V138H178.24V130.364H179.373V131.557H179.473C179.652 131.169 179.924 130.857 180.288 130.622C180.653 130.384 181.123 130.264 181.7 130.264C182.217 130.264 182.67 130.37 183.057 130.582C183.445 130.791 183.747 131.109 183.962 131.537C184.178 131.961 184.285 132.498 184.285 133.148V138H183.112V133.227C183.112 132.627 182.956 132.16 182.645 131.825C182.333 131.487 181.906 131.318 181.362 131.318C180.988 131.318 180.653 131.399 180.358 131.562C180.066 131.724 179.836 131.961 179.667 132.273C179.498 132.584 179.413 132.962 179.413 133.406ZM189.631 138.159C188.895 138.159 188.261 137.997 187.727 137.672C187.197 137.344 186.787 136.886 186.499 136.3C186.214 135.71 186.071 135.024 186.071 134.241C186.071 133.459 186.214 132.77 186.499 132.173C186.787 131.573 187.188 131.106 187.702 130.771C188.219 130.433 188.822 130.264 189.512 130.264C189.909 130.264 190.302 130.33 190.69 130.463C191.078 130.596 191.431 130.811 191.749 131.109C192.067 131.404 192.321 131.795 192.51 132.283C192.699 132.77 192.793 133.37 192.793 134.082V134.58H186.907V133.565H191.6C191.6 133.134 191.514 132.75 191.341 132.412C191.172 132.074 190.93 131.807 190.615 131.612C190.304 131.416 189.936 131.318 189.512 131.318C189.044 131.318 188.64 131.434 188.299 131.666C187.961 131.895 187.7 132.193 187.518 132.561C187.336 132.929 187.245 133.323 187.245 133.744V134.42C187.245 134.997 187.344 135.486 187.543 135.887C187.745 136.285 188.025 136.588 188.383 136.797C188.741 137.002 189.157 137.105 189.631 137.105C189.939 137.105 190.218 137.062 190.466 136.976C190.718 136.886 190.935 136.754 191.118 136.578C191.3 136.399 191.441 136.177 191.54 135.912L192.674 136.23C192.554 136.615 192.354 136.953 192.072 137.244C191.79 137.533 191.442 137.758 191.028 137.92C190.614 138.08 190.148 138.159 189.631 138.159ZM195.751 133.406V138H194.578V130.364H195.711V131.557H195.811C195.99 131.169 196.261 130.857 196.626 130.622C196.991 130.384 197.461 130.264 198.038 130.264C198.555 130.264 199.007 130.37 199.395 130.582C199.783 130.791 200.085 131.109 200.3 131.537C200.516 131.961 200.623 132.498 200.623 133.148V138H199.45V133.227C199.45 132.627 199.294 132.16 198.983 131.825C198.671 131.487 198.243 131.318 197.7 131.318C197.325 131.318 196.991 131.399 196.696 131.562C196.404 131.724 196.174 131.961 196.005 132.273C195.836 132.584 195.751 132.962 195.751 133.406ZM206.088 130.364V131.358H202.131V130.364H206.088ZM203.284 128.534H204.458V135.812C204.458 136.144 204.506 136.393 204.602 136.558C204.701 136.721 204.827 136.83 204.98 136.886C205.135 136.939 205.299 136.966 205.472 136.966C205.601 136.966 205.707 136.959 205.79 136.946C205.873 136.929 205.939 136.916 205.989 136.906L206.227 137.96C206.148 137.99 206.037 138.02 205.894 138.05C205.752 138.083 205.571 138.099 205.352 138.099C205.021 138.099 204.696 138.028 204.378 137.886C204.063 137.743 203.801 137.526 203.593 137.234C203.387 136.943 203.284 136.575 203.284 136.131V128.534ZM213.126 132.074L212.072 132.372C212.005 132.196 211.907 132.026 211.778 131.86C211.652 131.691 211.48 131.552 211.261 131.442C211.042 131.333 210.762 131.278 210.421 131.278C209.954 131.278 209.564 131.386 209.253 131.602C208.944 131.814 208.79 132.084 208.79 132.412C208.79 132.704 208.896 132.934 209.108 133.103C209.321 133.272 209.652 133.413 210.103 133.526L211.236 133.804C211.919 133.97 212.428 134.223 212.763 134.565C213.097 134.903 213.265 135.339 213.265 135.872C213.265 136.31 213.139 136.701 212.887 137.045C212.638 137.39 212.29 137.662 211.843 137.861C211.395 138.06 210.875 138.159 210.282 138.159C209.503 138.159 208.858 137.99 208.348 137.652C207.837 137.314 207.514 136.82 207.378 136.17L208.492 135.892C208.598 136.303 208.799 136.611 209.094 136.817C209.392 137.022 209.781 137.125 210.262 137.125C210.809 137.125 211.243 137.009 211.564 136.777C211.889 136.542 212.052 136.26 212.052 135.932C212.052 135.667 211.959 135.445 211.773 135.266C211.588 135.083 211.303 134.947 210.918 134.858L209.645 134.56C208.946 134.394 208.432 134.137 208.104 133.789C207.779 133.438 207.617 132.999 207.617 132.472C207.617 132.041 207.738 131.66 207.98 131.328C208.225 130.997 208.558 130.737 208.979 130.548C209.403 130.359 209.884 130.264 210.421 130.264C211.177 130.264 211.77 130.43 212.201 130.761C212.635 131.093 212.943 131.53 213.126 132.074ZM216.781 136.608L216.701 137.145C216.645 137.523 216.559 137.927 216.443 138.358C216.33 138.789 216.212 139.195 216.09 139.576C215.967 139.957 215.866 140.26 215.787 140.486H214.892C214.935 140.274 214.991 139.994 215.061 139.646C215.13 139.298 215.2 138.908 215.27 138.477C215.342 138.05 215.402 137.612 215.449 137.165L215.508 136.608H216.781ZM27.9574 159.159C27.321 159.159 26.7592 158.998 26.272 158.677C25.7848 158.352 25.4036 157.895 25.1286 157.305C24.8535 156.711 24.7159 156.01 24.7159 155.202C24.7159 154.4 24.8535 153.704 25.1286 153.114C25.4036 152.524 25.7865 152.068 26.277 151.746C26.7675 151.425 27.3343 151.264 27.9773 151.264C28.4744 151.264 28.8672 151.347 29.1555 151.513C29.4472 151.675 29.6693 151.861 29.8217 152.07C29.9775 152.275 30.0985 152.444 30.1847 152.577H30.2841V148.818H31.4574V159H30.3239V157.827H30.1847C30.0985 157.966 29.9759 158.142 29.8168 158.354C29.6577 158.562 29.4306 158.75 29.1357 158.915C28.8407 159.078 28.4479 159.159 27.9574 159.159ZM28.1165 158.105C28.5871 158.105 28.9848 157.982 29.3097 157.737C29.6345 157.489 29.8814 157.146 30.0504 156.708C30.2195 156.267 30.304 155.759 30.304 155.182C30.304 154.612 30.2211 154.113 30.0554 153.685C29.8897 153.254 29.6444 152.92 29.3196 152.681C28.9948 152.439 28.5938 152.318 28.1165 152.318C27.6193 152.318 27.205 152.446 26.8736 152.701C26.5455 152.953 26.2985 153.296 26.1328 153.73C25.9704 154.161 25.8892 154.645 25.8892 155.182C25.8892 155.725 25.9721 156.219 26.1378 156.663C26.3068 157.104 26.5554 157.455 26.8835 157.717C27.215 157.976 27.6259 158.105 28.1165 158.105ZM36.9709 159.159C36.2351 159.159 35.6004 158.997 35.0668 158.672C34.5365 158.344 34.1271 157.886 33.8388 157.3C33.5537 156.71 33.4112 156.024 33.4112 155.241C33.4112 154.459 33.5537 153.77 33.8388 153.173C34.1271 152.573 34.5282 152.106 35.0419 151.771C35.5589 151.433 36.1622 151.264 36.8516 151.264C37.2493 151.264 37.642 151.33 38.0298 151.463C38.4176 151.596 38.7706 151.811 39.0888 152.109C39.407 152.404 39.6605 152.795 39.8494 153.283C40.0384 153.77 40.1328 154.37 40.1328 155.082V155.58H34.2464V154.565H38.9396C38.9396 154.134 38.8535 153.75 38.6811 153.412C38.5121 153.074 38.2701 152.807 37.9553 152.612C37.6437 152.416 37.2758 152.318 36.8516 152.318C36.3842 152.318 35.9799 152.434 35.6385 152.666C35.3004 152.895 35.0402 153.193 34.858 153.561C34.6757 153.929 34.5845 154.323 34.5845 154.744V155.42C34.5845 155.997 34.6839 156.486 34.8828 156.887C35.085 157.285 35.3651 157.588 35.723 157.797C36.081 158.002 36.4969 158.105 36.9709 158.105C37.2791 158.105 37.5575 158.062 37.8061 157.976C38.058 157.886 38.2751 157.754 38.4574 157.578C38.6397 157.399 38.7805 157.177 38.88 156.912L40.0135 157.23C39.8942 157.615 39.6937 157.953 39.4119 158.244C39.1302 158.533 38.7822 158.758 38.3679 158.92C37.9536 159.08 37.4879 159.159 36.9709 159.159ZM45.0199 159.159C44.304 159.159 43.6875 158.99 43.1705 158.652C42.6534 158.314 42.2557 157.848 41.9773 157.255C41.6989 156.662 41.5597 155.984 41.5597 155.222C41.5597 154.446 41.7022 153.762 41.9872 153.168C42.2756 152.572 42.6766 152.106 43.1903 151.771C43.7074 151.433 44.3106 151.264 45 151.264C45.5369 151.264 46.0208 151.364 46.4517 151.562C46.8826 151.761 47.2356 152.04 47.5107 152.398C47.7857 152.756 47.9564 153.173 48.0227 153.651H46.8494C46.7599 153.303 46.5611 152.994 46.2528 152.726C45.9479 152.454 45.5369 152.318 45.0199 152.318C44.5625 152.318 44.1615 152.437 43.8168 152.676C43.4754 152.911 43.2086 153.245 43.0163 153.675C42.8274 154.103 42.733 154.605 42.733 155.182C42.733 155.772 42.8258 156.286 43.0114 156.723C43.2003 157.161 43.4654 157.5 43.8068 157.742C44.1515 157.984 44.5559 158.105 45.0199 158.105C45.3248 158.105 45.6016 158.052 45.8501 157.946C46.0987 157.84 46.3092 157.688 46.4815 157.489C46.6539 157.29 46.7765 157.051 46.8494 156.773H48.0227C47.9564 157.223 47.7924 157.629 47.5305 157.991C47.272 158.349 46.929 158.634 46.5014 158.846C46.0772 159.055 45.5833 159.159 45.0199 159.159ZM50.9112 148.818V159H49.7379V148.818H50.9112ZM55.3074 159.179C54.8234 159.179 54.3843 159.088 53.9899 158.906C53.5955 158.72 53.2823 158.453 53.0502 158.105C52.8182 157.754 52.7022 157.33 52.7022 156.832C52.7022 156.395 52.7884 156.04 52.9608 155.768C53.1331 155.493 53.3635 155.278 53.6518 155.122C53.9402 154.966 54.2583 154.85 54.6064 154.774C54.9577 154.695 55.3107 154.632 55.6653 154.585C56.1293 154.526 56.5055 154.481 56.7939 154.451C57.0855 154.418 57.2976 154.363 57.4302 154.287C57.5661 154.211 57.6341 154.078 57.6341 153.889V153.849C57.6341 153.359 57.4998 152.978 57.2314 152.706C56.9662 152.434 56.5635 152.298 56.0233 152.298C55.4631 152.298 55.024 152.421 54.7058 152.666C54.3876 152.911 54.1639 153.173 54.0346 153.452L52.921 153.054C53.1199 152.59 53.385 152.229 53.7164 151.97C54.0512 151.708 54.4158 151.526 54.8102 151.423C55.2079 151.317 55.599 151.264 55.9835 151.264C56.2288 151.264 56.5105 151.294 56.8287 151.354C57.1502 151.41 57.46 151.528 57.7583 151.707C58.06 151.886 58.3102 152.156 58.5091 152.517C58.7079 152.878 58.8074 153.362 58.8074 153.969V159H57.6341V157.966H57.5744C57.4949 158.132 57.3623 158.309 57.1767 158.498C56.9911 158.687 56.7441 158.848 56.4359 158.98C56.1277 159.113 55.7515 159.179 55.3074 159.179ZM55.4863 158.125C55.9503 158.125 56.3414 158.034 56.6596 157.852C56.9811 157.669 57.2231 157.434 57.3855 157.146C57.5512 156.857 57.6341 156.554 57.6341 156.236V155.162C57.5843 155.222 57.475 155.276 57.3059 155.326C57.1402 155.372 56.948 155.414 56.7292 155.45C56.5138 155.483 56.3033 155.513 56.0978 155.54C55.8957 155.563 55.7316 155.583 55.6056 155.599C55.3007 155.639 55.0157 155.704 54.7505 155.793C54.4887 155.879 54.2766 156.01 54.1142 156.186C53.9551 156.358 53.8755 156.594 53.8755 156.892C53.8755 157.3 54.0263 157.608 54.3279 157.817C54.6329 158.022 55.019 158.125 55.4863 158.125ZM60.9489 159V151.364H62.0824V152.517H62.1619C62.3011 152.139 62.553 151.833 62.9176 151.597C63.2822 151.362 63.6932 151.244 64.1506 151.244C64.2367 151.244 64.3445 151.246 64.4737 151.249C64.603 151.253 64.7008 151.258 64.767 151.264V152.457C64.7273 152.447 64.6361 152.433 64.4936 152.413C64.3544 152.389 64.2069 152.378 64.0511 152.378C63.6799 152.378 63.3485 152.456 63.0568 152.612C62.7685 152.764 62.5398 152.976 62.3707 153.248C62.205 153.516 62.1222 153.823 62.1222 154.168V159H60.9489ZM68.405 159.179C67.9211 159.179 67.4819 159.088 67.0875 158.906C66.6931 158.72 66.3799 158.453 66.1479 158.105C65.9159 157.754 65.7999 157.33 65.7999 156.832C65.7999 156.395 65.8861 156.04 66.0584 155.768C66.2308 155.493 66.4611 155.278 66.7495 155.122C67.0378 154.966 67.356 154.85 67.704 154.774C68.0553 154.695 68.4083 154.632 68.763 154.585C69.227 154.526 69.6032 154.481 69.8915 154.451C70.1832 154.418 70.3953 154.363 70.5279 154.287C70.6638 154.211 70.7317 154.078 70.7317 153.889V153.849C70.7317 153.359 70.5975 152.978 70.329 152.706C70.0639 152.434 69.6612 152.298 69.1209 152.298C68.5608 152.298 68.1216 152.421 67.8034 152.666C67.4853 152.911 67.2615 153.173 67.1323 153.452L66.0186 153.054C66.2175 152.59 66.4827 152.229 66.8141 151.97C67.1489 151.708 67.5134 151.526 67.9078 151.423C68.3056 151.317 68.6967 151.264 69.0811 151.264C69.3264 151.264 69.6081 151.294 69.9263 151.354C70.2478 151.41 70.5577 151.528 70.856 151.707C71.1576 151.886 71.4078 152.156 71.6067 152.517C71.8056 152.878 71.905 153.362 71.905 153.969V159H70.7317V157.966H70.6721C70.5925 158.132 70.4599 158.309 70.2743 158.498C70.0887 158.687 69.8418 158.848 69.5336 158.98C69.2253 159.113 68.8491 159.179 68.405 159.179ZM68.584 158.125C69.048 158.125 69.4391 158.034 69.7573 157.852C70.0788 157.669 70.3207 157.434 70.4831 157.146C70.6489 156.857 70.7317 156.554 70.7317 156.236V155.162C70.682 155.222 70.5726 155.276 70.4036 155.326C70.2379 155.372 70.0456 155.414 69.8269 155.45C69.6114 155.483 69.401 155.513 69.1955 155.54C68.9933 155.563 68.8292 155.583 68.7033 155.599C68.3984 155.639 68.1133 155.704 67.8482 155.793C67.5864 155.879 67.3742 156.01 67.2118 156.186C67.0527 156.358 66.9732 156.594 66.9732 156.892C66.9732 157.3 67.124 157.608 67.4256 157.817C67.7305 158.022 68.1167 158.125 68.584 158.125ZM77.3675 151.364V152.358H73.4102V151.364H77.3675ZM74.5636 149.534H75.7369V156.812C75.7369 157.144 75.7849 157.393 75.881 157.558C75.9805 157.721 76.1064 157.83 76.2589 157.886C76.4147 157.939 76.5787 157.966 76.7511 157.966C76.8803 157.966 76.9864 157.959 77.0692 157.946C77.1521 157.929 77.2184 157.916 77.2681 157.906L77.5067 158.96C77.4272 158.99 77.3162 159.02 77.1737 159.05C77.0311 159.083 76.8505 159.099 76.6317 159.099C76.3003 159.099 75.9755 159.028 75.6573 158.886C75.3424 158.743 75.0806 158.526 74.8718 158.234C74.6663 157.943 74.5636 157.575 74.5636 157.131V149.534ZM79.1325 159V151.364H80.3058V159H79.1325ZM79.729 150.091C79.5004 150.091 79.3031 150.013 79.1374 149.857C78.975 149.701 78.8938 149.514 78.8938 149.295C78.8938 149.077 78.975 148.889 79.1374 148.734C79.3031 148.578 79.5004 148.5 79.729 148.5C79.9577 148.5 80.1533 148.578 80.3157 148.734C80.4814 148.889 80.5643 149.077 80.5643 149.295C80.5643 149.514 80.4814 149.701 80.3157 149.857C80.1533 150.013 79.9577 150.091 79.729 150.091ZM88.699 151.364L85.8752 159H84.682L81.8581 151.364H83.1309L85.2388 157.449H85.3184L87.4263 151.364H88.699ZM93.176 159.159C92.4402 159.159 91.8055 158.997 91.2718 158.672C90.7415 158.344 90.3322 157.886 90.0439 157.3C89.7588 156.71 89.6163 156.024 89.6163 155.241C89.6163 154.459 89.7588 153.77 90.0439 153.173C90.3322 152.573 90.7333 152.106 91.247 151.771C91.764 151.433 92.3672 151.264 93.0566 151.264C93.4544 151.264 93.8471 151.33 94.2349 151.463C94.6227 151.596 94.9757 151.811 95.2939 152.109C95.612 152.404 95.8656 152.795 96.0545 153.283C96.2434 153.77 96.3379 154.37 96.3379 155.082V155.58H90.4515V154.565H95.1447C95.1447 154.134 95.0585 153.75 94.8862 153.412C94.7172 153.074 94.4752 152.807 94.1603 152.612C93.8488 152.416 93.4809 152.318 93.0566 152.318C92.5893 152.318 92.185 152.434 91.8436 152.666C91.5055 152.895 91.2453 153.193 91.063 153.561C90.8807 153.929 90.7896 154.323 90.7896 154.744V155.42C90.7896 155.997 90.889 156.486 91.0879 156.887C91.2901 157.285 91.5701 157.588 91.9281 157.797C92.286 158.002 92.702 158.105 93.176 158.105C93.4842 158.105 93.7626 158.062 94.0112 157.976C94.2631 157.886 94.4802 157.754 94.6625 157.578C94.8448 157.399 94.9856 157.177 95.085 156.912L96.2186 157.23C96.0993 157.615 95.8987 157.953 95.617 158.244C95.3353 158.533 94.9873 158.758 94.573 158.92C94.1587 159.08 93.693 159.159 93.176 159.159ZM108.901 148.818H110.134V155.56C110.134 156.256 109.97 156.877 109.642 157.424C109.317 157.968 108.858 158.397 108.265 158.712C107.671 159.023 106.975 159.179 106.177 159.179C105.378 159.179 104.682 159.023 104.089 158.712C103.495 158.397 103.035 157.968 102.706 157.424C102.382 156.877 102.219 156.256 102.219 155.56V148.818H103.452V155.46C103.452 155.957 103.562 156.4 103.78 156.788C103.999 157.172 104.311 157.475 104.715 157.697C105.123 157.916 105.61 158.026 106.177 158.026C106.743 158.026 107.231 157.916 107.638 157.697C108.046 157.475 108.358 157.172 108.573 156.788C108.792 156.4 108.901 155.957 108.901 155.46V148.818ZM113.829 148.818V159H112.596V148.818H113.829ZM121.551 153.074L120.497 153.372C120.431 153.196 120.333 153.026 120.204 152.86C120.078 152.691 119.906 152.552 119.687 152.442C119.468 152.333 119.188 152.278 118.847 152.278C118.379 152.278 117.99 152.386 117.678 152.602C117.37 152.814 117.216 153.084 117.216 153.412C117.216 153.704 117.322 153.934 117.534 154.103C117.746 154.272 118.078 154.413 118.529 154.526L119.662 154.804C120.345 154.97 120.854 155.223 121.188 155.565C121.523 155.903 121.691 156.339 121.691 156.872C121.691 157.31 121.565 157.701 121.313 158.045C121.064 158.39 120.716 158.662 120.269 158.861C119.821 159.06 119.301 159.159 118.708 159.159C117.929 159.159 117.284 158.99 116.774 158.652C116.263 158.314 115.94 157.82 115.804 157.17L116.918 156.892C117.024 157.303 117.224 157.611 117.519 157.817C117.818 158.022 118.207 158.125 118.688 158.125C119.235 158.125 119.669 158.009 119.99 157.777C120.315 157.542 120.477 157.26 120.477 156.932C120.477 156.667 120.385 156.445 120.199 156.266C120.013 156.083 119.728 155.947 119.344 155.858L118.071 155.56C117.372 155.394 116.858 155.137 116.53 154.789C116.205 154.438 116.043 153.999 116.043 153.472C116.043 153.041 116.164 152.66 116.406 152.328C116.651 151.997 116.984 151.737 117.405 151.548C117.829 151.359 118.31 151.264 118.847 151.264C119.602 151.264 120.196 151.43 120.627 151.761C121.061 152.093 121.369 152.53 121.551 153.074ZM125.207 157.608L125.127 158.145C125.071 158.523 124.985 158.927 124.869 159.358C124.756 159.789 124.638 160.195 124.516 160.576C124.393 160.957 124.292 161.26 124.212 161.486H123.317C123.361 161.274 123.417 160.994 123.487 160.646C123.556 160.298 123.626 159.908 123.695 159.477C123.768 159.05 123.828 158.612 123.874 158.165L123.934 157.608H125.207ZM133.565 159.179C133.081 159.179 132.642 159.088 132.248 158.906C131.853 158.72 131.54 158.453 131.308 158.105C131.076 157.754 130.96 157.33 130.96 156.832C130.96 156.395 131.046 156.04 131.219 155.768C131.391 155.493 131.621 155.278 131.91 155.122C132.198 154.966 132.516 154.85 132.864 154.774C133.215 154.695 133.568 154.632 133.923 154.585C134.387 154.526 134.763 154.481 135.052 154.451C135.343 154.418 135.555 154.363 135.688 154.287C135.824 154.211 135.892 154.078 135.892 153.889V153.849C135.892 153.359 135.758 152.978 135.489 152.706C135.224 152.434 134.821 152.298 134.281 152.298C133.721 152.298 133.282 152.421 132.964 152.666C132.645 152.911 132.422 153.173 132.292 153.452L131.179 153.054C131.378 152.59 131.643 152.229 131.974 151.97C132.309 151.708 132.674 151.526 133.068 151.423C133.466 151.317 133.857 151.264 134.241 151.264C134.487 151.264 134.768 151.294 135.086 151.354C135.408 151.41 135.718 151.528 136.016 151.707C136.318 151.886 136.568 152.156 136.767 152.517C136.966 152.878 137.065 153.362 137.065 153.969V159H135.892V157.966H135.832C135.753 158.132 135.62 158.309 135.434 158.498C135.249 158.687 135.002 158.848 134.694 158.98C134.385 159.113 134.009 159.179 133.565 159.179ZM133.744 158.125C134.208 158.125 134.599 158.034 134.917 157.852C135.239 157.669 135.481 157.434 135.643 157.146C135.809 156.857 135.892 156.554 135.892 156.236V155.162C135.842 155.222 135.733 155.276 135.564 155.326C135.398 155.372 135.206 155.414 134.987 155.45C134.772 155.483 134.561 155.513 134.356 155.54C134.153 155.563 133.989 155.583 133.863 155.599C133.559 155.639 133.273 155.704 133.008 155.793C132.747 155.879 132.534 156.01 132.372 156.186C132.213 156.358 132.133 156.594 132.133 156.892C132.133 157.3 132.284 157.608 132.586 157.817C132.891 158.022 133.277 158.125 133.744 158.125ZM140.38 154.406V159H139.207V151.364H140.34V152.557H140.44C140.619 152.169 140.89 151.857 141.255 151.622C141.62 151.384 142.09 151.264 142.667 151.264C143.184 151.264 143.636 151.37 144.024 151.582C144.412 151.791 144.714 152.109 144.929 152.537C145.144 152.961 145.252 153.498 145.252 154.148V159H144.079V154.227C144.079 153.627 143.923 153.16 143.612 152.825C143.3 152.487 142.872 152.318 142.329 152.318C141.954 152.318 141.62 152.399 141.325 152.562C141.033 152.724 140.803 152.961 140.634 153.273C140.464 153.584 140.38 153.962 140.38 154.406ZM150.28 159.159C149.643 159.159 149.081 158.998 148.594 158.677C148.107 158.352 147.726 157.895 147.451 157.305C147.176 156.711 147.038 156.01 147.038 155.202C147.038 154.4 147.176 153.704 147.451 153.114C147.726 152.524 148.109 152.068 148.599 151.746C149.09 151.425 149.657 151.264 150.3 151.264C150.797 151.264 151.189 151.347 151.478 151.513C151.769 151.675 151.992 151.861 152.144 152.07C152.3 152.275 152.421 152.444 152.507 152.577H152.606V148.818H153.78V159H152.646V157.827H152.507C152.421 157.966 152.298 158.142 152.139 158.354C151.98 158.562 151.753 158.75 151.458 158.915C151.163 159.078 150.77 159.159 150.28 159.159ZM150.439 158.105C150.909 158.105 151.307 157.982 151.632 157.737C151.957 157.489 152.204 157.146 152.373 156.708C152.542 156.267 152.626 155.759 152.626 155.182C152.626 154.612 152.543 154.113 152.378 153.685C152.212 153.254 151.967 152.92 151.642 152.681C151.317 152.439 150.916 152.318 150.439 152.318C149.942 152.318 149.527 152.446 149.196 152.701C148.868 152.953 148.621 153.296 148.455 153.73C148.293 154.161 148.211 154.645 148.211 155.182C148.211 155.725 148.294 156.219 148.46 156.663C148.629 157.104 148.878 157.455 149.206 157.717C149.537 157.976 149.948 158.105 150.439 158.105ZM159.631 149.912V148.818H167.268V149.912H164.066V159H162.833V149.912H159.631ZM168.892 161.864C168.693 161.864 168.516 161.847 168.36 161.814C168.204 161.784 168.097 161.754 168.037 161.724L168.335 160.69C168.62 160.763 168.872 160.79 169.091 160.77C169.31 160.75 169.504 160.652 169.673 160.477C169.845 160.304 170.002 160.024 170.145 159.636L170.364 159.04L167.54 151.364H168.812L170.92 157.449H171L173.108 151.364H174.381L171.139 160.114C170.993 160.508 170.813 160.835 170.597 161.093C170.382 161.355 170.132 161.549 169.847 161.675C169.565 161.801 169.247 161.864 168.892 161.864ZM175.929 161.864V151.364H177.063V152.577H177.202C177.288 152.444 177.408 152.275 177.56 152.07C177.716 151.861 177.938 151.675 178.226 151.513C178.518 151.347 178.912 151.264 179.409 151.264C180.052 151.264 180.619 151.425 181.11 151.746C181.6 152.068 181.983 152.524 182.258 153.114C182.533 153.704 182.671 154.4 182.671 155.202C182.671 156.01 182.533 156.711 182.258 157.305C181.983 157.895 181.602 158.352 181.115 158.677C180.627 158.998 180.066 159.159 179.429 159.159C178.939 159.159 178.546 159.078 178.251 158.915C177.956 158.75 177.729 158.562 177.57 158.354C177.411 158.142 177.288 157.966 177.202 157.827H177.103V161.864H175.929ZM177.083 155.182C177.083 155.759 177.167 156.267 177.336 156.708C177.505 157.146 177.752 157.489 178.077 157.737C178.402 157.982 178.8 158.105 179.27 158.105C179.761 158.105 180.17 157.976 180.498 157.717C180.83 157.455 181.078 157.104 181.244 156.663C181.413 156.219 181.498 155.725 181.498 155.182C181.498 154.645 181.415 154.161 181.249 153.73C181.087 153.296 180.84 152.953 180.508 152.701C180.18 152.446 179.767 152.318 179.27 152.318C178.793 152.318 178.392 152.439 178.067 152.681C177.742 152.92 177.497 153.254 177.331 153.685C177.166 154.113 177.083 154.612 177.083 155.182ZM187.662 159.159C186.926 159.159 186.292 158.997 185.758 158.672C185.228 158.344 184.819 157.886 184.53 157.3C184.245 156.71 184.103 156.024 184.103 155.241C184.103 154.459 184.245 153.77 184.53 153.173C184.819 152.573 185.22 152.106 185.733 151.771C186.25 151.433 186.854 151.264 187.543 151.264C187.941 151.264 188.333 151.33 188.721 151.463C189.109 151.596 189.462 151.811 189.78 152.109C190.098 152.404 190.352 152.795 190.541 153.283C190.73 153.77 190.824 154.37 190.824 155.082V155.58H184.938V154.565H189.631C189.631 154.134 189.545 153.75 189.373 153.412C189.203 153.074 188.962 152.807 188.647 152.612C188.335 152.416 187.967 152.318 187.543 152.318C187.076 152.318 186.671 152.434 186.33 152.666C185.992 152.895 185.732 153.193 185.549 153.561C185.367 153.929 185.276 154.323 185.276 154.744V155.42C185.276 155.997 185.375 156.486 185.574 156.887C185.776 157.285 186.056 157.588 186.414 157.797C186.772 158.002 187.188 158.105 187.662 158.105C187.971 158.105 188.249 158.062 188.498 157.976C188.749 157.886 188.967 157.754 189.149 157.578C189.331 157.399 189.472 157.177 189.571 156.912L190.705 157.23C190.586 157.615 190.385 157.953 190.103 158.244C189.822 158.533 189.474 158.758 189.059 158.92C188.645 159.08 188.179 159.159 187.662 159.159ZM198.336 151.364C198.277 150.86 198.035 150.469 197.61 150.19C197.186 149.912 196.666 149.773 196.049 149.773C195.599 149.773 195.204 149.846 194.866 149.991C194.531 150.137 194.27 150.338 194.081 150.593C193.895 150.848 193.802 151.138 193.802 151.463C193.802 151.735 193.867 151.969 193.996 152.164C194.129 152.356 194.298 152.517 194.503 152.646C194.709 152.772 194.924 152.877 195.15 152.96C195.375 153.039 195.582 153.104 195.771 153.153L196.805 153.432C197.07 153.501 197.365 153.598 197.69 153.72C198.018 153.843 198.331 154.01 198.63 154.222C198.931 154.431 199.18 154.7 199.375 155.028C199.571 155.356 199.669 155.759 199.669 156.236C199.669 156.786 199.525 157.283 199.236 157.727C198.951 158.171 198.533 158.524 197.983 158.786C197.436 159.048 196.772 159.179 195.99 159.179C195.261 159.179 194.629 159.061 194.096 158.826C193.565 158.591 193.148 158.263 192.843 157.842C192.541 157.421 192.37 156.932 192.331 156.375H193.603C193.636 156.759 193.766 157.078 193.991 157.33C194.22 157.578 194.508 157.764 194.856 157.886C195.208 158.006 195.585 158.065 195.99 158.065C196.46 158.065 196.883 157.989 197.257 157.837C197.632 157.681 197.929 157.465 198.147 157.19C198.366 156.912 198.475 156.587 198.475 156.216C198.475 155.878 198.381 155.603 198.192 155.391C198.003 155.179 197.755 155.006 197.446 154.874C197.138 154.741 196.805 154.625 196.447 154.526L195.194 154.168C194.399 153.939 193.769 153.612 193.305 153.188C192.841 152.764 192.609 152.209 192.609 151.523C192.609 150.953 192.763 150.455 193.071 150.031C193.383 149.604 193.801 149.272 194.324 149.037C194.851 148.798 195.44 148.679 196.089 148.679C196.745 148.679 197.329 148.797 197.839 149.032C198.35 149.264 198.754 149.582 199.052 149.987C199.354 150.391 199.513 150.85 199.529 151.364H198.336ZM204.639 159.159C203.923 159.159 203.307 158.99 202.79 158.652C202.273 158.314 201.875 157.848 201.596 157.255C201.318 156.662 201.179 155.984 201.179 155.222C201.179 154.446 201.321 153.762 201.606 153.168C201.895 152.572 202.296 152.106 202.809 151.771C203.327 151.433 203.93 151.264 204.619 151.264C205.156 151.264 205.64 151.364 206.071 151.562C206.502 151.761 206.855 152.04 207.13 152.398C207.405 152.756 207.576 153.173 207.642 153.651H206.469C206.379 153.303 206.18 152.994 205.872 152.726C205.567 152.454 205.156 152.318 204.639 152.318C204.182 152.318 203.781 152.437 203.436 152.676C203.095 152.911 202.828 153.245 202.635 153.675C202.447 154.103 202.352 154.605 202.352 155.182C202.352 155.772 202.445 156.286 202.631 156.723C202.819 157.161 203.085 157.5 203.426 157.742C203.771 157.984 204.175 158.105 204.639 158.105C204.944 158.105 205.221 158.052 205.469 157.946C205.718 157.84 205.928 157.688 206.101 157.489C206.273 157.29 206.396 157.051 206.469 156.773H207.642C207.576 157.223 207.412 157.629 207.15 157.991C206.891 158.349 206.548 158.634 206.121 158.846C205.696 159.055 205.202 159.159 204.639 159.159ZM209.357 159V151.364H210.491V152.517H210.57C210.709 152.139 210.961 151.833 211.326 151.597C211.69 151.362 212.101 151.244 212.559 151.244C212.645 151.244 212.753 151.246 212.882 151.249C213.011 151.253 213.109 151.258 213.175 151.264V152.457C213.135 152.447 213.044 152.433 212.902 152.413C212.763 152.389 212.615 152.378 212.459 152.378C212.088 152.378 211.757 152.456 211.465 152.612C211.177 152.764 210.948 152.976 210.779 153.248C210.613 153.516 210.53 153.823 210.53 154.168V159H209.357ZM214.566 159V151.364H215.739V159H214.566ZM215.163 150.091C214.934 150.091 214.737 150.013 214.571 149.857C214.409 149.701 214.327 149.514 214.327 149.295C214.327 149.077 214.409 148.889 214.571 148.734C214.737 148.578 214.934 148.5 215.163 148.5C215.391 148.5 215.587 148.578 215.749 148.734C215.915 148.889 215.998 149.077 215.998 149.295C215.998 149.514 215.915 149.701 215.749 149.857C215.587 150.013 215.391 150.091 215.163 150.091ZM217.888 161.864V151.364H219.022V152.577H219.161C219.247 152.444 219.367 152.275 219.519 152.07C219.675 151.861 219.897 151.675 220.185 151.513C220.477 151.347 220.871 151.264 221.368 151.264C222.011 151.264 222.578 151.425 223.069 151.746C223.559 152.068 223.942 152.524 224.217 153.114C224.492 153.704 224.63 154.4 224.63 155.202C224.63 156.01 224.492 156.711 224.217 157.305C223.942 157.895 223.561 158.352 223.074 158.677C222.586 158.998 222.025 159.159 221.388 159.159C220.898 159.159 220.505 159.078 220.21 158.915C219.915 158.75 219.688 158.562 219.529 158.354C219.37 158.142 219.247 157.966 219.161 157.827H219.062V161.864H217.888ZM219.042 155.182C219.042 155.759 219.126 156.267 219.295 156.708C219.464 157.146 219.711 157.489 220.036 157.737C220.361 157.982 220.759 158.105 221.229 158.105C221.72 158.105 222.129 157.976 222.457 157.717C222.789 157.455 223.037 157.104 223.203 156.663C223.372 156.219 223.456 155.725 223.456 155.182C223.456 154.645 223.374 154.161 223.208 153.73C223.046 153.296 222.799 152.953 222.467 152.701C222.139 152.446 221.726 152.318 221.229 152.318C220.752 152.318 220.351 152.439 220.026 152.681C219.701 152.92 219.456 153.254 219.29 153.685C219.125 154.113 219.042 154.612 219.042 155.182ZM229.741 151.364V152.358H225.783V151.364H229.741ZM226.937 149.534H228.11V156.812C228.11 157.144 228.158 157.393 228.254 157.558C228.354 157.721 228.479 157.83 228.632 157.886C228.788 157.939 228.952 157.966 229.124 157.966C229.253 157.966 229.359 157.959 229.442 157.946C229.525 157.929 229.591 157.916 229.641 157.906L229.88 158.96C229.8 158.99 229.689 159.02 229.547 159.05C229.404 159.083 229.224 159.099 229.005 159.099C228.673 159.099 228.349 159.028 228.03 158.886C227.715 158.743 227.454 158.526 227.245 158.234C227.039 157.943 226.937 157.575 226.937 157.131V149.534ZM232.361 159.08C232.115 159.08 231.905 158.992 231.729 158.816C231.554 158.64 231.466 158.43 231.466 158.185C231.466 157.939 231.554 157.729 231.729 157.553C231.905 157.378 232.115 157.29 232.361 157.29C232.606 157.29 232.816 157.378 232.992 157.553C233.168 157.729 233.256 157.939 233.256 158.185C233.256 158.347 233.214 158.496 233.131 158.632C233.052 158.768 232.944 158.877 232.808 158.96C232.675 159.04 232.526 159.08 232.361 159.08Z" fill="#333333"/>
</g>
<defs>
<clipPath id="clip0_8_3">
<rect width="252" height="84" fill="white" transform="translate(24 80)"/>
</clipPath>
</defs>
</svg>
