<svg width="300" height="200" viewBox="0 0 300 200" fill="none" xmlns="http://www.w3.org/2000/svg">
<rect width="300" height="200" rx="12" fill="#F6F8FA"/>
<rect x="0.5" y="0.5" width="299" height="199" rx="11.5" stroke="#D1D9E0" stroke-opacity="0.701961"/>
<rect x="16" y="16" width="40" height="40" rx="8" fill="#818B98" fill-opacity="0.121569"/>
<path d="M38.23 36.004C38.23 36.5968 37.9946 37.1654 37.5754 37.5847C37.1563 38.004 36.5879 38.2397 35.995 38.24C35.402 38.24 34.8332 38.0044 34.4139 37.5851C33.9946 37.1658 33.759 36.597 33.759 36.004C33.759 35.4111 33.9944 34.8426 34.4136 34.4233C34.8327 34.004 35.4011 33.7683 35.994 33.768C36.587 33.768 37.1558 34.0036 37.5751 34.4229C37.9944 34.8422 38.23 35.411 38.23 36.004ZM40.878 25.314C39.532 25.314 37.771 26.274 35.99 27.936C34.21 26.283 32.448 25.334 31.103 25.334C30.693 25.334 30.32 25.427 29.997 25.612C28.622 26.405 28.314 28.876 29.024 31.977C25.98 32.917 24 34.42 24 36.004C24 37.594 25.99 39.101 29.043 40.034C28.339 43.147 28.653 45.622 30.031 46.414C30.351 46.601 30.721 46.689 31.133 46.689C32.478 46.689 34.24 45.729 36.021 44.065C37.801 45.719 39.563 46.668 40.908 46.668C41.318 46.668 41.691 46.578 42.014 46.393C43.388 45.601 43.697 43.13 42.987 40.028C46.02 39.096 48 37.59 48 36.004C48 34.414 46.01 32.907 42.957 31.972C43.661 28.862 43.347 26.385 41.969 25.592C41.651 25.408 41.282 25.315 40.878 25.314ZM40.873 26.404V26.41C41.098 26.41 41.279 26.454 41.431 26.537C42.097 26.919 42.386 28.372 42.161 30.241C42.107 30.701 42.019 31.186 41.911 31.681C40.951 31.445 39.905 31.264 38.804 31.147C38.144 30.242 37.459 29.42 36.769 28.7C38.361 27.22 39.856 26.408 40.874 26.405L40.873 26.404ZM31.103 26.424C32.115 26.424 33.617 27.232 35.213 28.704C34.527 29.424 33.843 30.241 33.193 31.146C32.086 31.263 31.039 31.444 30.08 31.684C29.968 31.194 29.885 30.72 29.826 30.264C29.596 28.396 29.88 26.944 30.54 26.557C30.73 26.467 30.94 26.429 31.103 26.424ZM35.985 29.474C36.44 29.942 36.895 30.466 37.345 31.038C36.905 31.018 36.455 31.004 36 31.004C35.54 31.004 35.085 31.014 34.64 31.038C35.08 30.466 35.535 29.943 35.985 29.474ZM36 32.1C36.74 32.1 37.477 32.134 38.202 32.193C38.608 32.775 39.004 33.396 39.385 34.053C39.757 34.693 40.095 35.343 40.403 35.999C40.095 36.654 39.757 37.309 39.39 37.949C39.01 38.609 38.617 39.237 38.21 39.819C37.482 39.882 36.744 39.917 36 39.917C35.26 39.917 34.523 39.882 33.798 39.824C33.392 39.242 32.996 38.62 32.615 37.964C32.243 37.324 31.905 36.674 31.597 36.018C31.9 35.361 32.243 34.705 32.61 34.064C32.99 33.404 33.383 32.778 33.79 32.196C34.518 32.132 35.256 32.098 36 32.098V32.1ZM32.365 32.354C32.125 32.731 31.885 33.117 31.661 33.514C31.436 33.904 31.226 34.296 31.026 34.688C30.761 34.032 30.536 33.378 30.35 32.741C30.99 32.591 31.665 32.457 32.365 32.354ZM39.625 32.354C40.32 32.457 40.99 32.584 41.631 32.741C41.451 33.373 41.226 34.023 40.971 34.674C40.771 34.284 40.561 33.891 40.331 33.5C40.106 33.108 39.866 32.726 39.626 32.354H39.625ZM42.688 33.029C43.172 33.179 43.632 33.346 44.063 33.527C45.795 34.267 46.915 35.235 46.915 36.003C46.91 36.771 45.79 37.743 44.058 38.478C43.638 38.658 43.178 38.82 42.703 38.971C42.423 38.013 42.057 37.015 41.603 35.991C42.053 34.974 42.413 33.981 42.688 33.027V33.029ZM29.293 33.033C29.571 33.993 29.938 34.99 30.393 36.013C29.943 37.03 29.581 38.023 29.307 38.977C28.823 38.827 28.363 38.659 27.937 38.477C26.205 37.74 25.085 36.771 25.085 36.003C25.085 35.235 26.205 34.261 27.937 33.527C28.357 33.347 28.817 33.185 29.293 33.033ZM40.971 37.313C41.236 37.97 41.461 38.625 41.647 39.261C41.007 39.418 40.331 39.551 39.631 39.651C39.871 39.276 40.111 38.889 40.336 38.493C40.561 38.103 40.77 37.705 40.971 37.313ZM31.026 37.333C31.226 37.725 31.436 38.116 31.666 38.508C31.896 38.898 32.131 39.28 32.371 39.651C31.676 39.549 31.006 39.421 30.365 39.265C30.545 38.635 30.771 37.983 31.025 37.332L31.026 37.333ZM41.92 40.32C42.032 40.813 42.12 41.288 42.174 41.743C42.404 43.611 42.12 45.063 41.46 45.451C41.313 45.541 41.122 45.579 40.897 45.579C39.885 45.579 38.383 44.772 36.787 43.299C37.473 42.579 38.157 41.763 38.807 40.859C39.914 40.741 40.961 40.56 41.92 40.32ZM30.09 40.33C31.05 40.564 32.096 40.745 33.197 40.862C33.857 41.767 34.542 42.589 35.232 43.308C33.637 44.791 32.14 45.603 31.122 45.603C30.902 45.598 30.716 45.553 30.569 45.471C29.903 45.091 29.614 43.637 29.839 41.768C29.893 41.308 29.982 40.824 30.09 40.33ZM34.65 40.97C35.09 40.99 35.54 41.004 35.995 41.004C36.455 41.004 36.91 40.994 37.355 40.97C36.915 41.542 36.46 42.065 36.01 42.535C35.555 42.065 35.1 41.542 34.65 40.97Z" fill="#61DAFB"/>
<path d="M81.5 42.5H79.9375L78.0625 39.3594C77.8906 39.0677 77.724 38.8203 77.5625 38.6172C77.401 38.4089 77.2344 38.2396 77.0625 38.1094C76.8958 37.9792 76.7135 37.8854 76.5156 37.8281C76.3229 37.7656 76.1042 37.7344 75.8594 37.7344H74.7812V42.5H73.4688V31.2969H76.8125C77.3021 31.2969 77.7526 31.3594 78.1641 31.4844C78.5807 31.6042 78.9401 31.7891 79.2422 32.0391C79.5495 32.2891 79.7891 32.6016 79.9609 32.9766C80.1328 33.3464 80.2188 33.7812 80.2188 34.2812C80.2188 34.6719 80.1589 35.0312 80.0391 35.3594C79.9245 35.6823 79.7578 35.9714 79.5391 36.2266C79.3255 36.4818 79.0651 36.7005 78.7578 36.8828C78.4557 37.0599 78.1146 37.1979 77.7344 37.2969V37.3281C77.9219 37.4115 78.0833 37.5078 78.2188 37.6172C78.3594 37.7214 78.4922 37.8464 78.6172 37.9922C78.7422 38.138 78.8646 38.3047 78.9844 38.4922C79.1094 38.6745 79.2474 38.888 79.3984 39.1328L81.5 42.5ZM74.7812 32.4844V36.5469H76.5625C76.8906 36.5469 77.1927 36.4974 77.4688 36.3984C77.75 36.2995 77.9922 36.1589 78.1953 35.9766C78.3984 35.7891 78.5573 35.5625 78.6719 35.2969C78.7865 35.026 78.8438 34.724 78.8438 34.3906C78.8438 33.7917 78.6484 33.3255 78.2578 32.9922C77.8724 32.6536 77.3125 32.4844 76.5781 32.4844H74.7812ZM88.8359 38.8203H83.1875C83.2083 39.7109 83.4479 40.3984 83.9062 40.8828C84.3646 41.3672 84.9948 41.6094 85.7969 41.6094C86.6979 41.6094 87.526 41.3125 88.2812 40.7188V41.9219C87.5781 42.4323 86.6484 42.6875 85.4922 42.6875C84.362 42.6875 83.474 42.3255 82.8281 41.6016C82.1823 40.8724 81.8594 39.849 81.8594 38.5312C81.8594 37.2865 82.2109 36.2734 82.9141 35.4922C83.6224 34.7057 84.5 34.3125 85.5469 34.3125C86.5938 34.3125 87.4036 34.651 87.9766 35.3281C88.5495 36.0052 88.8359 36.9453 88.8359 38.1484V38.8203ZM87.5234 37.7344C87.5182 36.9948 87.3385 36.4193 86.9844 36.0078C86.6354 35.5964 86.1484 35.3906 85.5234 35.3906C84.9193 35.3906 84.4062 35.6068 83.9844 36.0391C83.5625 36.4714 83.3021 37.0365 83.2031 37.7344H87.5234ZM96.5078 42.5H95.2266V41.25H95.1953C94.638 42.2083 93.8177 42.6875 92.7344 42.6875C91.9375 42.6875 91.3125 42.4766 90.8594 42.0547C90.4115 41.6328 90.1875 41.0729 90.1875 40.375C90.1875 38.8802 91.0677 38.0104 92.8281 37.7656L95.2266 37.4297C95.2266 36.0703 94.6771 35.3906 93.5781 35.3906C92.6146 35.3906 91.7448 35.7188 90.9688 36.375V35.0625C91.7552 34.5625 92.6615 34.3125 93.6875 34.3125C95.5677 34.3125 96.5078 35.3073 96.5078 37.2969V42.5ZM95.2266 38.4531L93.2969 38.7188C92.7031 38.8021 92.2552 38.9505 91.9531 39.1641C91.651 39.3724 91.5 39.7448 91.5 40.2812C91.5 40.6719 91.638 40.9922 91.9141 41.2422C92.1953 41.487 92.5677 41.6094 93.0312 41.6094C93.6667 41.6094 94.1901 41.388 94.6016 40.9453C95.0182 40.4974 95.2266 39.9323 95.2266 39.25V38.4531ZM104.375 42.1328C103.76 42.5026 103.031 42.6875 102.188 42.6875C101.047 42.6875 100.125 42.3177 99.4219 41.5781C98.724 40.8333 98.375 39.8698 98.375 38.6875C98.375 37.3698 98.7526 36.3125 99.5078 35.5156C100.263 34.7135 101.271 34.3125 102.531 34.3125C103.234 34.3125 103.854 34.4427 104.391 34.7031V36.0156C103.797 35.599 103.161 35.3906 102.484 35.3906C101.667 35.3906 100.995 35.6849 100.469 36.2734C99.9479 36.8568 99.6875 37.625 99.6875 38.5781C99.6875 39.5156 99.9323 40.2552 100.422 40.7969C100.917 41.3385 101.578 41.6094 102.406 41.6094C103.104 41.6094 103.76 41.3776 104.375 40.9141V42.1328ZM110.023 42.4219C109.721 42.5885 109.323 42.6719 108.828 42.6719C107.427 42.6719 106.727 41.8906 106.727 40.3281V35.5938H105.352V34.5H106.727V32.5469L108.008 32.1328V34.5H110.023V35.5938H108.008V40.1016C108.008 40.638 108.099 41.0208 108.281 41.25C108.464 41.4792 108.766 41.5938 109.188 41.5938C109.51 41.5938 109.789 41.5052 110.023 41.3281V42.4219Z" fill="#1F2328"/>
<g clip-path="url(#clip0_8_3)">
<path d="M24.3125 84H22.9453L21.3047 81.252C21.1543 80.9967 21.0085 80.7803 20.8672 80.6025C20.7259 80.4202 20.5801 80.2721 20.4297 80.1582C20.2839 80.0443 20.1243 79.9622 19.9512 79.9121C19.7826 79.8574 19.5911 79.8301 19.377 79.8301H18.4336V84H17.2852V74.1973H20.2109C20.6393 74.1973 21.0335 74.252 21.3936 74.3613C21.7581 74.4661 22.0726 74.6279 22.3369 74.8467C22.6058 75.0654 22.8154 75.3389 22.9658 75.667C23.1162 75.9906 23.1914 76.3711 23.1914 76.8086C23.1914 77.1504 23.139 77.4648 23.0342 77.752C22.9339 78.0345 22.7881 78.2874 22.5967 78.5107C22.4098 78.734 22.182 78.9255 21.9131 79.085C21.6488 79.2399 21.3503 79.3607 21.0176 79.4473V79.4746C21.1816 79.5475 21.3229 79.6318 21.4414 79.7275C21.5645 79.8187 21.6807 79.9281 21.79 80.0557C21.8994 80.1833 22.0065 80.3291 22.1113 80.4932C22.2207 80.6527 22.3415 80.8395 22.4736 81.0537L24.3125 84ZM18.4336 75.2363V78.791H19.9922C20.2793 78.791 20.5436 78.7477 20.7852 78.6611C21.0312 78.5745 21.2432 78.4515 21.4209 78.292C21.5986 78.1279 21.7376 77.9297 21.8379 77.6973C21.9382 77.4603 21.9883 77.196 21.9883 76.9043C21.9883 76.3802 21.8174 75.9723 21.4756 75.6807C21.1383 75.3844 20.6484 75.2363 20.0059 75.2363H18.4336ZM30.7314 80.7803H25.7891C25.8073 81.5596 26.0169 82.1611 26.418 82.585C26.819 83.0088 27.3704 83.2207 28.0723 83.2207C28.8607 83.2207 29.5853 82.9609 30.2461 82.4414V83.4941C29.6309 83.9408 28.8174 84.1641 27.8057 84.1641C26.8167 84.1641 26.0397 83.8473 25.4746 83.2139C24.9095 82.5758 24.627 81.6803 24.627 80.5273C24.627 79.4382 24.9346 78.5518 25.5498 77.8682C26.1696 77.18 26.9375 76.8359 27.8535 76.8359C28.7695 76.8359 29.4782 77.1322 29.9795 77.7246C30.4808 78.3171 30.7314 79.1396 30.7314 80.1924V80.7803ZM29.583 79.8301C29.5785 79.1829 29.4212 78.6794 29.1113 78.3193C28.806 77.9593 28.3799 77.7793 27.833 77.7793C27.3044 77.7793 26.8555 77.9684 26.4863 78.3467C26.1172 78.7249 25.8893 79.2194 25.8027 79.8301H29.583ZM37.4443 84H36.3232V82.9062H36.2959C35.8083 83.7448 35.0905 84.1641 34.1426 84.1641C33.4453 84.1641 32.8984 83.9795 32.502 83.6104C32.11 83.2412 31.9141 82.7513 31.9141 82.1406C31.9141 80.8327 32.6842 80.0716 34.2246 79.8574L36.3232 79.5635C36.3232 78.374 35.8424 77.7793 34.8809 77.7793C34.0378 77.7793 33.2767 78.0664 32.5977 78.6406V77.4922C33.2858 77.0547 34.0788 76.8359 34.9766 76.8359C36.6217 76.8359 37.4443 77.7064 37.4443 79.4473V84ZM36.3232 80.459L34.6348 80.6914C34.1152 80.7643 33.7233 80.8942 33.459 81.0811C33.1947 81.2633 33.0625 81.5892 33.0625 82.0586C33.0625 82.4004 33.1833 82.6807 33.4248 82.8994C33.6709 83.1136 33.9967 83.2207 34.4023 83.2207C34.9583 83.2207 35.4163 83.027 35.7764 82.6396C36.141 82.2477 36.3232 81.7533 36.3232 81.1562V80.459ZM44.3281 83.6787C43.7904 84.0023 43.1523 84.1641 42.4141 84.1641C41.416 84.1641 40.6094 83.8405 39.9941 83.1934C39.3835 82.5417 39.0781 81.6986 39.0781 80.6641C39.0781 79.5111 39.4085 78.5859 40.0693 77.8887C40.7301 77.1868 41.612 76.8359 42.7148 76.8359C43.3301 76.8359 43.8724 76.9499 44.3418 77.1777V78.3262C43.8223 77.9616 43.2663 77.7793 42.6738 77.7793C41.9583 77.7793 41.3704 78.0368 40.9102 78.5518C40.4544 79.0622 40.2266 79.7344 40.2266 80.5684C40.2266 81.3887 40.4408 82.0358 40.8691 82.5098C41.3021 82.9837 41.8809 83.2207 42.6055 83.2207C43.2161 83.2207 43.7904 83.0179 44.3281 82.6123V83.6787ZM49.2705 83.9316C49.0062 84.0775 48.6576 84.1504 48.2246 84.1504C46.9987 84.1504 46.3857 83.4668 46.3857 82.0996V77.957H45.1826V77H46.3857V75.291L47.5068 74.9287V77H49.2705V77.957H47.5068V81.9014C47.5068 82.3708 47.5866 82.7057 47.7461 82.9062C47.9056 83.1068 48.1699 83.207 48.5391 83.207C48.8216 83.207 49.0654 83.1296 49.2705 82.9746V83.9316ZM51.793 82.4414L50.6992 85.8047H49.8994L50.6992 82.4414H51.793ZM60.8916 83.9316C60.6273 84.0775 60.2786 84.1504 59.8457 84.1504C58.6198 84.1504 58.0068 83.4668 58.0068 82.0996V77.957H56.8037V77H58.0068V75.291L59.1279 74.9287V77H60.8916V77.957H59.1279V81.9014C59.1279 82.3708 59.2077 82.7057 59.3672 82.9062C59.5267 83.1068 59.791 83.207 60.1602 83.207C60.4427 83.207 60.6865 83.1296 60.8916 82.9746V83.9316ZM61.9648 83.7471V82.5439C62.5755 82.9951 63.2477 83.2207 63.9814 83.2207C64.9658 83.2207 65.458 82.8926 65.458 82.2363C65.458 82.0495 65.4147 81.8923 65.3281 81.7646C65.2461 81.6325 65.1322 81.5163 64.9863 81.416C64.8451 81.3158 64.6764 81.2269 64.4805 81.1494C64.2891 81.0674 64.0817 80.9831 63.8584 80.8965C63.5485 80.7734 63.2751 80.6504 63.0381 80.5273C62.8057 80.3997 62.6097 80.2585 62.4502 80.1035C62.2952 79.944 62.1768 79.764 62.0947 79.5635C62.0173 79.363 61.9785 79.1283 61.9785 78.8594C61.9785 78.5312 62.0537 78.2419 62.2041 77.9912C62.3545 77.736 62.555 77.5241 62.8057 77.3555C63.0563 77.1823 63.3411 77.0524 63.6602 76.9658C63.9837 76.8792 64.3164 76.8359 64.6582 76.8359C65.2643 76.8359 65.8066 76.9408 66.2852 77.1504V78.2852C65.7702 77.9479 65.1777 77.7793 64.5078 77.7793C64.2982 77.7793 64.109 77.8044 63.9404 77.8545C63.7718 77.9001 63.626 77.9661 63.5029 78.0527C63.3844 78.1393 63.291 78.2441 63.2227 78.3672C63.1589 78.4857 63.127 78.6178 63.127 78.7637C63.127 78.946 63.1589 79.0986 63.2227 79.2217C63.291 79.3447 63.389 79.4541 63.5166 79.5498C63.6442 79.6455 63.7992 79.7321 63.9814 79.8096C64.1637 79.887 64.3711 79.9714 64.6035 80.0625C64.9134 80.181 65.1914 80.304 65.4375 80.4316C65.6836 80.5547 65.8932 80.696 66.0664 80.8555C66.2396 81.0104 66.3717 81.1904 66.4629 81.3955C66.5586 81.6006 66.6064 81.8444 66.6064 82.127C66.6064 82.4733 66.529 82.7741 66.374 83.0293C66.2236 83.2845 66.0208 83.4964 65.7656 83.665C65.5104 83.8337 65.2165 83.959 64.8838 84.041C64.5511 84.123 64.2025 84.1641 63.8379 84.1641C63.1178 84.1641 62.4935 84.0251 61.9648 83.7471ZM73.4492 77L71.0977 80.541L73.4082 84H72.1025L70.7285 81.7305C70.6419 81.5892 70.5394 81.4115 70.4209 81.1973H70.3936C70.3708 81.2383 70.2637 81.416 70.0723 81.7305L68.6709 84H67.3789L69.7646 80.5684L67.4814 77H68.7871L70.1406 79.3926C70.2409 79.5703 70.3389 79.7526 70.4346 79.9395H70.4619L72.2119 77H73.4492ZM75.7871 82.4414L74.6934 85.8047H73.8936L74.6934 82.4414H75.7871ZM88.8164 84H87.4492L85.8086 81.252C85.6582 80.9967 85.5124 80.7803 85.3711 80.6025C85.2298 80.4202 85.084 80.2721 84.9336 80.1582C84.7878 80.0443 84.6283 79.9622 84.4551 79.9121C84.2865 79.8574 84.0951 79.8301 83.8809 79.8301H82.9375V84H81.7891V74.1973H84.7148C85.1432 74.1973 85.5374 74.252 85.8975 74.3613C86.262 74.4661 86.5765 74.6279 86.8408 74.8467C87.1097 75.0654 87.3193 75.3389 87.4697 75.667C87.6201 75.9906 87.6953 76.3711 87.6953 76.8086C87.6953 77.1504 87.6429 77.4648 87.5381 77.752C87.4378 78.0345 87.292 78.2874 87.1006 78.5107C86.9137 78.734 86.6859 78.9255 86.417 79.085C86.1527 79.2399 85.8542 79.3607 85.5215 79.4473V79.4746C85.6855 79.5475 85.8268 79.6318 85.9453 79.7275C86.0684 79.8187 86.1846 79.9281 86.2939 80.0557C86.4033 80.1833 86.5104 80.3291 86.6152 80.4932C86.7246 80.6527 86.8454 80.8395 86.9775 81.0537L88.8164 84ZM82.9375 75.2363V78.791H84.4961C84.7832 78.791 85.0475 78.7477 85.2891 78.6611C85.5352 78.5745 85.7471 78.4515 85.9248 78.292C86.1025 78.1279 86.2415 77.9297 86.3418 77.6973C86.4421 77.4603 86.4922 77.196 86.4922 76.9043C86.4922 76.3802 86.3213 75.9723 85.9795 75.6807C85.6423 75.3844 85.1523 75.2363 84.5098 75.2363H82.9375ZM95.2354 80.7803H90.293C90.3112 81.5596 90.5208 82.1611 90.9219 82.585C91.3229 83.0088 91.8743 83.2207 92.5762 83.2207C93.3646 83.2207 94.0892 82.9609 94.75 82.4414V83.4941C94.1348 83.9408 93.3213 84.1641 92.3096 84.1641C91.3206 84.1641 90.5436 83.8473 89.9785 83.2139C89.4134 82.5758 89.1309 81.6803 89.1309 80.5273C89.1309 79.4382 89.4385 78.5518 90.0537 77.8682C90.6735 77.18 91.4414 76.8359 92.3574 76.8359C93.2734 76.8359 93.9821 77.1322 94.4834 77.7246C94.9847 78.3171 95.2354 79.1396 95.2354 80.1924V80.7803ZM94.0869 79.8301C94.0824 79.1829 93.9251 78.6794 93.6152 78.3193C93.3099 77.9593 92.8838 77.7793 92.3369 77.7793C91.8083 77.7793 91.3594 77.9684 90.9902 78.3467C90.6211 78.7249 90.3932 79.2194 90.3066 79.8301H94.0869ZM101.948 84H100.827V82.9062H100.8C100.312 83.7448 99.5944 84.1641 98.6465 84.1641C97.9492 84.1641 97.4023 83.9795 97.0059 83.6104C96.6139 83.2412 96.418 82.7513 96.418 82.1406C96.418 80.8327 97.1882 80.0716 98.7285 79.8574L100.827 79.5635C100.827 78.374 100.346 77.7793 99.3848 77.7793C98.5417 77.7793 97.7806 78.0664 97.1016 78.6406V77.4922C97.7897 77.0547 98.5827 76.8359 99.4805 76.8359C101.126 76.8359 101.948 77.7064 101.948 79.4473V84ZM100.827 80.459L99.1387 80.6914C98.6191 80.7643 98.2272 80.8942 97.9629 81.0811C97.6986 81.2633 97.5664 81.5892 97.5664 82.0586C97.5664 82.4004 97.6872 82.6807 97.9287 82.8994C98.1748 83.1136 98.5007 83.2207 98.9062 83.2207C99.4622 83.2207 99.9202 83.027 100.28 82.6396C100.645 82.2477 100.827 81.7533 100.827 81.1562V80.459ZM108.832 83.6787C108.294 84.0023 107.656 84.1641 106.918 84.1641C105.92 84.1641 105.113 83.8405 104.498 83.1934C103.887 82.5417 103.582 81.6986 103.582 80.6641C103.582 79.5111 103.912 78.5859 104.573 77.8887C105.234 77.1868 106.116 76.8359 107.219 76.8359C107.834 76.8359 108.376 76.9499 108.846 77.1777V78.3262C108.326 77.9616 107.77 77.7793 107.178 77.7793C106.462 77.7793 105.874 78.0368 105.414 78.5518C104.958 79.0622 104.73 79.7344 104.73 80.5684C104.73 81.3887 104.945 82.0358 105.373 82.5098C105.806 82.9837 106.385 83.2207 107.109 83.2207C107.72 83.2207 108.294 83.0179 108.832 82.6123V83.6787ZM113.774 83.9316C113.51 84.0775 113.161 84.1504 112.729 84.1504C111.503 84.1504 110.89 83.4668 110.89 82.0996V77.957H109.687V77H110.89V75.291L112.011 74.9287V77H113.774V77.957H112.011V81.9014C112.011 82.3708 112.09 82.7057 112.25 82.9062C112.41 83.1068 112.674 83.207 113.043 83.207C113.326 83.207 113.569 83.1296 113.774 82.9746V83.9316ZM126.291 84H124.924L123.283 81.252C123.133 80.9967 122.987 80.7803 122.846 80.6025C122.704 80.4202 122.559 80.2721 122.408 80.1582C122.262 80.0443 122.103 79.9622 121.93 79.9121C121.761 79.8574 121.57 79.8301 121.355 79.8301H120.412V84H119.264V74.1973H122.189C122.618 74.1973 123.012 74.252 123.372 74.3613C123.737 74.4661 124.051 74.6279 124.315 74.8467C124.584 75.0654 124.794 75.3389 124.944 75.667C125.095 75.9906 125.17 76.3711 125.17 76.8086C125.17 77.1504 125.118 77.4648 125.013 77.752C124.912 78.0345 124.767 78.2874 124.575 78.5107C124.388 78.734 124.16 78.9255 123.892 79.085C123.627 79.2399 123.329 79.3607 122.996 79.4473V79.4746C123.16 79.5475 123.301 79.6318 123.42 79.7275C123.543 79.8187 123.659 79.9281 123.769 80.0557C123.878 80.1833 123.985 80.3291 124.09 80.4932C124.199 80.6527 124.32 80.8395 124.452 81.0537L126.291 84ZM120.412 75.2363V78.791H121.971C122.258 78.791 122.522 78.7477 122.764 78.6611C123.01 78.5745 123.222 78.4515 123.399 78.292C123.577 78.1279 123.716 77.9297 123.816 77.6973C123.917 77.4603 123.967 77.196 123.967 76.9043C123.967 76.3802 123.796 75.9723 123.454 75.6807C123.117 75.3844 122.627 75.2363 121.984 75.2363H120.412ZM130.01 84.1641C128.975 84.1641 128.148 83.8382 127.528 83.1865C126.913 82.5303 126.605 81.6621 126.605 80.582C126.605 79.4062 126.927 78.488 127.569 77.8271C128.212 77.1663 129.08 76.8359 130.174 76.8359C131.217 76.8359 132.031 77.1572 132.614 77.7998C133.202 78.4424 133.496 79.3333 133.496 80.4727C133.496 81.5892 133.179 82.4847 132.546 83.1592C131.917 83.8291 131.072 84.1641 130.01 84.1641ZM130.092 77.7793C129.372 77.7793 128.802 78.0254 128.383 78.5176C127.964 79.0052 127.754 79.6797 127.754 80.541C127.754 81.3704 127.966 82.0244 128.39 82.5029C128.813 82.9814 129.381 83.2207 130.092 83.2207C130.816 83.2207 131.372 82.986 131.76 82.5166C132.152 82.0472 132.348 81.3796 132.348 80.5137C132.348 79.6387 132.152 78.9642 131.76 78.4902C131.372 78.0163 130.816 77.7793 130.092 77.7793ZM140.947 84H139.826V82.8926H139.799C139.334 83.7402 138.614 84.1641 137.639 84.1641C135.971 84.1641 135.137 83.1706 135.137 81.1836V77H136.251V81.0059C136.251 82.4824 136.816 83.2207 137.946 83.2207C138.493 83.2207 138.942 83.0202 139.293 82.6191C139.648 82.2135 139.826 81.6849 139.826 81.0332V77H140.947V84ZM146.464 83.9316C146.2 84.0775 145.851 84.1504 145.418 84.1504C144.192 84.1504 143.579 83.4668 143.579 82.0996V77.957H142.376V77H143.579V75.291L144.7 74.9287V77H146.464V77.957H144.7V81.9014C144.7 82.3708 144.78 82.7057 144.939 82.9062C145.099 83.1068 145.363 83.207 145.732 83.207C146.015 83.207 146.259 83.1296 146.464 82.9746V83.9316ZM153.587 80.7803H148.645C148.663 81.5596 148.872 82.1611 149.273 82.585C149.674 83.0088 150.226 83.2207 150.928 83.2207C151.716 83.2207 152.441 82.9609 153.102 82.4414V83.4941C152.486 83.9408 151.673 84.1641 150.661 84.1641C149.672 84.1641 148.895 83.8473 148.33 83.2139C147.765 82.5758 147.482 81.6803 147.482 80.5273C147.482 79.4382 147.79 78.5518 148.405 77.8682C149.025 77.18 149.793 76.8359 150.709 76.8359C151.625 76.8359 152.334 77.1322 152.835 77.7246C153.336 78.3171 153.587 79.1396 153.587 80.1924V80.7803ZM152.438 79.8301C152.434 79.1829 152.277 78.6794 151.967 78.3193C151.661 77.9593 151.235 77.7793 150.688 77.7793C150.16 77.7793 149.711 77.9684 149.342 78.3467C148.973 78.7249 148.745 79.2194 148.658 79.8301H152.438ZM158.939 78.1348C158.743 77.9844 158.461 77.9092 158.092 77.9092C157.613 77.9092 157.212 78.1348 156.889 78.5859C156.57 79.0371 156.41 79.6523 156.41 80.4316V84H155.289V77H156.41V78.4424H156.438C156.597 77.9502 156.841 77.5674 157.169 77.2939C157.497 77.016 157.864 76.877 158.27 76.877C158.561 76.877 158.785 76.9089 158.939 76.9727V78.1348ZM161.182 82.4414L160.088 85.8047H159.288L160.088 82.4414H161.182ZM18.4336 101.295V105H17.2852V95.1973H19.9785C21.0267 95.1973 21.8379 95.4525 22.4121 95.9629C22.9909 96.4733 23.2803 97.1934 23.2803 98.123C23.2803 99.0527 22.959 99.8138 22.3164 100.406C21.6784 100.999 20.8148 101.295 19.7256 101.295H18.4336ZM18.4336 96.2363V100.256H19.6367C20.4297 100.256 21.0335 100.076 21.4482 99.7158C21.8675 99.3512 22.0771 98.8385 22.0771 98.1777C22.0771 96.8835 21.3115 96.2363 19.7803 96.2363H18.4336ZM25.5566 96.2227C25.3561 96.2227 25.1852 96.1543 25.0439 96.0176C24.9027 95.8809 24.832 95.7077 24.832 95.498C24.832 95.2884 24.9027 95.1152 25.0439 94.9785C25.1852 94.8372 25.3561 94.7666 25.5566 94.7666C25.7617 94.7666 25.9349 94.8372 26.0762 94.9785C26.222 95.1152 26.2949 95.2884 26.2949 95.498C26.2949 95.6986 26.222 95.8695 26.0762 96.0107C25.9349 96.152 25.7617 96.2227 25.5566 96.2227ZM26.1035 105H24.9824V98H26.1035V105ZM33.4863 98L31.1348 101.541L33.4453 105H32.1396L30.7656 102.73C30.679 102.589 30.5765 102.411 30.458 102.197H30.4307C30.4079 102.238 30.3008 102.416 30.1094 102.73L28.708 105H27.416L29.8018 101.568L27.5186 98H28.8242L30.1777 100.393C30.278 100.57 30.376 100.753 30.4717 100.939H30.499L32.249 98H33.4863ZM35.373 96.2227C35.1725 96.2227 35.0016 96.1543 34.8604 96.0176C34.7191 95.8809 34.6484 95.7077 34.6484 95.498C34.6484 95.2884 34.7191 95.1152 34.8604 94.9785C35.0016 94.8372 35.1725 94.7666 35.373 94.7666C35.5781 94.7666 35.7513 94.8372 35.8926 94.9785C36.0384 95.1152 36.1113 95.2884 36.1113 95.498C36.1113 95.6986 36.0384 95.8695 35.8926 96.0107C35.7513 96.152 35.5781 96.2227 35.373 96.2227ZM35.9199 105H34.7988V98H35.9199V105ZM40.8486 101.486C40.8486 102.648 40.6025 103.553 40.1104 104.2C39.6182 104.843 38.9596 105.164 38.1348 105.164C37.752 105.164 37.4375 105.109 37.1914 105V103.865C37.4375 104.043 37.7565 104.132 38.1484 104.132C39.1829 104.132 39.7002 103.255 39.7002 101.5V95.1973H40.8486V101.486ZM42.8857 104.604V103.25C43.0407 103.387 43.2253 103.51 43.4395 103.619C43.6582 103.729 43.8861 103.822 44.123 103.899C44.3646 103.972 44.6061 104.029 44.8477 104.07C45.0892 104.111 45.3125 104.132 45.5176 104.132C46.224 104.132 46.7503 104.002 47.0967 103.742C47.4476 103.478 47.623 103.1 47.623 102.607C47.623 102.343 47.5638 102.113 47.4453 101.917C47.3314 101.721 47.1719 101.543 46.9668 101.384C46.7617 101.22 46.5179 101.065 46.2354 100.919C45.9574 100.769 45.6566 100.611 45.333 100.447C44.9912 100.274 44.6722 100.099 44.376 99.9209C44.0798 99.7432 43.8223 99.5472 43.6035 99.333C43.3848 99.1188 43.2116 98.8773 43.084 98.6084C42.9609 98.335 42.8994 98.016 42.8994 97.6514C42.8994 97.2048 42.9974 96.8174 43.1934 96.4893C43.3893 96.1566 43.6468 95.8831 43.9658 95.6689C44.2848 95.4548 44.6471 95.2952 45.0527 95.1904C45.4629 95.0856 45.8799 95.0332 46.3037 95.0332C47.2699 95.0332 47.974 95.1494 48.416 95.3818V96.6738C47.8372 96.2728 47.0944 96.0723 46.1875 96.0723C45.9368 96.0723 45.6862 96.0996 45.4355 96.1543C45.1849 96.2044 44.9616 96.2887 44.7656 96.4072C44.5697 96.5257 44.4102 96.6784 44.2871 96.8652C44.1641 97.0521 44.1025 97.2799 44.1025 97.5488C44.1025 97.7995 44.1481 98.016 44.2393 98.1982C44.335 98.3805 44.474 98.5469 44.6562 98.6973C44.8385 98.8477 45.0596 98.9935 45.3193 99.1348C45.5837 99.276 45.8867 99.431 46.2285 99.5996C46.5794 99.7728 46.9121 99.9551 47.2266 100.146C47.541 100.338 47.8167 100.55 48.0537 100.782C48.2907 101.015 48.4775 101.272 48.6143 101.555C48.7555 101.837 48.8262 102.161 48.8262 102.525C48.8262 103.008 48.7305 103.419 48.5391 103.756C48.3522 104.089 48.097 104.36 47.7734 104.569C47.4544 104.779 47.0853 104.929 46.666 105.021C46.2467 105.116 45.8047 105.164 45.3398 105.164C45.1849 105.164 44.9935 105.15 44.7656 105.123C44.5378 105.1 44.3053 105.064 44.0684 105.014C43.8314 104.968 43.6058 104.911 43.3916 104.843C43.182 104.77 43.0133 104.69 42.8857 104.604ZM61.6504 105H60.2832L58.6426 102.252C58.4922 101.997 58.3464 101.78 58.2051 101.603C58.0638 101.42 57.918 101.272 57.7676 101.158C57.6217 101.044 57.4622 100.962 57.2891 100.912C57.1204 100.857 56.929 100.83 56.7148 100.83H55.7715V105H54.623V95.1973H57.5488C57.9772 95.1973 58.3714 95.252 58.7314 95.3613C59.096 95.4661 59.4105 95.6279 59.6748 95.8467C59.9437 96.0654 60.1533 96.3389 60.3037 96.667C60.4541 96.9906 60.5293 97.3711 60.5293 97.8086C60.5293 98.1504 60.4769 98.4648 60.3721 98.752C60.2718 99.0345 60.126 99.2874 59.9346 99.5107C59.7477 99.734 59.5199 99.9255 59.251 100.085C58.9867 100.24 58.6882 100.361 58.3555 100.447V100.475C58.5195 100.548 58.6608 100.632 58.7793 100.728C58.9023 100.819 59.0186 100.928 59.1279 101.056C59.2373 101.183 59.3444 101.329 59.4492 101.493C59.5586 101.653 59.6794 101.84 59.8115 102.054L61.6504 105ZM55.7715 96.2363V99.791H57.3301C57.6172 99.791 57.8815 99.7477 58.123 99.6611C58.3691 99.5745 58.5811 99.4515 58.7588 99.292C58.9365 99.1279 59.0755 98.9297 59.1758 98.6973C59.276 98.4603 59.3262 98.196 59.3262 97.9043C59.3262 97.3802 59.1553 96.9723 58.8135 96.6807C58.4762 96.3844 57.9863 96.2363 57.3438 96.2363H55.7715ZM68.0693 101.78H63.127C63.1452 102.56 63.3548 103.161 63.7559 103.585C64.1569 104.009 64.7083 104.221 65.4102 104.221C66.1986 104.221 66.9232 103.961 67.584 103.441V104.494C66.9688 104.941 66.1553 105.164 65.1436 105.164C64.1546 105.164 63.3776 104.847 62.8125 104.214C62.2474 103.576 61.9648 102.68 61.9648 101.527C61.9648 100.438 62.2725 99.5518 62.8877 98.8682C63.5075 98.18 64.2754 97.8359 65.1914 97.8359C66.1074 97.8359 66.8161 98.1322 67.3174 98.7246C67.8187 99.3171 68.0693 100.14 68.0693 101.192V101.78ZM66.9209 100.83C66.9163 100.183 66.7591 99.6794 66.4492 99.3193C66.1439 98.9593 65.7178 98.7793 65.1709 98.7793C64.6423 98.7793 64.1934 98.9684 63.8242 99.3467C63.4551 99.7249 63.2272 100.219 63.1406 100.83H66.9209ZM74.7822 105H73.6611V103.906H73.6338C73.1462 104.745 72.4284 105.164 71.4805 105.164C70.7832 105.164 70.2363 104.979 69.8398 104.61C69.4479 104.241 69.252 103.751 69.252 103.141C69.252 101.833 70.0221 101.072 71.5625 100.857L73.6611 100.563C73.6611 99.374 73.1803 98.7793 72.2188 98.7793C71.3757 98.7793 70.6146 99.0664 69.9355 99.6406V98.4922C70.6237 98.0547 71.4167 97.8359 72.3145 97.8359C73.9596 97.8359 74.7822 98.7064 74.7822 100.447V105ZM73.6611 101.459L71.9727 101.691C71.4531 101.764 71.0612 101.894 70.7969 102.081C70.5326 102.263 70.4004 102.589 70.4004 103.059C70.4004 103.4 70.5212 103.681 70.7627 103.899C71.0088 104.114 71.3346 104.221 71.7402 104.221C72.2962 104.221 72.7542 104.027 73.1143 103.64C73.4788 103.248 73.6611 102.753 73.6611 102.156V101.459ZM81.666 104.679C81.1283 105.002 80.4902 105.164 79.752 105.164C78.7539 105.164 77.9473 104.84 77.332 104.193C76.7214 103.542 76.416 102.699 76.416 101.664C76.416 100.511 76.7464 99.5859 77.4072 98.8887C78.068 98.1868 78.9499 97.8359 80.0527 97.8359C80.668 97.8359 81.2103 97.9499 81.6797 98.1777V99.3262C81.1602 98.9616 80.6042 98.7793 80.0117 98.7793C79.2962 98.7793 78.7083 99.0368 78.248 99.5518C77.7923 100.062 77.5645 100.734 77.5645 101.568C77.5645 102.389 77.7786 103.036 78.207 103.51C78.64 103.984 79.2188 104.221 79.9434 104.221C80.554 104.221 81.1283 104.018 81.666 103.612V104.679ZM86.6084 104.932C86.3441 105.077 85.9954 105.15 85.5625 105.15C84.3366 105.15 83.7236 104.467 83.7236 103.1V98.957H82.5205V98H83.7236V96.291L84.8447 95.9287V98H86.6084V98.957H84.8447V102.901C84.8447 103.371 84.9245 103.706 85.084 103.906C85.2435 104.107 85.5078 104.207 85.877 104.207C86.1595 104.207 86.4033 104.13 86.6084 103.975V104.932ZM89.1309 103.441L88.0371 106.805H87.2373L88.0371 103.441H89.1309ZM99.9932 105H98.8721V103.906H98.8447C98.3571 104.745 97.6393 105.164 96.6914 105.164C95.9941 105.164 95.4473 104.979 95.0508 104.61C94.6589 104.241 94.4629 103.751 94.4629 103.141C94.4629 101.833 95.2331 101.072 96.7734 100.857L98.8721 100.563C98.8721 99.374 98.3913 98.7793 97.4297 98.7793C96.5866 98.7793 95.8255 99.0664 95.1465 99.6406V98.4922C95.8346 98.0547 96.6276 97.8359 97.5254 97.8359C99.1706 97.8359 99.9932 98.7064 99.9932 100.447V105ZM98.8721 101.459L97.1836 101.691C96.6641 101.764 96.2721 101.894 96.0078 102.081C95.7435 102.263 95.6113 102.589 95.6113 103.059C95.6113 103.4 95.7321 103.681 95.9736 103.899C96.2197 104.114 96.5456 104.221 96.9512 104.221C97.5072 104.221 97.9652 104.027 98.3252 103.64C98.6898 103.248 98.8721 102.753 98.8721 102.156V101.459ZM107.916 105H106.795V101.008C106.795 99.5221 106.253 98.7793 105.168 98.7793C104.607 98.7793 104.143 98.9912 103.773 99.415C103.409 99.8343 103.227 100.365 103.227 101.008V105H102.105V98H103.227V99.1621H103.254C103.783 98.278 104.548 97.8359 105.551 97.8359C106.316 97.8359 106.902 98.0843 107.308 98.5811C107.713 99.0732 107.916 99.7865 107.916 100.721V105ZM116.01 105H114.889V103.811H114.861C114.342 104.713 113.54 105.164 112.455 105.164C111.576 105.164 110.871 104.852 110.343 104.228C109.819 103.599 109.557 102.744 109.557 101.664C109.557 100.507 109.848 99.5791 110.432 98.8818C111.015 98.1846 111.792 97.8359 112.763 97.8359C113.724 97.8359 114.424 98.2142 114.861 98.9707H114.889V94.6367H116.01V105ZM114.889 101.835V100.803C114.889 100.238 114.702 99.7591 114.328 99.3672C113.954 98.9753 113.48 98.7793 112.906 98.7793C112.223 98.7793 111.685 99.0299 111.293 99.5312C110.901 100.033 110.705 100.725 110.705 101.609C110.705 102.416 110.892 103.054 111.266 103.523C111.644 103.988 112.15 104.221 112.783 104.221C113.408 104.221 113.913 103.995 114.301 103.544C114.693 103.093 114.889 102.523 114.889 101.835ZM121.697 104.747V103.544C122.308 103.995 122.98 104.221 123.714 104.221C124.698 104.221 125.19 103.893 125.19 103.236C125.19 103.049 125.147 102.892 125.061 102.765C124.979 102.632 124.865 102.516 124.719 102.416C124.577 102.316 124.409 102.227 124.213 102.149C124.021 102.067 123.814 101.983 123.591 101.896C123.281 101.773 123.007 101.65 122.771 101.527C122.538 101.4 122.342 101.258 122.183 101.104C122.028 100.944 121.909 100.764 121.827 100.563C121.75 100.363 121.711 100.128 121.711 99.8594C121.711 99.5312 121.786 99.2419 121.937 98.9912C122.087 98.736 122.287 98.5241 122.538 98.3555C122.789 98.1823 123.074 98.0524 123.393 97.9658C123.716 97.8792 124.049 97.8359 124.391 97.8359C124.997 97.8359 125.539 97.9408 126.018 98.1504V99.2852C125.503 98.9479 124.91 98.7793 124.24 98.7793C124.031 98.7793 123.841 98.8044 123.673 98.8545C123.504 98.9001 123.358 98.9661 123.235 99.0527C123.117 99.1393 123.023 99.2441 122.955 99.3672C122.891 99.4857 122.859 99.6178 122.859 99.7637C122.859 99.946 122.891 100.099 122.955 100.222C123.023 100.345 123.121 100.454 123.249 100.55C123.377 100.646 123.532 100.732 123.714 100.81C123.896 100.887 124.104 100.971 124.336 101.062C124.646 101.181 124.924 101.304 125.17 101.432C125.416 101.555 125.626 101.696 125.799 101.855C125.972 102.01 126.104 102.19 126.195 102.396C126.291 102.601 126.339 102.844 126.339 103.127C126.339 103.473 126.261 103.774 126.106 104.029C125.956 104.285 125.753 104.496 125.498 104.665C125.243 104.834 124.949 104.959 124.616 105.041C124.284 105.123 123.935 105.164 123.57 105.164C122.85 105.164 122.226 105.025 121.697 104.747ZM130.994 105.164C129.96 105.164 129.132 104.838 128.513 104.187C127.897 103.53 127.59 102.662 127.59 101.582C127.59 100.406 127.911 99.488 128.554 98.8271C129.196 98.1663 130.064 97.8359 131.158 97.8359C132.202 97.8359 133.015 98.1572 133.599 98.7998C134.187 99.4424 134.48 100.333 134.48 101.473C134.48 102.589 134.164 103.485 133.53 104.159C132.901 104.829 132.056 105.164 130.994 105.164ZM131.076 98.7793C130.356 98.7793 129.786 99.0254 129.367 99.5176C128.948 100.005 128.738 100.68 128.738 101.541C128.738 102.37 128.95 103.024 129.374 103.503C129.798 103.981 130.365 104.221 131.076 104.221C131.801 104.221 132.357 103.986 132.744 103.517C133.136 103.047 133.332 102.38 133.332 101.514C133.332 100.639 133.136 99.9642 132.744 99.4902C132.357 99.0163 131.801 98.7793 131.076 98.7793ZM143.039 105.164C142.005 105.164 141.177 104.838 140.558 104.187C139.942 103.53 139.635 102.662 139.635 101.582C139.635 100.406 139.956 99.488 140.599 98.8271C141.241 98.1663 142.109 97.8359 143.203 97.8359C144.247 97.8359 145.06 98.1572 145.644 98.7998C146.231 99.4424 146.525 100.333 146.525 101.473C146.525 102.589 146.209 103.485 145.575 104.159C144.946 104.829 144.101 105.164 143.039 105.164ZM143.121 98.7793C142.401 98.7793 141.831 99.0254 141.412 99.5176C140.993 100.005 140.783 100.68 140.783 101.541C140.783 102.37 140.995 103.024 141.419 103.503C141.843 103.981 142.41 104.221 143.121 104.221C143.846 104.221 144.402 103.986 144.789 103.517C145.181 103.047 145.377 102.38 145.377 101.514C145.377 100.639 145.181 99.9642 144.789 99.4902C144.402 99.0163 143.846 98.7793 143.121 98.7793ZM154.127 105H153.006V101.008C153.006 99.5221 152.464 98.7793 151.379 98.7793C150.818 98.7793 150.354 98.9912 149.984 99.415C149.62 99.8343 149.438 100.365 149.438 101.008V105H148.316V98H149.438V99.1621H149.465C149.993 98.278 150.759 97.8359 151.762 97.8359C152.527 97.8359 153.113 98.0843 153.519 98.5811C153.924 99.0732 154.127 99.7865 154.127 100.721V105ZM156.636 105.15C156.426 105.15 156.246 105.075 156.096 104.925C155.95 104.774 155.877 104.594 155.877 104.385C155.877 104.175 155.95 103.995 156.096 103.845C156.246 103.69 156.426 103.612 156.636 103.612C156.85 103.612 157.032 103.69 157.183 103.845C157.333 103.995 157.408 104.175 157.408 104.385C157.408 104.594 157.333 104.774 157.183 104.925C157.032 105.075 156.85 105.15 156.636 105.15ZM159.671 105.15C159.461 105.15 159.281 105.075 159.131 104.925C158.985 104.774 158.912 104.594 158.912 104.385C158.912 104.175 158.985 103.995 159.131 103.845C159.281 103.69 159.461 103.612 159.671 103.612C159.885 103.612 160.067 103.69 160.218 103.845C160.368 103.995 160.443 104.175 160.443 104.385C160.443 104.594 160.368 104.774 160.218 104.925C160.067 105.075 159.885 105.15 159.671 105.15ZM162.706 105.15C162.496 105.15 162.316 105.075 162.166 104.925C162.02 104.774 161.947 104.594 161.947 104.385C161.947 104.175 162.02 103.995 162.166 103.845C162.316 103.69 162.496 103.612 162.706 103.612C162.92 103.612 163.103 103.69 163.253 103.845C163.403 103.995 163.479 104.175 163.479 104.385C163.479 104.594 163.403 104.774 163.253 104.925C163.103 105.075 162.92 105.15 162.706 105.15ZM18.4336 126H17.2852V116.197H18.4336V126ZM25.8301 126H24.709V115.637H25.8301V126ZM31.0254 126.164C29.9909 126.164 29.1637 125.838 28.5439 125.187C27.9287 124.53 27.6211 123.662 27.6211 122.582C27.6211 121.406 27.9424 120.488 28.585 119.827C29.2275 119.166 30.0957 118.836 31.1895 118.836C32.2331 118.836 33.0465 119.157 33.6299 119.8C34.2178 120.442 34.5117 121.333 34.5117 122.473C34.5117 123.589 34.195 124.485 33.5615 125.159C32.9326 125.829 32.0872 126.164 31.0254 126.164ZM31.1074 119.779C30.3874 119.779 29.8177 120.025 29.3984 120.518C28.9792 121.005 28.7695 121.68 28.7695 122.541C28.7695 123.37 28.9814 124.024 29.4053 124.503C29.8291 124.981 30.3965 125.221 31.1074 125.221C31.832 125.221 32.388 124.986 32.7754 124.517C33.1673 124.047 33.3633 123.38 33.3633 122.514C33.3633 121.639 33.1673 120.964 32.7754 120.49C32.388 120.016 31.832 119.779 31.1074 119.779ZM41.8057 119L39.0166 126H37.916L35.2637 119H36.4941L38.2715 124.086C38.4036 124.46 38.4857 124.785 38.5176 125.063H38.5449C38.5905 124.713 38.6634 124.396 38.7637 124.113L40.623 119H41.8057ZM48.6416 122.78H43.6992C43.7174 123.56 43.9271 124.161 44.3281 124.585C44.7292 125.009 45.2806 125.221 45.9824 125.221C46.7708 125.221 47.4954 124.961 48.1562 124.441V125.494C47.541 125.941 46.7275 126.164 45.7158 126.164C44.7269 126.164 43.9499 125.847 43.3848 125.214C42.8197 124.576 42.5371 123.68 42.5371 122.527C42.5371 121.438 42.8447 120.552 43.46 119.868C44.0798 119.18 44.8477 118.836 45.7637 118.836C46.6797 118.836 47.3883 119.132 47.8896 119.725C48.391 120.317 48.6416 121.14 48.6416 122.192V122.78ZM47.4932 121.83C47.4886 121.183 47.3314 120.679 47.0215 120.319C46.7161 119.959 46.29 119.779 45.7432 119.779C45.2145 119.779 44.7656 119.968 44.3965 120.347C44.0273 120.725 43.7995 121.219 43.7129 121.83H47.4932ZM57.6445 116.621C57.4258 116.498 57.1774 116.437 56.8994 116.437C56.1156 116.437 55.7236 116.931 55.7236 117.92V119H57.3643V119.957H55.7236V126H54.6094V119.957H53.4131V119H54.6094V117.865C54.6094 117.132 54.8213 116.553 55.2451 116.129C55.6689 115.701 56.1976 115.486 56.8311 115.486C57.1729 115.486 57.444 115.527 57.6445 115.609V116.621ZM64.2344 126H63.1133V124.893H63.0859C62.6211 125.74 61.901 126.164 60.9258 126.164C59.2578 126.164 58.4238 125.171 58.4238 123.184V119H59.5381V123.006C59.5381 124.482 60.1032 125.221 61.2334 125.221C61.7803 125.221 62.2292 125.02 62.5801 124.619C62.9355 124.214 63.1133 123.685 63.1133 123.033V119H64.2344V126ZM72.3145 126H71.1934V122.008C71.1934 120.522 70.651 119.779 69.5664 119.779C69.0059 119.779 68.541 119.991 68.1719 120.415C67.8073 120.834 67.625 121.365 67.625 122.008V126H66.5039V119H67.625V120.162H67.6523C68.181 119.278 68.9466 118.836 69.9492 118.836C70.7148 118.836 71.3005 119.084 71.7061 119.581C72.1117 120.073 72.3145 120.786 72.3145 121.721V126ZM79.2051 125.679C78.6673 126.002 78.0293 126.164 77.291 126.164C76.293 126.164 75.4863 125.84 74.8711 125.193C74.2604 124.542 73.9551 123.699 73.9551 122.664C73.9551 121.511 74.2855 120.586 74.9463 119.889C75.6071 119.187 76.4889 118.836 77.5918 118.836C78.207 118.836 78.7493 118.95 79.2188 119.178V120.326C78.6992 119.962 78.1432 119.779 77.5508 119.779C76.8353 119.779 76.2474 120.037 75.7871 120.552C75.3314 121.062 75.1035 121.734 75.1035 122.568C75.1035 123.389 75.3177 124.036 75.7461 124.51C76.179 124.984 76.7578 125.221 77.4824 125.221C78.0931 125.221 78.6673 125.018 79.2051 124.612V125.679ZM84.1475 125.932C83.8831 126.077 83.5345 126.15 83.1016 126.15C81.8757 126.15 81.2627 125.467 81.2627 124.1V119.957H80.0596V119H81.2627V117.291L82.3838 116.929V119H84.1475V119.957H82.3838V123.901C82.3838 124.371 82.4635 124.706 82.623 124.906C82.7826 125.107 83.0469 125.207 83.416 125.207C83.6986 125.207 83.9424 125.13 84.1475 124.975V125.932ZM86.2188 117.223C86.0182 117.223 85.8473 117.154 85.7061 117.018C85.5648 116.881 85.4941 116.708 85.4941 116.498C85.4941 116.288 85.5648 116.115 85.7061 115.979C85.8473 115.837 86.0182 115.767 86.2188 115.767C86.4238 115.767 86.597 115.837 86.7383 115.979C86.8841 116.115 86.957 116.288 86.957 116.498C86.957 116.699 86.8841 116.869 86.7383 117.011C86.597 117.152 86.4238 117.223 86.2188 117.223ZM86.7656 126H85.6445V119H86.7656V126ZM91.9609 126.164C90.9264 126.164 90.0993 125.838 89.4795 125.187C88.8643 124.53 88.5566 123.662 88.5566 122.582C88.5566 121.406 88.8779 120.488 89.5205 119.827C90.1631 119.166 91.0312 118.836 92.125 118.836C93.1686 118.836 93.9821 119.157 94.5654 119.8C95.1533 120.442 95.4473 121.333 95.4473 122.473C95.4473 123.589 95.1305 124.485 94.4971 125.159C93.8682 125.829 93.0228 126.164 91.9609 126.164ZM92.043 119.779C91.3229 119.779 90.7533 120.025 90.334 120.518C89.9147 121.005 89.7051 121.68 89.7051 122.541C89.7051 123.37 89.917 124.024 90.3408 124.503C90.7646 124.981 91.332 125.221 92.043 125.221C92.7676 125.221 93.3236 124.986 93.7109 124.517C94.1029 124.047 94.2988 123.38 94.2988 122.514C94.2988 121.639 94.1029 120.964 93.7109 120.49C93.3236 120.016 92.7676 119.779 92.043 119.779ZM103.049 126H101.928V122.008C101.928 120.522 101.385 119.779 100.301 119.779C99.7402 119.779 99.2754 119.991 98.9062 120.415C98.5417 120.834 98.3594 121.365 98.3594 122.008V126H97.2383V119H98.3594V120.162H98.3867C98.9154 119.278 99.681 118.836 100.684 118.836C101.449 118.836 102.035 119.084 102.44 119.581C102.846 120.073 103.049 120.786 103.049 121.721V126ZM110.179 126H109.058V124.906H109.03C108.543 125.745 107.825 126.164 106.877 126.164C106.18 126.164 105.633 125.979 105.236 125.61C104.844 125.241 104.648 124.751 104.648 124.141C104.648 122.833 105.419 122.072 106.959 121.857L109.058 121.563C109.058 120.374 108.577 119.779 107.615 119.779C106.772 119.779 106.011 120.066 105.332 120.641V119.492C106.02 119.055 106.813 118.836 107.711 118.836C109.356 118.836 110.179 119.706 110.179 121.447V126ZM109.058 122.459L107.369 122.691C106.85 122.764 106.458 122.894 106.193 123.081C105.929 123.263 105.797 123.589 105.797 124.059C105.797 124.4 105.918 124.681 106.159 124.899C106.405 125.114 106.731 125.221 107.137 125.221C107.693 125.221 108.151 125.027 108.511 124.64C108.875 124.248 109.058 123.753 109.058 123.156V122.459ZM113.412 126H112.291V115.637H113.412V126ZM124.295 125.679C123.757 126.002 123.119 126.164 122.381 126.164C121.383 126.164 120.576 125.84 119.961 125.193C119.35 124.542 119.045 123.699 119.045 122.664C119.045 121.511 119.375 120.586 120.036 119.889C120.697 119.187 121.579 118.836 122.682 118.836C123.297 118.836 123.839 118.95 124.309 119.178V120.326C123.789 119.962 123.233 119.779 122.641 119.779C121.925 119.779 121.337 120.037 120.877 120.552C120.421 121.062 120.193 121.734 120.193 122.568C120.193 123.389 120.408 124.036 120.836 124.51C121.269 124.984 121.848 125.221 122.572 125.221C123.183 125.221 123.757 125.018 124.295 124.612V125.679ZM128.916 126.164C127.882 126.164 127.054 125.838 126.435 125.187C125.819 124.53 125.512 123.662 125.512 122.582C125.512 121.406 125.833 120.488 126.476 119.827C127.118 119.166 127.986 118.836 129.08 118.836C130.124 118.836 130.937 119.157 131.521 119.8C132.108 120.442 132.402 121.333 132.402 122.473C132.402 123.589 132.086 124.485 131.452 125.159C130.823 125.829 129.978 126.164 128.916 126.164ZM128.998 119.779C128.278 119.779 127.708 120.025 127.289 120.518C126.87 121.005 126.66 121.68 126.66 122.541C126.66 123.37 126.872 124.024 127.296 124.503C127.72 124.981 128.287 125.221 128.998 125.221C129.723 125.221 130.279 124.986 130.666 124.517C131.058 124.047 131.254 123.38 131.254 122.514C131.254 121.639 131.058 120.964 130.666 120.49C130.279 120.016 129.723 119.779 128.998 119.779ZM144.133 126H143.012V121.98C143.012 121.206 142.891 120.645 142.649 120.299C142.412 119.952 142.011 119.779 141.446 119.779C140.968 119.779 140.56 119.998 140.223 120.436C139.89 120.873 139.724 121.397 139.724 122.008V126H138.603V121.844C138.603 120.467 138.072 119.779 137.01 119.779C136.518 119.779 136.112 119.987 135.793 120.401C135.474 120.812 135.314 121.347 135.314 122.008V126H134.193V119H135.314V120.107H135.342C135.839 119.26 136.563 118.836 137.516 118.836C137.994 118.836 138.411 118.97 138.767 119.239C139.122 119.504 139.366 119.852 139.498 120.285C140.018 119.319 140.792 118.836 141.822 118.836C143.363 118.836 144.133 119.786 144.133 121.687V126ZM147.4 124.988H147.373V129.22H146.252V119H147.373V120.23H147.4C147.952 119.301 148.758 118.836 149.82 118.836C150.723 118.836 151.427 119.15 151.933 119.779C152.438 120.404 152.691 121.242 152.691 122.295C152.691 123.466 152.407 124.405 151.837 125.111C151.267 125.813 150.488 126.164 149.499 126.164C148.592 126.164 147.893 125.772 147.4 124.988ZM147.373 122.165V123.143C147.373 123.721 147.56 124.214 147.934 124.619C148.312 125.02 148.79 125.221 149.369 125.221C150.048 125.221 150.579 124.961 150.962 124.441C151.349 123.922 151.543 123.2 151.543 122.274C151.543 121.495 151.363 120.884 151.003 120.442C150.643 120 150.155 119.779 149.54 119.779C148.888 119.779 148.364 120.007 147.968 120.463C147.571 120.914 147.373 121.481 147.373 122.165ZM157.408 126.164C156.374 126.164 155.547 125.838 154.927 125.187C154.312 124.53 154.004 123.662 154.004 122.582C154.004 121.406 154.325 120.488 154.968 119.827C155.61 119.166 156.479 118.836 157.572 118.836C158.616 118.836 159.429 119.157 160.013 119.8C160.601 120.442 160.895 121.333 160.895 122.473C160.895 123.589 160.578 124.485 159.944 125.159C159.315 125.829 158.47 126.164 157.408 126.164ZM157.49 119.779C156.77 119.779 156.201 120.025 155.781 120.518C155.362 121.005 155.152 121.68 155.152 122.541C155.152 123.37 155.364 124.024 155.788 124.503C156.212 124.981 156.779 125.221 157.49 125.221C158.215 125.221 158.771 124.986 159.158 124.517C159.55 124.047 159.746 123.38 159.746 122.514C159.746 121.639 159.55 120.964 159.158 120.49C158.771 120.016 158.215 119.779 157.49 119.779ZM168.496 126H167.375V122.008C167.375 120.522 166.833 119.779 165.748 119.779C165.188 119.779 164.723 119.991 164.354 120.415C163.989 120.834 163.807 121.365 163.807 122.008V126H162.686V119H163.807V120.162H163.834C164.363 119.278 165.128 118.836 166.131 118.836C166.896 118.836 167.482 119.084 167.888 119.581C168.293 120.073 168.496 120.786 168.496 121.721V126ZM176.241 122.78H171.299C171.317 123.56 171.527 124.161 171.928 124.585C172.329 125.009 172.88 125.221 173.582 125.221C174.37 125.221 175.095 124.961 175.756 124.441V125.494C175.141 125.941 174.327 126.164 173.315 126.164C172.326 126.164 171.549 125.847 170.984 125.214C170.419 124.576 170.137 123.68 170.137 122.527C170.137 121.438 170.444 120.552 171.06 119.868C171.679 119.18 172.447 118.836 173.363 118.836C174.279 118.836 174.988 119.132 175.489 119.725C175.991 120.317 176.241 121.14 176.241 122.192V122.78ZM175.093 121.83C175.088 121.183 174.931 120.679 174.621 120.319C174.316 119.959 173.89 119.779 173.343 119.779C172.814 119.779 172.365 119.968 171.996 120.347C171.627 120.725 171.399 121.219 171.312 121.83H175.093ZM183.754 126H182.633V122.008C182.633 120.522 182.09 119.779 181.006 119.779C180.445 119.779 179.98 119.991 179.611 120.415C179.247 120.834 179.064 121.365 179.064 122.008V126H177.943V119H179.064V120.162H179.092C179.62 119.278 180.386 118.836 181.389 118.836C182.154 118.836 182.74 119.084 183.146 119.581C183.551 120.073 183.754 120.786 183.754 121.721V126ZM189.12 125.932C188.856 126.077 188.507 126.15 188.074 126.15C186.848 126.15 186.235 125.467 186.235 124.1V119.957H185.032V119H186.235V117.291L187.356 116.929V119H189.12V119.957H187.356V123.901C187.356 124.371 187.436 124.706 187.596 124.906C187.755 125.107 188.02 125.207 188.389 125.207C188.671 125.207 188.915 125.13 189.12 124.975V125.932ZM190.193 125.747V124.544C190.804 124.995 191.476 125.221 192.21 125.221C193.194 125.221 193.687 124.893 193.687 124.236C193.687 124.049 193.643 123.892 193.557 123.765C193.475 123.632 193.361 123.516 193.215 123.416C193.074 123.316 192.905 123.227 192.709 123.149C192.518 123.067 192.31 122.983 192.087 122.896C191.777 122.773 191.504 122.65 191.267 122.527C191.034 122.4 190.838 122.258 190.679 122.104C190.524 121.944 190.405 121.764 190.323 121.563C190.246 121.363 190.207 121.128 190.207 120.859C190.207 120.531 190.282 120.242 190.433 119.991C190.583 119.736 190.784 119.524 191.034 119.355C191.285 119.182 191.57 119.052 191.889 118.966C192.212 118.879 192.545 118.836 192.887 118.836C193.493 118.836 194.035 118.941 194.514 119.15V120.285C193.999 119.948 193.406 119.779 192.736 119.779C192.527 119.779 192.338 119.804 192.169 119.854C192 119.9 191.854 119.966 191.731 120.053C191.613 120.139 191.52 120.244 191.451 120.367C191.387 120.486 191.355 120.618 191.355 120.764C191.355 120.946 191.387 121.099 191.451 121.222C191.52 121.345 191.618 121.454 191.745 121.55C191.873 121.646 192.028 121.732 192.21 121.81C192.392 121.887 192.6 121.971 192.832 122.062C193.142 122.181 193.42 122.304 193.666 122.432C193.912 122.555 194.122 122.696 194.295 122.855C194.468 123.01 194.6 123.19 194.691 123.396C194.787 123.601 194.835 123.844 194.835 124.127C194.835 124.473 194.757 124.774 194.603 125.029C194.452 125.285 194.249 125.496 193.994 125.665C193.739 125.834 193.445 125.959 193.112 126.041C192.78 126.123 192.431 126.164 192.066 126.164C191.346 126.164 190.722 126.025 190.193 125.747ZM197.59 124.441L196.496 127.805H195.696L196.496 124.441H197.59ZM209.416 126H208.295V124.811H208.268C207.748 125.713 206.946 126.164 205.861 126.164C204.982 126.164 204.278 125.852 203.749 125.228C203.225 124.599 202.963 123.744 202.963 122.664C202.963 121.507 203.255 120.579 203.838 119.882C204.421 119.185 205.198 118.836 206.169 118.836C207.131 118.836 207.83 119.214 208.268 119.971H208.295V115.637H209.416V126ZM208.295 122.835V121.803C208.295 121.238 208.108 120.759 207.734 120.367C207.361 119.975 206.887 119.779 206.312 119.779C205.629 119.779 205.091 120.03 204.699 120.531C204.307 121.033 204.111 121.725 204.111 122.609C204.111 123.416 204.298 124.054 204.672 124.523C205.05 124.988 205.556 125.221 206.189 125.221C206.814 125.221 207.32 124.995 207.707 124.544C208.099 124.093 208.295 123.523 208.295 122.835ZM217.312 122.78H212.369C212.387 123.56 212.597 124.161 212.998 124.585C213.399 125.009 213.951 125.221 214.652 125.221C215.441 125.221 216.165 124.961 216.826 124.441V125.494C216.211 125.941 215.397 126.164 214.386 126.164C213.397 126.164 212.62 125.847 212.055 125.214C211.49 124.576 211.207 123.68 211.207 122.527C211.207 121.438 211.515 120.552 212.13 119.868C212.75 119.18 213.518 118.836 214.434 118.836C215.35 118.836 216.058 119.132 216.56 119.725C217.061 120.317 217.312 121.14 217.312 122.192V122.78ZM216.163 121.83C216.159 121.183 216.001 120.679 215.691 120.319C215.386 119.959 214.96 119.779 214.413 119.779C213.884 119.779 213.436 119.968 213.066 120.347C212.697 120.725 212.469 121.219 212.383 121.83H216.163ZM223.785 125.679C223.247 126.002 222.609 126.164 221.871 126.164C220.873 126.164 220.066 125.84 219.451 125.193C218.84 124.542 218.535 123.699 218.535 122.664C218.535 121.511 218.866 120.586 219.526 119.889C220.187 119.187 221.069 118.836 222.172 118.836C222.787 118.836 223.329 118.95 223.799 119.178V120.326C223.279 119.962 222.723 119.779 222.131 119.779C221.415 119.779 220.827 120.037 220.367 120.552C219.911 121.062 219.684 121.734 219.684 122.568C219.684 123.389 219.898 124.036 220.326 124.51C220.759 124.984 221.338 125.221 222.062 125.221C222.673 125.221 223.247 125.018 223.785 124.612V125.679ZM226.602 126H225.48V115.637H226.602V126ZM233.882 126H232.761V124.906H232.733C232.246 125.745 231.528 126.164 230.58 126.164C229.883 126.164 229.336 125.979 228.939 125.61C228.548 125.241 228.352 124.751 228.352 124.141C228.352 122.833 229.122 122.072 230.662 121.857L232.761 121.563C232.761 120.374 232.28 119.779 231.318 119.779C230.475 119.779 229.714 120.066 229.035 120.641V119.492C229.723 119.055 230.516 118.836 231.414 118.836C233.059 118.836 233.882 119.706 233.882 121.447V126ZM232.761 122.459L231.072 122.691C230.553 122.764 230.161 122.894 229.896 123.081C229.632 123.263 229.5 123.589 229.5 124.059C229.5 124.4 229.621 124.681 229.862 124.899C230.108 125.114 230.434 125.221 230.84 125.221C231.396 125.221 231.854 125.027 232.214 124.64C232.578 124.248 232.761 123.753 232.761 123.156V122.459ZM239.645 120.135C239.449 119.984 239.166 119.909 238.797 119.909C238.318 119.909 237.917 120.135 237.594 120.586C237.275 121.037 237.115 121.652 237.115 122.432V126H235.994V119H237.115V120.442H237.143C237.302 119.95 237.546 119.567 237.874 119.294C238.202 119.016 238.569 118.877 238.975 118.877C239.266 118.877 239.49 118.909 239.645 118.973V120.135ZM245.872 126H244.751V124.906H244.724C244.236 125.745 243.518 126.164 242.57 126.164C241.873 126.164 241.326 125.979 240.93 125.61C240.538 125.241 240.342 124.751 240.342 124.141C240.342 122.833 241.112 122.072 242.652 121.857L244.751 121.563C244.751 120.374 244.27 119.779 243.309 119.779C242.465 119.779 241.704 120.066 241.025 120.641V119.492C241.714 119.055 242.507 118.836 243.404 118.836C245.049 118.836 245.872 119.706 245.872 121.447V126ZM244.751 122.459L243.062 122.691C242.543 122.764 242.151 122.894 241.887 123.081C241.622 123.263 241.49 123.589 241.49 124.059C241.49 124.4 241.611 124.681 241.853 124.899C242.099 125.114 242.424 125.221 242.83 125.221C243.386 125.221 243.844 125.027 244.204 124.64C244.569 124.248 244.751 123.753 244.751 123.156V122.459ZM251.231 125.932C250.967 126.077 250.618 126.15 250.186 126.15C248.96 126.15 248.347 125.467 248.347 124.1V119.957H247.144V119H248.347V117.291L249.468 116.929V119H251.231V119.957H249.468V123.901C249.468 124.371 249.548 124.706 249.707 124.906C249.867 125.107 250.131 125.207 250.5 125.207C250.783 125.207 251.026 125.13 251.231 124.975V125.932ZM253.303 117.223C253.102 117.223 252.931 117.154 252.79 117.018C252.649 116.881 252.578 116.708 252.578 116.498C252.578 116.288 252.649 116.115 252.79 115.979C252.931 115.837 253.102 115.767 253.303 115.767C253.508 115.767 253.681 115.837 253.822 115.979C253.968 116.115 254.041 116.288 254.041 116.498C254.041 116.699 253.968 116.869 253.822 117.011C253.681 117.152 253.508 117.223 253.303 117.223ZM253.85 126H252.729V119H253.85V126ZM261.622 119L258.833 126H257.732L255.08 119H256.311L258.088 124.086C258.22 124.46 258.302 124.785 258.334 125.063H258.361C258.407 124.713 258.48 124.396 258.58 124.113L260.439 119H261.622ZM268.458 122.78H263.516C263.534 123.56 263.743 124.161 264.145 124.585C264.546 125.009 265.097 125.221 265.799 125.221C266.587 125.221 267.312 124.961 267.973 124.441V125.494C267.357 125.941 266.544 126.164 265.532 126.164C264.543 126.164 263.766 125.847 263.201 125.214C262.636 124.576 262.354 123.68 262.354 122.527C262.354 121.438 262.661 120.552 263.276 119.868C263.896 119.18 264.664 118.836 265.58 118.836C266.496 118.836 267.205 119.132 267.706 119.725C268.207 120.317 268.458 121.14 268.458 122.192V122.78ZM267.31 121.83C267.305 121.183 267.148 120.679 266.838 120.319C266.533 119.959 266.106 119.779 265.56 119.779C265.031 119.779 264.582 119.968 264.213 120.347C263.844 120.725 263.616 121.219 263.529 121.83H267.31ZM24.4561 143.035C24.4561 145.788 23.2142 147.164 20.7305 147.164C18.3516 147.164 17.1621 145.84 17.1621 143.192V137.197H18.3105V143.117C18.3105 145.127 19.1582 146.132 20.8535 146.132C22.4896 146.132 23.3076 145.161 23.3076 143.22V137.197H24.4561V143.035ZM28.0586 147H26.9102V137.197H28.0586V147ZM30.0684 146.747V145.544C30.679 145.995 31.3512 146.221 32.085 146.221C33.0693 146.221 33.5615 145.893 33.5615 145.236C33.5615 145.049 33.5182 144.892 33.4316 144.765C33.3496 144.632 33.2357 144.516 33.0898 144.416C32.9486 144.316 32.7799 144.227 32.584 144.149C32.3926 144.067 32.1852 143.983 31.9619 143.896C31.652 143.773 31.3786 143.65 31.1416 143.527C30.9092 143.4 30.7132 143.258 30.5537 143.104C30.3988 142.944 30.2803 142.764 30.1982 142.563C30.1208 142.363 30.082 142.128 30.082 141.859C30.082 141.531 30.1572 141.242 30.3076 140.991C30.458 140.736 30.6585 140.524 30.9092 140.355C31.1598 140.182 31.4447 140.052 31.7637 139.966C32.0872 139.879 32.4199 139.836 32.7617 139.836C33.3678 139.836 33.9102 139.941 34.3887 140.15V141.285C33.8737 140.948 33.2812 140.779 32.6113 140.779C32.4017 140.779 32.2126 140.804 32.0439 140.854C31.8753 140.9 31.7295 140.966 31.6064 141.053C31.488 141.139 31.3945 141.244 31.3262 141.367C31.2624 141.486 31.2305 141.618 31.2305 141.764C31.2305 141.946 31.2624 142.099 31.3262 142.222C31.3945 142.345 31.4925 142.454 31.6201 142.55C31.7477 142.646 31.9027 142.732 32.085 142.81C32.2673 142.887 32.4746 142.971 32.707 143.062C33.0169 143.181 33.2949 143.304 33.541 143.432C33.7871 143.555 33.9967 143.696 34.1699 143.855C34.3431 144.01 34.4753 144.19 34.5664 144.396C34.6621 144.601 34.71 144.844 34.71 145.127C34.71 145.473 34.6325 145.774 34.4775 146.029C34.3271 146.285 34.1243 146.496 33.8691 146.665C33.6139 146.834 33.32 146.959 32.9873 147.041C32.6546 147.123 32.306 147.164 31.9414 147.164C31.2214 147.164 30.597 147.025 30.0684 146.747ZM37.4648 145.441L36.3711 148.805H35.5713L36.3711 145.441H37.4648ZM48.3271 147H47.2061V145.906H47.1787C46.6911 146.745 45.9733 147.164 45.0254 147.164C44.3281 147.164 43.7812 146.979 43.3848 146.61C42.9928 146.241 42.7969 145.751 42.7969 145.141C42.7969 143.833 43.5671 143.072 45.1074 142.857L47.2061 142.563C47.2061 141.374 46.7253 140.779 45.7637 140.779C44.9206 140.779 44.1595 141.066 43.4805 141.641V140.492C44.1686 140.055 44.9616 139.836 45.8594 139.836C47.5046 139.836 48.3271 140.706 48.3271 142.447V147ZM47.2061 143.459L45.5176 143.691C44.998 143.764 44.6061 143.894 44.3418 144.081C44.0775 144.263 43.9453 144.589 43.9453 145.059C43.9453 145.4 44.0661 145.681 44.3076 145.899C44.5537 146.114 44.8796 146.221 45.2852 146.221C45.8411 146.221 46.2992 146.027 46.6592 145.64C47.0238 145.248 47.2061 144.753 47.2061 144.156V143.459ZM56.25 147H55.1289V143.008C55.1289 141.522 54.5866 140.779 53.502 140.779C52.9414 140.779 52.4766 140.991 52.1074 141.415C51.7428 141.834 51.5605 142.365 51.5605 143.008V147H50.4395V140H51.5605V141.162H51.5879C52.1165 140.278 52.8822 139.836 53.8848 139.836C54.6504 139.836 55.236 140.084 55.6416 140.581C56.0472 141.073 56.25 141.786 56.25 142.721V147ZM64.3438 147H63.2227V145.811H63.1953C62.6758 146.713 61.8737 147.164 60.7891 147.164C59.9095 147.164 59.2054 146.852 58.6768 146.228C58.1527 145.599 57.8906 144.744 57.8906 143.664C57.8906 142.507 58.1823 141.579 58.7656 140.882C59.349 140.185 60.126 139.836 61.0967 139.836C62.0583 139.836 62.7578 140.214 63.1953 140.971H63.2227V136.637H64.3438V147ZM63.2227 143.835V142.803C63.2227 142.238 63.0358 141.759 62.6621 141.367C62.2884 140.975 61.8145 140.779 61.2402 140.779C60.5566 140.779 60.0189 141.03 59.627 141.531C59.235 142.033 59.0391 142.725 59.0391 143.609C59.0391 144.416 59.2259 145.054 59.5996 145.523C59.9779 145.988 60.4837 146.221 61.1172 146.221C61.7415 146.221 62.2474 145.995 62.6348 145.544C63.0267 145.093 63.2227 144.523 63.2227 143.835ZM76.4023 138.236H73.5723V147H72.4238V138.236H69.6006V137.197H76.4023V138.236ZM82.5889 140L79.3691 148.121C78.7949 149.57 77.9883 150.295 76.9492 150.295C76.6576 150.295 76.4137 150.265 76.2178 150.206V149.201C76.4593 149.283 76.6803 149.324 76.8809 149.324C77.446 149.324 77.8698 148.987 78.1523 148.312L78.7129 146.986L75.9785 140H77.2227L79.1162 145.387C79.139 145.455 79.1868 145.633 79.2598 145.92H79.3008C79.3236 145.811 79.3691 145.637 79.4375 145.4L81.4268 140H82.5889ZM84.9473 145.988H84.9199V150.22H83.7988V140H84.9199V141.23H84.9473C85.4987 140.301 86.3053 139.836 87.3672 139.836C88.2695 139.836 88.9736 140.15 89.4795 140.779C89.9854 141.404 90.2383 142.242 90.2383 143.295C90.2383 144.466 89.9535 145.405 89.3838 146.111C88.8141 146.813 88.0348 147.164 87.0459 147.164C86.139 147.164 85.4395 146.772 84.9473 145.988ZM84.9199 143.165V144.143C84.9199 144.721 85.1068 145.214 85.4805 145.619C85.8587 146.02 86.3372 146.221 86.916 146.221C87.5951 146.221 88.126 145.961 88.5088 145.441C88.8962 144.922 89.0898 144.2 89.0898 143.274C89.0898 142.495 88.9098 141.884 88.5498 141.442C88.1898 141 87.7021 140.779 87.0869 140.779C86.4352 140.779 85.9111 141.007 85.5146 141.463C85.1182 141.914 84.9199 142.481 84.9199 143.165ZM97.6553 143.78H92.7129C92.7311 144.56 92.9408 145.161 93.3418 145.585C93.7428 146.009 94.2943 146.221 94.9961 146.221C95.7845 146.221 96.5091 145.961 97.1699 145.441V146.494C96.5547 146.941 95.7412 147.164 94.7295 147.164C93.7406 147.164 92.9635 146.847 92.3984 146.214C91.8333 145.576 91.5508 144.68 91.5508 143.527C91.5508 142.438 91.8584 141.552 92.4736 140.868C93.0934 140.18 93.8613 139.836 94.7773 139.836C95.6934 139.836 96.402 140.132 96.9033 140.725C97.4046 141.317 97.6553 142.14 97.6553 143.192V143.78ZM96.5068 142.83C96.5023 142.183 96.3451 141.679 96.0352 141.319C95.7298 140.959 95.3037 140.779 94.7568 140.779C94.2282 140.779 93.7793 140.968 93.4102 141.347C93.041 141.725 92.8132 142.219 92.7266 142.83H96.5068ZM99.0498 146.604V145.25C99.2048 145.387 99.3893 145.51 99.6035 145.619C99.8223 145.729 100.05 145.822 100.287 145.899C100.529 145.972 100.77 146.029 101.012 146.07C101.253 146.111 101.477 146.132 101.682 146.132C102.388 146.132 102.914 146.002 103.261 145.742C103.612 145.478 103.787 145.1 103.787 144.607C103.787 144.343 103.728 144.113 103.609 143.917C103.495 143.721 103.336 143.543 103.131 143.384C102.926 143.22 102.682 143.065 102.399 142.919C102.121 142.769 101.821 142.611 101.497 142.447C101.155 142.274 100.836 142.099 100.54 141.921C100.244 141.743 99.9863 141.547 99.7676 141.333C99.5488 141.119 99.3757 140.877 99.248 140.608C99.125 140.335 99.0635 140.016 99.0635 139.651C99.0635 139.205 99.1615 138.817 99.3574 138.489C99.5534 138.157 99.8109 137.883 100.13 137.669C100.449 137.455 100.811 137.295 101.217 137.19C101.627 137.086 102.044 137.033 102.468 137.033C103.434 137.033 104.138 137.149 104.58 137.382V138.674C104.001 138.273 103.258 138.072 102.352 138.072C102.101 138.072 101.85 138.1 101.6 138.154C101.349 138.204 101.126 138.289 100.93 138.407C100.734 138.526 100.574 138.678 100.451 138.865C100.328 139.052 100.267 139.28 100.267 139.549C100.267 139.799 100.312 140.016 100.403 140.198C100.499 140.381 100.638 140.547 100.82 140.697C101.003 140.848 101.224 140.993 101.483 141.135C101.748 141.276 102.051 141.431 102.393 141.6C102.743 141.773 103.076 141.955 103.391 142.146C103.705 142.338 103.981 142.55 104.218 142.782C104.455 143.015 104.642 143.272 104.778 143.555C104.92 143.837 104.99 144.161 104.99 144.525C104.99 145.008 104.895 145.419 104.703 145.756C104.516 146.089 104.261 146.36 103.938 146.569C103.618 146.779 103.249 146.929 102.83 147.021C102.411 147.116 101.969 147.164 101.504 147.164C101.349 147.164 101.158 147.15 100.93 147.123C100.702 147.1 100.469 147.064 100.232 147.014C99.9954 146.968 99.7699 146.911 99.5557 146.843C99.346 146.77 99.1774 146.69 99.0498 146.604ZM111.566 146.679C111.029 147.002 110.391 147.164 109.652 147.164C108.654 147.164 107.848 146.84 107.232 146.193C106.622 145.542 106.316 144.699 106.316 143.664C106.316 142.511 106.647 141.586 107.308 140.889C107.968 140.187 108.85 139.836 109.953 139.836C110.568 139.836 111.111 139.95 111.58 140.178V141.326C111.061 140.962 110.505 140.779 109.912 140.779C109.197 140.779 108.609 141.037 108.148 141.552C107.693 142.062 107.465 142.734 107.465 143.568C107.465 144.389 107.679 145.036 108.107 145.51C108.54 145.984 109.119 146.221 109.844 146.221C110.454 146.221 111.029 146.018 111.566 145.612V146.679ZM116.912 141.135C116.716 140.984 116.434 140.909 116.064 140.909C115.586 140.909 115.185 141.135 114.861 141.586C114.542 142.037 114.383 142.652 114.383 143.432V147H113.262V140H114.383V141.442H114.41C114.57 140.95 114.813 140.567 115.142 140.294C115.47 140.016 115.837 139.877 116.242 139.877C116.534 139.877 116.757 139.909 116.912 139.973V141.135ZM118.703 138.223C118.503 138.223 118.332 138.154 118.19 138.018C118.049 137.881 117.979 137.708 117.979 137.498C117.979 137.288 118.049 137.115 118.19 136.979C118.332 136.837 118.503 136.767 118.703 136.767C118.908 136.767 119.081 136.837 119.223 136.979C119.368 137.115 119.441 137.288 119.441 137.498C119.441 137.699 119.368 137.869 119.223 138.011C119.081 138.152 118.908 138.223 118.703 138.223ZM119.25 147H118.129V140H119.25V147ZM122.668 145.988H122.641V150.22H121.52V140H122.641V141.23H122.668C123.219 140.301 124.026 139.836 125.088 139.836C125.99 139.836 126.694 140.15 127.2 140.779C127.706 141.404 127.959 142.242 127.959 143.295C127.959 144.466 127.674 145.405 127.104 146.111C126.535 146.813 125.756 147.164 124.767 147.164C123.86 147.164 123.16 146.772 122.668 145.988ZM122.641 143.165V144.143C122.641 144.721 122.827 145.214 123.201 145.619C123.579 146.02 124.058 146.221 124.637 146.221C125.316 146.221 125.847 145.961 126.229 145.441C126.617 144.922 126.811 144.2 126.811 143.274C126.811 142.495 126.631 141.884 126.271 141.442C125.91 141 125.423 140.779 124.808 140.779C124.156 140.779 123.632 141.007 123.235 141.463C122.839 141.914 122.641 142.481 122.641 143.165ZM132.997 146.932C132.733 147.077 132.384 147.15 131.951 147.15C130.725 147.15 130.112 146.467 130.112 145.1V140.957H128.909V140H130.112V138.291L131.233 137.929V140H132.997V140.957H131.233V144.901C131.233 145.371 131.313 145.706 131.473 145.906C131.632 146.107 131.896 146.207 132.266 146.207C132.548 146.207 132.792 146.13 132.997 145.975V146.932ZM134.884 147.15C134.674 147.15 134.494 147.075 134.344 146.925C134.198 146.774 134.125 146.594 134.125 146.385C134.125 146.175 134.198 145.995 134.344 145.845C134.494 145.69 134.674 145.612 134.884 145.612C135.098 145.612 135.28 145.69 135.431 145.845C135.581 145.995 135.656 146.175 135.656 146.385C135.656 146.594 135.581 146.774 135.431 146.925C135.28 147.075 135.098 147.15 134.884 147.15Z" fill="#59636E"/>
</g>
<defs>
<clipPath id="clip0_8_3">
<rect width="268" height="84" fill="white" transform="translate(16 68)"/>
</clipPath>
</defs>
</svg>
