<svg width="180" height="120" viewBox="0 0 180 120" fill="none" xmlns="http://www.w3.org/2000/svg">
<rect width="180" height="120" rx="8" fill="#FAFAFA"/>
<rect x="12" y="12" width="32" height="32" rx="4" fill="#F5F5F5"/>
<path d="M30.23 28.004C30.23 28.5968 29.9946 29.1654 29.5754 29.5847C29.1563 30.004 28.5879 30.2397 27.995 30.24C27.402 30.24 26.8332 30.0044 26.4139 29.5851C25.9946 29.1658 25.759 28.597 25.759 28.004C25.759 27.4111 25.9944 26.8426 26.4136 26.4233C26.8327 26.004 27.4011 25.7683 27.994 25.768C28.587 25.768 29.1558 26.0036 29.5751 26.4229C29.9944 26.8422 30.23 27.411 30.23 28.004ZM32.878 17.314C31.532 17.314 29.771 18.274 27.99 19.936C26.21 18.283 24.448 17.334 23.103 17.334C22.693 17.334 22.32 17.427 21.997 17.612C20.622 18.405 20.314 20.876 21.024 23.977C17.98 24.917 16 26.42 16 28.004C16 29.594 17.99 31.101 21.043 32.034C20.339 35.147 20.653 37.622 22.031 38.414C22.351 38.601 22.721 38.689 23.133 38.689C24.478 38.689 26.24 37.729 28.021 36.065C29.801 37.719 31.563 38.668 32.908 38.668C33.318 38.668 33.691 38.578 34.014 38.393C35.388 37.601 35.697 35.13 34.987 32.028C38.02 31.096 40 29.59 40 28.004C40 26.414 38.01 24.907 34.957 23.972C35.661 20.862 35.347 18.385 33.969 17.592C33.651 17.408 33.282 17.315 32.878 17.314ZM32.873 18.404V18.41C33.098 18.41 33.279 18.454 33.431 18.537C34.097 18.919 34.386 20.372 34.161 22.241C34.107 22.701 34.019 23.186 33.911 23.681C32.951 23.445 31.905 23.264 30.804 23.147C30.144 22.242 29.459 21.42 28.769 20.7C30.361 19.22 31.856 18.408 32.874 18.405L32.873 18.404ZM23.103 18.424C24.115 18.424 25.617 19.232 27.213 20.704C26.527 21.424 25.843 22.241 25.193 23.146C24.086 23.263 23.039 23.444 22.08 23.684C21.968 23.194 21.885 22.72 21.826 22.264C21.596 20.396 21.88 18.944 22.54 18.557C22.73 18.467 22.94 18.429 23.103 18.424ZM27.985 21.474C28.44 21.942 28.895 22.466 29.345 23.038C28.905 23.018 28.455 23.004 28 23.004C27.54 23.004 27.085 23.014 26.64 23.038C27.08 22.466 27.535 21.943 27.985 21.474ZM28 24.1C28.74 24.1 29.477 24.134 30.202 24.193C30.608 24.775 31.004 25.396 31.385 26.053C31.757 26.693 32.095 27.343 32.403 27.999C32.095 28.654 31.757 29.309 31.39 29.949C31.01 30.609 30.617 31.237 30.21 31.819C29.482 31.882 28.744 31.917 28 31.917C27.26 31.917 26.523 31.882 25.798 31.824C25.392 31.242 24.996 30.62 24.615 29.964C24.243 29.324 23.905 28.674 23.597 28.018C23.9 27.361 24.243 26.705 24.61 26.064C24.99 25.404 25.383 24.778 25.79 24.196C26.518 24.132 27.256 24.098 28 24.098V24.1ZM24.365 24.354C24.125 24.731 23.885 25.117 23.661 25.514C23.436 25.904 23.226 26.296 23.026 26.688C22.761 26.032 22.536 25.378 22.35 24.741C22.99 24.591 23.665 24.457 24.365 24.354ZM31.625 24.354C32.32 24.457 32.99 24.584 33.631 24.741C33.451 25.373 33.226 26.023 32.971 26.674C32.771 26.284 32.561 25.891 32.331 25.5C32.106 25.108 31.866 24.726 31.626 24.354H31.625ZM34.688 25.029C35.172 25.179 35.632 25.346 36.063 25.527C37.795 26.267 38.915 27.235 38.915 28.003C38.91 28.771 37.79 29.743 36.058 30.478C35.638 30.658 35.178 30.82 34.703 30.971C34.423 30.013 34.057 29.015 33.603 27.991C34.053 26.974 34.413 25.981 34.688 25.027V25.029ZM21.293 25.033C21.571 25.993 21.938 26.99 22.393 28.013C21.943 29.03 21.581 30.023 21.307 30.977C20.823 30.827 20.363 30.659 19.937 30.477C18.205 29.74 17.085 28.771 17.085 28.003C17.085 27.235 18.205 26.261 19.937 25.527C20.357 25.347 20.817 25.185 21.293 25.033ZM32.971 29.313C33.236 29.97 33.461 30.625 33.647 31.261C33.007 31.418 32.331 31.551 31.631 31.651C31.871 31.276 32.111 30.889 32.336 30.493C32.561 30.103 32.77 29.705 32.971 29.313ZM23.026 29.333C23.226 29.725 23.436 30.116 23.666 30.508C23.896 30.898 24.131 31.28 24.371 31.651C23.676 31.549 23.006 31.421 22.365 31.265C22.545 30.635 22.771 29.983 23.025 29.332L23.026 29.333ZM33.92 32.32C34.032 32.813 34.12 33.288 34.174 33.743C34.404 35.611 34.12 37.063 33.46 37.451C33.313 37.541 33.122 37.579 32.897 37.579C31.885 37.579 30.383 36.772 28.787 35.299C29.473 34.579 30.157 33.763 30.807 32.859C31.914 32.741 32.961 32.56 33.92 32.32ZM22.09 32.33C23.05 32.564 24.096 32.745 25.197 32.862C25.857 33.767 26.542 34.589 27.232 35.308C25.637 36.791 24.14 37.603 23.122 37.603C22.902 37.598 22.716 37.553 22.569 37.471C21.903 37.091 21.614 35.637 21.839 33.768C21.893 33.308 21.982 32.824 22.09 32.33ZM26.65 32.97C27.09 32.99 27.54 33.004 27.995 33.004C28.455 33.004 28.91 32.994 29.355 32.97C28.915 33.542 28.46 34.065 28.01 34.535C27.555 34.065 27.1 33.542 26.65 32.97Z" fill="#61DAFB"/>
<path d="M53.233 33.5V23.3182H56.6733C57.4688 23.3182 58.1217 23.4541 58.6321 23.7259C59.1425 23.9943 59.5204 24.3639 59.7656 24.8345C60.0109 25.3052 60.1335 25.8404 60.1335 26.4403C60.1335 27.0402 60.0109 27.5722 59.7656 28.0362C59.5204 28.5002 59.1442 28.8648 58.6371 29.13C58.13 29.3918 57.482 29.5227 56.6932 29.5227H53.9091V28.4091H56.6534C57.197 28.4091 57.6345 28.3295 57.9659 28.1705C58.3007 28.0114 58.5426 27.786 58.6918 27.4943C58.8442 27.1993 58.9205 26.848 58.9205 26.4403C58.9205 26.0327 58.8442 25.6764 58.6918 25.3714C58.5393 25.0665 58.2957 24.8312 57.9609 24.6655C57.6262 24.4964 57.1837 24.4119 56.6335 24.4119H54.4659V33.5H53.233ZM58.0256 28.9261L60.5312 33.5H59.0994L56.6335 28.9261H58.0256ZM65.1486 33.6591C64.4128 33.6591 63.7781 33.4967 63.2445 33.1719C62.7142 32.8438 62.3049 32.3864 62.0165 31.7997C61.7315 31.2098 61.589 30.5237 61.589 29.7415C61.589 28.9593 61.7315 28.2699 62.0165 27.6733C62.3049 27.0734 62.7059 26.6061 63.2196 26.2713C63.7367 25.9332 64.3399 25.7642 65.0293 25.7642C65.427 25.7642 65.8198 25.8305 66.2076 25.9631C66.5953 26.0956 66.9483 26.3111 67.2665 26.6094C67.5847 26.9044 67.8382 27.2955 68.0272 27.7827C68.2161 28.2699 68.3105 28.8698 68.3105 29.5824V30.0795H62.4242V29.0653H67.1174C67.1174 28.6345 67.0312 28.25 66.8588 27.9119C66.6898 27.5739 66.4479 27.3071 66.133 27.1115C65.8214 26.916 65.4535 26.8182 65.0293 26.8182C64.562 26.8182 64.1576 26.9342 63.8162 27.1662C63.4782 27.3949 63.218 27.6932 63.0357 28.0611C62.8534 28.429 62.7623 28.8234 62.7623 29.2443V29.9205C62.7623 30.4972 62.8617 30.986 63.0605 31.3871C63.2627 31.7848 63.5428 32.0881 63.9007 32.2969C64.2587 32.5024 64.6747 32.6051 65.1486 32.6051C65.4569 32.6051 65.7353 32.562 65.9838 32.4759C66.2357 32.3864 66.4528 32.2538 66.6351 32.0781C66.8174 31.8991 66.9583 31.6771 67.0577 31.4119L68.1912 31.7301C68.0719 32.1146 67.8714 32.4527 67.5897 32.7443C67.3079 33.0327 66.9599 33.258 66.5456 33.4205C66.1313 33.5795 65.6657 33.6591 65.1486 33.6591ZM72.3425 33.679C71.8586 33.679 71.4194 33.5878 71.025 33.4055C70.6306 33.2199 70.3174 32.9531 70.0854 32.6051C69.8534 32.2538 69.7374 31.8295 69.7374 31.3324C69.7374 30.8949 69.8236 30.5402 69.9959 30.2685C70.1683 29.9934 70.3986 29.7779 70.687 29.6222C70.9753 29.4664 71.2935 29.3504 71.6415 29.2741C71.9928 29.1946 72.3458 29.1316 72.7005 29.0852C73.1645 29.0256 73.5407 28.9808 73.829 28.951C74.1207 28.9179 74.3328 28.8632 74.4654 28.7869C74.6013 28.7107 74.6692 28.5781 74.6692 28.3892V28.3494C74.6692 27.8589 74.535 27.4777 74.2665 27.206C74.0014 26.9342 73.5987 26.7983 73.0584 26.7983C72.4983 26.7983 72.0591 26.9209 71.7409 27.1662C71.4228 27.4115 71.199 27.6733 71.0698 27.9517L69.9561 27.554C70.155 27.09 70.4202 26.7287 70.7516 26.4702C71.0864 26.2083 71.4509 26.026 71.8453 25.9233C72.2431 25.8172 72.6342 25.7642 73.0186 25.7642C73.2639 25.7642 73.5456 25.794 73.8638 25.8537C74.1853 25.91 74.4952 26.0277 74.7935 26.2067C75.0951 26.3857 75.3453 26.6558 75.5442 27.017C75.7431 27.3783 75.8425 27.8622 75.8425 28.4688V33.5H74.6692V32.4659H74.6096C74.53 32.6316 74.3974 32.8089 74.2118 32.9979C74.0262 33.1868 73.7793 33.3475 73.4711 33.4801C73.1628 33.6127 72.7866 33.679 72.3425 33.679ZM72.5215 32.625C72.9855 32.625 73.3766 32.5339 73.6948 32.3516C74.0163 32.1693 74.2582 31.9339 74.4206 31.6456C74.5864 31.3572 74.6692 31.054 74.6692 30.7358V29.6619C74.6195 29.7216 74.5101 29.7763 74.3411 29.826C74.1754 29.8724 73.9831 29.9138 73.7644 29.9503C73.5489 29.9834 73.3385 30.0133 73.133 30.0398C72.9308 30.063 72.7667 30.0829 72.6408 30.0994C72.3359 30.1392 72.0508 30.2038 71.7857 30.2933C71.5239 30.3795 71.3117 30.5104 71.1493 30.6861C70.9902 30.8584 70.9107 31.0937 70.9107 31.392C70.9107 31.7997 71.0615 32.108 71.3631 32.3168C71.668 32.5223 72.0542 32.625 72.5215 32.625ZM81.0863 33.6591C80.3704 33.6591 79.7539 33.4901 79.2369 33.152C78.7198 32.8139 78.3221 32.3482 78.0437 31.755C77.7653 31.1617 77.6261 30.4839 77.6261 29.7216C77.6261 28.946 77.7686 28.2616 78.0536 27.6683C78.342 27.0717 78.743 26.6061 79.2567 26.2713C79.7738 25.9332 80.377 25.7642 81.0664 25.7642C81.6033 25.7642 82.0872 25.8636 82.5181 26.0625C82.949 26.2614 83.302 26.5398 83.5771 26.8977C83.8522 27.2557 84.0228 27.6733 84.0891 28.1506H82.9158C82.8263 27.8026 82.6275 27.4943 82.3192 27.2259C82.0143 26.9541 81.6033 26.8182 81.0863 26.8182C80.6289 26.8182 80.2279 26.9375 79.8832 27.1761C79.5418 27.4115 79.275 27.7446 79.0827 28.1754C78.8938 28.603 78.7994 29.1051 78.7994 29.6818C78.7994 30.2718 78.8922 30.7855 79.0778 31.223C79.2667 31.6605 79.5318 32.0002 79.8732 32.2422C80.2179 32.4841 80.6223 32.6051 81.0863 32.6051C81.3912 32.6051 81.668 32.5521 81.9165 32.446C82.1651 32.34 82.3756 32.1875 82.5479 31.9886C82.7203 31.7898 82.8429 31.5511 82.9158 31.2727H84.0891C84.0228 31.7235 83.8588 32.1295 83.5969 32.4908C83.3384 32.8487 82.9954 33.1338 82.5678 33.3459C82.1436 33.5547 81.6497 33.6591 81.0863 33.6591ZM89.1254 25.8636V26.858H85.168V25.8636H89.1254ZM86.3214 24.0341H87.4947V31.3125C87.4947 31.6439 87.5427 31.8925 87.6388 32.0582C87.7383 32.2206 87.8642 32.33 88.0167 32.3864C88.1725 32.4394 88.3365 32.4659 88.5089 32.4659C88.6381 32.4659 88.7442 32.4593 88.8271 32.446C88.9099 32.4295 88.9762 32.4162 89.0259 32.4062L89.2646 33.4602C89.185 33.4901 89.074 33.5199 88.9315 33.5497C88.7889 33.5829 88.6083 33.5994 88.3896 33.5994C88.0581 33.5994 87.7333 33.5282 87.4151 33.3857C87.1003 33.2431 86.8384 33.026 86.6296 32.7344C86.4241 32.4427 86.3214 32.0748 86.3214 31.6307V24.0341Z" fill="#333333"/>
<g clip-path="url(#clip0_8_3)">
<path d="M12.8807 62V54.7273H15.3381C15.9063 54.7273 16.3726 54.8243 16.7372 55.0185C17.1018 55.2102 17.3717 55.4742 17.5469 55.8104C17.7221 56.1465 17.8097 56.5289 17.8097 56.9574C17.8097 57.3859 17.7221 57.7659 17.5469 58.0973C17.3717 58.4287 17.103 58.6892 16.7408 58.8786C16.3786 59.0656 15.9157 59.1591 15.3523 59.1591H13.3636V58.3636H15.3239C15.7121 58.3636 16.0246 58.3068 16.2614 58.1932C16.5005 58.0795 16.6733 57.9186 16.7798 57.7102C16.8887 57.4995 16.9432 57.2486 16.9432 56.9574C16.9432 56.6662 16.8887 56.4117 16.7798 56.1939C16.6709 55.9761 16.4969 55.808 16.2578 55.6896C16.0187 55.5689 15.7027 55.5085 15.3097 55.5085H13.7614V62H12.8807ZM16.304 58.733L18.0938 62H17.071L15.3097 58.733H16.304ZM21.3919 62.1136C20.8663 62.1136 20.4129 61.9976 20.0318 61.7656C19.653 61.5312 19.3606 61.2045 19.1547 60.7855C18.9511 60.3641 18.8493 59.8741 18.8493 59.3153C18.8493 58.7566 18.9511 58.2642 19.1547 57.8381C19.3606 57.4096 19.6471 57.0758 20.014 56.8366C20.3833 56.5952 20.8142 56.4744 21.3066 56.4744C21.5907 56.4744 21.8713 56.5218 22.1483 56.6165C22.4252 56.7112 22.6774 56.8651 22.9047 57.0781C23.1319 57.2888 23.313 57.5682 23.448 57.9162C23.5829 58.2642 23.6504 58.6927 23.6504 59.2017V59.5568H19.4458V58.8324H22.7981C22.7981 58.5246 22.7366 58.25 22.6135 58.0085C22.4927 57.767 22.3199 57.5765 22.095 57.4368C21.8725 57.2971 21.6097 57.2273 21.3066 57.2273C20.9728 57.2273 20.684 57.3101 20.4402 57.4759C20.1987 57.6392 20.0128 57.8523 19.8826 58.1151C19.7524 58.3778 19.6873 58.6596 19.6873 58.9602V59.4432C19.6873 59.8551 19.7583 60.2043 19.9004 60.4908C20.0448 60.7749 20.2449 60.9915 20.5005 61.1406C20.7562 61.2874 21.0533 61.3608 21.3919 61.3608C21.612 61.3608 21.8109 61.33 21.9885 61.2685C22.1684 61.2045 22.3234 61.1098 22.4537 60.9844C22.5839 60.8565 22.6845 60.6979 22.7555 60.5085L23.5652 60.7358C23.4799 61.0104 23.3367 61.2519 23.1355 61.4602C22.9342 61.6662 22.6857 61.8272 22.3897 61.9432C22.0938 62.0568 21.7612 62.1136 21.3919 62.1136ZM26.5304 62.1278C26.1847 62.1278 25.871 62.0627 25.5893 61.9325C25.3076 61.8 25.0839 61.6094 24.9181 61.3608C24.7524 61.1098 24.6696 60.8068 24.6696 60.4517C24.6696 60.1392 24.7311 59.8859 24.8542 59.6918C24.9773 59.4953 25.1419 59.3414 25.3478 59.2301C25.5538 59.1188 25.7811 59.036 26.0297 58.9815C26.2806 58.9247 26.5327 58.8797 26.786 58.8466C27.1175 58.804 27.3862 58.772 27.5922 58.7507C27.8005 58.727 27.952 58.688 28.0467 58.6335C28.1438 58.5791 28.1923 58.4844 28.1923 58.3494V58.321C28.1923 57.9706 28.0964 57.6984 27.9047 57.5043C27.7153 57.3101 27.4276 57.2131 27.0417 57.2131C26.6416 57.2131 26.3279 57.3007 26.1007 57.4759C25.8734 57.651 25.7136 57.8381 25.6213 58.0369L24.8258 57.7528C24.9679 57.4214 25.1573 57.1634 25.394 56.9787C25.6331 56.7917 25.8935 56.6615 26.1752 56.5881C26.4593 56.5123 26.7387 56.4744 27.0133 56.4744C27.1885 56.4744 27.3897 56.4957 27.617 56.5384C27.8467 56.5786 28.068 56.6626 28.2811 56.7905C28.4965 56.9183 28.6752 57.1113 28.8173 57.3693C28.9593 57.6274 29.0304 57.973 29.0304 58.4062V62H28.1923V61.2614H28.1497C28.0929 61.3797 27.9982 61.5064 27.8656 61.6413C27.733 61.7763 27.5566 61.8911 27.3365 61.9858C27.1163 62.0805 26.8476 62.1278 26.5304 62.1278ZM26.6582 61.375C26.9896 61.375 27.269 61.3099 27.4963 61.1797C27.7259 61.0495 27.8987 60.8814 28.0147 60.6754C28.1331 60.4695 28.1923 60.2528 28.1923 60.0256V59.2585C28.1568 59.3011 28.0787 59.3402 27.9579 59.3757C27.8395 59.4089 27.7022 59.4384 27.546 59.4645C27.3921 59.4882 27.2418 59.5095 27.095 59.5284C26.9506 59.545 26.8334 59.5592 26.7434 59.571C26.5256 59.5994 26.322 59.6456 26.1326 59.7095C25.9456 59.7711 25.7941 59.8646 25.6781 59.9901C25.5645 60.1132 25.5076 60.2812 25.5076 60.4943C25.5076 60.7855 25.6154 61.0057 25.8308 61.1548C26.0486 61.3016 26.3244 61.375 26.6582 61.375ZM32.7759 62.1136C32.2646 62.1136 31.8242 61.9929 31.4549 61.7514C31.0856 61.5099 30.8015 61.1773 30.6026 60.7536C30.4038 60.3298 30.3043 59.8456 30.3043 59.3011C30.3043 58.7472 30.4061 58.2583 30.6097 57.8345C30.8157 57.4084 31.1022 57.0758 31.4691 56.8366C31.8384 56.5952 32.2693 56.4744 32.7617 56.4744C33.1452 56.4744 33.4909 56.5455 33.7987 56.6875C34.1064 56.8295 34.3585 57.0284 34.555 57.2841C34.7515 57.5398 34.8735 57.8381 34.9208 58.179H34.0827C34.0188 57.9304 33.8768 57.7102 33.6566 57.5185C33.4388 57.3243 33.1452 57.2273 32.7759 57.2273C32.4492 57.2273 32.1628 57.3125 31.9165 57.483C31.6727 57.651 31.4821 57.889 31.3448 58.1967C31.2099 58.5021 31.1424 58.8608 31.1424 59.2727C31.1424 59.6941 31.2087 60.0611 31.3413 60.3736C31.4762 60.6861 31.6656 60.9287 31.9094 61.1016C32.1557 61.2744 32.4445 61.3608 32.7759 61.3608C32.9937 61.3608 33.1914 61.3229 33.369 61.2472C33.5465 61.1714 33.6969 61.0625 33.82 60.9205C33.9431 60.7784 34.0307 60.608 34.0827 60.4091H34.9208C34.8735 60.7311 34.7563 61.0211 34.5692 61.2791C34.3846 61.5348 34.1396 61.7384 33.8342 61.8899C33.5311 62.0391 33.1784 62.1136 32.7759 62.1136ZM38.5181 56.5455V57.2557H35.6914V56.5455H38.5181ZM36.5153 55.2386H37.3533V60.4375C37.3533 60.6742 37.3877 60.8518 37.4563 60.9702C37.5273 61.0862 37.6173 61.1643 37.7262 61.2045C37.8375 61.2424 37.9547 61.2614 38.0778 61.2614C38.1701 61.2614 38.2459 61.2566 38.305 61.2472C38.3642 61.2353 38.4116 61.2259 38.4471 61.2188L38.6175 61.9716C38.5607 61.9929 38.4814 62.0142 38.3796 62.0355C38.2778 62.0592 38.1488 62.071 37.9925 62.071C37.7558 62.071 37.5238 62.0201 37.2965 61.9183C37.0716 61.8165 36.8846 61.6615 36.7354 61.4531C36.5887 61.2448 36.5153 60.982 36.5153 60.6648V55.2386ZM41.0288 61.0057L40.9719 61.3892C40.9317 61.6591 40.8701 61.9479 40.7873 62.2557C40.7068 62.5634 40.6228 62.8535 40.5352 63.1257C40.4476 63.398 40.3754 63.6146 40.3185 63.7756H39.6793C39.7101 63.6241 39.7504 63.424 39.8001 63.1754C39.8498 62.9268 39.8995 62.6487 39.9492 62.3409C40.0013 62.0355 40.0439 61.723 40.0771 61.4034L40.1197 61.0057H41.0288ZM47.7662 56.5455V57.2557H44.9395V56.5455H47.7662ZM45.7633 55.2386H46.6014V60.4375C46.6014 60.6742 46.6357 60.8518 46.7044 60.9702C46.7754 61.0862 46.8654 61.1643 46.9743 61.2045C47.0855 61.2424 47.2027 61.2614 47.3258 61.2614C47.4181 61.2614 47.4939 61.2566 47.5531 61.2472C47.6123 61.2353 47.6596 61.2259 47.6951 61.2188L47.8656 61.9716C47.8088 61.9929 47.7295 62.0142 47.6277 62.0355C47.5259 62.0592 47.3968 62.071 47.2406 62.071C47.0038 62.071 46.7718 62.0201 46.5446 61.9183C46.3197 61.8165 46.1326 61.6615 45.9835 61.4531C45.8367 61.2448 45.7633 60.982 45.7633 60.6648V55.2386ZM52.7928 57.767L52.04 57.9801C51.9926 57.8546 51.9228 57.7327 51.8304 57.6143C51.7405 57.4936 51.6174 57.3942 51.4611 57.3161C51.3049 57.2379 51.1048 57.1989 50.861 57.1989C50.5272 57.1989 50.249 57.2758 50.0265 57.4297C49.8063 57.5812 49.6962 57.7741 49.6962 58.0085C49.6962 58.2169 49.772 58.3814 49.9235 58.5021C50.075 58.6229 50.3117 58.7235 50.6337 58.804L51.4434 59.0028C51.931 59.1212 52.2944 59.3023 52.5336 59.5462C52.7727 59.7876 52.8922 60.099 52.8922 60.4801C52.8922 60.7926 52.8023 61.072 52.6223 61.3182C52.4448 61.5644 52.1962 61.7585 51.8766 61.9006C51.557 62.0426 51.1853 62.1136 50.7615 62.1136C50.2052 62.1136 49.7447 61.9929 49.3801 61.7514C49.0156 61.5099 48.7847 61.1572 48.6877 60.6932L49.4831 60.4943C49.5589 60.7879 49.7021 61.008 49.9128 61.1548C50.1259 61.3016 50.4041 61.375 50.7473 61.375C51.138 61.375 51.4481 61.2921 51.6777 61.1264C51.9097 60.9583 52.0257 60.7571 52.0257 60.5227C52.0257 60.3333 51.9595 60.1747 51.8269 60.0469C51.6943 59.9167 51.4907 59.8196 51.2161 59.7557L50.307 59.5426C49.8075 59.4242 49.4405 59.2408 49.2061 58.9922C48.9741 58.7412 48.8581 58.4276 48.8581 58.0511C48.8581 57.7434 48.9445 57.4711 49.1174 57.2344C49.2926 56.9976 49.5305 56.8118 49.8311 56.6768C50.1342 56.5419 50.4775 56.4744 50.861 56.4744C51.4007 56.4744 51.8245 56.5928 52.1323 56.8295C52.4424 57.0663 52.6626 57.3788 52.7928 57.767ZM54.7788 56.5455L56.0856 58.7756L57.3924 56.5455H58.3583L56.5969 59.2727L58.3583 62H57.3924L56.0856 59.8835L54.7788 62H53.8129L55.5458 59.2727L53.8129 56.5455H54.7788ZM60.8042 61.0057L60.7473 61.3892C60.7071 61.6591 60.6455 61.9479 60.5627 62.2557C60.4822 62.5634 60.3981 62.8535 60.3105 63.1257C60.223 63.398 60.1507 63.6146 60.0939 63.7756H59.4547C59.4855 63.6241 59.5257 63.424 59.5755 63.1754C59.6252 62.9268 59.6749 62.6487 59.7246 62.3409C59.7767 62.0355 59.8193 61.723 59.8525 61.4034L59.8951 61.0057H60.8042ZM65.283 62V54.7273H67.7404C68.3086 54.7273 68.775 54.8243 69.1396 55.0185C69.5041 55.2102 69.774 55.4742 69.9492 55.8104C70.1244 56.1465 70.212 56.5289 70.212 56.9574C70.212 57.3859 70.1244 57.7659 69.9492 58.0973C69.774 58.4287 69.5053 58.6892 69.1431 58.8786C68.7809 59.0656 68.3181 59.1591 67.7546 59.1591H65.766V58.3636H67.7262C68.1145 58.3636 68.427 58.3068 68.6637 58.1932C68.9028 58.0795 69.0756 57.9186 69.1822 57.7102C69.2911 57.4995 69.3455 57.2486 69.3455 56.9574C69.3455 56.6662 69.2911 56.4117 69.1822 56.1939C69.0733 55.9761 68.8993 55.808 68.6602 55.6896C68.421 55.5689 68.105 55.5085 67.712 55.5085H66.1637V62H65.283ZM68.7063 58.733L70.4961 62H69.4734L67.712 58.733H68.7063ZM73.7942 62.1136C73.2686 62.1136 72.8153 61.9976 72.4341 61.7656C72.0553 61.5312 71.763 61.2045 71.557 60.7855C71.3534 60.3641 71.2516 59.8741 71.2516 59.3153C71.2516 58.7566 71.3534 58.2642 71.557 57.8381C71.763 57.4096 72.0494 57.0758 72.4164 56.8366C72.7857 56.5952 73.2166 56.4744 73.709 56.4744C73.9931 56.4744 74.2736 56.5218 74.5506 56.6165C74.8276 56.7112 75.0797 56.8651 75.307 57.0781C75.5343 57.2888 75.7154 57.5682 75.8503 57.9162C75.9853 58.2642 76.0527 58.6927 76.0527 59.2017V59.5568H71.8482V58.8324H75.2005C75.2005 58.5246 75.1389 58.25 75.0158 58.0085C74.8951 57.767 74.7222 57.5765 74.4973 57.4368C74.2748 57.2971 74.012 57.2273 73.709 57.2273C73.3752 57.2273 73.0864 57.3101 72.8425 57.4759C72.601 57.6392 72.4152 57.8523 72.285 58.1151C72.1548 58.3778 72.0897 58.6596 72.0897 58.9602V59.4432C72.0897 59.8551 72.1607 60.2043 72.3027 60.4908C72.4471 60.7749 72.6472 60.9915 72.9029 61.1406C73.1586 61.2874 73.4557 61.3608 73.7942 61.3608C74.0144 61.3608 74.2132 61.33 74.3908 61.2685C74.5707 61.2045 74.7258 61.1098 74.856 60.9844C74.9862 60.8565 75.0868 60.6979 75.1578 60.5085L75.9675 60.7358C75.8823 61.0104 75.7391 61.2519 75.5378 61.4602C75.3366 61.6662 75.088 61.8272 74.7921 61.9432C74.4962 62.0568 74.1635 62.1136 73.7942 62.1136ZM78.9327 62.1278C78.5871 62.1278 78.2734 62.0627 77.9917 61.9325C77.7099 61.8 77.4862 61.6094 77.3205 61.3608C77.1548 61.1098 77.0719 60.8068 77.0719 60.4517C77.0719 60.1392 77.1335 59.8859 77.2566 59.6918C77.3797 59.4953 77.5442 59.3414 77.7502 59.2301C77.9561 59.1188 78.1834 59.036 78.432 58.9815C78.6829 58.9247 78.9351 58.8797 79.1884 58.8466C79.5198 58.804 79.7885 58.772 79.9945 58.7507C80.2028 58.727 80.3543 58.688 80.449 58.6335C80.5461 58.5791 80.5946 58.4844 80.5946 58.3494V58.321C80.5946 57.9706 80.4988 57.6984 80.307 57.5043C80.1176 57.3101 79.83 57.2131 79.4441 57.2131C79.044 57.2131 78.7303 57.3007 78.503 57.4759C78.2757 57.651 78.1159 57.8381 78.0236 58.0369L77.2282 57.7528C77.3702 57.4214 77.5596 57.1634 77.7963 56.9787C78.0355 56.7917 78.2959 56.6615 78.5776 56.5881C78.8617 56.5123 79.141 56.4744 79.4157 56.4744C79.5908 56.4744 79.7921 56.4957 80.0194 56.5384C80.249 56.5786 80.4703 56.6626 80.6834 56.7905C80.8989 56.9183 81.0776 57.1113 81.2196 57.3693C81.3617 57.6274 81.4327 57.973 81.4327 58.4062V62H80.5946V61.2614H80.552C80.4952 61.3797 80.4005 61.5064 80.2679 61.6413C80.1354 61.7763 79.959 61.8911 79.7388 61.9858C79.5186 62.0805 79.2499 62.1278 78.9327 62.1278ZM79.0605 61.375C79.392 61.375 79.6713 61.3099 79.8986 61.1797C80.1283 61.0495 80.3011 60.8814 80.4171 60.6754C80.5355 60.4695 80.5946 60.2528 80.5946 60.0256V59.2585C80.5591 59.3011 80.481 59.3402 80.3603 59.3757C80.2419 59.4089 80.1046 59.4384 79.9483 59.4645C79.7944 59.4882 79.6441 59.5095 79.4973 59.5284C79.3529 59.545 79.2357 59.5592 79.1458 59.571C78.928 59.5994 78.7244 59.6456 78.535 59.7095C78.348 59.7711 78.1964 59.8646 78.0804 59.9901C77.9668 60.1132 77.91 60.2812 77.91 60.4943C77.91 60.7855 78.0177 61.0057 78.2331 61.1548C78.4509 61.3016 78.7267 61.375 79.0605 61.375ZM85.1783 62.1136C84.6669 62.1136 84.2266 61.9929 83.8572 61.7514C83.4879 61.5099 83.2038 61.1773 83.005 60.7536C82.8061 60.3298 82.7067 59.8456 82.7067 59.3011C82.7067 58.7472 82.8085 58.2583 83.0121 57.8345C83.218 57.4084 83.5045 57.0758 83.8714 56.8366C84.2408 56.5952 84.6716 56.4744 85.1641 56.4744C85.5476 56.4744 85.8932 56.5455 86.201 56.6875C86.5088 56.8295 86.7609 57.0284 86.9574 57.2841C87.1539 57.5398 87.2758 57.8381 87.3232 58.179H86.4851C86.4212 57.9304 86.2791 57.7102 86.0589 57.5185C85.8411 57.3243 85.5476 57.2273 85.1783 57.2273C84.8516 57.2273 84.5651 57.3125 84.3189 57.483C84.075 57.651 83.8845 57.889 83.7472 58.1967C83.6122 58.5021 83.5447 58.8608 83.5447 59.2727C83.5447 59.6941 83.611 60.0611 83.7436 60.3736C83.8786 60.6861 84.0679 60.9287 84.3118 61.1016C84.558 61.2744 84.8468 61.3608 85.1783 61.3608C85.3961 61.3608 85.5938 61.3229 85.7713 61.2472C85.9489 61.1714 86.0992 61.0625 86.2223 60.9205C86.3454 60.7784 86.433 60.608 86.4851 60.4091H87.3232C87.2758 60.7311 87.1586 61.0211 86.9716 61.2791C86.7869 61.5348 86.5419 61.7384 86.2365 61.8899C85.9335 62.0391 85.5807 62.1136 85.1783 62.1136ZM90.9205 56.5455V57.2557H88.0938V56.5455H90.9205ZM88.9176 55.2386H89.7557V60.4375C89.7557 60.6742 89.79 60.8518 89.8587 60.9702C89.9297 61.0862 90.0196 61.1643 90.1286 61.2045C90.2398 61.2424 90.357 61.2614 90.4801 61.2614C90.5724 61.2614 90.6482 61.2566 90.7074 61.2472C90.7666 61.2353 90.8139 61.2259 90.8494 61.2188L91.0199 61.9716C90.9631 61.9929 90.8838 62.0142 90.782 62.0355C90.6802 62.0592 90.5511 62.071 90.3949 62.071C90.1581 62.071 89.9261 62.0201 89.6989 61.9183C89.474 61.8165 89.2869 61.6615 89.1378 61.4531C88.991 61.2448 88.9176 60.982 88.9176 60.6648V55.2386ZM95.1072 62V54.7273H97.5646C98.1328 54.7273 98.5992 54.8243 98.9638 55.0185C99.3284 55.2102 99.5982 55.4742 99.7734 55.8104C99.9486 56.1465 100.036 56.5289 100.036 56.9574C100.036 57.3859 99.9486 57.7659 99.7734 58.0973C99.5982 58.4287 99.3295 58.6892 98.9673 58.8786C98.6051 59.0656 98.1423 59.1591 97.5788 59.1591H95.5902V58.3636H97.5504C97.9387 58.3636 98.2512 58.3068 98.4879 58.1932C98.727 58.0795 98.8999 57.9186 99.0064 57.7102C99.1153 57.4995 99.1697 57.2486 99.1697 56.9574C99.1697 56.6662 99.1153 56.4117 99.0064 56.1939C98.8975 55.9761 98.7235 55.808 98.4844 55.6896C98.2453 55.5689 97.9292 55.5085 97.5362 55.5085H95.9879V62H95.1072ZM98.5305 58.733L100.32 62H99.2976L97.5362 58.733H98.5305ZM103.547 62.1136C103.055 62.1136 102.623 61.9964 102.251 61.7621C101.882 61.5277 101.593 61.1998 101.385 60.7784C101.179 60.357 101.076 59.8646 101.076 59.3011C101.076 58.733 101.179 58.237 101.385 57.8132C101.593 57.3894 101.882 57.0604 102.251 56.826C102.623 56.5916 103.055 56.4744 103.547 56.4744C104.04 56.4744 104.471 56.5916 104.84 56.826C105.212 57.0604 105.501 57.3894 105.706 57.8132C105.915 58.237 106.019 58.733 106.019 59.3011C106.019 59.8646 105.915 60.357 105.706 60.7784C105.501 61.1998 105.212 61.5277 104.84 61.7621C104.471 61.9964 104.04 62.1136 103.547 62.1136ZM103.547 61.3608C103.921 61.3608 104.229 61.2649 104.471 61.0732C104.712 60.8814 104.891 60.6293 105.007 60.3168C105.123 60.0043 105.181 59.6657 105.181 59.3011C105.181 58.9366 105.123 58.5968 105.007 58.282C104.891 57.9671 104.712 57.7126 104.471 57.5185C104.229 57.3243 103.921 57.2273 103.547 57.2273C103.173 57.2273 102.866 57.3243 102.624 57.5185C102.383 57.7126 102.204 57.9671 102.088 58.282C101.972 58.5968 101.914 58.9366 101.914 59.3011C101.914 59.6657 101.972 60.0043 102.088 60.3168C102.204 60.6293 102.383 60.8814 102.624 61.0732C102.866 61.2649 103.173 61.3608 103.547 61.3608ZM110.736 59.7699V56.5455H111.574V62H110.736V61.0767H110.679C110.551 61.3537 110.352 61.5893 110.082 61.7834C109.813 61.9751 109.472 62.071 109.06 62.071C108.719 62.071 108.416 61.9964 108.151 61.8473C107.885 61.6958 107.677 61.4685 107.526 61.1655C107.374 60.8601 107.298 60.4754 107.298 60.0114V56.5455H108.136V59.9545C108.136 60.3523 108.248 60.6695 108.47 60.9062C108.695 61.143 108.982 61.2614 109.33 61.2614C109.538 61.2614 109.75 61.2081 109.965 61.1016C110.183 60.995 110.365 60.8317 110.512 60.6115C110.661 60.3913 110.736 60.1108 110.736 59.7699ZM115.481 56.5455V57.2557H112.654V56.5455H115.481ZM113.478 55.2386H114.316V60.4375C114.316 60.6742 114.351 60.8518 114.419 60.9702C114.49 61.0862 114.58 61.1643 114.689 61.2045C114.8 61.2424 114.918 61.2614 115.041 61.2614C115.133 61.2614 115.209 61.2566 115.268 61.2472C115.327 61.2353 115.374 61.2259 115.41 61.2188L115.58 61.9716C115.524 61.9929 115.444 62.0142 115.343 62.0355C115.241 62.0592 115.112 62.071 114.955 62.071C114.719 62.071 114.487 62.0201 114.259 61.9183C114.035 61.8165 113.847 61.6615 113.698 61.4531C113.552 61.2448 113.478 60.982 113.478 60.6648V55.2386ZM118.97 62.1136C118.444 62.1136 117.991 61.9976 117.61 61.7656C117.231 61.5312 116.939 61.2045 116.733 60.7855C116.529 60.3641 116.427 59.8741 116.427 59.3153C116.427 58.7566 116.529 58.2642 116.733 57.8381C116.939 57.4096 117.225 57.0758 117.592 56.8366C117.961 56.5952 118.392 56.4744 118.885 56.4744C119.169 56.4744 119.449 56.5218 119.726 56.6165C120.003 56.7112 120.256 56.8651 120.483 57.0781C120.71 57.2888 120.891 57.5682 121.026 57.9162C121.161 58.2642 121.229 58.6927 121.229 59.2017V59.5568H117.024V58.8324H120.376C120.376 58.5246 120.315 58.25 120.192 58.0085C120.071 57.767 119.898 57.5765 119.673 57.4368C119.451 57.2971 119.188 57.2273 118.885 57.2273C118.551 57.2273 118.262 57.3101 118.018 57.4759C117.777 57.6392 117.591 57.8523 117.461 58.1151C117.331 58.3778 117.265 58.6596 117.265 58.9602V59.4432C117.265 59.8551 117.336 60.2043 117.479 60.4908C117.623 60.7749 117.823 60.9915 118.079 61.1406C118.334 61.2874 118.631 61.3608 118.97 61.3608C119.19 61.3608 119.389 61.33 119.567 61.2685C119.747 61.2045 119.902 61.1098 120.032 60.9844C120.162 60.8565 120.263 60.6979 120.334 60.5085L121.143 60.7358C121.058 61.0104 120.915 61.2519 120.714 61.4602C120.512 61.6662 120.264 61.8272 119.968 61.9432C119.672 62.0568 119.339 62.1136 118.97 62.1136ZM122.503 62V56.5455H123.313V57.3693H123.37C123.469 57.0994 123.649 56.8804 123.91 56.7124C124.17 56.5443 124.464 56.4602 124.79 56.4602C124.852 56.4602 124.929 56.4614 125.021 56.4638C125.113 56.4661 125.183 56.4697 125.231 56.4744V57.3267C125.202 57.3196 125.137 57.3089 125.035 57.2947C124.936 57.2782 124.831 57.2699 124.719 57.2699C124.454 57.2699 124.217 57.3255 124.009 57.4368C123.803 57.5457 123.64 57.6972 123.519 57.8913C123.401 58.0831 123.341 58.3021 123.341 58.5483V62H122.503ZM126.849 61.0057L126.792 61.3892C126.752 61.6591 126.69 61.9479 126.608 62.2557C126.527 62.5634 126.443 62.8535 126.355 63.1257C126.268 63.398 126.196 63.6146 126.139 63.7756H125.5C125.53 63.6241 125.571 63.424 125.62 63.1754C125.67 62.9268 125.72 62.6487 125.77 62.3409C125.822 62.0355 125.864 61.723 125.897 61.4034L125.94 61.0057H126.849ZM12.8807 74V66.7273H15.3381C15.9086 66.7273 16.375 66.8303 16.7372 67.0362C17.1018 67.2398 17.3717 67.5156 17.5469 67.8636C17.7221 68.2116 17.8097 68.5999 17.8097 69.0284C17.8097 69.4569 17.7221 69.8464 17.5469 70.1967C17.3741 70.5471 17.1065 70.8265 16.7443 71.0348C16.3821 71.2408 15.9181 71.3438 15.3523 71.3438H13.5909V70.5625H15.3239C15.7145 70.5625 16.0282 70.495 16.2649 70.3601C16.5017 70.2251 16.6733 70.0429 16.7798 69.8132C16.8887 69.5812 16.9432 69.3196 16.9432 69.0284C16.9432 68.7372 16.8887 68.4768 16.7798 68.2472C16.6733 68.0175 16.5005 67.8376 16.2614 67.7074C16.0223 67.5748 15.705 67.5085 15.3097 67.5085H13.7614V74H12.8807ZM19.1147 74V68.5455H19.9528V74H19.1147ZM19.5408 67.6364C19.3775 67.6364 19.2366 67.5807 19.1183 67.4695C19.0022 67.3582 18.9442 67.2244 18.9442 67.0682C18.9442 66.9119 19.0022 66.7782 19.1183 66.6669C19.2366 66.5556 19.3775 66.5 19.5408 66.5C19.7042 66.5 19.8439 66.5556 19.9599 66.6669C20.0782 66.7782 20.1374 66.9119 20.1374 67.0682C20.1374 67.2244 20.0782 67.3582 19.9599 67.4695C19.8439 67.5807 19.7042 67.6364 19.5408 67.6364ZM22.1127 68.5455L23.4196 70.7756L24.7264 68.5455H25.6923L23.9309 71.2727L25.6923 74H24.7264L23.4196 71.8835L22.1127 74H21.1468L22.8798 71.2727L21.1468 68.5455H22.1127ZM26.8881 74V68.5455H27.7262V74H26.8881ZM27.3143 67.6364C27.1509 67.6364 27.0101 67.5807 26.8917 67.4695C26.7757 67.3582 26.7177 67.2244 26.7177 67.0682C26.7177 66.9119 26.7757 66.7782 26.8917 66.6669C27.0101 66.5556 27.1509 66.5 27.3143 66.5C27.4776 66.5 27.6173 66.5556 27.7333 66.6669C27.8517 66.7782 27.9109 66.9119 27.9109 67.0682C27.9109 67.2244 27.8517 67.3582 27.7333 67.4695C27.6173 67.5807 27.4776 67.6364 27.3143 67.6364ZM32.1589 66.7273H33.0396V71.9261C33.0396 72.3902 32.9544 72.7843 32.7839 73.1087C32.6135 73.433 32.3732 73.6792 32.063 73.8473C31.7529 74.0154 31.3871 74.0994 30.9657 74.0994C30.568 74.0994 30.2141 74.0272 29.9039 73.8828C29.5938 73.736 29.35 73.5277 29.1724 73.2578C28.9949 72.9879 28.9061 72.6671 28.9061 72.2955H29.7725C29.7725 72.5014 29.8234 72.6813 29.9252 72.8352C30.0294 72.9867 30.1715 73.1051 30.3514 73.1903C30.5313 73.2756 30.7361 73.3182 30.9657 73.3182C31.219 73.3182 31.4345 73.2649 31.612 73.1584C31.7896 73.0518 31.9245 72.8956 32.0169 72.6896C32.1116 72.4813 32.1589 72.2268 32.1589 71.9261V66.7273ZM38.7818 68.5455C38.7392 68.1856 38.5663 67.9062 38.2633 67.7074C37.9603 67.5085 37.5886 67.4091 37.1483 67.4091C36.8263 67.4091 36.5446 67.4612 36.3031 67.5653C36.064 67.6695 35.877 67.8127 35.742 67.995C35.6094 68.1773 35.5431 68.3845 35.5431 68.6165C35.5431 68.8106 35.5893 68.9775 35.6816 69.1172C35.7763 69.2545 35.8971 69.3693 36.0439 69.4616C36.1906 69.5516 36.3445 69.6262 36.5055 69.6854C36.6665 69.7422 36.8145 69.7884 36.9494 69.8239L37.688 70.0227C37.8774 70.0724 38.0881 70.1411 38.3201 70.2287C38.5545 70.3163 38.7782 70.4358 38.9913 70.5874C39.2067 70.7365 39.3843 70.9283 39.524 71.1626C39.6636 71.397 39.7335 71.6847 39.7335 72.0256C39.7335 72.4186 39.6305 72.7737 39.4245 73.0909C39.2209 73.4081 38.9226 73.6603 38.5297 73.8473C38.139 74.0343 37.6644 74.1278 37.1056 74.1278C36.5848 74.1278 36.1338 74.0438 35.7527 73.8757C35.3739 73.7076 35.0756 73.4732 34.8578 73.1726C34.6423 72.8719 34.5204 72.5227 34.492 72.125H35.4011C35.4248 72.3996 35.5171 72.6269 35.6781 72.8068C35.8414 72.9844 36.0474 73.117 36.296 73.2045C36.5469 73.2898 36.8168 73.3324 37.1056 73.3324C37.4418 73.3324 37.7437 73.2779 38.0112 73.169C38.2787 73.0578 38.4906 72.9039 38.6468 72.7074C38.8031 72.5085 38.8812 72.2765 38.8812 72.0114C38.8812 71.7699 38.8137 71.5734 38.6788 71.4219C38.5439 71.2704 38.3663 71.1473 38.1461 71.0526C37.926 70.9579 37.688 70.875 37.4324 70.804L36.5375 70.5483C35.9693 70.3849 35.5195 70.1518 35.188 69.8487C34.8566 69.5457 34.6909 69.1491 34.6909 68.6591C34.6909 68.2519 34.801 67.8968 35.0211 67.5938C35.2437 67.2884 35.542 67.0516 35.916 66.8835C36.2924 66.7131 36.7127 66.6278 37.1767 66.6278C37.6454 66.6278 38.0621 66.7119 38.4267 66.88C38.7913 67.0457 39.0801 67.273 39.2931 67.5618C39.5086 67.8506 39.6222 68.1785 39.6341 68.5455H38.7818ZM43.994 74V66.7273H46.4513C47.0195 66.7273 47.4859 66.8243 47.8505 67.0185C48.2151 67.2102 48.485 67.4742 48.6602 67.8104C48.8353 68.1465 48.9229 68.5289 48.9229 68.9574C48.9229 69.3859 48.8353 69.7659 48.6602 70.0973C48.485 70.4287 48.2163 70.6892 47.854 70.8786C47.4918 71.0656 47.029 71.1591 46.4656 71.1591H44.4769V70.3636H46.4371C46.8254 70.3636 47.1379 70.3068 47.3746 70.1932C47.6138 70.0795 47.7866 69.9186 47.8931 69.7102C48.002 69.4995 48.0565 69.2486 48.0565 68.9574C48.0565 68.6662 48.002 68.4117 47.8931 68.1939C47.7842 67.9761 47.6102 67.808 47.3711 67.6896C47.132 67.5689 46.8159 67.5085 46.4229 67.5085H44.8746V74H43.994ZM47.4173 70.733L49.207 74H48.1843L46.4229 70.733H47.4173ZM52.5051 74.1136C51.9796 74.1136 51.5262 73.9976 51.1451 73.7656C50.7663 73.5312 50.4739 73.2045 50.2679 72.7855C50.0643 72.3641 49.9625 71.8741 49.9625 71.3153C49.9625 70.7566 50.0643 70.2642 50.2679 69.8381C50.4739 69.4096 50.7604 69.0758 51.1273 68.8366C51.4966 68.5952 51.9275 68.4744 52.4199 68.4744C52.704 68.4744 52.9846 68.5218 53.2615 68.6165C53.5385 68.7112 53.7907 68.8651 54.0179 69.0781C54.2452 69.2888 54.4263 69.5682 54.5613 69.9162C54.6962 70.2642 54.7637 70.6927 54.7637 71.2017V71.5568H50.5591V70.8324H53.9114C53.9114 70.5246 53.8498 70.25 53.7267 70.0085C53.606 69.767 53.4332 69.5765 53.2083 69.4368C52.9857 69.2971 52.723 69.2273 52.4199 69.2273C52.0861 69.2273 51.7973 69.3101 51.5534 69.4759C51.312 69.6392 51.1261 69.8523 50.9959 70.1151C50.8657 70.3778 50.8006 70.6596 50.8006 70.9602V71.4432C50.8006 71.8551 50.8716 72.2043 51.0137 72.4908C51.1581 72.7749 51.3581 72.9915 51.6138 73.1406C51.8695 73.2874 52.1666 73.3608 52.5051 73.3608C52.7253 73.3608 52.9242 73.33 53.1017 73.2685C53.2817 73.2045 53.4367 73.1098 53.5669 72.9844C53.6971 72.8565 53.7978 72.6979 53.8688 72.5085L54.6784 72.7358C54.5932 73.0104 54.45 73.2519 54.2488 73.4602C54.0475 73.6662 53.7989 73.8272 53.503 73.9432C53.2071 74.0568 52.8745 74.1136 52.5051 74.1136ZM57.6436 74.1278C57.298 74.1278 56.9843 74.0627 56.7026 73.9325C56.4209 73.8 56.1971 73.6094 56.0314 73.3608C55.8657 73.1098 55.7828 72.8068 55.7828 72.4517C55.7828 72.1392 55.8444 71.8859 55.9675 71.6918C56.0906 71.4953 56.2551 71.3414 56.4611 71.2301C56.6671 71.1188 56.8944 71.036 57.1429 70.9815C57.3939 70.9247 57.646 70.8797 57.8993 70.8466C58.2308 70.804 58.4995 70.772 58.7054 70.7507C58.9138 70.727 59.0653 70.688 59.16 70.6335C59.257 70.5791 59.3056 70.4844 59.3056 70.3494V70.321C59.3056 69.9706 59.2097 69.6984 59.0179 69.5043C58.8285 69.3101 58.5409 69.2131 58.155 69.2131C57.7549 69.2131 57.4412 69.3007 57.214 69.4759C56.9867 69.651 56.8269 69.8381 56.7346 70.0369L55.9391 69.7528C56.0811 69.4214 56.2705 69.1634 56.5073 68.9787C56.7464 68.7917 57.0068 68.6615 57.2885 68.5881C57.5726 68.5123 57.852 68.4744 58.1266 68.4744C58.3018 68.4744 58.503 68.4957 58.7303 68.5384C58.9599 68.5786 59.1813 68.6626 59.3944 68.7905C59.6098 68.9183 59.7885 69.1113 59.9306 69.3693C60.0726 69.6274 60.1436 69.973 60.1436 70.4062V74H59.3056V73.2614H59.263C59.2061 73.3797 59.1114 73.5064 58.9789 73.6413C58.8463 73.7763 58.6699 73.8911 58.4498 73.9858C58.2296 74.0805 57.9609 74.1278 57.6436 74.1278ZM57.7715 73.375C58.1029 73.375 58.3823 73.3099 58.6096 73.1797C58.8392 73.0495 59.012 72.8814 59.128 72.6754C59.2464 72.4695 59.3056 72.2528 59.3056 72.0256V71.2585C59.2701 71.3011 59.1919 71.3402 59.0712 71.3757C58.9528 71.4089 58.8155 71.4384 58.6593 71.4645C58.5054 71.4882 58.3551 71.5095 58.2083 71.5284C58.0639 71.545 57.9467 71.5592 57.8567 71.571C57.6389 71.5994 57.4353 71.6456 57.2459 71.7095C57.0589 71.7711 56.9074 71.8646 56.7914 71.9901C56.6777 72.1132 56.6209 72.2812 56.6209 72.4943C56.6209 72.7855 56.7286 73.0057 56.9441 73.1548C57.1619 73.3016 57.4377 73.375 57.7715 73.375ZM63.8892 74.1136C63.3778 74.1136 62.9375 73.9929 62.5682 73.7514C62.1989 73.5099 61.9148 73.1773 61.7159 72.7536C61.517 72.3298 61.4176 71.8456 61.4176 71.3011C61.4176 70.7472 61.5194 70.2583 61.723 69.8345C61.929 69.4084 62.2154 69.0758 62.5824 68.8366C62.9517 68.5952 63.3826 68.4744 63.875 68.4744C64.2585 68.4744 64.6042 68.5455 64.9119 68.6875C65.2197 68.8295 65.4718 69.0284 65.6683 69.2841C65.8648 69.5398 65.9867 69.8381 66.0341 70.179H65.196C65.1321 69.9304 64.9901 69.7102 64.7699 69.5185C64.5521 69.3243 64.2585 69.2273 63.8892 69.2273C63.5625 69.2273 63.276 69.3125 63.0298 69.483C62.786 69.651 62.5954 69.889 62.4581 70.1967C62.3232 70.5021 62.2557 70.8608 62.2557 71.2727C62.2557 71.6941 62.322 72.0611 62.4545 72.3736C62.5895 72.6861 62.7789 72.9287 63.0227 73.1016C63.2689 73.2744 63.5578 73.3608 63.8892 73.3608C64.107 73.3608 64.3047 73.3229 64.4822 73.2472C64.6598 73.1714 64.8101 73.0625 64.9332 72.9205C65.0563 72.7784 65.1439 72.608 65.196 72.4091H66.0341C65.9867 72.7311 65.8696 73.0211 65.6825 73.2791C65.4979 73.5348 65.2528 73.7384 64.9474 73.8899C64.6444 74.0391 64.2917 74.1136 63.8892 74.1136ZM69.6314 68.5455V69.2557H66.8047V68.5455H69.6314ZM67.6286 67.2386H68.4666V72.4375C68.4666 72.6742 68.5009 72.8518 68.5696 72.9702C68.6406 73.0862 68.7306 73.1643 68.8395 73.2045C68.9508 73.2424 69.0679 73.2614 69.1911 73.2614C69.2834 73.2614 69.3591 73.2566 69.4183 73.2472C69.4775 73.2353 69.5249 73.2259 69.5604 73.2188L69.7308 73.9716C69.674 73.9929 69.5947 74.0142 69.4929 74.0355C69.3911 74.0592 69.2621 74.071 69.1058 74.071C68.8691 74.071 68.6371 74.0201 68.4098 73.9183C68.1849 73.8165 67.9979 73.6615 67.8487 73.4531C67.7019 73.2448 67.6286 72.982 67.6286 72.6648V67.2386ZM72.142 73.0057L72.0852 73.3892C72.045 73.6591 71.9834 73.9479 71.9006 74.2557C71.8201 74.5634 71.736 74.8535 71.6484 75.1257C71.5608 75.398 71.4886 75.6146 71.4318 75.7756H70.7926C70.8234 75.6241 70.8636 75.424 70.9134 75.1754C70.9631 74.9268 71.0128 74.6487 71.0625 74.3409C71.1146 74.0355 71.1572 73.723 71.1903 73.4034L71.233 73.0057H72.142ZM78.1124 74.1278C77.7667 74.1278 77.4531 74.0627 77.1713 73.9325C76.8896 73.8 76.6659 73.6094 76.5002 73.3608C76.3345 73.1098 76.2516 72.8068 76.2516 72.4517C76.2516 72.1392 76.3132 71.8859 76.4363 71.6918C76.5594 71.4953 76.7239 71.3414 76.9299 71.2301C77.1358 71.1188 77.3631 71.036 77.6117 70.9815C77.8626 70.9247 78.1148 70.8797 78.3681 70.8466C78.6995 70.804 78.9682 70.772 79.1742 70.7507C79.3825 70.727 79.534 70.688 79.6287 70.6335C79.7258 70.5791 79.7743 70.4844 79.7743 70.3494V70.321C79.7743 69.9706 79.6784 69.6984 79.4867 69.5043C79.2973 69.3101 79.0096 69.2131 78.6238 69.2131C78.2237 69.2131 77.91 69.3007 77.6827 69.4759C77.4554 69.651 77.2956 69.8381 77.2033 70.0369L76.4078 69.7528C76.5499 69.4214 76.7393 69.1634 76.976 68.9787C77.2151 68.7917 77.4756 68.6615 77.7573 68.5881C78.0414 68.5123 78.3207 68.4744 78.5953 68.4744C78.7705 68.4744 78.9718 68.4957 79.199 68.5384C79.4287 68.5786 79.65 68.6626 79.8631 68.7905C80.0785 68.9183 80.2573 69.1113 80.3993 69.3693C80.5414 69.6274 80.6124 69.973 80.6124 70.4062V74H79.7743V73.2614H79.7317C79.6749 73.3797 79.5802 73.5064 79.4476 73.6413C79.315 73.7763 79.1387 73.8911 78.9185 73.9858C78.6983 74.0805 78.4296 74.1278 78.1124 74.1278ZM78.2402 73.375C78.5717 73.375 78.851 73.3099 79.0783 73.1797C79.3079 73.0495 79.4808 72.8814 79.5968 72.6754C79.7151 72.4695 79.7743 72.2528 79.7743 72.0256V71.2585C79.7388 71.3011 79.6607 71.3402 79.54 71.3757C79.4216 71.4089 79.2843 71.4384 79.128 71.4645C78.9741 71.4882 78.8238 71.5095 78.677 71.5284C78.5326 71.545 78.4154 71.5592 78.3255 71.571C78.1077 71.5994 77.9041 71.6456 77.7147 71.7095C77.5276 71.7711 77.3761 71.8646 77.2601 71.9901C77.1465 72.1132 77.0897 72.2812 77.0897 72.4943C77.0897 72.7855 77.1974 73.0057 77.4128 73.1548C77.6306 73.3016 77.9064 73.375 78.2402 73.375ZM82.9801 70.7188V74H82.142V68.5455H82.9517V69.3977H83.0227C83.1506 69.1207 83.3447 68.8982 83.6051 68.7301C83.8655 68.5597 84.2017 68.4744 84.6136 68.4744C84.983 68.4744 85.3061 68.5502 85.5831 68.7017C85.8601 68.8509 86.0755 69.0781 86.2294 69.3835C86.3833 69.6866 86.4602 70.0701 86.4602 70.5341V74H85.6222V70.5909C85.6222 70.1624 85.5109 69.8286 85.2884 69.5895C85.0658 69.348 84.7604 69.2273 84.3722 69.2273C84.1046 69.2273 83.8655 69.2853 83.6548 69.4013C83.4465 69.5173 83.282 69.6866 83.1612 69.9091C83.0405 70.1316 82.9801 70.4015 82.9801 70.7188ZM90.0513 74.1136C89.5968 74.1136 89.1955 73.9988 88.8475 73.7692C88.4995 73.5372 88.2272 73.2105 88.0307 72.7891C87.8342 72.3653 87.736 71.8646 87.736 71.2869C87.736 70.714 87.8342 70.2169 88.0307 69.7955C88.2272 69.3741 88.5007 69.0485 88.851 68.8189C89.2014 68.5893 89.6062 68.4744 90.0655 68.4744C90.4206 68.4744 90.7012 68.5336 90.9071 68.652C91.1155 68.768 91.2741 68.9006 91.383 69.0497C91.4943 69.1965 91.5807 69.3172 91.6422 69.4119H91.7132V66.7273H92.5513V74H91.7417V73.1619H91.6422C91.5807 73.2614 91.4931 73.3868 91.3794 73.5384C91.2658 73.6875 91.1036 73.8213 90.8929 73.9396C90.6822 74.0556 90.4017 74.1136 90.0513 74.1136ZM90.165 73.3608C90.5011 73.3608 90.7852 73.2732 91.0172 73.098C91.2492 72.9205 91.4256 72.6754 91.5463 72.3629C91.6671 72.0481 91.7275 71.6847 91.7275 71.2727C91.7275 70.8655 91.6683 70.5092 91.5499 70.2038C91.4315 69.8961 91.2563 69.657 91.0243 69.4865C90.7923 69.3137 90.5059 69.2273 90.165 69.2273C89.8098 69.2273 89.5139 69.3184 89.2772 69.5007C89.0428 69.6806 88.8664 69.9257 88.748 70.2358C88.632 70.5436 88.574 70.8892 88.574 71.2727C88.574 71.661 88.6332 72.0137 88.7516 72.331C88.8723 72.6458 89.0499 72.8968 89.2843 73.0838C89.521 73.2685 89.8146 73.3608 90.165 73.3608ZM100.879 69.767L100.126 69.9801C100.079 69.8546 100.009 69.7327 99.9164 69.6143C99.8264 69.4936 99.7033 69.3942 99.5471 69.3161C99.3908 69.2379 99.1908 69.1989 98.9469 69.1989C98.6131 69.1989 98.3349 69.2758 98.1124 69.4297C97.8922 69.5812 97.7821 69.7741 97.7821 70.0085C97.7821 70.2169 97.8579 70.3814 98.0094 70.5021C98.1609 70.6229 98.3977 70.7235 98.7196 70.804L99.5293 71.0028C100.017 71.1212 100.38 71.3023 100.619 71.5462C100.859 71.7876 100.978 72.099 100.978 72.4801C100.978 72.7926 100.888 73.072 100.708 73.3182C100.531 73.5644 100.282 73.7585 99.9625 73.9006C99.6429 74.0426 99.2712 74.1136 98.8475 74.1136C98.2911 74.1136 97.8307 73.9929 97.4661 73.7514C97.1015 73.5099 96.8707 73.1572 96.7736 72.6932L97.5691 72.4943C97.6448 72.7879 97.7881 73.008 97.9988 73.1548C98.2118 73.3016 98.49 73.375 98.8333 73.375C99.2239 73.375 99.534 73.2921 99.7637 73.1264C99.9957 72.9583 100.112 72.7571 100.112 72.5227C100.112 72.3333 100.045 72.1747 99.9128 72.0469C99.7802 71.9167 99.5766 71.8196 99.302 71.7557L98.3929 71.5426C97.8934 71.4242 97.5265 71.2408 97.2921 70.9922C97.0601 70.7412 96.9441 70.4276 96.9441 70.0511C96.9441 69.7434 97.0305 69.4711 97.2033 69.2344C97.3785 68.9976 97.6164 68.8118 97.9171 68.6768C98.2201 68.5419 98.5634 68.4744 98.9469 68.4744C99.4867 68.4744 99.9105 68.5928 100.218 68.8295C100.528 69.0663 100.749 69.3788 100.879 69.767ZM104.456 74.1136C103.963 74.1136 103.531 73.9964 103.159 73.7621C102.79 73.5277 102.501 73.1998 102.293 72.7784C102.087 72.357 101.984 71.8646 101.984 71.3011C101.984 70.733 102.087 70.237 102.293 69.8132C102.501 69.3894 102.79 69.0604 103.159 68.826C103.531 68.5916 103.963 68.4744 104.456 68.4744C104.948 68.4744 105.379 68.5916 105.748 68.826C106.12 69.0604 106.409 69.3894 106.615 69.8132C106.823 70.237 106.927 70.733 106.927 71.3011C106.927 71.8646 106.823 72.357 106.615 72.7784C106.409 73.1998 106.12 73.5277 105.748 73.7621C105.379 73.9964 104.948 74.1136 104.456 74.1136ZM104.456 73.3608C104.83 73.3608 105.137 73.2649 105.379 73.0732C105.62 72.8814 105.799 72.6293 105.915 72.3168C106.031 72.0043 106.089 71.6657 106.089 71.3011C106.089 70.9366 106.031 70.5968 105.915 70.282C105.799 69.9671 105.62 69.7126 105.379 69.5185C105.137 69.3243 104.83 69.2273 104.456 69.2273C104.082 69.2273 103.774 69.3243 103.532 69.5185C103.291 69.7126 103.112 69.9671 102.996 70.282C102.88 70.5968 102.822 70.9366 102.822 71.3011C102.822 71.6657 102.88 72.0043 102.996 72.3168C103.112 72.6293 103.291 72.8814 103.532 73.0732C103.774 73.2649 104.082 73.3608 104.456 73.3608ZM113.235 74.1136C112.742 74.1136 112.31 73.9964 111.939 73.7621C111.569 73.5277 111.281 73.1998 111.072 72.7784C110.866 72.357 110.763 71.8646 110.763 71.3011C110.763 70.733 110.866 70.237 111.072 69.8132C111.281 69.3894 111.569 69.0604 111.939 68.826C112.31 68.5916 112.742 68.4744 113.235 68.4744C113.727 68.4744 114.158 68.5916 114.528 68.826C114.899 69.0604 115.188 69.3894 115.394 69.8132C115.602 70.237 115.706 70.733 115.706 71.3011C115.706 71.8646 115.602 72.357 115.394 72.7784C115.188 73.1998 114.899 73.5277 114.528 73.7621C114.158 73.9964 113.727 74.1136 113.235 74.1136ZM113.235 73.3608C113.609 73.3608 113.917 73.2649 114.158 73.0732C114.4 72.8814 114.578 72.6293 114.694 72.3168C114.81 72.0043 114.868 71.6657 114.868 71.3011C114.868 70.9366 114.81 70.5968 114.694 70.282C114.578 69.9671 114.4 69.7126 114.158 69.5185C113.917 69.3243 113.609 69.2273 113.235 69.2273C112.861 69.2273 112.553 69.3243 112.312 69.5185C112.07 69.7126 111.891 69.9671 111.775 70.282C111.659 70.5968 111.601 70.9366 111.601 71.3011C111.601 71.6657 111.659 72.0043 111.775 72.3168C111.891 72.6293 112.07 72.8814 112.312 73.0732C112.553 73.2649 112.861 73.3608 113.235 73.3608ZM117.824 70.7188V74H116.986V68.5455H117.795V69.3977H117.866C117.994 69.1207 118.188 68.8982 118.449 68.7301C118.709 68.5597 119.045 68.4744 119.457 68.4744C119.827 68.4744 120.15 68.5502 120.427 68.7017C120.704 68.8509 120.919 69.0781 121.073 69.3835C121.227 69.6866 121.304 70.0701 121.304 70.5341V74H120.466V70.5909C120.466 70.1624 120.355 69.8286 120.132 69.5895C119.91 69.348 119.604 69.2273 119.216 69.2273C118.948 69.2273 118.709 69.2853 118.499 69.4013C118.29 69.5173 118.126 69.6866 118.005 69.9091C117.884 70.1316 117.824 70.4015 117.824 70.7188ZM123.446 74.0568C123.271 74.0568 123.121 73.9941 122.995 73.8686C122.87 73.7431 122.807 73.5928 122.807 73.4176C122.807 73.2424 122.87 73.0921 122.995 72.9666C123.121 72.8411 123.271 72.7784 123.446 72.7784C123.621 72.7784 123.772 72.8411 123.897 72.9666C124.023 73.0921 124.085 73.2424 124.085 73.4176C124.085 73.5336 124.056 73.6402 123.997 73.7372C123.94 73.8343 123.863 73.9124 123.766 73.9716C123.671 74.0284 123.565 74.0568 123.446 74.0568ZM126.2 74.0568C126.025 74.0568 125.875 73.9941 125.749 73.8686C125.624 73.7431 125.561 73.5928 125.561 73.4176C125.561 73.2424 125.624 73.0921 125.749 72.9666C125.875 72.8411 126.025 72.7784 126.2 72.7784C126.375 72.7784 126.526 72.8411 126.651 72.9666C126.777 73.0921 126.839 73.2424 126.839 73.4176C126.839 73.5336 126.81 73.6402 126.751 73.7372C126.694 73.8343 126.617 73.9124 126.52 73.9716C126.425 74.0284 126.318 74.0568 126.2 74.0568ZM128.954 74.0568C128.779 74.0568 128.628 73.9941 128.503 73.8686C128.378 73.7431 128.315 73.5928 128.315 73.4176C128.315 73.2424 128.378 73.0921 128.503 72.9666C128.628 72.8411 128.779 72.7784 128.954 72.7784C129.129 72.7784 129.28 72.8411 129.405 72.9666C129.53 73.0921 129.593 73.2424 129.593 73.4176C129.593 73.5336 129.564 73.6402 129.504 73.7372C129.448 73.8343 129.371 73.9124 129.274 73.9716C129.179 74.0284 129.072 74.0568 128.954 74.0568ZM13.7614 78.7273V86H12.8807V78.7273H13.7614ZM19.0641 78.7273V86H18.226V78.7273H19.0641ZM22.815 86.1136C22.3226 86.1136 21.8905 85.9964 21.5188 85.7621C21.1495 85.5277 20.8607 85.1998 20.6523 84.7784C20.4464 84.357 20.3434 83.8646 20.3434 83.3011C20.3434 82.733 20.4464 82.237 20.6523 81.8132C20.8607 81.3894 21.1495 81.0604 21.5188 80.826C21.8905 80.5916 22.3226 80.4744 22.815 80.4744C23.3074 80.4744 23.7383 80.5916 24.1076 80.826C24.4793 81.0604 24.7681 81.3894 24.9741 81.8132C25.1824 82.237 25.2866 82.733 25.2866 83.3011C25.2866 83.8646 25.1824 84.357 24.9741 84.7784C24.7681 85.1998 24.4793 85.5277 24.1076 85.7621C23.7383 85.9964 23.3074 86.1136 22.815 86.1136ZM22.815 85.3608C23.189 85.3608 23.4968 85.2649 23.7383 85.0732C23.9798 84.8814 24.1585 84.6293 24.2745 84.3168C24.3905 84.0043 24.4485 83.6657 24.4485 83.3011C24.4485 82.9366 24.3905 82.5968 24.2745 82.282C24.1585 81.9671 23.9798 81.7126 23.7383 81.5185C23.4968 81.3243 23.189 81.2273 22.815 81.2273C22.4409 81.2273 22.1332 81.3243 21.8917 81.5185C21.6502 81.7126 21.4715 81.9671 21.3555 82.282C21.2395 82.5968 21.1815 82.9366 21.1815 83.3011C21.1815 83.6657 21.2395 84.0043 21.3555 84.3168C21.4715 84.6293 21.6502 84.8814 21.8917 85.0732C22.1332 85.2649 22.4409 85.3608 22.815 85.3608ZM30.8308 80.5455L28.8137 86H27.9615L25.9444 80.5455H26.8535L28.3592 84.892H28.416L29.9217 80.5455H30.8308ZM34.0286 86.1136C33.503 86.1136 33.0497 85.9976 32.6685 85.7656C32.2897 85.5312 31.9973 85.2045 31.7914 84.7855C31.5878 84.3641 31.486 83.8741 31.486 83.3153C31.486 82.7566 31.5878 82.2642 31.7914 81.8381C31.9973 81.4096 32.2838 81.0758 32.6507 80.8366C33.0201 80.5952 33.4509 80.4744 33.9434 80.4744C34.2275 80.4744 34.508 80.5218 34.785 80.6165C35.062 80.7112 35.3141 80.8651 35.5414 81.0781C35.7686 81.2888 35.9498 81.5682 36.0847 81.9162C36.2196 82.2642 36.2871 82.6927 36.2871 83.2017V83.5568H32.0826V82.8324H35.4348C35.4348 82.5246 35.3733 82.25 35.2502 82.0085C35.1294 81.767 34.9566 81.5765 34.7317 81.4368C34.5092 81.2971 34.2464 81.2273 33.9434 81.2273C33.6096 81.2273 33.3207 81.3101 33.0769 81.4759C32.8354 81.6392 32.6496 81.8523 32.5194 82.1151C32.3891 82.3778 32.324 82.6596 32.324 82.9602V83.4432C32.324 83.8551 32.3951 84.2043 32.5371 84.4908C32.6815 84.7749 32.8816 84.9915 33.1373 85.1406C33.3929 85.2874 33.69 85.3608 34.0286 85.3608C34.2488 85.3608 34.4476 85.33 34.6252 85.2685C34.8051 85.2045 34.9602 85.1098 35.0904 84.9844C35.2206 84.8565 35.3212 84.6979 35.3922 84.5085L36.2019 84.7358C36.1167 85.0104 35.9734 85.2519 35.7722 85.4602C35.571 85.6662 35.3224 85.8272 35.0265 85.9432C34.7305 86.0568 34.3979 86.1136 34.0286 86.1136ZM42.8034 80.5455V81.2557H39.8631V80.5455H42.8034ZM40.7438 86V79.7926C40.7438 79.4801 40.8172 79.2197 40.964 79.0114C41.1107 78.803 41.3013 78.6468 41.5357 78.5426C41.7701 78.4384 42.0175 78.3864 42.2779 78.3864C42.4838 78.3864 42.6519 78.4029 42.7821 78.4361C42.9123 78.4692 43.0094 78.5 43.0733 78.5284L42.8319 79.2528C42.7892 79.2386 42.7301 79.2209 42.6543 79.1996C42.5809 79.1783 42.4838 79.1676 42.3631 79.1676C42.0861 79.1676 41.8861 79.2375 41.763 79.3771C41.6422 79.5168 41.5819 79.7216 41.5819 79.9915V86H40.7438ZM47.4155 83.7699V80.5455H48.2536V86H47.4155V85.0767H47.3587C47.2308 85.3537 47.032 85.5893 46.7621 85.7834C46.4922 85.9751 46.1513 86.071 45.7393 86.071C45.3984 86.071 45.0954 85.9964 44.8303 85.8473C44.5651 85.6958 44.3568 85.4685 44.2053 85.1655C44.0537 84.8601 43.978 84.4754 43.978 84.0114V80.5455H44.8161V83.9545C44.8161 84.3523 44.9273 84.6695 45.1499 84.9062C45.3748 85.143 45.6612 85.2614 46.0092 85.2614C46.2176 85.2614 46.4295 85.2081 46.6449 85.1016C46.8627 84.995 47.045 84.8317 47.1918 84.6115C47.3409 84.3913 47.4155 84.1108 47.4155 83.7699ZM50.6266 82.7188V86H49.7885V80.5455H50.5982V81.3977H50.6692C50.7971 81.1207 50.9912 80.8982 51.2516 80.7301C51.512 80.5597 51.8482 80.4744 52.2601 80.4744C52.6294 80.4744 52.9526 80.5502 53.2296 80.7017C53.5066 80.8509 53.722 81.0781 53.8759 81.3835C54.0298 81.6866 54.1067 82.0701 54.1067 82.5341V86H53.2686V82.5909C53.2686 82.1624 53.1574 81.8286 52.9348 81.5895C52.7123 81.348 52.4069 81.2273 52.0186 81.2273C51.7511 81.2273 51.512 81.2853 51.3013 81.4013C51.093 81.5173 50.9284 81.6866 50.8077 81.9091C50.687 82.1316 50.6266 82.4015 50.6266 82.7188ZM57.854 86.1136C57.3427 86.1136 56.9023 85.9929 56.533 85.7514C56.1637 85.5099 55.8796 85.1773 55.6808 84.7536C55.4819 84.3298 55.3825 83.8456 55.3825 83.3011C55.3825 82.7472 55.4843 82.2583 55.6879 81.8345C55.8938 81.4084 56.1803 81.0758 56.5472 80.8366C56.9165 80.5952 57.3474 80.4744 57.8398 80.4744C58.2234 80.4744 58.569 80.5455 58.8768 80.6875C59.1845 80.8295 59.4367 81.0284 59.6332 81.2841C59.8297 81.5398 59.9516 81.8381 59.9989 82.179H59.1609C59.0969 81.9304 58.9549 81.7102 58.7347 81.5185C58.5169 81.3243 58.2234 81.2273 57.854 81.2273C57.5273 81.2273 57.2409 81.3125 56.9947 81.483C56.7508 81.651 56.5603 81.889 56.4229 82.1967C56.288 82.5021 56.2205 82.8608 56.2205 83.2727C56.2205 83.6941 56.2868 84.0611 56.4194 84.3736C56.5543 84.6861 56.7437 84.9287 56.9876 85.1016C57.2338 85.2744 57.5226 85.3608 57.854 85.3608C58.0719 85.3608 58.2695 85.3229 58.4471 85.2472C58.6246 85.1714 58.775 85.0625 58.8981 84.9205C59.0212 84.7784 59.1088 84.608 59.1609 84.4091H59.9989C59.9516 84.7311 59.8344 85.0211 59.6474 85.2791C59.4627 85.5348 59.2177 85.7384 58.9123 85.8899C58.6093 86.0391 58.2565 86.1136 57.854 86.1136ZM63.5962 80.5455V81.2557H60.7695V80.5455H63.5962ZM61.5934 79.2386H62.4315V84.4375C62.4315 84.6742 62.4658 84.8518 62.5344 84.9702C62.6055 85.0862 62.6954 85.1643 62.8043 85.2045C62.9156 85.2424 63.0328 85.2614 63.1559 85.2614C63.2482 85.2614 63.324 85.2566 63.3832 85.2472C63.4424 85.2353 63.4897 85.2259 63.5252 85.2188L63.6957 85.9716C63.6388 85.9929 63.5595 86.0142 63.4577 86.0355C63.3559 86.0592 63.2269 86.071 63.0707 86.071C62.8339 86.071 62.6019 86.0201 62.3746 85.9183C62.1497 85.8165 61.9627 85.6615 61.8136 85.4531C61.6668 85.2448 61.5934 84.982 61.5934 84.6648V79.2386ZM64.8569 86V80.5455H65.695V86H64.8569ZM65.283 79.6364C65.1197 79.6364 64.9788 79.5807 64.8604 79.4695C64.7444 79.3582 64.6864 79.2244 64.6864 79.0682C64.6864 78.9119 64.7444 78.7782 64.8604 78.6669C64.9788 78.5556 65.1197 78.5 65.283 78.5C65.4464 78.5 65.5861 78.5556 65.7021 78.6669C65.8204 78.7782 65.8796 78.9119 65.8796 79.0682C65.8796 79.2244 65.8204 79.3582 65.7021 79.4695C65.5861 79.5807 65.4464 79.6364 65.283 79.6364ZM69.4458 86.1136C68.9534 86.1136 68.5214 85.9964 68.1497 85.7621C67.7804 85.5277 67.4915 85.1998 67.2832 84.7784C67.0772 84.357 66.9743 83.8646 66.9743 83.3011C66.9743 82.733 67.0772 82.237 67.2832 81.8132C67.4915 81.3894 67.7804 81.0604 68.1497 80.826C68.5214 80.5916 68.9534 80.4744 69.4458 80.4744C69.9383 80.4744 70.3691 80.5916 70.7385 80.826C71.1101 81.0604 71.399 81.3894 71.6049 81.8132C71.8133 82.237 71.9174 82.733 71.9174 83.3011C71.9174 83.8646 71.8133 84.357 71.6049 84.7784C71.399 85.1998 71.1101 85.5277 70.7385 85.7621C70.3691 85.9964 69.9383 86.1136 69.4458 86.1136ZM69.4458 85.3608C69.8199 85.3608 70.1277 85.2649 70.3691 85.0732C70.6106 84.8814 70.7894 84.6293 70.9054 84.3168C71.0214 84.0043 71.0794 83.6657 71.0794 83.3011C71.0794 82.9366 71.0214 82.5968 70.9054 82.282C70.7894 81.9671 70.6106 81.7126 70.3691 81.5185C70.1277 81.3243 69.8199 81.2273 69.4458 81.2273C69.0718 81.2273 68.764 81.3243 68.5225 81.5185C68.2811 81.7126 68.1023 81.9671 67.9863 82.282C67.8703 82.5968 67.8123 82.9366 67.8123 83.3011C67.8123 83.6657 67.8703 84.0043 67.9863 84.3168C68.1023 84.6293 68.2811 84.8814 68.5225 85.0732C68.764 85.2649 69.0718 85.3608 69.4458 85.3608ZM74.0348 82.7188V86H73.1967V80.5455H74.0064V81.3977H74.0774C74.2053 81.1207 74.3994 80.8982 74.6598 80.7301C74.9202 80.5597 75.2564 80.4744 75.6683 80.4744C76.0376 80.4744 76.3608 80.5502 76.6378 80.7017C76.9148 80.8509 77.1302 81.0781 77.2841 81.3835C77.438 81.6866 77.5149 82.0701 77.5149 82.5341V86H76.6768V82.5909C76.6768 82.1624 76.5656 81.8286 76.343 81.5895C76.1205 81.348 75.8151 81.2273 75.4268 81.2273C75.1593 81.2273 74.9202 81.2853 74.7095 81.4013C74.5012 81.5173 74.3366 81.6866 74.2159 81.9091C74.0952 82.1316 74.0348 82.4015 74.0348 82.7188ZM80.6515 86.1278C80.3058 86.1278 79.9921 86.0627 79.7104 85.9325C79.4287 85.8 79.205 85.6094 79.0392 85.3608C78.8735 85.1098 78.7907 84.8068 78.7907 84.4517C78.7907 84.1392 78.8522 83.8859 78.9753 83.6918C79.0984 83.4953 79.263 83.3414 79.4689 83.2301C79.6749 83.1188 79.9022 83.036 80.1507 82.9815C80.4017 82.9247 80.6538 82.8797 80.9071 82.8466C81.2386 82.804 81.5073 82.772 81.7132 82.7507C81.9216 82.727 82.0731 82.688 82.1678 82.6335C82.2649 82.5791 82.3134 82.4844 82.3134 82.3494V82.321C82.3134 81.9706 82.2175 81.6984 82.0257 81.5043C81.8364 81.3101 81.5487 81.2131 81.1628 81.2131C80.7627 81.2131 80.449 81.3007 80.2218 81.4759C79.9945 81.651 79.8347 81.8381 79.7424 82.0369L78.9469 81.7528C79.089 81.4214 79.2783 81.1634 79.5151 80.9787C79.7542 80.7917 80.0146 80.6615 80.2963 80.5881C80.5804 80.5123 80.8598 80.4744 81.1344 80.4744C81.3096 80.4744 81.5108 80.4957 81.7381 80.5384C81.9677 80.5786 82.1891 80.6626 82.4022 80.7905C82.6176 80.9183 82.7963 81.1113 82.9384 81.3693C83.0804 81.6274 83.1515 81.973 83.1515 82.4062V86H82.3134V85.2614H82.2708C82.214 85.3797 82.1193 85.5064 81.9867 85.6413C81.8541 85.7763 81.6777 85.8911 81.4576 85.9858C81.2374 86.0805 80.9687 86.1278 80.6515 86.1278ZM80.7793 85.375C81.1107 85.375 81.3901 85.3099 81.6174 85.1797C81.847 85.0495 82.0198 84.8814 82.1358 84.6754C82.2542 84.4695 82.3134 84.2528 82.3134 84.0256V83.2585C82.2779 83.3011 82.1998 83.3402 82.079 83.3757C81.9606 83.4089 81.8233 83.4384 81.6671 83.4645C81.5132 83.4882 81.3629 83.5095 81.2161 83.5284C81.0717 83.545 80.9545 83.5592 80.8645 83.571C80.6467 83.5994 80.4431 83.6456 80.2537 83.7095C80.0667 83.7711 79.9152 83.8646 79.7992 83.9901C79.6855 84.1132 79.6287 84.2812 79.6287 84.4943C79.6287 84.7855 79.7364 85.0057 79.9519 85.1548C80.1697 85.3016 80.4455 85.375 80.7793 85.375ZM85.5192 78.7273V86H84.6811V78.7273H85.5192ZM92.0826 86.1136C91.5712 86.1136 91.1309 85.9929 90.7615 85.7514C90.3922 85.5099 90.1081 85.1773 89.9093 84.7536C89.7104 84.3298 89.611 83.8456 89.611 83.3011C89.611 82.7472 89.7128 82.2583 89.9164 81.8345C90.1223 81.4084 90.4088 81.0758 90.7757 80.8366C91.1451 80.5952 91.5759 80.4744 92.0684 80.4744C92.4519 80.4744 92.7975 80.5455 93.1053 80.6875C93.4131 80.8295 93.6652 81.0284 93.8617 81.2841C94.0582 81.5398 94.1801 81.8381 94.2275 82.179H93.3894C93.3255 81.9304 93.1834 81.7102 92.9632 81.5185C92.7454 81.3243 92.4519 81.2273 92.0826 81.2273C91.7559 81.2273 91.4694 81.3125 91.2232 81.483C90.9793 81.651 90.7888 81.889 90.6515 82.1967C90.5165 82.5021 90.449 82.8608 90.449 83.2727C90.449 83.6941 90.5153 84.0611 90.6479 84.3736C90.7828 84.6861 90.9722 84.9287 91.2161 85.1016C91.4623 85.2744 91.7511 85.3608 92.0826 85.3608C92.3004 85.3608 92.498 85.3229 92.6756 85.2472C92.8532 85.1714 93.0035 85.0625 93.1266 84.9205C93.2497 84.7784 93.3373 84.608 93.3894 84.4091H94.2275C94.1801 84.7311 94.0629 85.0211 93.8759 85.2791C93.6912 85.5348 93.4462 85.7384 93.1408 85.8899C92.8378 86.0391 92.485 86.1136 92.0826 86.1136ZM97.6685 86.1136C97.1761 86.1136 96.744 85.9964 96.3723 85.7621C96.003 85.5277 95.7142 85.1998 95.5059 84.7784C95.2999 84.357 95.1969 83.8646 95.1969 83.3011C95.1969 82.733 95.2999 82.237 95.5059 81.8132C95.7142 81.3894 96.003 81.0604 96.3723 80.826C96.744 80.5916 97.1761 80.4744 97.6685 80.4744C98.1609 80.4744 98.5918 80.5916 98.9611 80.826C99.3328 81.0604 99.6216 81.3894 99.8276 81.8132C100.036 82.237 100.14 82.733 100.14 83.3011C100.14 83.8646 100.036 84.357 99.8276 84.7784C99.6216 85.1998 99.3328 85.5277 98.9611 85.7621C98.5918 85.9964 98.1609 86.1136 97.6685 86.1136ZM97.6685 85.3608C98.0426 85.3608 98.3503 85.2649 98.5918 85.0732C98.8333 84.8814 99.012 84.6293 99.128 84.3168C99.244 84.0043 99.302 83.6657 99.302 83.3011C99.302 82.9366 99.244 82.5968 99.128 82.282C99.012 81.9671 98.8333 81.7126 98.5918 81.5185C98.3503 81.3243 98.0426 81.2273 97.6685 81.2273C97.2944 81.2273 96.9867 81.3243 96.7452 81.5185C96.5037 81.7126 96.325 81.9671 96.209 82.282C96.093 82.5968 96.035 82.9366 96.035 83.3011C96.035 83.6657 96.093 84.0043 96.209 84.3168C96.325 84.6293 96.5037 84.8814 96.7452 85.0732C96.9867 85.2649 97.2944 85.3608 97.6685 85.3608ZM101.419 86V80.5455H102.229V81.3977H102.3C102.414 81.1065 102.597 80.8804 102.85 80.7195C103.104 80.5561 103.408 80.4744 103.763 80.4744C104.123 80.4744 104.422 80.5561 104.662 80.7195C104.903 80.8804 105.091 81.1065 105.226 81.3977H105.283C105.423 81.116 105.632 80.8923 105.912 80.7266C106.191 80.5585 106.526 80.4744 106.917 80.4744C107.404 80.4744 107.803 80.6271 108.113 80.9325C108.423 81.2356 108.578 81.7079 108.578 82.3494V86H107.74V82.3494C107.74 81.947 107.63 81.6593 107.41 81.4865C107.19 81.3137 106.931 81.2273 106.632 81.2273C106.249 81.2273 105.952 81.3433 105.741 81.5753C105.53 81.8049 105.425 82.0961 105.425 82.4489V86H104.573V82.2642C104.573 81.9541 104.472 81.7043 104.271 81.5149C104.07 81.3232 103.81 81.2273 103.493 81.2273C103.275 81.2273 103.072 81.2853 102.882 81.4013C102.695 81.5173 102.544 81.6783 102.428 81.8842C102.314 82.0878 102.257 82.3234 102.257 82.5909V86H101.419ZM110.111 88.0455V80.5455H110.92V81.4119H111.02C111.081 81.3172 111.167 81.1965 111.276 81.0497C111.387 80.9006 111.545 80.768 111.751 80.652C111.96 80.5336 112.241 80.4744 112.597 80.4744C113.056 80.4744 113.461 80.5893 113.811 80.8189C114.161 81.0485 114.435 81.3741 114.631 81.7955C114.828 82.2169 114.926 82.714 114.926 83.2869C114.926 83.8646 114.828 84.3653 114.631 84.7891C114.435 85.2105 114.163 85.5372 113.815 85.7692C113.467 85.9988 113.065 86.1136 112.611 86.1136C112.26 86.1136 111.98 86.0556 111.769 85.9396C111.558 85.8213 111.396 85.6875 111.283 85.5384C111.169 85.3868 111.081 85.2614 111.02 85.1619H110.949V88.0455H110.111ZM110.935 83.2727C110.935 83.6847 110.995 84.0481 111.116 84.3629C111.237 84.6754 111.413 84.9205 111.645 85.098C111.877 85.2732 112.161 85.3608 112.497 85.3608C112.848 85.3608 113.14 85.2685 113.374 85.0838C113.611 84.8968 113.789 84.6458 113.907 84.331C114.028 84.0137 114.088 83.661 114.088 83.2727C114.088 82.8892 114.029 82.5436 113.911 82.2358C113.795 81.9257 113.618 81.6806 113.381 81.5007C113.147 81.3184 112.852 81.2273 112.497 81.2273C112.156 81.2273 111.87 81.3137 111.638 81.4865C111.406 81.657 111.231 81.8961 111.112 82.2038C110.994 82.5092 110.935 82.8655 110.935 83.2727ZM118.42 86.1136C117.928 86.1136 117.496 85.9964 117.124 85.7621C116.755 85.5277 116.466 85.1998 116.258 84.7784C116.052 84.357 115.949 83.8646 115.949 83.3011C115.949 82.733 116.052 82.237 116.258 81.8132C116.466 81.3894 116.755 81.0604 117.124 80.826C117.496 80.5916 117.928 80.4744 118.42 80.4744C118.913 80.4744 119.344 80.5916 119.713 80.826C120.085 81.0604 120.374 81.3894 120.58 81.8132C120.788 82.237 120.892 82.733 120.892 83.3011C120.892 83.8646 120.788 84.357 120.58 84.7784C120.374 85.1998 120.085 85.5277 119.713 85.7621C119.344 85.9964 118.913 86.1136 118.42 86.1136ZM118.42 85.3608C118.795 85.3608 119.102 85.2649 119.344 85.0732C119.585 84.8814 119.764 84.6293 119.88 84.3168C119.996 84.0043 120.054 83.6657 120.054 83.3011C120.054 82.9366 119.996 82.5968 119.88 82.282C119.764 81.9671 119.585 81.7126 119.344 81.5185C119.102 81.3243 118.795 81.2273 118.42 81.2273C118.046 81.2273 117.739 81.3243 117.497 81.5185C117.256 81.7126 117.077 81.9671 116.961 82.282C116.845 82.5968 116.787 82.9366 116.787 83.3011C116.787 83.6657 116.845 84.0043 116.961 84.3168C117.077 84.6293 117.256 84.8814 117.497 85.0732C117.739 85.2649 118.046 85.3608 118.42 85.3608ZM123.009 82.7188V86H122.171V80.5455H122.981V81.3977H123.052C123.18 81.1207 123.374 80.8982 123.634 80.7301C123.895 80.5597 124.231 80.4744 124.643 80.4744C125.012 80.4744 125.335 80.5502 125.612 80.7017C125.889 80.8509 126.105 81.0781 126.259 81.3835C126.413 81.6866 126.49 82.0701 126.49 82.5341V86H125.651V82.5909C125.651 82.1624 125.54 81.8286 125.318 81.5895C125.095 81.348 124.79 81.2273 124.401 81.2273C124.134 81.2273 123.895 81.2853 123.684 81.4013C123.476 81.5173 123.311 81.6866 123.191 81.9091C123.07 82.1316 123.009 82.4015 123.009 82.7188ZM130.308 86.1136C129.782 86.1136 129.329 85.9976 128.948 85.7656C128.569 85.5312 128.277 85.2045 128.071 84.7855C127.867 84.3641 127.765 83.8741 127.765 83.3153C127.765 82.7566 127.867 82.2642 128.071 81.8381C128.277 81.4096 128.563 81.0758 128.93 80.8366C129.299 80.5952 129.73 80.4744 130.223 80.4744C130.507 80.4744 130.787 80.5218 131.064 80.6165C131.341 80.7112 131.593 80.8651 131.821 81.0781C132.048 81.2888 132.229 81.5682 132.364 81.9162C132.499 82.2642 132.566 82.6927 132.566 83.2017V83.5568H128.362V82.8324H131.714C131.714 82.5246 131.653 82.25 131.529 82.0085C131.409 81.767 131.236 81.5765 131.011 81.4368C130.788 81.2971 130.526 81.2273 130.223 81.2273C129.889 81.2273 129.6 81.3101 129.356 81.4759C129.115 81.6392 128.929 81.8523 128.799 82.1151C128.668 82.3778 128.603 82.6596 128.603 82.9602V83.4432C128.603 83.8551 128.674 84.2043 128.816 84.4908C128.961 84.7749 129.161 84.9915 129.417 85.1406C129.672 85.2874 129.969 85.3608 130.308 85.3608C130.528 85.3608 130.727 85.33 130.904 85.2685C131.084 85.2045 131.239 85.1098 131.37 84.9844C131.5 84.8565 131.6 84.6979 131.672 84.5085L132.481 84.7358C132.396 85.0104 132.253 85.2519 132.051 85.4602C131.85 85.6662 131.602 85.8272 131.306 85.9432C131.01 86.0568 130.677 86.1136 130.308 86.1136ZM134.679 82.7188V86H133.841V80.5455H134.651V81.3977H134.722C134.85 81.1207 135.044 80.8982 135.304 80.7301C135.565 80.5597 135.901 80.4744 136.313 80.4744C136.682 80.4744 137.005 80.5502 137.282 80.7017C137.559 80.8509 137.775 81.0781 137.929 81.3835C138.083 81.6866 138.159 82.0701 138.159 82.5341V86H137.321V82.5909C137.321 82.1624 137.21 81.8286 136.988 81.5895C136.765 81.348 136.46 81.2273 136.071 81.2273C135.804 81.2273 135.565 81.2853 135.354 81.4013C135.146 81.5173 134.981 81.6866 134.86 81.9091C134.74 82.1316 134.679 82.4015 134.679 82.7188ZM142.063 80.5455V81.2557H139.236V80.5455H142.063ZM140.06 79.2386H140.898V84.4375C140.898 84.6742 140.933 84.8518 141.001 84.9702C141.072 85.0862 141.162 85.1643 141.271 85.2045C141.382 85.2424 141.5 85.2614 141.623 85.2614C141.715 85.2614 141.791 85.2566 141.85 85.2472C141.909 85.2353 141.956 85.2259 141.992 85.2188L142.162 85.9716C142.106 85.9929 142.026 86.0142 141.925 86.0355C141.823 86.0592 141.694 86.071 141.537 86.071C141.301 86.071 141.069 86.0201 140.841 85.9183C140.617 85.8165 140.43 85.6615 140.28 85.4531C140.134 85.2448 140.06 84.982 140.06 84.6648V79.2386ZM147.09 81.767L146.337 81.9801C146.289 81.8546 146.22 81.7327 146.127 81.6143C146.037 81.4936 145.914 81.3942 145.758 81.3161C145.602 81.2379 145.402 81.1989 145.158 81.1989C144.824 81.1989 144.546 81.2758 144.323 81.4297C144.103 81.5812 143.993 81.7741 143.993 82.0085C143.993 82.2169 144.069 82.3814 144.22 82.5021C144.372 82.6229 144.609 82.7235 144.931 82.804L145.74 83.0028C146.228 83.1212 146.591 83.3023 146.83 83.5462C147.07 83.7876 147.189 84.099 147.189 84.4801C147.189 84.7926 147.099 85.072 146.919 85.3182C146.742 85.5644 146.493 85.7585 146.173 85.9006C145.854 86.0426 145.482 86.1136 145.058 86.1136C144.502 86.1136 144.042 85.9929 143.677 85.7514C143.312 85.5099 143.082 85.1572 142.985 84.6932L143.78 84.4943C143.856 84.7879 143.999 85.008 144.21 85.1548C144.423 85.3016 144.701 85.375 145.044 85.375C145.435 85.375 145.745 85.2921 145.975 85.1264C146.207 84.9583 146.323 84.7571 146.323 84.5227C146.323 84.3333 146.256 84.1747 146.124 84.0469C145.991 83.9167 145.788 83.8196 145.513 83.7557L144.604 83.5426C144.104 83.4242 143.737 83.2408 143.503 82.9922C143.271 82.7412 143.155 82.4276 143.155 82.0511C143.155 81.7434 143.241 81.4711 143.414 81.2344C143.589 80.9976 143.827 80.8118 144.128 80.6768C144.431 80.5419 144.774 80.4744 145.158 80.4744C145.698 80.4744 146.121 80.5928 146.429 80.8295C146.739 81.0663 146.959 81.3788 147.09 81.767ZM149.701 85.0057L149.644 85.3892C149.604 85.6591 149.542 85.9479 149.459 86.2557C149.379 86.5634 149.295 86.8535 149.207 87.1257C149.119 87.398 149.047 87.6146 148.99 87.7756H148.351C148.382 87.6241 148.422 87.424 148.472 87.1754C148.522 86.9268 148.571 86.6487 148.621 86.3409C148.673 86.0355 148.716 85.723 148.749 85.4034L148.792 85.0057H149.701ZM14.8267 98.1136C14.3722 98.1136 13.9709 97.9988 13.6229 97.7692C13.2749 97.5372 13.0026 97.2105 12.8061 96.7891C12.6096 96.3653 12.5114 95.8646 12.5114 95.2869C12.5114 94.714 12.6096 94.2169 12.8061 93.7955C13.0026 93.3741 13.276 93.0485 13.6264 92.8189C13.9768 92.5893 14.3816 92.4744 14.8409 92.4744C15.196 92.4744 15.4766 92.5336 15.6825 92.652C15.8909 92.768 16.0495 92.9006 16.1584 93.0497C16.2696 93.1965 16.3561 93.3172 16.4176 93.4119H16.4886V90.7273H17.3267V98H16.517V97.1619H16.4176C16.3561 97.2614 16.2685 97.3868 16.1548 97.5384C16.0412 97.6875 15.879 97.8213 15.6683 97.9396C15.4576 98.0556 15.1771 98.1136 14.8267 98.1136ZM14.9403 97.3608C15.2765 97.3608 15.5606 97.2732 15.7926 97.098C16.0246 96.9205 16.201 96.6754 16.3217 96.3629C16.4425 96.0481 16.5028 95.6847 16.5028 95.2727C16.5028 94.8655 16.4437 94.5092 16.3253 94.2038C16.2069 93.8961 16.0317 93.657 15.7997 93.4865C15.5677 93.3137 15.2813 93.2273 14.9403 93.2273C14.5852 93.2273 14.2893 93.3184 14.0526 93.5007C13.8182 93.6806 13.6418 93.9257 13.5234 94.2358C13.4074 94.5436 13.3494 94.8892 13.3494 95.2727C13.3494 95.661 13.4086 96.0137 13.527 96.331C13.6477 96.6458 13.8253 96.8968 14.0597 97.0838C14.2964 97.2685 14.59 97.3608 14.9403 97.3608ZM21.2649 98.1136C20.7393 98.1136 20.286 97.9976 19.9048 97.7656C19.526 97.5312 19.2337 97.2045 19.0277 96.7855C18.8241 96.3641 18.7223 95.8741 18.7223 95.3153C18.7223 94.7566 18.8241 94.2642 19.0277 93.8381C19.2337 93.4096 19.5201 93.0758 19.8871 92.8366C20.2564 92.5952 20.6873 92.4744 21.1797 92.4744C21.4638 92.4744 21.7443 92.5218 22.0213 92.6165C22.2983 92.7112 22.5504 92.8651 22.7777 93.0781C23.005 93.2888 23.1861 93.5682 23.321 93.9162C23.456 94.2642 23.5234 94.6927 23.5234 95.2017V95.5568H19.3189V94.8324H22.6712C22.6712 94.5246 22.6096 94.25 22.4865 94.0085C22.3658 93.767 22.1929 93.5765 21.968 93.4368C21.7455 93.2971 21.4827 93.2273 21.1797 93.2273C20.8459 93.2273 20.5571 93.3101 20.3132 93.4759C20.0717 93.6392 19.8859 93.8523 19.7557 94.1151C19.6255 94.3778 19.5604 94.6596 19.5604 94.9602V95.4432C19.5604 95.8551 19.6314 96.2043 19.7734 96.4908C19.9179 96.7749 20.1179 96.9915 20.3736 97.1406C20.6293 97.2874 20.9264 97.3608 21.2649 97.3608C21.4851 97.3608 21.6839 97.33 21.8615 97.2685C22.0414 97.2045 22.1965 97.1098 22.3267 96.9844C22.4569 96.8565 22.5575 96.6979 22.6286 96.5085L23.4382 96.7358C23.353 97.0104 23.2098 97.2519 23.0085 97.4602C22.8073 97.6662 22.5587 97.8272 22.2628 97.9432C21.9669 98.0568 21.6342 98.1136 21.2649 98.1136ZM27.0142 98.1136C26.5028 98.1136 26.0625 97.9929 25.6932 97.7514C25.3239 97.5099 25.0398 97.1773 24.8409 96.7536C24.642 96.3298 24.5426 95.8456 24.5426 95.3011C24.5426 94.7472 24.6444 94.2583 24.848 93.8345C25.054 93.4084 25.3404 93.0758 25.7074 92.8366C26.0767 92.5952 26.5076 92.4744 27 92.4744C27.3835 92.4744 27.7292 92.5455 28.0369 92.6875C28.3447 92.8295 28.5968 93.0284 28.7933 93.2841C28.9898 93.5398 29.1117 93.8381 29.1591 94.179H28.321C28.2571 93.9304 28.1151 93.7102 27.8949 93.5185C27.6771 93.3243 27.3835 93.2273 27.0142 93.2273C26.6875 93.2273 26.401 93.3125 26.1548 93.483C25.911 93.651 25.7204 93.889 25.5831 94.1967C25.4482 94.5021 25.3807 94.8608 25.3807 95.2727C25.3807 95.6941 25.447 96.0611 25.5795 96.3736C25.7145 96.6861 25.9039 96.9287 26.1477 97.1016C26.3939 97.2744 26.6828 97.3608 27.0142 97.3608C27.232 97.3608 27.4297 97.3229 27.6072 97.2472C27.7848 97.1714 27.9351 97.0625 28.0582 96.9205C28.1813 96.7784 28.2689 96.608 28.321 96.4091H29.1591C29.1117 96.7311 28.9946 97.0211 28.8075 97.2791C28.6229 97.5348 28.3778 97.7384 28.0724 97.8899C27.7694 98.0391 27.4167 98.1136 27.0142 98.1136ZM31.2223 90.7273V98H30.3842V90.7273H31.2223ZM34.3624 98.1278C34.0167 98.1278 33.7031 98.0627 33.4213 97.9325C33.1396 97.8 32.9159 97.6094 32.7502 97.3608C32.5845 97.1098 32.5016 96.8068 32.5016 96.4517C32.5016 96.1392 32.5632 95.8859 32.6863 95.6918C32.8094 95.4953 32.9739 95.3414 33.1799 95.2301C33.3858 95.1188 33.6131 95.036 33.8617 94.9815C34.1126 94.9247 34.3648 94.8797 34.6181 94.8466C34.9495 94.804 35.2182 94.772 35.4242 94.7507C35.6325 94.727 35.784 94.688 35.8787 94.6335C35.9758 94.5791 36.0243 94.4844 36.0243 94.3494V94.321C36.0243 93.9706 35.9284 93.6984 35.7367 93.5043C35.5473 93.3101 35.2596 93.2131 34.8738 93.2131C34.4737 93.2131 34.16 93.3007 33.9327 93.4759C33.7054 93.651 33.5456 93.8381 33.4533 94.0369L32.6578 93.7528C32.7999 93.4214 32.9893 93.1634 33.226 92.9787C33.4651 92.7917 33.7256 92.6615 34.0073 92.5881C34.2914 92.5123 34.5707 92.4744 34.8453 92.4744C35.0205 92.4744 35.2218 92.4957 35.449 92.5384C35.6787 92.5786 35.9 92.6626 36.1131 92.7905C36.3285 92.9183 36.5073 93.1113 36.6493 93.3693C36.7914 93.6274 36.8624 93.973 36.8624 94.4062V98H36.0243V97.2614H35.9817C35.9249 97.3797 35.8302 97.5064 35.6976 97.6413C35.565 97.7763 35.3887 97.8911 35.1685 97.9858C34.9483 98.0805 34.6796 98.1278 34.3624 98.1278ZM34.4902 97.375C34.8217 97.375 35.101 97.3099 35.3283 97.1797C35.5579 97.0495 35.7308 96.8814 35.8468 96.6754C35.9651 96.4695 36.0243 96.2528 36.0243 96.0256V95.2585C35.9888 95.3011 35.9107 95.3402 35.79 95.3757C35.6716 95.4089 35.5343 95.4384 35.378 95.4645C35.2241 95.4882 35.0738 95.5095 34.927 95.5284C34.7826 95.545 34.6654 95.5592 34.5755 95.571C34.3577 95.5994 34.1541 95.6456 33.9647 95.7095C33.7776 95.7711 33.6261 95.8646 33.5101 95.9901C33.3965 96.1132 33.3397 96.2812 33.3397 96.4943C33.3397 96.7855 33.4474 97.0057 33.6628 97.1548C33.8806 97.3016 34.1564 97.375 34.4902 97.375ZM38.392 98V92.5455H39.2017V93.3693H39.2585C39.358 93.0994 39.5379 92.8804 39.7983 92.7124C40.0587 92.5443 40.3523 92.4602 40.679 92.4602C40.7405 92.4602 40.8175 92.4614 40.9098 92.4638C41.0021 92.4661 41.072 92.4697 41.1193 92.4744V93.3267C41.0909 93.3196 41.0258 93.3089 40.924 93.2947C40.8246 93.2782 40.7192 93.2699 40.608 93.2699C40.3428 93.2699 40.1061 93.3255 39.8977 93.4368C39.6918 93.5457 39.5284 93.6972 39.4077 93.8913C39.2893 94.0831 39.2301 94.3021 39.2301 94.5483V98H38.392ZM43.7179 98.1278C43.3722 98.1278 43.0585 98.0627 42.7768 97.9325C42.4951 97.8 42.2714 97.6094 42.1056 97.3608C41.9399 97.1098 41.8571 96.8068 41.8571 96.4517C41.8571 96.1392 41.9186 95.8859 42.0417 95.6918C42.1648 95.4953 42.3294 95.3414 42.5353 95.2301C42.7413 95.1188 42.9686 95.036 43.2172 94.9815C43.4681 94.9247 43.7202 94.8797 43.9735 94.8466C44.305 94.804 44.5737 94.772 44.7797 94.7507C44.988 94.727 45.1395 94.688 45.2342 94.6335C45.3313 94.5791 45.3798 94.4844 45.3798 94.3494V94.321C45.3798 93.9706 45.2839 93.6984 45.0922 93.5043C44.9028 93.3101 44.6151 93.2131 44.2292 93.2131C43.8291 93.2131 43.5154 93.3007 43.2882 93.4759C43.0609 93.651 42.9011 93.8381 42.8088 94.0369L42.0133 93.7528C42.1554 93.4214 42.3448 93.1634 42.5815 92.9787C42.8206 92.7917 43.081 92.6615 43.3627 92.5881C43.6468 92.5123 43.9262 92.4744 44.2008 92.4744C44.376 92.4744 44.5772 92.4957 44.8045 92.5384C45.0342 92.5786 45.2555 92.6626 45.4686 92.7905C45.684 92.9183 45.8627 93.1113 46.0048 93.3693C46.1468 93.6274 46.2179 93.973 46.2179 94.4062V98H45.3798V97.2614H45.3372C45.2804 97.3797 45.1857 97.5064 45.0531 97.6413C44.9205 97.7763 44.7441 97.8911 44.524 97.9858C44.3038 98.0805 44.0351 98.1278 43.7179 98.1278ZM43.8457 97.375C44.1771 97.375 44.4565 97.3099 44.6838 97.1797C44.9134 97.0495 45.0862 96.8814 45.2022 96.6754C45.3206 96.4695 45.3798 96.2528 45.3798 96.0256V95.2585C45.3443 95.3011 45.2662 95.3402 45.1454 95.3757C45.027 95.4089 44.8897 95.4384 44.7335 95.4645C44.5796 95.4882 44.4293 95.5095 44.2825 95.5284C44.1381 95.545 44.0209 95.5592 43.9309 95.571C43.7131 95.5994 43.5095 95.6456 43.3201 95.7095C43.1331 95.7711 42.9816 95.8646 42.8656 95.9901C42.752 96.1132 42.6951 96.2812 42.6951 96.4943C42.6951 96.7855 42.8029 97.0057 43.0183 97.1548C43.2361 97.3016 43.5119 97.375 43.8457 97.375ZM50.1197 92.5455V93.2557H47.293V92.5455H50.1197ZM48.1168 91.2386H48.9549V96.4375C48.9549 96.6742 48.9892 96.8518 49.0579 96.9702C49.1289 97.0862 49.2189 97.1643 49.3278 97.2045C49.439 97.2424 49.5562 97.2614 49.6793 97.2614C49.7717 97.2614 49.8474 97.2566 49.9066 97.2472C49.9658 97.2353 50.0131 97.2259 50.0487 97.2188L50.2191 97.9716C50.1623 97.9929 50.083 98.0142 49.9812 98.0355C49.8794 98.0592 49.7504 98.071 49.5941 98.071C49.3574 98.071 49.1254 98.0201 48.8981 97.9183C48.6732 97.8165 48.4862 97.6615 48.337 97.4531C48.1902 97.2448 48.1168 96.982 48.1168 96.6648V91.2386ZM51.3803 98V92.5455H52.2184V98H51.3803ZM51.8065 91.6364C51.6431 91.6364 51.5022 91.5807 51.3839 91.4695C51.2679 91.3582 51.2099 91.2244 51.2099 91.0682C51.2099 90.9119 51.2679 90.7782 51.3839 90.6669C51.5022 90.5556 51.6431 90.5 51.8065 90.5C51.9698 90.5 52.1095 90.5556 52.2255 90.6669C52.3439 90.7782 52.4031 90.9119 52.4031 91.0682C52.4031 91.2244 52.3439 91.3582 52.2255 91.4695C52.1095 91.5807 51.9698 91.6364 51.8065 91.6364ZM58.2136 92.5455L56.1966 98H55.3443L53.3272 92.5455H54.2363L55.742 96.892H55.7988L57.3045 92.5455H58.2136ZM61.4114 98.1136C60.8858 98.1136 60.4325 97.9976 60.0513 97.7656C59.6725 97.5312 59.3801 97.2045 59.1742 96.7855C58.9706 96.3641 58.8688 95.8741 58.8688 95.3153C58.8688 94.7566 58.9706 94.2642 59.1742 93.8381C59.3801 93.4096 59.6666 93.0758 60.0336 92.8366C60.4029 92.5952 60.8337 92.4744 61.3262 92.4744C61.6103 92.4744 61.8908 92.5218 62.1678 92.6165C62.4448 92.7112 62.6969 92.8651 62.9242 93.0781C63.1515 93.2888 63.3326 93.5682 63.4675 93.9162C63.6025 94.2642 63.6699 94.6927 63.6699 95.2017V95.5568H59.4654V94.8324H62.8176C62.8176 94.5246 62.7561 94.25 62.633 94.0085C62.5123 93.767 62.3394 93.5765 62.1145 93.4368C61.892 93.2971 61.6292 93.2273 61.3262 93.2273C60.9924 93.2273 60.7035 93.3101 60.4597 93.4759C60.2182 93.6392 60.0324 93.8523 59.9022 94.1151C59.772 94.3778 59.7069 94.6596 59.7069 94.9602V95.4432C59.7069 95.8551 59.7779 96.2043 59.9199 96.4908C60.0643 96.7749 60.2644 96.9915 60.5201 97.1406C60.7757 97.2874 61.0729 97.3608 61.4114 97.3608C61.6316 97.3608 61.8304 97.33 62.008 97.2685C62.1879 97.2045 62.343 97.1098 62.4732 96.9844C62.6034 96.8565 62.704 96.6979 62.775 96.5085L63.5847 96.7358C63.4995 97.0104 63.3562 97.2519 63.155 97.4602C62.9538 97.6662 62.7052 97.8272 62.4093 97.9432C62.1133 98.0568 61.7807 98.1136 61.4114 98.1136ZM72.6436 90.7273H73.5243V95.5426C73.5243 96.0398 73.4071 96.4837 73.1728 96.8743C72.9408 97.2625 72.6129 97.5691 72.1891 97.794C71.7653 98.0166 71.2682 98.1278 70.6976 98.1278C70.1271 98.1278 69.6299 98.0166 69.2061 97.794C68.7824 97.5691 68.4533 97.2625 68.2189 96.8743C67.9869 96.4837 67.8709 96.0398 67.8709 95.5426V90.7273H68.7516V95.4716C68.7516 95.8267 68.8297 96.1428 68.986 96.4197C69.1422 96.6944 69.3648 96.911 69.6536 97.0696C69.9448 97.2259 70.2928 97.304 70.6976 97.304C71.1025 97.304 71.4505 97.2259 71.7417 97.0696C72.0328 96.911 72.2554 96.6944 72.4093 96.4197C72.5655 96.1428 72.6436 95.8267 72.6436 95.4716V90.7273ZM76.1637 90.7273V98H75.283V90.7273H76.1637ZM81.6795 93.767L80.9267 93.9801C80.8793 93.8546 80.8095 93.7327 80.7172 93.6143C80.6272 93.4936 80.5041 93.3942 80.3478 93.3161C80.1916 93.2379 79.9915 93.1989 79.7477 93.1989C79.4139 93.1989 79.1357 93.2758 78.9132 93.4297C78.693 93.5812 78.5829 93.7741 78.5829 94.0085C78.5829 94.2169 78.6587 94.3814 78.8102 94.5021C78.9617 94.6229 79.1984 94.7235 79.5204 94.804L80.3301 95.0028C80.8178 95.1212 81.1812 95.3023 81.4203 95.5462C81.6594 95.7876 81.7789 96.099 81.7789 96.4801C81.7789 96.7926 81.689 97.072 81.5091 97.3182C81.3315 97.5644 81.0829 97.7585 80.7633 97.9006C80.4437 98.0426 80.072 98.1136 79.6483 98.1136C79.0919 98.1136 78.6315 97.9929 78.2669 97.7514C77.9023 97.5099 77.6715 97.1572 77.5744 96.6932L78.3699 96.4943C78.4456 96.7879 78.5888 97.008 78.7995 97.1548C79.0126 97.3016 79.2908 97.375 79.6341 97.375C80.0247 97.375 80.3348 97.2921 80.5645 97.1264C80.7965 96.9583 80.9125 96.7571 80.9125 96.5227C80.9125 96.3333 80.8462 96.1747 80.7136 96.0469C80.581 95.9167 80.3774 95.8196 80.1028 95.7557L79.1937 95.5426C78.6942 95.4242 78.3272 95.2408 78.0929 94.9922C77.8609 94.7412 77.7449 94.4276 77.7449 94.0511C77.7449 93.7434 77.8313 93.4711 78.0041 93.2344C78.1793 92.9976 78.4172 92.8118 78.7179 92.6768C79.0209 92.5419 79.3642 92.4744 79.7477 92.4744C80.2875 92.4744 80.7112 92.5928 81.019 92.8295C81.3291 93.0663 81.5493 93.3788 81.6795 93.767ZM84.2905 97.0057L84.2337 97.3892C84.1934 97.6591 84.1319 97.9479 84.049 98.2557C83.9685 98.5634 83.8845 98.8535 83.7969 99.1257C83.7093 99.398 83.6371 99.6146 83.5803 99.7756H82.9411C82.9718 99.6241 83.0121 99.424 83.0618 99.1754C83.1115 98.9268 83.1612 98.6487 83.2109 98.3409C83.263 98.0355 83.3056 97.723 83.3388 97.4034L83.3814 97.0057H84.2905ZM90.2608 98.1278C89.9152 98.1278 89.6015 98.0627 89.3198 97.9325C89.0381 97.8 88.8143 97.6094 88.6486 97.3608C88.4829 97.1098 88.4 96.8068 88.4 96.4517C88.4 96.1392 88.4616 95.8859 88.5847 95.6918C88.7078 95.4953 88.8723 95.3414 89.0783 95.2301C89.2843 95.1188 89.5115 95.036 89.7601 94.9815C90.0111 94.9247 90.2632 94.8797 90.5165 94.8466C90.848 94.804 91.1167 94.772 91.3226 94.7507C91.531 94.727 91.6825 94.688 91.7772 94.6335C91.8742 94.5791 91.9228 94.4844 91.9228 94.3494V94.321C91.9228 93.9706 91.8269 93.6984 91.6351 93.5043C91.4457 93.3101 91.1581 93.2131 90.7722 93.2131C90.3721 93.2131 90.0584 93.3007 89.8311 93.4759C89.6039 93.651 89.4441 93.8381 89.3517 94.0369L88.5563 93.7528C88.6983 93.4214 88.8877 93.1634 89.1245 92.9787C89.3636 92.7917 89.624 92.6615 89.9057 92.5881C90.1898 92.5123 90.4692 92.4744 90.7438 92.4744C90.919 92.4744 91.1202 92.4957 91.3475 92.5384C91.5771 92.5786 91.7985 92.6626 92.0115 92.7905C92.227 92.9183 92.4057 93.1113 92.5478 93.3693C92.6898 93.6274 92.7608 93.973 92.7608 94.4062V98H91.9228V97.2614H91.8801C91.8233 97.3797 91.7286 97.5064 91.5961 97.6413C91.4635 97.7763 91.2871 97.8911 91.0669 97.9858C90.8468 98.0805 90.5781 98.1278 90.2608 98.1278ZM90.3887 97.375C90.7201 97.375 90.9995 97.3099 91.2267 97.1797C91.4564 97.0495 91.6292 96.8814 91.7452 96.6754C91.8636 96.4695 91.9228 96.2528 91.9228 96.0256V95.2585C91.8873 95.3011 91.8091 95.3402 91.6884 95.3757C91.57 95.4089 91.4327 95.4384 91.2765 95.4645C91.1226 95.4882 90.9722 95.5095 90.8255 95.5284C90.681 95.545 90.5639 95.5592 90.4739 95.571C90.2561 95.5994 90.0525 95.6456 89.8631 95.7095C89.6761 95.7711 89.5246 95.8646 89.4086 95.9901C89.2949 96.1132 89.2381 96.2812 89.2381 96.4943C89.2381 96.7855 89.3458 97.0057 89.5613 97.1548C89.7791 97.3016 90.0549 97.375 90.3887 97.375ZM95.1286 94.7188V98H94.2905V92.5455H95.1001V93.3977H95.1712C95.299 93.1207 95.4931 92.8982 95.7536 92.7301C96.014 92.5597 96.3501 92.4744 96.7621 92.4744C97.1314 92.4744 97.4545 92.5502 97.7315 92.7017C98.0085 92.8509 98.224 93.0781 98.3778 93.3835C98.5317 93.6866 98.6087 94.0701 98.6087 94.5341V98H97.7706V94.5909C97.7706 94.1624 97.6593 93.8286 97.4368 93.5895C97.2143 93.348 96.9089 93.2273 96.5206 93.2273C96.2531 93.2273 96.014 93.2853 95.8033 93.4013C95.5949 93.5173 95.4304 93.6866 95.3097 93.9091C95.1889 94.1316 95.1286 94.4015 95.1286 94.7188ZM102.2 98.1136C101.745 98.1136 101.344 97.9988 100.996 97.7692C100.648 97.5372 100.376 97.2105 100.179 96.7891C99.9827 96.3653 99.8844 95.8646 99.8844 95.2869C99.8844 94.714 99.9827 94.2169 100.179 93.7955C100.376 93.3741 100.649 93.0485 100.999 92.8189C101.35 92.5893 101.755 92.4744 102.214 92.4744C102.569 92.4744 102.85 92.5336 103.056 92.652C103.264 92.768 103.423 92.9006 103.531 93.0497C103.643 93.1965 103.729 93.3172 103.791 93.4119H103.862V90.7273H104.7V98H103.89V97.1619H103.791C103.729 97.2614 103.642 97.3868 103.528 97.5384C103.414 97.6875 103.252 97.8213 103.041 97.9396C102.831 98.0556 102.55 98.1136 102.2 98.1136ZM102.313 97.3608C102.65 97.3608 102.934 97.2732 103.166 97.098C103.398 96.9205 103.574 96.6754 103.695 96.3629C103.816 96.0481 103.876 95.6847 103.876 95.2727C103.876 94.8655 103.817 94.5092 103.698 94.2038C103.58 93.8961 103.405 93.657 103.173 93.4865C102.941 93.3137 102.654 93.2273 102.313 93.2273C101.958 93.2273 101.662 93.3184 101.426 93.5007C101.191 93.6806 101.015 93.9257 100.896 94.2358C100.78 94.5436 100.722 94.8892 100.722 95.2727C100.722 95.661 100.782 96.0137 100.9 96.331C101.021 96.6458 101.198 96.8968 101.433 97.0838C101.669 97.2685 101.963 97.3608 102.313 97.3608ZM108.879 91.5085V90.7273H114.334V91.5085H112.047V98H111.166V91.5085H108.879ZM115.494 100.045C115.352 100.045 115.226 100.034 115.114 100.01C115.003 99.9886 114.926 99.9673 114.884 99.946L115.097 99.2074C115.3 99.2595 115.48 99.2784 115.636 99.2642C115.793 99.25 115.931 99.1802 116.052 99.0547C116.175 98.9316 116.287 98.7315 116.389 98.4545L116.545 98.0284L114.528 92.5455H115.438L116.943 96.892H117L118.506 92.5455H119.415L117.099 98.7955C116.995 99.0772 116.866 99.3104 116.712 99.495C116.558 99.6821 116.38 99.8205 116.176 99.9105C115.975 100 115.748 100.045 115.494 100.045ZM120.521 100.045V92.5455H121.331V93.4119H121.43C121.492 93.3172 121.577 93.1965 121.686 93.0497C121.797 92.9006 121.956 92.768 122.162 92.652C122.37 92.5336 122.652 92.4744 123.007 92.4744C123.466 92.4744 123.871 92.5893 124.221 92.8189C124.572 93.0485 124.845 93.3741 125.042 93.7955C125.238 94.2169 125.336 94.714 125.336 95.2869C125.336 95.8646 125.238 96.3653 125.042 96.7891C124.845 97.2105 124.573 97.5372 124.225 97.7692C123.877 97.9988 123.475 98.1136 123.021 98.1136C122.671 98.1136 122.39 98.0556 122.179 97.9396C121.969 97.8213 121.806 97.6875 121.693 97.5384C121.579 97.3868 121.492 97.2614 121.43 97.1619H121.359V100.045H120.521ZM121.345 95.2727C121.345 95.6847 121.405 96.0481 121.526 96.3629C121.647 96.6754 121.823 96.9205 122.055 97.098C122.287 97.2732 122.571 97.3608 122.907 97.3608C123.258 97.3608 123.55 97.2685 123.784 97.0838C124.021 96.8968 124.199 96.6458 124.317 96.331C124.438 96.0137 124.498 95.661 124.498 95.2727C124.498 94.8892 124.439 94.5436 124.321 94.2358C124.205 93.9257 124.028 93.6806 123.792 93.5007C123.557 93.3184 123.262 93.2273 122.907 93.2273C122.566 93.2273 122.28 93.3137 122.048 93.4865C121.816 93.657 121.641 93.8961 121.522 94.2038C121.404 94.5092 121.345 94.8655 121.345 95.2727ZM128.902 98.1136C128.376 98.1136 127.923 97.9976 127.542 97.7656C127.163 97.5312 126.87 97.2045 126.664 96.7855C126.461 96.3641 126.359 95.8741 126.359 95.3153C126.359 94.7566 126.461 94.2642 126.664 93.8381C126.87 93.4096 127.157 93.0758 127.524 92.8366C127.893 92.5952 128.324 92.4744 128.816 92.4744C129.1 92.4744 129.381 92.5218 129.658 92.6165C129.935 92.7112 130.187 92.8651 130.414 93.0781C130.642 93.2888 130.823 93.5682 130.958 93.9162C131.093 94.2642 131.16 94.6927 131.16 95.2017V95.5568H126.956V94.8324H130.308C130.308 94.5246 130.246 94.25 130.123 94.0085C130.002 93.767 129.83 93.5765 129.605 93.4368C129.382 93.2971 129.119 93.2273 128.816 93.2273C128.483 93.2273 128.194 93.3101 127.95 93.4759C127.708 93.6392 127.523 93.8523 127.392 94.1151C127.262 94.3778 127.197 94.6596 127.197 94.9602V95.4432C127.197 95.8551 127.268 96.2043 127.41 96.4908C127.555 96.7749 127.755 96.9915 128.01 97.1406C128.266 97.2874 128.563 97.3608 128.902 97.3608C129.122 97.3608 129.321 97.33 129.498 97.2685C129.678 97.2045 129.833 97.1098 129.963 96.9844C130.094 96.8565 130.194 96.6979 130.265 96.5085L131.075 96.7358C130.99 97.0104 130.846 97.2519 130.645 97.4602C130.444 97.6662 130.195 97.8272 129.9 97.9432C129.604 98.0568 129.271 98.1136 128.902 98.1136ZM136.526 92.5455C136.483 92.1856 136.31 91.9062 136.007 91.7074C135.704 91.5085 135.333 91.4091 134.892 91.4091C134.57 91.4091 134.289 91.4612 134.047 91.5653C133.808 91.6695 133.621 91.8127 133.486 91.995C133.354 92.1773 133.287 92.3845 133.287 92.6165C133.287 92.8106 133.333 92.9775 133.426 93.1172C133.52 93.2545 133.641 93.3693 133.788 93.4616C133.935 93.5516 134.089 93.6262 134.25 93.6854C134.411 93.7422 134.559 93.7884 134.694 93.8239L135.432 94.0227C135.622 94.0724 135.832 94.1411 136.064 94.2287C136.299 94.3163 136.522 94.4358 136.735 94.5874C136.951 94.7365 137.128 94.9283 137.268 95.1626C137.408 95.397 137.478 95.6847 137.478 96.0256C137.478 96.4186 137.375 96.7737 137.169 97.0909C136.965 97.4081 136.667 97.6603 136.274 97.8473C135.883 98.0343 135.408 98.1278 134.85 98.1278C134.329 98.1278 133.878 98.0438 133.497 97.8757C133.118 97.7076 132.82 97.4732 132.602 97.1726C132.386 96.8719 132.265 96.5227 132.236 96.125H133.145C133.169 96.3996 133.261 96.6269 133.422 96.8068C133.586 96.9844 133.792 97.117 134.04 97.2045C134.291 97.2898 134.561 97.3324 134.85 97.3324C135.186 97.3324 135.488 97.2779 135.755 97.169C136.023 97.0578 136.235 96.9039 136.391 96.7074C136.547 96.5085 136.625 96.2765 136.625 96.0114C136.625 95.7699 136.558 95.5734 136.423 95.4219C136.288 95.2704 136.11 95.1473 135.89 95.0526C135.67 94.9579 135.432 94.875 135.176 94.804L134.282 94.5483C133.713 94.3849 133.264 94.1518 132.932 93.8487C132.601 93.5457 132.435 93.1491 132.435 92.6591C132.435 92.2519 132.545 91.8968 132.765 91.5938C132.988 91.2884 133.286 91.0516 133.66 90.8835C134.037 90.7131 134.457 90.6278 134.921 90.6278C135.39 90.6278 135.806 90.7119 136.171 90.88C136.535 91.0457 136.824 91.273 137.037 91.5618C137.253 91.8506 137.366 92.1785 137.378 92.5455H136.526ZM141.028 98.1136C140.517 98.1136 140.076 97.9929 139.707 97.7514C139.338 97.5099 139.053 97.1773 138.855 96.7536C138.656 96.3298 138.556 95.8456 138.556 95.3011C138.556 94.7472 138.658 94.2583 138.862 93.8345C139.068 93.4084 139.354 93.0758 139.721 92.8366C140.09 92.5952 140.521 92.4744 141.014 92.4744C141.397 92.4744 141.743 92.5455 142.051 92.6875C142.358 92.8295 142.61 93.0284 142.807 93.2841C143.003 93.5398 143.125 93.8381 143.173 94.179H142.335C142.271 93.9304 142.129 93.7102 141.909 93.5185C141.691 93.3243 141.397 93.2273 141.028 93.2273C140.701 93.2273 140.415 93.3125 140.169 93.483C139.925 93.651 139.734 93.889 139.597 94.1967C139.462 94.5021 139.394 94.8608 139.394 95.2727C139.394 95.6941 139.461 96.0611 139.593 96.3736C139.728 96.6861 139.918 96.9287 140.161 97.1016C140.408 97.2744 140.696 97.3608 141.028 97.3608C141.246 97.3608 141.443 97.3229 141.621 97.2472C141.798 97.1714 141.949 97.0625 142.072 96.9205C142.195 96.7784 142.283 96.608 142.335 96.4091H143.173C143.125 96.7311 143.008 97.0211 142.821 97.2791C142.637 97.5348 142.392 97.7384 142.086 97.8899C141.783 98.0391 141.43 98.1136 141.028 98.1136ZM144.398 98V92.5455H145.208V93.3693H145.264C145.364 93.0994 145.544 92.8804 145.804 92.7124C146.065 92.5443 146.358 92.4602 146.685 92.4602C146.746 92.4602 146.823 92.4614 146.916 92.4638C147.008 92.4661 147.078 92.4697 147.125 92.4744V93.3267C147.097 93.3196 147.032 93.3089 146.93 93.2947C146.83 93.2782 146.725 93.2699 146.614 93.2699C146.349 93.2699 146.112 93.3255 145.904 93.4368C145.698 93.5457 145.534 93.6972 145.414 93.8913C145.295 94.0831 145.236 94.3021 145.236 94.5483V98H144.398ZM148.119 98V92.5455H148.957V98H148.119ZM148.545 91.6364C148.381 91.6364 148.241 91.5807 148.122 91.4695C148.006 91.3582 147.948 91.2244 147.948 91.0682C147.948 90.9119 148.006 90.7782 148.122 90.6669C148.241 90.5556 148.381 90.5 148.545 90.5C148.708 90.5 148.848 90.5556 148.964 90.6669C149.082 90.7782 149.141 90.9119 149.141 91.0682C149.141 91.2244 149.082 91.3582 148.964 91.4695C148.848 91.5807 148.708 91.6364 148.545 91.6364ZM150.492 100.045V92.5455H151.301V93.4119H151.401C151.462 93.3172 151.548 93.1965 151.656 93.0497C151.768 92.9006 151.926 92.768 152.132 92.652C152.341 92.5336 152.622 92.4744 152.977 92.4744C153.437 92.4744 153.842 92.5893 154.192 92.8189C154.542 93.0485 154.816 93.3741 155.012 93.7955C155.209 94.2169 155.307 94.714 155.307 95.2869C155.307 95.8646 155.209 96.3653 155.012 96.7891C154.816 97.2105 154.544 97.5372 154.195 97.7692C153.847 97.9988 153.446 98.1136 152.992 98.1136C152.641 98.1136 152.361 98.0556 152.15 97.9396C151.939 97.8213 151.777 97.6875 151.664 97.5384C151.55 97.3868 151.462 97.2614 151.401 97.1619H151.33V100.045H150.492ZM151.316 95.2727C151.316 95.6847 151.376 96.0481 151.497 96.3629C151.617 96.6754 151.794 96.9205 152.026 97.098C152.258 97.2732 152.542 97.3608 152.878 97.3608C153.228 97.3608 153.521 97.2685 153.755 97.0838C153.992 96.8968 154.169 96.6458 154.288 96.331C154.409 96.0137 154.469 95.661 154.469 95.2727C154.469 94.8892 154.41 94.5436 154.291 94.2358C154.175 93.9257 153.999 93.6806 153.762 93.5007C153.528 93.3184 153.233 93.2273 152.878 93.2273C152.537 93.2273 152.251 93.3137 152.019 93.4865C151.787 93.657 151.611 93.8961 151.493 94.2038C151.375 94.5092 151.316 94.8655 151.316 95.2727ZM158.958 92.5455V93.2557H156.131V92.5455H158.958ZM156.955 91.2386H157.793V96.4375C157.793 96.6742 157.827 96.8518 157.896 96.9702C157.967 97.0862 158.057 97.1643 158.166 97.2045C158.277 97.2424 158.394 97.2614 158.517 97.2614C158.61 97.2614 158.685 97.2566 158.744 97.2472C158.804 97.2353 158.851 97.2259 158.887 97.2188L159.057 97.9716C159 97.9929 158.921 98.0142 158.819 98.0355C158.717 98.0592 158.588 98.071 158.432 98.071C158.195 98.071 157.963 98.0201 157.736 97.9183C157.511 97.8165 157.324 97.6615 157.175 97.4531C157.028 97.2448 156.955 96.982 156.955 96.6648V91.2386ZM160.829 98.0568C160.654 98.0568 160.503 97.9941 160.378 97.8686C160.253 97.7431 160.19 97.5928 160.19 97.4176C160.19 97.2424 160.253 97.0921 160.378 96.9666C160.503 96.8411 160.654 96.7784 160.829 96.7784C161.004 96.7784 161.155 96.8411 161.28 96.9666C161.405 97.0921 161.468 97.2424 161.468 97.4176C161.468 97.5336 161.439 97.6402 161.379 97.7372C161.323 97.8343 161.246 97.9124 161.149 97.9716C161.054 98.0284 160.947 98.0568 160.829 98.0568Z" fill="#333333"/>
</g>
<defs>
<clipPath id="clip0_8_3">
<rect width="156" height="48" fill="white" transform="translate(12 52)"/>
</clipPath>
</defs>
</svg>
